<?xml version="1.0" encoding="utf-8" standalone="no"?>
<!DOCTYPE svg PUBLIC "-//W3C//DTD SVG 1.1//EN"
  "http://www.w3.org/Graphics/SVG/1.1/DTD/svg11.dtd">
<svg xmlns:xlink="http://www.w3.org/1999/xlink" width="460.8pt" height="345.6pt" viewBox="0 0 460.8 345.6" xmlns="http://www.w3.org/2000/svg" version="1.1">
 <metadata>
  <rdf:RDF xmlns:dc="http://purl.org/dc/elements/1.1/" xmlns:cc="http://creativecommons.org/ns#" xmlns:rdf="http://www.w3.org/1999/02/22-rdf-syntax-ns#">
   <cc:Work>
    <dc:type rdf:resource="http://purl.org/dc/dcmitype/StillImage"/>
    <dc:date>2023-08-10T08:36:20.369517</dc:date>
    <dc:format>image/svg+xml</dc:format>
    <dc:creator>
     <cc:Agent>
      <dc:title>Matplotlib v3.5.2, https://matplotlib.org/</dc:title>
     </cc:Agent>
    </dc:creator>
   </cc:Work>
  </rdf:RDF>
 </metadata>
 <defs>
  <style type="text/css">*{stroke-linejoin: round; stroke-linecap: butt}</style>
 </defs>
 <g id="figure_1">
  <g id="patch_1">
   <path d="M 0 345.6 
L 460.8 345.6 
L 460.8 0 
L 0 0 
z
" style="fill: #ffffff"/>
  </g>
  <g id="axes_1">
   <g id="patch_2">
    <path d="M 57.6 307.584 
L 414.72 307.584 
L 414.72 41.472 
L 57.6 41.472 
z
" style="fill: #ffffff"/>
   </g>
   <g id="patch_3">
    <path d="M 73.832727 307.584 
L 74.592597 307.584 
L 74.592597 263.009329 
L 73.832727 263.009329 
z
" clip-path="url(#p979405bc61)" style="fill: #ff0000"/>
   </g>
   <g id="patch_4">
    <path d="M 74.782565 307.584 
L 75.542435 307.584 
L 75.542435 267.621525 
L 74.782565 267.621525 
z
" clip-path="url(#p979405bc61)" style="fill: #ff0000"/>
   </g>
   <g id="patch_5">
    <path d="M 75.732403 307.584 
L 76.492273 307.584 
L 76.492273 304.26301 
L 75.732403 304.26301 
z
" clip-path="url(#p979405bc61)" style="fill: #ff0000"/>
   </g>
   <g id="patch_6">
    <path d="M 76.682241 307.584 
L 77.442111 307.584 
L 77.442111 297.483378 
L 76.682241 297.483378 
z
" clip-path="url(#p979405bc61)" style="fill: #ff0000"/>
   </g>
   <g id="patch_7">
    <path d="M 77.632078 307.584 
L 78.391949 307.584 
L 78.391949 299.876594 
L 77.632078 299.876594 
z
" clip-path="url(#p979405bc61)" style="fill: #ff0000"/>
   </g>
   <g id="patch_8">
    <path d="M 78.581916 307.584 
L 79.341786 307.584 
L 79.341786 293.807658 
L 78.581916 293.807658 
z
" clip-path="url(#p979405bc61)" style="fill: #ff0000"/>
   </g>
   <g id="patch_9">
    <path d="M 79.531754 307.584 
L 80.291624 307.584 
L 80.291624 304.137191 
L 79.531754 304.137191 
z
" clip-path="url(#p979405bc61)" style="fill: #ff0000"/>
   </g>
   <g id="patch_10">
    <path d="M 80.481592 307.584 
L 81.241462 307.584 
L 81.241462 299.050596 
L 80.481592 299.050596 
z
" clip-path="url(#p979405bc61)" style="fill: #ff0000"/>
   </g>
   <g id="patch_11">
    <path d="M 81.431429 307.584 
L 82.1913 307.584 
L 82.1913 303.698131 
L 81.431429 303.698131 
z
" clip-path="url(#p979405bc61)" style="fill: #ff0000"/>
   </g>
   <g id="patch_12">
    <path d="M 82.381267 307.584 
L 83.141137 307.584 
L 83.141137 302.699386 
L 82.381267 302.699386 
z
" clip-path="url(#p979405bc61)" style="fill: #ff0000"/>
   </g>
   <g id="patch_13">
    <path d="M 83.331105 307.584 
L 84.090975 307.584 
L 84.090975 301.056719 
L 83.331105 301.056719 
z
" clip-path="url(#p979405bc61)" style="fill: #ff0000"/>
   </g>
   <g id="patch_14">
    <path d="M 84.280943 307.584 
L 85.040813 307.584 
L 85.040813 291.148462 
L 84.280943 291.148462 
z
" clip-path="url(#p979405bc61)" style="fill: #ff0000"/>
   </g>
   <g id="patch_15">
    <path d="M 85.23078 307.584 
L 85.990651 307.584 
L 85.990651 299.769163 
L 85.23078 299.769163 
z
" clip-path="url(#p979405bc61)" style="fill: #ff0000"/>
   </g>
   <g id="patch_16">
    <path d="M 86.180618 307.584 
L 86.940488 307.584 
L 86.940488 291.416809 
L 86.180618 291.416809 
z
" clip-path="url(#p979405bc61)" style="fill: #ff0000"/>
   </g>
   <g id="patch_17">
    <path d="M 87.130456 307.584 
L 87.890326 307.584 
L 87.890326 306.170378 
L 87.130456 306.170378 
z
" clip-path="url(#p979405bc61)" style="fill: #ff0000"/>
   </g>
   <g id="patch_18">
    <path d="M 88.080294 307.584 
L 88.840164 307.584 
L 88.840164 268.472435 
L 88.080294 268.472435 
z
" clip-path="url(#p979405bc61)" style="fill: #ff0000"/>
   </g>
   <g id="patch_19">
    <path d="M 89.030131 307.584 
L 89.790002 307.584 
L 89.790002 306.483065 
L 89.030131 306.483065 
z
" clip-path="url(#p979405bc61)" style="fill: #ff0000"/>
   </g>
   <g id="patch_20">
    <path d="M 89.979969 307.584 
L 90.739839 307.584 
L 90.739839 306.837863 
L 89.979969 306.837863 
z
" clip-path="url(#p979405bc61)" style="fill: #ff0000"/>
   </g>
   <g id="patch_21">
    <path d="M 90.929807 307.584 
L 91.689677 307.584 
L 91.689677 291.231133 
L 90.929807 291.231133 
z
" clip-path="url(#p979405bc61)" style="fill: #ff0000"/>
   </g>
   <g id="patch_22">
    <path d="M 91.879645 307.584 
L 92.639515 307.584 
L 92.639515 289.164563 
L 91.879645 289.164563 
z
" clip-path="url(#p979405bc61)" style="fill: #ff0000"/>
   </g>
   <g id="patch_23">
    <path d="M 92.829482 307.584 
L 93.589353 307.584 
L 93.589353 293.228425 
L 92.829482 293.228425 
z
" clip-path="url(#p979405bc61)" style="fill: #ff0000"/>
   </g>
   <g id="patch_24">
    <path d="M 93.77932 307.584 
L 94.53919 307.584 
L 94.53919 298.776872 
L 93.77932 298.776872 
z
" clip-path="url(#p979405bc61)" style="fill: #ff0000"/>
   </g>
   <g id="patch_25">
    <path d="M 94.729158 307.584 
L 95.489028 307.584 
L 95.489028 291.295848 
L 94.729158 291.295848 
z
" clip-path="url(#p979405bc61)" style="fill: #ff0000"/>
   </g>
   <g id="patch_26">
    <path d="M 95.678996 307.584 
L 96.438866 307.584 
L 96.438866 266.536164 
L 95.678996 266.536164 
z
" clip-path="url(#p979405bc61)" style="fill: #ff0000"/>
   </g>
   <g id="patch_27">
    <path d="M 96.628833 307.584 
L 97.388704 307.584 
L 97.388704 292.399143 
L 96.628833 292.399143 
z
" clip-path="url(#p979405bc61)" style="fill: #ff0000"/>
   </g>
   <g id="patch_28">
    <path d="M 97.578671 307.584 
L 98.338541 307.584 
L 98.338541 301.679018 
L 97.578671 301.679018 
z
" clip-path="url(#p979405bc61)" style="fill: #ff0000"/>
   </g>
   <g id="patch_29">
    <path d="M 98.528509 307.584 
L 99.288379 307.584 
L 99.288379 300.08628 
L 98.528509 300.08628 
z
" clip-path="url(#p979405bc61)" style="fill: #ff0000"/>
   </g>
   <g id="patch_30">
    <path d="M 99.478347 307.584 
L 100.238217 307.584 
L 100.238217 291.416506 
L 99.478347 291.416506 
z
" clip-path="url(#p979405bc61)" style="fill: #ff0000"/>
   </g>
   <g id="patch_31">
    <path d="M 100.428184 307.584 
L 101.188055 307.584 
L 101.188055 263.109665 
L 100.428184 263.109665 
z
" clip-path="url(#p979405bc61)" style="fill: #ff0000"/>
   </g>
   <g id="patch_32">
    <path d="M 101.378022 307.584 
L 102.137892 307.584 
L 102.137892 299.13099 
L 101.378022 299.13099 
z
" clip-path="url(#p979405bc61)" style="fill: #ff0000"/>
   </g>
   <g id="patch_33">
    <path d="M 102.32786 307.584 
L 103.08773 307.584 
L 103.08773 256.24303 
L 102.32786 256.24303 
z
" clip-path="url(#p979405bc61)" style="fill: #ff0000"/>
   </g>
   <g id="patch_34">
    <path d="M 103.277698 307.584 
L 104.037568 307.584 
L 104.037568 300.292637 
L 103.277698 300.292637 
z
" clip-path="url(#p979405bc61)" style="fill: #ff0000"/>
   </g>
   <g id="patch_35">
    <path d="M 104.227536 307.584 
L 104.987406 307.584 
L 104.987406 267.391688 
L 104.227536 267.391688 
z
" clip-path="url(#p979405bc61)" style="fill: #ff0000"/>
   </g>
   <g id="patch_36">
    <path d="M 105.177373 307.584 
L 105.937243 307.584 
L 105.937243 298.695608 
L 105.177373 298.695608 
z
" clip-path="url(#p979405bc61)" style="fill: #ff0000"/>
   </g>
   <g id="patch_37">
    <path d="M 106.127211 307.584 
L 106.887081 307.584 
L 106.887081 297.599677 
L 106.127211 297.599677 
z
" clip-path="url(#p979405bc61)" style="fill: #ff0000"/>
   </g>
   <g id="patch_38">
    <path d="M 107.077049 307.584 
L 107.836919 307.584 
L 107.836919 270.923948 
L 107.077049 270.923948 
z
" clip-path="url(#p979405bc61)" style="fill: #ff0000"/>
   </g>
   <g id="patch_39">
    <path d="M 108.026887 307.584 
L 108.786757 307.584 
L 108.786757 267.830407 
L 108.026887 267.830407 
z
" clip-path="url(#p979405bc61)" style="fill: #ff0000"/>
   </g>
   <g id="patch_40">
    <path d="M 108.976724 307.584 
L 109.736594 307.584 
L 109.736594 302.640276 
L 108.976724 302.640276 
z
" clip-path="url(#p979405bc61)" style="fill: #ff0000"/>
   </g>
   <g id="patch_41">
    <path d="M 109.926562 307.584 
L 110.686432 307.584 
L 110.686432 303.990936 
L 109.926562 303.990936 
z
" clip-path="url(#p979405bc61)" style="fill: #ff0000"/>
   </g>
   <g id="patch_42">
    <path d="M 110.8764 307.584 
L 111.63627 307.584 
L 111.63627 286.646855 
L 110.8764 286.646855 
z
" clip-path="url(#p979405bc61)" style="fill: #ff0000"/>
   </g>
   <g id="patch_43">
    <path d="M 111.826238 307.584 
L 112.586108 307.584 
L 112.586108 287.16943 
L 111.826238 287.16943 
z
" clip-path="url(#p979405bc61)" style="fill: #ff0000"/>
   </g>
   <g id="patch_44">
    <path d="M 112.776075 307.584 
L 113.535946 307.584 
L 113.535946 307.418616 
L 112.776075 307.418616 
z
" clip-path="url(#p979405bc61)" style="fill: #ff0000"/>
   </g>
   <g id="patch_45">
    <path d="M 113.725913 307.584 
L 114.485783 307.584 
L 114.485783 286.284816 
L 113.725913 286.284816 
z
" clip-path="url(#p979405bc61)" style="fill: #ff0000"/>
   </g>
   <g id="patch_46">
    <path d="M 114.675751 307.584 
L 115.435621 307.584 
L 115.435621 291.646822 
L 114.675751 291.646822 
z
" clip-path="url(#p979405bc61)" style="fill: #ff0000"/>
   </g>
   <g id="patch_47">
    <path d="M 115.625589 307.584 
L 116.385459 307.584 
L 116.385459 287.757469 
L 115.625589 287.757469 
z
" clip-path="url(#p979405bc61)" style="fill: #ff0000"/>
   </g>
   <g id="patch_48">
    <path d="M 116.575426 307.584 
L 117.335297 307.584 
L 117.335297 283.735881 
L 116.575426 283.735881 
z
" clip-path="url(#p979405bc61)" style="fill: #ff0000"/>
   </g>
   <g id="patch_49">
    <path d="M 117.525264 307.584 
L 118.285134 307.584 
L 118.285134 293.164104 
L 117.525264 293.164104 
z
" clip-path="url(#p979405bc61)" style="fill: #ff0000"/>
   </g>
   <g id="patch_50">
    <path d="M 118.475102 307.584 
L 119.234972 307.584 
L 119.234972 293.841188 
L 118.475102 293.841188 
z
" clip-path="url(#p979405bc61)" style="fill: #ff0000"/>
   </g>
   <g id="patch_51">
    <path d="M 119.42494 307.584 
L 120.18481 307.584 
L 120.18481 282.288784 
L 119.42494 282.288784 
z
" clip-path="url(#p979405bc61)" style="fill: #ff0000"/>
   </g>
   <g id="patch_52">
    <path d="M 120.374777 307.584 
L 121.134648 307.584 
L 121.134648 271.089327 
L 120.374777 271.089327 
z
" clip-path="url(#p979405bc61)" style="fill: #ff0000"/>
   </g>
   <g id="patch_53">
    <path d="M 121.324615 307.584 
L 122.084485 307.584 
L 122.084485 303.268522 
L 121.324615 303.268522 
z
" clip-path="url(#p979405bc61)" style="fill: #ff0000"/>
   </g>
   <g id="patch_54">
    <path d="M 122.274453 307.584 
L 123.034323 307.584 
L 123.034323 268.01647 
L 122.274453 268.01647 
z
" clip-path="url(#p979405bc61)" style="fill: #ff0000"/>
   </g>
   <g id="patch_55">
    <path d="M 123.224291 307.584 
L 123.984161 307.584 
L 123.984161 299.197969 
L 123.224291 299.197969 
z
" clip-path="url(#p979405bc61)" style="fill: #ff0000"/>
   </g>
   <g id="patch_56">
    <path d="M 124.174128 307.584 
L 124.933999 307.584 
L 124.933999 292.050004 
L 124.174128 292.050004 
z
" clip-path="url(#p979405bc61)" style="fill: #ff0000"/>
   </g>
   <g id="patch_57">
    <path d="M 125.123966 307.584 
L 125.883836 307.584 
L 125.883836 248.448 
L 125.123966 248.448 
z
" clip-path="url(#p979405bc61)" style="fill: #ff0000"/>
   </g>
   <g id="patch_58">
    <path d="M 126.073804 307.584 
L 126.833674 307.584 
L 126.833674 271.331846 
L 126.073804 271.331846 
z
" clip-path="url(#p979405bc61)" style="fill: #ff0000"/>
   </g>
   <g id="patch_59">
    <path d="M 127.023642 307.584 
L 127.783512 307.584 
L 127.783512 305.83744 
L 127.023642 305.83744 
z
" clip-path="url(#p979405bc61)" style="fill: #ff0000"/>
   </g>
   <g id="patch_60">
    <path d="M 127.973479 307.584 
L 128.73335 307.584 
L 128.73335 301.57052 
L 127.973479 301.57052 
z
" clip-path="url(#p979405bc61)" style="fill: #ff0000"/>
   </g>
   <g id="patch_61">
    <path d="M 128.923317 307.584 
L 129.683187 307.584 
L 129.683187 301.015388 
L 128.923317 301.015388 
z
" clip-path="url(#p979405bc61)" style="fill: #ff0000"/>
   </g>
   <g id="patch_62">
    <path d="M 129.873155 307.584 
L 130.633025 307.584 
L 130.633025 292.896661 
L 129.873155 292.896661 
z
" clip-path="url(#p979405bc61)" style="fill: #ff0000"/>
   </g>
   <g id="patch_63">
    <path d="M 130.822993 307.584 
L 131.582863 307.584 
L 131.582863 288.363407 
L 130.822993 288.363407 
z
" clip-path="url(#p979405bc61)" style="fill: #ff0000"/>
   </g>
   <g id="patch_64">
    <path d="M 131.77283 307.584 
L 132.532701 307.584 
L 132.532701 261.80052 
L 131.77283 261.80052 
z
" clip-path="url(#p979405bc61)" style="fill: #ff0000"/>
   </g>
   <g id="patch_65">
    <path d="M 132.722668 307.584 
L 133.482538 307.584 
L 133.482538 305.341714 
L 132.722668 305.341714 
z
" clip-path="url(#p979405bc61)" style="fill: #ff0000"/>
   </g>
   <g id="patch_66">
    <path d="M 133.672506 307.584 
L 134.432376 307.584 
L 134.432376 296.659708 
L 133.672506 296.659708 
z
" clip-path="url(#p979405bc61)" style="fill: #ff0000"/>
   </g>
   <g id="patch_67">
    <path d="M 134.622344 307.584 
L 135.382214 307.584 
L 135.382214 257.054111 
L 134.622344 257.054111 
z
" clip-path="url(#p979405bc61)" style="fill: #ff0000"/>
   </g>
   <g id="patch_68">
    <path d="M 135.572181 307.584 
L 136.332052 307.584 
L 136.332052 272.849275 
L 135.572181 272.849275 
z
" clip-path="url(#p979405bc61)" style="fill: #ff0000"/>
   </g>
   <g id="patch_69">
    <path d="M 136.522019 307.584 
L 137.281889 307.584 
L 137.281889 301.005888 
L 136.522019 301.005888 
z
" clip-path="url(#p979405bc61)" style="fill: #ff0000"/>
   </g>
   <g id="patch_70">
    <path d="M 137.471857 307.584 
L 138.231727 307.584 
L 138.231727 288.559071 
L 137.471857 288.559071 
z
" clip-path="url(#p979405bc61)" style="fill: #ff0000"/>
   </g>
   <g id="patch_71">
    <path d="M 138.421695 307.584 
L 139.181565 307.584 
L 139.181565 300.055604 
L 138.421695 300.055604 
z
" clip-path="url(#p979405bc61)" style="fill: #ff0000"/>
   </g>
   <g id="patch_72">
    <path d="M 139.371533 307.584 
L 140.131403 307.584 
L 140.131403 286.247772 
L 139.371533 286.247772 
z
" clip-path="url(#p979405bc61)" style="fill: #ff0000"/>
   </g>
   <g id="patch_73">
    <path d="M 140.32137 307.584 
L 141.08124 307.584 
L 141.08124 302.914809 
L 140.32137 302.914809 
z
" clip-path="url(#p979405bc61)" style="fill: #ff0000"/>
   </g>
   <g id="patch_74">
    <path d="M 141.271208 307.584 
L 142.031078 307.584 
L 142.031078 281.19821 
L 141.271208 281.19821 
z
" clip-path="url(#p979405bc61)" style="fill: #ff0000"/>
   </g>
   <g id="patch_75">
    <path d="M 142.221046 307.584 
L 142.980916 307.584 
L 142.980916 288.39118 
L 142.221046 288.39118 
z
" clip-path="url(#p979405bc61)" style="fill: #ff0000"/>
   </g>
   <g id="patch_76">
    <path d="M 143.170884 307.584 
L 143.930754 307.584 
L 143.930754 248.448 
L 143.170884 248.448 
z
" clip-path="url(#p979405bc61)" style="fill: #ff0000"/>
   </g>
   <g id="patch_77">
    <path d="M 144.120721 307.584 
L 144.880592 307.584 
L 144.880592 248.448 
L 144.120721 248.448 
z
" clip-path="url(#p979405bc61)" style="fill: #ff0000"/>
   </g>
   <g id="patch_78">
    <path d="M 145.070559 307.584 
L 145.830429 307.584 
L 145.830429 268.534383 
L 145.070559 268.534383 
z
" clip-path="url(#p979405bc61)" style="fill: #ff0000"/>
   </g>
   <g id="patch_79">
    <path d="M 146.020397 307.584 
L 146.780267 307.584 
L 146.780267 306.688651 
L 146.020397 306.688651 
z
" clip-path="url(#p979405bc61)" style="fill: #ff0000"/>
   </g>
   <g id="patch_80">
    <path d="M 146.970235 307.584 
L 147.730105 307.584 
L 147.730105 285.274562 
L 146.970235 285.274562 
z
" clip-path="url(#p979405bc61)" style="fill: #ff0000"/>
   </g>
   <g id="patch_81">
    <path d="M 147.920072 307.584 
L 148.679943 307.584 
L 148.679943 293.698751 
L 147.920072 293.698751 
z
" clip-path="url(#p979405bc61)" style="fill: #ff0000"/>
   </g>
   <g id="patch_82">
    <path d="M 148.86991 307.584 
L 149.62978 307.584 
L 149.62978 304.726903 
L 148.86991 304.726903 
z
" clip-path="url(#p979405bc61)" style="fill: #ff0000"/>
   </g>
   <g id="patch_83">
    <path d="M 149.819748 307.584 
L 150.579618 307.584 
L 150.579618 293.376874 
L 149.819748 293.376874 
z
" clip-path="url(#p979405bc61)" style="fill: #ff0000"/>
   </g>
   <g id="patch_84">
    <path d="M 150.769586 307.584 
L 151.529456 307.584 
L 151.529456 298.904096 
L 150.769586 298.904096 
z
" clip-path="url(#p979405bc61)" style="fill: #ff0000"/>
   </g>
   <g id="patch_85">
    <path d="M 151.719423 307.584 
L 152.479294 307.584 
L 152.479294 302.32424 
L 151.719423 302.32424 
z
" clip-path="url(#p979405bc61)" style="fill: #ff0000"/>
   </g>
   <g id="patch_86">
    <path d="M 152.669261 307.584 
L 153.429131 307.584 
L 153.429131 304.933039 
L 152.669261 304.933039 
z
" clip-path="url(#p979405bc61)" style="fill: #ff0000"/>
   </g>
   <g id="patch_87">
    <path d="M 153.619099 307.584 
L 154.378969 307.584 
L 154.378969 272.998292 
L 153.619099 272.998292 
z
" clip-path="url(#p979405bc61)" style="fill: #ff0000"/>
   </g>
   <g id="patch_88">
    <path d="M 154.568937 307.584 
L 155.328807 307.584 
L 155.328807 301.110112 
L 154.568937 301.110112 
z
" clip-path="url(#p979405bc61)" style="fill: #ff0000"/>
   </g>
   <g id="patch_89">
    <path d="M 155.518774 307.584 
L 156.278645 307.584 
L 156.278645 304.664625 
L 155.518774 304.664625 
z
" clip-path="url(#p979405bc61)" style="fill: #ff0000"/>
   </g>
   <g id="patch_90">
    <path d="M 156.468612 307.584 
L 157.228482 307.584 
L 157.228482 291.080401 
L 156.468612 291.080401 
z
" clip-path="url(#p979405bc61)" style="fill: #ff0000"/>
   </g>
   <g id="patch_91">
    <path d="M 157.41845 307.584 
L 158.17832 307.584 
L 158.17832 298.168996 
L 157.41845 298.168996 
z
" clip-path="url(#p979405bc61)" style="fill: #ff0000"/>
   </g>
   <g id="patch_92">
    <path d="M 158.368288 307.584 
L 159.128158 307.584 
L 159.128158 298.793461 
L 158.368288 298.793461 
z
" clip-path="url(#p979405bc61)" style="fill: #ff0000"/>
   </g>
   <g id="patch_93">
    <path d="M 159.318125 307.584 
L 160.077996 307.584 
L 160.077996 300.447978 
L 159.318125 300.447978 
z
" clip-path="url(#p979405bc61)" style="fill: #ff0000"/>
   </g>
   <g id="patch_94">
    <path d="M 160.267963 307.584 
L 161.027833 307.584 
L 161.027833 304.217512 
L 160.267963 304.217512 
z
" clip-path="url(#p979405bc61)" style="fill: #ff0000"/>
   </g>
   <g id="patch_95">
    <path d="M 161.217801 307.584 
L 161.977671 307.584 
L 161.977671 303.0785 
L 161.217801 303.0785 
z
" clip-path="url(#p979405bc61)" style="fill: #ff0000"/>
   </g>
   <g id="patch_96">
    <path d="M 162.167639 307.584 
L 162.927509 307.584 
L 162.927509 300.832239 
L 162.167639 300.832239 
z
" clip-path="url(#p979405bc61)" style="fill: #ff0000"/>
   </g>
   <g id="patch_97">
    <path d="M 163.117476 307.584 
L 163.877347 307.584 
L 163.877347 305.068261 
L 163.117476 305.068261 
z
" clip-path="url(#p979405bc61)" style="fill: #ff0000"/>
   </g>
   <g id="patch_98">
    <path d="M 164.067314 307.584 
L 164.827184 307.584 
L 164.827184 274.894486 
L 164.067314 274.894486 
z
" clip-path="url(#p979405bc61)" style="fill: #ff0000"/>
   </g>
   <g id="patch_99">
    <path d="M 165.017152 307.584 
L 165.777022 307.584 
L 165.777022 300.886939 
L 165.017152 300.886939 
z
" clip-path="url(#p979405bc61)" style="fill: #ff0000"/>
   </g>
   <g id="patch_100">
    <path d="M 165.96699 307.584 
L 166.72686 307.584 
L 166.72686 248.448 
L 165.96699 248.448 
z
" clip-path="url(#p979405bc61)" style="fill: #ff0000"/>
   </g>
   <g id="patch_101">
    <path d="M 166.916827 307.584 
L 167.676698 307.584 
L 167.676698 288.601955 
L 166.916827 288.601955 
z
" clip-path="url(#p979405bc61)" style="fill: #ff0000"/>
   </g>
   <g id="patch_102">
    <path d="M 167.866665 307.584 
L 168.626535 307.584 
L 168.626535 277.920288 
L 167.866665 277.920288 
z
" clip-path="url(#p979405bc61)" style="fill: #ff0000"/>
   </g>
   <g id="patch_103">
    <path d="M 168.816503 307.584 
L 169.576373 307.584 
L 169.576373 295.730283 
L 168.816503 295.730283 
z
" clip-path="url(#p979405bc61)" style="fill: #ff0000"/>
   </g>
   <g id="patch_104">
    <path d="M 169.766341 307.584 
L 170.526211 307.584 
L 170.526211 289.051017 
L 169.766341 289.051017 
z
" clip-path="url(#p979405bc61)" style="fill: #ff0000"/>
   </g>
   <g id="patch_105">
    <path d="M 170.716179 307.584 
L 171.476049 307.584 
L 171.476049 267.833629 
L 170.716179 267.833629 
z
" clip-path="url(#p979405bc61)" style="fill: #ff0000"/>
   </g>
   <g id="patch_106">
    <path d="M 171.666016 307.584 
L 172.425886 307.584 
L 172.425886 303.322739 
L 171.666016 303.322739 
z
" clip-path="url(#p979405bc61)" style="fill: #ff0000"/>
   </g>
   <g id="patch_107">
    <path d="M 172.615854 307.584 
L 173.375724 307.584 
L 173.375724 295.815883 
L 172.615854 295.815883 
z
" clip-path="url(#p979405bc61)" style="fill: #ff0000"/>
   </g>
   <g id="patch_108">
    <path d="M 173.565692 307.584 
L 174.325562 307.584 
L 174.325562 300.727051 
L 173.565692 300.727051 
z
" clip-path="url(#p979405bc61)" style="fill: #ff0000"/>
   </g>
   <g id="patch_109">
    <path d="M 174.51553 307.584 
L 175.2754 307.584 
L 175.2754 273.215743 
L 174.51553 273.215743 
z
" clip-path="url(#p979405bc61)" style="fill: #ff0000"/>
   </g>
   <g id="patch_110">
    <path d="M 175.465367 307.584 
L 176.225238 307.584 
L 176.225238 301.635396 
L 175.465367 301.635396 
z
" clip-path="url(#p979405bc61)" style="fill: #ff0000"/>
   </g>
   <g id="patch_111">
    <path d="M 176.415205 307.584 
L 177.175075 307.584 
L 177.175075 304.988673 
L 176.415205 304.988673 
z
" clip-path="url(#p979405bc61)" style="fill: #ff0000"/>
   </g>
   <g id="patch_112">
    <path d="M 177.365043 307.584 
L 178.124913 307.584 
L 178.124913 298.418203 
L 177.365043 298.418203 
z
" clip-path="url(#p979405bc61)" style="fill: #ff0000"/>
   </g>
   <g id="patch_113">
    <path d="M 178.314881 307.584 
L 179.074751 307.584 
L 179.074751 299.596455 
L 178.314881 299.596455 
z
" clip-path="url(#p979405bc61)" style="fill: #ff0000"/>
   </g>
   <g id="patch_114">
    <path d="M 179.264718 307.584 
L 180.024589 307.584 
L 180.024589 305.448997 
L 179.264718 305.448997 
z
" clip-path="url(#p979405bc61)" style="fill: #ff0000"/>
   </g>
   <g id="patch_115">
    <path d="M 180.214556 307.584 
L 180.974426 307.584 
L 180.974426 298.836361 
L 180.214556 298.836361 
z
" clip-path="url(#p979405bc61)" style="fill: #ff0000"/>
   </g>
   <g id="patch_116">
    <path d="M 181.164394 307.584 
L 181.924264 307.584 
L 181.924264 254.019021 
L 181.164394 254.019021 
z
" clip-path="url(#p979405bc61)" style="fill: #ff0000"/>
   </g>
   <g id="patch_117">
    <path d="M 182.114232 307.584 
L 182.874102 307.584 
L 182.874102 297.768014 
L 182.114232 297.768014 
z
" clip-path="url(#p979405bc61)" style="fill: #ff0000"/>
   </g>
   <g id="patch_118">
    <path d="M 183.064069 307.584 
L 183.82394 307.584 
L 183.82394 305.24486 
L 183.064069 305.24486 
z
" clip-path="url(#p979405bc61)" style="fill: #ff0000"/>
   </g>
   <g id="patch_119">
    <path d="M 184.013907 307.584 
L 184.773777 307.584 
L 184.773777 283.825939 
L 184.013907 283.825939 
z
" clip-path="url(#p979405bc61)" style="fill: #ff0000"/>
   </g>
   <g id="patch_120">
    <path d="M 184.963745 307.584 
L 185.723615 307.584 
L 185.723615 284.752512 
L 184.963745 284.752512 
z
" clip-path="url(#p979405bc61)" style="fill: #ff0000"/>
   </g>
   <g id="patch_121">
    <path d="M 185.913583 307.584 
L 186.673453 307.584 
L 186.673453 260.396135 
L 185.913583 260.396135 
z
" clip-path="url(#p979405bc61)" style="fill: #ff0000"/>
   </g>
   <g id="patch_122">
    <path d="M 186.86342 307.584 
L 187.623291 307.584 
L 187.623291 300.599956 
L 186.86342 300.599956 
z
" clip-path="url(#p979405bc61)" style="fill: #ff0000"/>
   </g>
   <g id="patch_123">
    <path d="M 187.813258 307.584 
L 188.573128 307.584 
L 188.573128 283.228308 
L 187.813258 283.228308 
z
" clip-path="url(#p979405bc61)" style="fill: #ff0000"/>
   </g>
   <g id="patch_124">
    <path d="M 188.763096 307.584 
L 189.522966 307.584 
L 189.522966 303.318355 
L 188.763096 303.318355 
z
" clip-path="url(#p979405bc61)" style="fill: #ff0000"/>
   </g>
   <g id="patch_125">
    <path d="M 189.712934 307.584 
L 190.472804 307.584 
L 190.472804 280.765522 
L 189.712934 280.765522 
z
" clip-path="url(#p979405bc61)" style="fill: #ff0000"/>
   </g>
   <g id="patch_126">
    <path d="M 190.662771 307.584 
L 191.422642 307.584 
L 191.422642 277.55775 
L 190.662771 277.55775 
z
" clip-path="url(#p979405bc61)" style="fill: #ff0000"/>
   </g>
   <g id="patch_127">
    <path d="M 191.612609 307.584 
L 192.372479 307.584 
L 192.372479 302.28694 
L 191.612609 302.28694 
z
" clip-path="url(#p979405bc61)" style="fill: #ff0000"/>
   </g>
   <g id="patch_128">
    <path d="M 192.562447 307.584 
L 193.322317 307.584 
L 193.322317 256.197081 
L 192.562447 256.197081 
z
" clip-path="url(#p979405bc61)" style="fill: #ff0000"/>
   </g>
   <g id="patch_129">
    <path d="M 193.512285 307.584 
L 194.272155 307.584 
L 194.272155 289.148382 
L 193.512285 289.148382 
z
" clip-path="url(#p979405bc61)" style="fill: #ff0000"/>
   </g>
   <g id="patch_130">
    <path d="M 194.462122 307.584 
L 195.221993 307.584 
L 195.221993 302.580433 
L 194.462122 302.580433 
z
" clip-path="url(#p979405bc61)" style="fill: #ff0000"/>
   </g>
   <g id="patch_131">
    <path d="M 195.41196 307.584 
L 196.17183 307.584 
L 196.17183 304.773719 
L 195.41196 304.773719 
z
" clip-path="url(#p979405bc61)" style="fill: #ff0000"/>
   </g>
   <g id="patch_132">
    <path d="M 196.361798 307.584 
L 197.121668 307.584 
L 197.121668 263.220389 
L 196.361798 263.220389 
z
" clip-path="url(#p979405bc61)" style="fill: #ff0000"/>
   </g>
   <g id="patch_133">
    <path d="M 197.311636 307.584 
L 198.071506 307.584 
L 198.071506 278.659977 
L 197.311636 278.659977 
z
" clip-path="url(#p979405bc61)" style="fill: #ff0000"/>
   </g>
   <g id="patch_134">
    <path d="M 198.261473 307.584 
L 199.021344 307.584 
L 199.021344 304.167546 
L 198.261473 304.167546 
z
" clip-path="url(#p979405bc61)" style="fill: #ff0000"/>
   </g>
   <g id="patch_135">
    <path d="M 199.211311 307.584 
L 199.971181 307.584 
L 199.971181 250.747905 
L 199.211311 250.747905 
z
" clip-path="url(#p979405bc61)" style="fill: #ff0000"/>
   </g>
   <g id="patch_136">
    <path d="M 200.161149 307.584 
L 200.921019 307.584 
L 200.921019 300.2509 
L 200.161149 300.2509 
z
" clip-path="url(#p979405bc61)" style="fill: #ff0000"/>
   </g>
   <g id="patch_137">
    <path d="M 201.110987 307.584 
L 201.870857 307.584 
L 201.870857 306.046016 
L 201.110987 306.046016 
z
" clip-path="url(#p979405bc61)" style="fill: #ff0000"/>
   </g>
   <g id="patch_138">
    <path d="M 202.060825 307.584 
L 202.820695 307.584 
L 202.820695 293.46022 
L 202.060825 293.46022 
z
" clip-path="url(#p979405bc61)" style="fill: #ff0000"/>
   </g>
   <g id="patch_139">
    <path d="M 203.010662 307.584 
L 203.770532 307.584 
L 203.770532 306.391568 
L 203.010662 306.391568 
z
" clip-path="url(#p979405bc61)" style="fill: #ff0000"/>
   </g>
   <g id="patch_140">
    <path d="M 203.9605 307.584 
L 204.72037 307.584 
L 204.72037 303.749924 
L 203.9605 303.749924 
z
" clip-path="url(#p979405bc61)" style="fill: #ff0000"/>
   </g>
   <g id="patch_141">
    <path d="M 204.910338 307.584 
L 205.670208 307.584 
L 205.670208 272.127996 
L 204.910338 272.127996 
z
" clip-path="url(#p979405bc61)" style="fill: #ff0000"/>
   </g>
   <g id="patch_142">
    <path d="M 205.860176 307.584 
L 206.620046 307.584 
L 206.620046 304.14787 
L 205.860176 304.14787 
z
" clip-path="url(#p979405bc61)" style="fill: #ff0000"/>
   </g>
   <g id="patch_143">
    <path d="M 206.810013 307.584 
L 207.569884 307.584 
L 207.569884 302.23686 
L 206.810013 302.23686 
z
" clip-path="url(#p979405bc61)" style="fill: #ff0000"/>
   </g>
   <g id="patch_144">
    <path d="M 207.759851 307.584 
L 208.519721 307.584 
L 208.519721 270.206208 
L 207.759851 270.206208 
z
" clip-path="url(#p979405bc61)" style="fill: #ff0000"/>
   </g>
   <g id="patch_145">
    <path d="M 208.709689 307.584 
L 209.469559 307.584 
L 209.469559 296.486636 
L 208.709689 296.486636 
z
" clip-path="url(#p979405bc61)" style="fill: #ff0000"/>
   </g>
   <g id="patch_146">
    <path d="M 209.659527 307.584 
L 210.419397 307.584 
L 210.419397 296.8422 
L 209.659527 296.8422 
z
" clip-path="url(#p979405bc61)" style="fill: #ff0000"/>
   </g>
   <g id="patch_147">
    <path d="M 210.609364 307.584 
L 211.369235 307.584 
L 211.369235 306.153857 
L 210.609364 306.153857 
z
" clip-path="url(#p979405bc61)" style="fill: #ff0000"/>
   </g>
   <g id="patch_148">
    <path d="M 211.559202 307.584 
L 212.319072 307.584 
L 212.319072 307.464644 
L 211.559202 307.464644 
z
" clip-path="url(#p979405bc61)" style="fill: #ff0000"/>
   </g>
   <g id="patch_149">
    <path d="M 212.50904 307.584 
L 213.26891 307.584 
L 213.26891 280.661822 
L 212.50904 280.661822 
z
" clip-path="url(#p979405bc61)" style="fill: #ff0000"/>
   </g>
   <g id="patch_150">
    <path d="M 213.458878 307.584 
L 214.218748 307.584 
L 214.218748 266.100611 
L 213.458878 266.100611 
z
" clip-path="url(#p979405bc61)" style="fill: #ff0000"/>
   </g>
   <g id="patch_151">
    <path d="M 214.408715 307.584 
L 215.168586 307.584 
L 215.168586 303.485155 
L 214.408715 303.485155 
z
" clip-path="url(#p979405bc61)" style="fill: #ff0000"/>
   </g>
   <g id="patch_152">
    <path d="M 215.358553 307.584 
L 216.118423 307.584 
L 216.118423 251.172377 
L 215.358553 251.172377 
z
" clip-path="url(#p979405bc61)" style="fill: #ff0000"/>
   </g>
   <g id="patch_153">
    <path d="M 216.308391 307.584 
L 217.068261 307.584 
L 217.068261 287.162914 
L 216.308391 287.162914 
z
" clip-path="url(#p979405bc61)" style="fill: #ff0000"/>
   </g>
   <g id="patch_154">
    <path d="M 217.258229 307.584 
L 218.018099 307.584 
L 218.018099 306.895827 
L 217.258229 306.895827 
z
" clip-path="url(#p979405bc61)" style="fill: #ff0000"/>
   </g>
   <g id="patch_155">
    <path d="M 218.208066 307.584 
L 218.967937 307.584 
L 218.967937 302.490543 
L 218.208066 302.490543 
z
" clip-path="url(#p979405bc61)" style="fill: #ff0000"/>
   </g>
   <g id="patch_156">
    <path d="M 219.157904 307.584 
L 219.917774 307.584 
L 219.917774 307.246237 
L 219.157904 307.246237 
z
" clip-path="url(#p979405bc61)" style="fill: #ff0000"/>
   </g>
   <g id="patch_157">
    <path d="M 220.107742 307.584 
L 220.867612 307.584 
L 220.867612 254.41669 
L 220.107742 254.41669 
z
" clip-path="url(#p979405bc61)" style="fill: #ff0000"/>
   </g>
   <g id="patch_158">
    <path d="M 221.05758 307.584 
L 221.81745 307.584 
L 221.81745 301.371597 
L 221.05758 301.371597 
z
" clip-path="url(#p979405bc61)" style="fill: #ff0000"/>
   </g>
   <g id="patch_159">
    <path d="M 222.007417 307.584 
L 222.767288 307.584 
L 222.767288 305.865636 
L 222.007417 305.865636 
z
" clip-path="url(#p979405bc61)" style="fill: #ff0000"/>
   </g>
   <g id="patch_160">
    <path d="M 222.957255 307.584 
L 223.717125 307.584 
L 223.717125 306.472445 
L 222.957255 306.472445 
z
" clip-path="url(#p979405bc61)" style="fill: #ff0000"/>
   </g>
   <g id="patch_161">
    <path d="M 223.907093 307.584 
L 224.666963 307.584 
L 224.666963 298.614434 
L 223.907093 298.614434 
z
" clip-path="url(#p979405bc61)" style="fill: #ff0000"/>
   </g>
   <g id="patch_162">
    <path d="M 224.856931 307.584 
L 225.616801 307.584 
L 225.616801 303.978058 
L 224.856931 303.978058 
z
" clip-path="url(#p979405bc61)" style="fill: #ff0000"/>
   </g>
   <g id="patch_163">
    <path d="M 225.806768 307.584 
L 226.566639 307.584 
L 226.566639 304.403943 
L 225.806768 304.403943 
z
" clip-path="url(#p979405bc61)" style="fill: #ff0000"/>
   </g>
   <g id="patch_164">
    <path d="M 226.756606 307.584 
L 227.516476 307.584 
L 227.516476 271.70929 
L 226.756606 271.70929 
z
" clip-path="url(#p979405bc61)" style="fill: #ff0000"/>
   </g>
   <g id="patch_165">
    <path d="M 227.706444 307.584 
L 228.466314 307.584 
L 228.466314 304.742145 
L 227.706444 304.742145 
z
" clip-path="url(#p979405bc61)" style="fill: #ff0000"/>
   </g>
   <g id="patch_166">
    <path d="M 228.656282 307.584 
L 229.416152 307.584 
L 229.416152 295.898911 
L 228.656282 295.898911 
z
" clip-path="url(#p979405bc61)" style="fill: #ff0000"/>
   </g>
   <g id="patch_167">
    <path d="M 229.606119 307.584 
L 230.36599 307.584 
L 230.36599 306.91673 
L 229.606119 306.91673 
z
" clip-path="url(#p979405bc61)" style="fill: #ff0000"/>
   </g>
   <g id="patch_168">
    <path d="M 230.555957 307.584 
L 231.315827 307.584 
L 231.315827 307.092339 
L 230.555957 307.092339 
z
" clip-path="url(#p979405bc61)" style="fill: #ff0000"/>
   </g>
   <g id="patch_169">
    <path d="M 231.505795 307.584 
L 232.265665 307.584 
L 232.265665 299.219006 
L 231.505795 299.219006 
z
" clip-path="url(#p979405bc61)" style="fill: #ff0000"/>
   </g>
   <g id="patch_170">
    <path d="M 232.455633 307.584 
L 233.215503 307.584 
L 233.215503 297.556472 
L 232.455633 297.556472 
z
" clip-path="url(#p979405bc61)" style="fill: #ff0000"/>
   </g>
   <g id="patch_171">
    <path d="M 233.405471 307.584 
L 234.165341 307.584 
L 234.165341 307.108018 
L 233.405471 307.108018 
z
" clip-path="url(#p979405bc61)" style="fill: #ff0000"/>
   </g>
   <g id="patch_172">
    <path d="M 234.355308 307.584 
L 235.115178 307.584 
L 235.115178 307.100544 
L 234.355308 307.100544 
z
" clip-path="url(#p979405bc61)" style="fill: #ff0000"/>
   </g>
   <g id="patch_173">
    <path d="M 235.305146 307.584 
L 236.065016 307.584 
L 236.065016 301.667104 
L 235.305146 301.667104 
z
" clip-path="url(#p979405bc61)" style="fill: #ff0000"/>
   </g>
   <g id="patch_174">
    <path d="M 236.254984 307.584 
L 237.014854 307.584 
L 237.014854 304.393278 
L 236.254984 304.393278 
z
" clip-path="url(#p979405bc61)" style="fill: #ff0000"/>
   </g>
   <g id="patch_175">
    <path d="M 237.204822 307.584 
L 237.964692 307.584 
L 237.964692 306.864277 
L 237.204822 306.864277 
z
" clip-path="url(#p979405bc61)" style="fill: #ff0000"/>
   </g>
   <g id="patch_176">
    <path d="M 238.154659 307.584 
L 238.914529 307.584 
L 238.914529 301.795644 
L 238.154659 301.795644 
z
" clip-path="url(#p979405bc61)" style="fill: #ff0000"/>
   </g>
   <g id="patch_177">
    <path d="M 239.104497 307.584 
L 239.864367 307.584 
L 239.864367 281.22266 
L 239.104497 281.22266 
z
" clip-path="url(#p979405bc61)" style="fill: #ff0000"/>
   </g>
   <g id="patch_178">
    <path d="M 240.054335 307.584 
L 240.814205 307.584 
L 240.814205 304.79928 
L 240.054335 304.79928 
z
" clip-path="url(#p979405bc61)" style="fill: #ff0000"/>
   </g>
   <g id="patch_179">
    <path d="M 241.004173 307.584 
L 241.764043 307.584 
L 241.764043 271.168653 
L 241.004173 271.168653 
z
" clip-path="url(#p979405bc61)" style="fill: #ff0000"/>
   </g>
   <g id="patch_180">
    <path d="M 241.95401 307.584 
L 242.713881 307.584 
L 242.713881 304.538696 
L 241.95401 304.538696 
z
" clip-path="url(#p979405bc61)" style="fill: #ff0000"/>
   </g>
   <g id="patch_181">
    <path d="M 242.903848 307.584 
L 243.663718 307.584 
L 243.663718 248.448 
L 242.903848 248.448 
z
" clip-path="url(#p979405bc61)" style="fill: #ff0000"/>
   </g>
   <g id="patch_182">
    <path d="M 243.853686 307.584 
L 244.613556 307.584 
L 244.613556 299.416562 
L 243.853686 299.416562 
z
" clip-path="url(#p979405bc61)" style="fill: #ff0000"/>
   </g>
   <g id="patch_183">
    <path d="M 244.803524 307.584 
L 245.563394 307.584 
L 245.563394 248.448 
L 244.803524 248.448 
z
" clip-path="url(#p979405bc61)" style="fill: #ff0000"/>
   </g>
   <g id="patch_184">
    <path d="M 245.753361 307.584 
L 246.513232 307.584 
L 246.513232 298.440323 
L 245.753361 298.440323 
z
" clip-path="url(#p979405bc61)" style="fill: #ff0000"/>
   </g>
   <g id="patch_185">
    <path d="M 246.703199 307.584 
L 247.463069 307.584 
L 247.463069 300.859264 
L 246.703199 300.859264 
z
" clip-path="url(#p979405bc61)" style="fill: #ff0000"/>
   </g>
   <g id="patch_186">
    <path d="M 247.653037 307.584 
L 248.412907 307.584 
L 248.412907 304.246673 
L 247.653037 304.246673 
z
" clip-path="url(#p979405bc61)" style="fill: #ff0000"/>
   </g>
   <g id="patch_187">
    <path d="M 248.602875 307.584 
L 249.362745 307.584 
L 249.362745 260.158878 
L 248.602875 260.158878 
z
" clip-path="url(#p979405bc61)" style="fill: #ff0000"/>
   </g>
   <g id="patch_188">
    <path d="M 249.552712 307.584 
L 250.312583 307.584 
L 250.312583 287.195432 
L 249.552712 287.195432 
z
" clip-path="url(#p979405bc61)" style="fill: #ff0000"/>
   </g>
   <g id="patch_189">
    <path d="M 250.50255 307.584 
L 251.26242 307.584 
L 251.26242 296.127342 
L 250.50255 296.127342 
z
" clip-path="url(#p979405bc61)" style="fill: #ff0000"/>
   </g>
   <g id="patch_190">
    <path d="M 251.452388 307.584 
L 252.212258 307.584 
L 252.212258 304.88841 
L 251.452388 304.88841 
z
" clip-path="url(#p979405bc61)" style="fill: #ff0000"/>
   </g>
   <g id="patch_191">
    <path d="M 252.402226 307.584 
L 253.162096 307.584 
L 253.162096 299.659978 
L 252.402226 299.659978 
z
" clip-path="url(#p979405bc61)" style="fill: #ff0000"/>
   </g>
   <g id="patch_192">
    <path d="M 253.352063 307.584 
L 254.111934 307.584 
L 254.111934 305.064385 
L 253.352063 305.064385 
z
" clip-path="url(#p979405bc61)" style="fill: #ff0000"/>
   </g>
   <g id="patch_193">
    <path d="M 254.301901 307.584 
L 255.061771 307.584 
L 255.061771 283.878353 
L 254.301901 283.878353 
z
" clip-path="url(#p979405bc61)" style="fill: #ff0000"/>
   </g>
   <g id="patch_194">
    <path d="M 255.251739 307.584 
L 256.011609 307.584 
L 256.011609 284.169311 
L 255.251739 284.169311 
z
" clip-path="url(#p979405bc61)" style="fill: #ff0000"/>
   </g>
   <g id="patch_195">
    <path d="M 256.201577 307.584 
L 256.961447 307.584 
L 256.961447 248.448 
L 256.201577 248.448 
z
" clip-path="url(#p979405bc61)" style="fill: #ff0000"/>
   </g>
   <g id="patch_196">
    <path d="M 257.151414 307.584 
L 257.911285 307.584 
L 257.911285 290.290912 
L 257.151414 290.290912 
z
" clip-path="url(#p979405bc61)" style="fill: #ff0000"/>
   </g>
   <g id="patch_197">
    <path d="M 258.101252 307.584 
L 258.861122 307.584 
L 258.861122 261.467996 
L 258.101252 261.467996 
z
" clip-path="url(#p979405bc61)" style="fill: #ff0000"/>
   </g>
   <g id="patch_198">
    <path d="M 259.05109 307.584 
L 259.81096 307.584 
L 259.81096 269.749657 
L 259.05109 269.749657 
z
" clip-path="url(#p979405bc61)" style="fill: #ff0000"/>
   </g>
   <g id="patch_199">
    <path d="M 260.000928 307.584 
L 260.760798 307.584 
L 260.760798 284.104899 
L 260.000928 284.104899 
z
" clip-path="url(#p979405bc61)" style="fill: #ff0000"/>
   </g>
   <g id="patch_200">
    <path d="M 260.950765 307.584 
L 261.710636 307.584 
L 261.710636 290.543769 
L 260.950765 290.543769 
z
" clip-path="url(#p979405bc61)" style="fill: #ff0000"/>
   </g>
   <g id="patch_201">
    <path d="M 261.900603 307.584 
L 262.660473 307.584 
L 262.660473 253.993833 
L 261.900603 253.993833 
z
" clip-path="url(#p979405bc61)" style="fill: #ff0000"/>
   </g>
   <g id="patch_202">
    <path d="M 262.850441 307.584 
L 263.610311 307.584 
L 263.610311 248.448 
L 262.850441 248.448 
z
" clip-path="url(#p979405bc61)" style="fill: #ff0000"/>
   </g>
   <g id="patch_203">
    <path d="M 263.800279 307.584 
L 264.560149 307.584 
L 264.560149 248.448 
L 263.800279 248.448 
z
" clip-path="url(#p979405bc61)" style="fill: #ff0000"/>
   </g>
   <g id="patch_204">
    <path d="M 264.750116 307.584 
L 265.509987 307.584 
L 265.509987 278.845603 
L 264.750116 278.845603 
z
" clip-path="url(#p979405bc61)" style="fill: #ff0000"/>
   </g>
   <g id="patch_205">
    <path d="M 265.699954 307.584 
L 266.459824 307.584 
L 266.459824 248.448 
L 265.699954 248.448 
z
" clip-path="url(#p979405bc61)" style="fill: #ff0000"/>
   </g>
   <g id="patch_206">
    <path d="M 266.649792 307.584 
L 267.409662 307.584 
L 267.409662 294.992819 
L 266.649792 294.992819 
z
" clip-path="url(#p979405bc61)" style="fill: #ff0000"/>
   </g>
   <g id="patch_207">
    <path d="M 267.59963 307.584 
L 268.3595 307.584 
L 268.3595 268.917157 
L 267.59963 268.917157 
z
" clip-path="url(#p979405bc61)" style="fill: #ff0000"/>
   </g>
   <g id="patch_208">
    <path d="M 268.549468 307.584 
L 269.309338 307.584 
L 269.309338 284.148929 
L 268.549468 284.148929 
z
" clip-path="url(#p979405bc61)" style="fill: #ff0000"/>
   </g>
   <g id="patch_209">
    <path d="M 269.499305 307.584 
L 270.259175 307.584 
L 270.259175 300.555452 
L 269.499305 300.555452 
z
" clip-path="url(#p979405bc61)" style="fill: #ff0000"/>
   </g>
   <g id="patch_210">
    <path d="M 270.449143 307.584 
L 271.209013 307.584 
L 271.209013 267.846864 
L 270.449143 267.846864 
z
" clip-path="url(#p979405bc61)" style="fill: #ff0000"/>
   </g>
   <g id="patch_211">
    <path d="M 271.398981 307.584 
L 272.158851 307.584 
L 272.158851 256.848292 
L 271.398981 256.848292 
z
" clip-path="url(#p979405bc61)" style="fill: #ff0000"/>
   </g>
   <g id="patch_212">
    <path d="M 272.348819 307.584 
L 273.108689 307.584 
L 273.108689 248.448 
L 272.348819 248.448 
z
" clip-path="url(#p979405bc61)" style="fill: #ff0000"/>
   </g>
   <g id="patch_213">
    <path d="M 273.298656 307.584 
L 274.058527 307.584 
L 274.058527 266.646638 
L 273.298656 266.646638 
z
" clip-path="url(#p979405bc61)" style="fill: #ff0000"/>
   </g>
   <g id="patch_214">
    <path d="M 274.248494 307.584 
L 275.008364 307.584 
L 275.008364 289.075005 
L 274.248494 289.075005 
z
" clip-path="url(#p979405bc61)" style="fill: #ff0000"/>
   </g>
   <g id="patch_215">
    <path d="M 275.198332 307.584 
L 275.958202 307.584 
L 275.958202 299.017053 
L 275.198332 299.017053 
z
" clip-path="url(#p979405bc61)" style="fill: #ff0000"/>
   </g>
   <g id="patch_216">
    <path d="M 276.14817 307.584 
L 276.90804 307.584 
L 276.90804 248.448 
L 276.14817 248.448 
z
" clip-path="url(#p979405bc61)" style="fill: #ff0000"/>
   </g>
   <g id="patch_217">
    <path d="M 277.098007 307.584 
L 277.857878 307.584 
L 277.857878 305.267446 
L 277.098007 305.267446 
z
" clip-path="url(#p979405bc61)" style="fill: #ff0000"/>
   </g>
   <g id="patch_218">
    <path d="M 278.047845 307.584 
L 278.807715 307.584 
L 278.807715 248.448 
L 278.047845 248.448 
z
" clip-path="url(#p979405bc61)" style="fill: #ff0000"/>
   </g>
   <g id="patch_219">
    <path d="M 278.997683 307.584 
L 279.757553 307.584 
L 279.757553 303.367086 
L 278.997683 303.367086 
z
" clip-path="url(#p979405bc61)" style="fill: #ff0000"/>
   </g>
   <g id="patch_220">
    <path d="M 279.947521 307.584 
L 280.707391 307.584 
L 280.707391 279.075822 
L 279.947521 279.075822 
z
" clip-path="url(#p979405bc61)" style="fill: #ff0000"/>
   </g>
   <g id="patch_221">
    <path d="M 280.897358 307.584 
L 281.657229 307.584 
L 281.657229 275.560578 
L 280.897358 275.560578 
z
" clip-path="url(#p979405bc61)" style="fill: #ff0000"/>
   </g>
   <g id="patch_222">
    <path d="M 281.847196 307.584 
L 282.607066 307.584 
L 282.607066 302.237563 
L 281.847196 302.237563 
z
" clip-path="url(#p979405bc61)" style="fill: #ff0000"/>
   </g>
   <g id="patch_223">
    <path d="M 282.797034 307.584 
L 283.556904 307.584 
L 283.556904 248.448 
L 282.797034 248.448 
z
" clip-path="url(#p979405bc61)" style="fill: #ff0000"/>
   </g>
   <g id="patch_224">
    <path d="M 283.746872 307.584 
L 284.506742 307.584 
L 284.506742 292.337609 
L 283.746872 292.337609 
z
" clip-path="url(#p979405bc61)" style="fill: #ff0000"/>
   </g>
   <g id="patch_225">
    <path d="M 284.696709 307.584 
L 285.45658 307.584 
L 285.45658 281.144563 
L 284.696709 281.144563 
z
" clip-path="url(#p979405bc61)" style="fill: #ff0000"/>
   </g>
   <g id="patch_226">
    <path d="M 285.646547 307.584 
L 286.406417 307.584 
L 286.406417 298.733399 
L 285.646547 298.733399 
z
" clip-path="url(#p979405bc61)" style="fill: #ff0000"/>
   </g>
   <g id="patch_227">
    <path d="M 286.596385 307.584 
L 287.356255 307.584 
L 287.356255 303.856276 
L 286.596385 303.856276 
z
" clip-path="url(#p979405bc61)" style="fill: #ff0000"/>
   </g>
   <g id="patch_228">
    <path d="M 287.546223 307.584 
L 288.306093 307.584 
L 288.306093 248.448 
L 287.546223 248.448 
z
" clip-path="url(#p979405bc61)" style="fill: #ff0000"/>
   </g>
   <g id="patch_229">
    <path d="M 288.49606 307.584 
L 289.255931 307.584 
L 289.255931 302.590266 
L 288.49606 302.590266 
z
" clip-path="url(#p979405bc61)" style="fill: #ff0000"/>
   </g>
   <g id="patch_230">
    <path d="M 289.445898 307.584 
L 290.205768 307.584 
L 290.205768 303.086456 
L 289.445898 303.086456 
z
" clip-path="url(#p979405bc61)" style="fill: #ff0000"/>
   </g>
   <g id="patch_231">
    <path d="M 290.395736 307.584 
L 291.155606 307.584 
L 291.155606 282.551636 
L 290.395736 282.551636 
z
" clip-path="url(#p979405bc61)" style="fill: #ff0000"/>
   </g>
   <g id="patch_232">
    <path d="M 291.345574 307.584 
L 292.105444 307.584 
L 292.105444 274.377768 
L 291.345574 274.377768 
z
" clip-path="url(#p979405bc61)" style="fill: #ff0000"/>
   </g>
   <g id="patch_233">
    <path d="M 292.295411 307.584 
L 293.055282 307.584 
L 293.055282 273.889755 
L 292.295411 273.889755 
z
" clip-path="url(#p979405bc61)" style="fill: #ff0000"/>
   </g>
   <g id="patch_234">
    <path d="M 293.245249 307.584 
L 294.005119 307.584 
L 294.005119 299.172893 
L 293.245249 299.172893 
z
" clip-path="url(#p979405bc61)" style="fill: #ff0000"/>
   </g>
   <g id="patch_235">
    <path d="M 294.195087 307.584 
L 294.954957 307.584 
L 294.954957 300.38217 
L 294.195087 300.38217 
z
" clip-path="url(#p979405bc61)" style="fill: #ff0000"/>
   </g>
   <g id="patch_236">
    <path d="M 295.144925 307.584 
L 295.904795 307.584 
L 295.904795 258.099758 
L 295.144925 258.099758 
z
" clip-path="url(#p979405bc61)" style="fill: #ff0000"/>
   </g>
   <g id="patch_237">
    <path d="M 296.094762 307.584 
L 296.854633 307.584 
L 296.854633 288.876948 
L 296.094762 288.876948 
z
" clip-path="url(#p979405bc61)" style="fill: #ff0000"/>
   </g>
   <g id="patch_238">
    <path d="M 297.0446 307.584 
L 297.80447 307.584 
L 297.80447 281.024338 
L 297.0446 281.024338 
z
" clip-path="url(#p979405bc61)" style="fill: #ff0000"/>
   </g>
   <g id="patch_239">
    <path d="M 297.994438 307.584 
L 298.754308 307.584 
L 298.754308 289.018736 
L 297.994438 289.018736 
z
" clip-path="url(#p979405bc61)" style="fill: #ff0000"/>
   </g>
   <g id="patch_240">
    <path d="M 298.944276 307.584 
L 299.704146 307.584 
L 299.704146 282.384926 
L 298.944276 282.384926 
z
" clip-path="url(#p979405bc61)" style="fill: #ff0000"/>
   </g>
   <g id="patch_241">
    <path d="M 299.894114 307.584 
L 300.653984 307.584 
L 300.653984 248.448 
L 299.894114 248.448 
z
" clip-path="url(#p979405bc61)" style="fill: #ff0000"/>
   </g>
   <g id="patch_242">
    <path d="M 300.843951 307.584 
L 301.603821 307.584 
L 301.603821 258.986314 
L 300.843951 258.986314 
z
" clip-path="url(#p979405bc61)" style="fill: #ff0000"/>
   </g>
   <g id="patch_243">
    <path d="M 301.793789 307.584 
L 302.553659 307.584 
L 302.553659 248.448 
L 301.793789 248.448 
z
" clip-path="url(#p979405bc61)" style="fill: #ff0000"/>
   </g>
   <g id="patch_244">
    <path d="M 302.743627 307.584 
L 303.503497 307.584 
L 303.503497 304.138648 
L 302.743627 304.138648 
z
" clip-path="url(#p979405bc61)" style="fill: #ff0000"/>
   </g>
   <g id="patch_245">
    <path d="M 303.693465 307.584 
L 304.453335 307.584 
L 304.453335 299.089301 
L 303.693465 299.089301 
z
" clip-path="url(#p979405bc61)" style="fill: #ff0000"/>
   </g>
   <g id="patch_246">
    <path d="M 304.643302 307.584 
L 305.403173 307.584 
L 305.403173 248.448 
L 304.643302 248.448 
z
" clip-path="url(#p979405bc61)" style="fill: #ff0000"/>
   </g>
   <g id="patch_247">
    <path d="M 305.59314 307.584 
L 306.35301 307.584 
L 306.35301 248.448 
L 305.59314 248.448 
z
" clip-path="url(#p979405bc61)" style="fill: #ff0000"/>
   </g>
   <g id="patch_248">
    <path d="M 306.542978 307.584 
L 307.302848 307.584 
L 307.302848 248.448 
L 306.542978 248.448 
z
" clip-path="url(#p979405bc61)" style="fill: #ff0000"/>
   </g>
   <g id="patch_249">
    <path d="M 307.492816 307.584 
L 308.252686 307.584 
L 308.252686 248.448 
L 307.492816 248.448 
z
" clip-path="url(#p979405bc61)" style="fill: #ff0000"/>
   </g>
   <g id="patch_250">
    <path d="M 308.442653 307.584 
L 309.202524 307.584 
L 309.202524 258.959194 
L 308.442653 258.959194 
z
" clip-path="url(#p979405bc61)" style="fill: #ff0000"/>
   </g>
   <g id="patch_251">
    <path d="M 309.392491 307.584 
L 310.152361 307.584 
L 310.152361 306.58451 
L 309.392491 306.58451 
z
" clip-path="url(#p979405bc61)" style="fill: #ff0000"/>
   </g>
   <g id="patch_252">
    <path d="M 310.342329 307.584 
L 311.102199 307.584 
L 311.102199 248.448 
L 310.342329 248.448 
z
" clip-path="url(#p979405bc61)" style="fill: #ff0000"/>
   </g>
   <g id="patch_253">
    <path d="M 311.292167 307.584 
L 312.052037 307.584 
L 312.052037 291.182921 
L 311.292167 291.182921 
z
" clip-path="url(#p979405bc61)" style="fill: #ff0000"/>
   </g>
   <g id="patch_254">
    <path d="M 312.242004 307.584 
L 313.001875 307.584 
L 313.001875 278.803644 
L 312.242004 278.803644 
z
" clip-path="url(#p979405bc61)" style="fill: #ff0000"/>
   </g>
   <g id="patch_255">
    <path d="M 313.191842 307.584 
L 313.951712 307.584 
L 313.951712 295.180882 
L 313.191842 295.180882 
z
" clip-path="url(#p979405bc61)" style="fill: #ff0000"/>
   </g>
   <g id="patch_256">
    <path d="M 314.14168 307.584 
L 314.90155 307.584 
L 314.90155 250.821918 
L 314.14168 250.821918 
z
" clip-path="url(#p979405bc61)" style="fill: #ff0000"/>
   </g>
   <g id="patch_257">
    <path d="M 315.091518 307.584 
L 315.851388 307.584 
L 315.851388 293.609418 
L 315.091518 293.609418 
z
" clip-path="url(#p979405bc61)" style="fill: #ff0000"/>
   </g>
   <g id="patch_258">
    <path d="M 316.041355 307.584 
L 316.801226 307.584 
L 316.801226 248.448 
L 316.041355 248.448 
z
" clip-path="url(#p979405bc61)" style="fill: #ff0000"/>
   </g>
   <g id="patch_259">
    <path d="M 316.991193 307.584 
L 317.751063 307.584 
L 317.751063 255.882939 
L 316.991193 255.882939 
z
" clip-path="url(#p979405bc61)" style="fill: #ff0000"/>
   </g>
   <g id="patch_260">
    <path d="M 317.941031 307.584 
L 318.700901 307.584 
L 318.700901 305.624305 
L 317.941031 305.624305 
z
" clip-path="url(#p979405bc61)" style="fill: #ff0000"/>
   </g>
   <g id="patch_261">
    <path d="M 318.890869 307.584 
L 319.650739 307.584 
L 319.650739 248.448 
L 318.890869 248.448 
z
" clip-path="url(#p979405bc61)" style="fill: #ff0000"/>
   </g>
   <g id="patch_262">
    <path d="M 319.840706 307.584 
L 320.600577 307.584 
L 320.600577 306.341748 
L 319.840706 306.341748 
z
" clip-path="url(#p979405bc61)" style="fill: #ff0000"/>
   </g>
   <g id="patch_263">
    <path d="M 320.790544 307.584 
L 321.550414 307.584 
L 321.550414 264.386799 
L 320.790544 264.386799 
z
" clip-path="url(#p979405bc61)" style="fill: #ff0000"/>
   </g>
   <g id="patch_264">
    <path d="M 321.740382 307.584 
L 322.500252 307.584 
L 322.500252 249.074935 
L 321.740382 249.074935 
z
" clip-path="url(#p979405bc61)" style="fill: #ff0000"/>
   </g>
   <g id="patch_265">
    <path d="M 322.69022 307.584 
L 323.45009 307.584 
L 323.45009 248.448 
L 322.69022 248.448 
z
" clip-path="url(#p979405bc61)" style="fill: #ff0000"/>
   </g>
   <g id="patch_266">
    <path d="M 323.640057 307.584 
L 324.399928 307.584 
L 324.399928 248.448 
L 323.640057 248.448 
z
" clip-path="url(#p979405bc61)" style="fill: #ff0000"/>
   </g>
   <g id="patch_267">
    <path d="M 324.589895 307.584 
L 325.349765 307.584 
L 325.349765 306.812209 
L 324.589895 306.812209 
z
" clip-path="url(#p979405bc61)" style="fill: #ff0000"/>
   </g>
   <g id="patch_268">
    <path d="M 325.539733 307.584 
L 326.299603 307.584 
L 326.299603 292.120105 
L 325.539733 292.120105 
z
" clip-path="url(#p979405bc61)" style="fill: #ff0000"/>
   </g>
   <g id="patch_269">
    <path d="M 326.489571 307.584 
L 327.249441 307.584 
L 327.249441 260.845498 
L 326.489571 260.845498 
z
" clip-path="url(#p979405bc61)" style="fill: #ff0000"/>
   </g>
   <g id="patch_270">
    <path d="M 327.439408 307.584 
L 328.199279 307.584 
L 328.199279 272.809945 
L 327.439408 272.809945 
z
" clip-path="url(#p979405bc61)" style="fill: #ff0000"/>
   </g>
   <g id="patch_271">
    <path d="M 328.389246 307.584 
L 329.149116 307.584 
L 329.149116 253.500459 
L 328.389246 253.500459 
z
" clip-path="url(#p979405bc61)" style="fill: #ff0000"/>
   </g>
   <g id="patch_272">
    <path d="M 329.339084 307.584 
L 330.098954 307.584 
L 330.098954 302.347478 
L 329.339084 302.347478 
z
" clip-path="url(#p979405bc61)" style="fill: #ff0000"/>
   </g>
   <g id="patch_273">
    <path d="M 330.288922 307.584 
L 331.048792 307.584 
L 331.048792 283.277672 
L 330.288922 283.277672 
z
" clip-path="url(#p979405bc61)" style="fill: #ff0000"/>
   </g>
   <g id="patch_274">
    <path d="M 331.23876 307.584 
L 331.99863 307.584 
L 331.99863 248.448 
L 331.23876 248.448 
z
" clip-path="url(#p979405bc61)" style="fill: #ff0000"/>
   </g>
   <g id="patch_275">
    <path d="M 332.188597 307.584 
L 332.948467 307.584 
L 332.948467 266.790259 
L 332.188597 266.790259 
z
" clip-path="url(#p979405bc61)" style="fill: #ff0000"/>
   </g>
   <g id="patch_276">
    <path d="M 333.138435 307.584 
L 333.898305 307.584 
L 333.898305 292.177719 
L 333.138435 292.177719 
z
" clip-path="url(#p979405bc61)" style="fill: #ff0000"/>
   </g>
   <g id="patch_277">
    <path d="M 334.088273 307.584 
L 334.848143 307.584 
L 334.848143 284.251803 
L 334.088273 284.251803 
z
" clip-path="url(#p979405bc61)" style="fill: #ff0000"/>
   </g>
   <g id="patch_278">
    <path d="M 335.038111 307.584 
L 335.797981 307.584 
L 335.797981 248.448 
L 335.038111 248.448 
z
" clip-path="url(#p979405bc61)" style="fill: #ff0000"/>
   </g>
   <g id="patch_279">
    <path d="M 335.987948 307.584 
L 336.747819 307.584 
L 336.747819 291.413462 
L 335.987948 291.413462 
z
" clip-path="url(#p979405bc61)" style="fill: #ff0000"/>
   </g>
   <g id="patch_280">
    <path d="M 336.937786 307.584 
L 337.697656 307.584 
L 337.697656 304.861902 
L 336.937786 304.861902 
z
" clip-path="url(#p979405bc61)" style="fill: #ff0000"/>
   </g>
   <g id="patch_281">
    <path d="M 337.887624 307.584 
L 338.647494 307.584 
L 338.647494 288.203544 
L 337.887624 288.203544 
z
" clip-path="url(#p979405bc61)" style="fill: #ff0000"/>
   </g>
   <g id="patch_282">
    <path d="M 338.837462 307.584 
L 339.597332 307.584 
L 339.597332 265.46025 
L 338.837462 265.46025 
z
" clip-path="url(#p979405bc61)" style="fill: #ff0000"/>
   </g>
   <g id="patch_283">
    <path d="M 339.787299 307.584 
L 340.54717 307.584 
L 340.54717 264.263315 
L 339.787299 264.263315 
z
" clip-path="url(#p979405bc61)" style="fill: #ff0000"/>
   </g>
   <g id="patch_284">
    <path d="M 340.737137 307.584 
L 341.497007 307.584 
L 341.497007 265.417787 
L 340.737137 265.417787 
z
" clip-path="url(#p979405bc61)" style="fill: #ff0000"/>
   </g>
   <g id="patch_285">
    <path d="M 341.686975 307.584 
L 342.446845 307.584 
L 342.446845 297.830546 
L 341.686975 297.830546 
z
" clip-path="url(#p979405bc61)" style="fill: #ff0000"/>
   </g>
   <g id="patch_286">
    <path d="M 342.636813 307.584 
L 343.396683 307.584 
L 343.396683 248.448 
L 342.636813 248.448 
z
" clip-path="url(#p979405bc61)" style="fill: #ff0000"/>
   </g>
   <g id="patch_287">
    <path d="M 343.58665 307.584 
L 344.346521 307.584 
L 344.346521 299.697841 
L 343.58665 299.697841 
z
" clip-path="url(#p979405bc61)" style="fill: #ff0000"/>
   </g>
   <g id="patch_288">
    <path d="M 344.536488 307.584 
L 345.296358 307.584 
L 345.296358 278.025392 
L 344.536488 278.025392 
z
" clip-path="url(#p979405bc61)" style="fill: #ff0000"/>
   </g>
   <g id="patch_289">
    <path d="M 345.486326 307.584 
L 346.246196 307.584 
L 346.246196 248.448 
L 345.486326 248.448 
z
" clip-path="url(#p979405bc61)" style="fill: #ff0000"/>
   </g>
   <g id="patch_290">
    <path d="M 346.436164 307.584 
L 347.196034 307.584 
L 347.196034 292.787783 
L 346.436164 292.787783 
z
" clip-path="url(#p979405bc61)" style="fill: #ff0000"/>
   </g>
   <g id="patch_291">
    <path d="M 347.386001 307.584 
L 348.145872 307.584 
L 348.145872 306.339953 
L 347.386001 306.339953 
z
" clip-path="url(#p979405bc61)" style="fill: #ff0000"/>
   </g>
   <g id="patch_292">
    <path d="M 348.335839 307.584 
L 349.095709 307.584 
L 349.095709 248.448 
L 348.335839 248.448 
z
" clip-path="url(#p979405bc61)" style="fill: #ff0000"/>
   </g>
   <g id="patch_293">
    <path d="M 349.285677 307.584 
L 350.045547 307.584 
L 350.045547 248.448 
L 349.285677 248.448 
z
" clip-path="url(#p979405bc61)" style="fill: #ff0000"/>
   </g>
   <g id="patch_294">
    <path d="M 350.235515 307.584 
L 350.995385 307.584 
L 350.995385 248.448 
L 350.235515 248.448 
z
" clip-path="url(#p979405bc61)" style="fill: #ff0000"/>
   </g>
   <g id="patch_295">
    <path d="M 351.185352 307.584 
L 351.945223 307.584 
L 351.945223 248.448 
L 351.185352 248.448 
z
" clip-path="url(#p979405bc61)" style="fill: #ff0000"/>
   </g>
   <g id="patch_296">
    <path d="M 352.13519 307.584 
L 352.89506 307.584 
L 352.89506 289.173972 
L 352.13519 289.173972 
z
" clip-path="url(#p979405bc61)" style="fill: #ff0000"/>
   </g>
   <g id="patch_297">
    <path d="M 353.085028 307.584 
L 353.844898 307.584 
L 353.844898 248.448 
L 353.085028 248.448 
z
" clip-path="url(#p979405bc61)" style="fill: #ff0000"/>
   </g>
   <g id="patch_298">
    <path d="M 354.034866 307.584 
L 354.794736 307.584 
L 354.794736 303.485778 
L 354.034866 303.485778 
z
" clip-path="url(#p979405bc61)" style="fill: #ff0000"/>
   </g>
   <g id="patch_299">
    <path d="M 354.984703 307.584 
L 355.744574 307.584 
L 355.744574 255.029632 
L 354.984703 255.029632 
z
" clip-path="url(#p979405bc61)" style="fill: #ff0000"/>
   </g>
   <g id="patch_300">
    <path d="M 355.934541 307.584 
L 356.694411 307.584 
L 356.694411 305.130513 
L 355.934541 305.130513 
z
" clip-path="url(#p979405bc61)" style="fill: #ff0000"/>
   </g>
   <g id="patch_301">
    <path d="M 356.884379 307.584 
L 357.644249 307.584 
L 357.644249 276.36132 
L 356.884379 276.36132 
z
" clip-path="url(#p979405bc61)" style="fill: #ff0000"/>
   </g>
   <g id="patch_302">
    <path d="M 357.834217 307.584 
L 358.594087 307.584 
L 358.594087 270.037956 
L 357.834217 270.037956 
z
" clip-path="url(#p979405bc61)" style="fill: #ff0000"/>
   </g>
   <g id="patch_303">
    <path d="M 358.784054 307.584 
L 359.543925 307.584 
L 359.543925 296.263776 
L 358.784054 296.263776 
z
" clip-path="url(#p979405bc61)" style="fill: #ff0000"/>
   </g>
   <g id="patch_304">
    <path d="M 359.733892 307.584 
L 360.493762 307.584 
L 360.493762 248.448 
L 359.733892 248.448 
z
" clip-path="url(#p979405bc61)" style="fill: #ff0000"/>
   </g>
   <g id="patch_305">
    <path d="M 360.68373 307.584 
L 361.4436 307.584 
L 361.4436 294.338767 
L 360.68373 294.338767 
z
" clip-path="url(#p979405bc61)" style="fill: #ff0000"/>
   </g>
   <g id="patch_306">
    <path d="M 361.633568 307.584 
L 362.393438 307.584 
L 362.393438 248.448 
L 361.633568 248.448 
z
" clip-path="url(#p979405bc61)" style="fill: #ff0000"/>
   </g>
   <g id="patch_307">
    <path d="M 362.583406 307.584 
L 363.343276 307.584 
L 363.343276 263.552022 
L 362.583406 263.552022 
z
" clip-path="url(#p979405bc61)" style="fill: #ff0000"/>
   </g>
   <g id="patch_308">
    <path d="M 363.533243 307.584 
L 364.293113 307.584 
L 364.293113 257.415778 
L 363.533243 257.415778 
z
" clip-path="url(#p979405bc61)" style="fill: #ff0000"/>
   </g>
   <g id="patch_309">
    <path d="M 364.483081 307.584 
L 365.242951 307.584 
L 365.242951 248.448 
L 364.483081 248.448 
z
" clip-path="url(#p979405bc61)" style="fill: #ff0000"/>
   </g>
   <g id="patch_310">
    <path d="M 365.432919 307.584 
L 366.192789 307.584 
L 366.192789 248.448 
L 365.432919 248.448 
z
" clip-path="url(#p979405bc61)" style="fill: #ff0000"/>
   </g>
   <g id="patch_311">
    <path d="M 366.382757 307.584 
L 367.142627 307.584 
L 367.142627 248.448 
L 366.382757 248.448 
z
" clip-path="url(#p979405bc61)" style="fill: #ff0000"/>
   </g>
   <g id="patch_312">
    <path d="M 367.332594 307.584 
L 368.092464 307.584 
L 368.092464 248.448 
L 367.332594 248.448 
z
" clip-path="url(#p979405bc61)" style="fill: #ff0000"/>
   </g>
   <g id="patch_313">
    <path d="M 368.282432 307.584 
L 369.042302 307.584 
L 369.042302 286.878708 
L 368.282432 286.878708 
z
" clip-path="url(#p979405bc61)" style="fill: #ff0000"/>
   </g>
   <g id="patch_314">
    <path d="M 369.23227 307.584 
L 369.99214 307.584 
L 369.99214 270.090553 
L 369.23227 270.090553 
z
" clip-path="url(#p979405bc61)" style="fill: #ff0000"/>
   </g>
   <g id="patch_315">
    <path d="M 370.182108 307.584 
L 370.941978 307.584 
L 370.941978 248.448 
L 370.182108 248.448 
z
" clip-path="url(#p979405bc61)" style="fill: #ff0000"/>
   </g>
   <g id="patch_316">
    <path d="M 371.131945 307.584 
L 371.891816 307.584 
L 371.891816 248.448 
L 371.131945 248.448 
z
" clip-path="url(#p979405bc61)" style="fill: #ff0000"/>
   </g>
   <g id="patch_317">
    <path d="M 372.081783 307.584 
L 372.841653 307.584 
L 372.841653 248.448 
L 372.081783 248.448 
z
" clip-path="url(#p979405bc61)" style="fill: #ff0000"/>
   </g>
   <g id="patch_318">
    <path d="M 373.031621 307.584 
L 373.791491 307.584 
L 373.791491 248.448 
L 373.031621 248.448 
z
" clip-path="url(#p979405bc61)" style="fill: #ff0000"/>
   </g>
   <g id="patch_319">
    <path d="M 373.981459 307.584 
L 374.741329 307.584 
L 374.741329 304.762034 
L 373.981459 304.762034 
z
" clip-path="url(#p979405bc61)" style="fill: #ff0000"/>
   </g>
   <g id="patch_320">
    <path d="M 374.931296 307.584 
L 375.691167 307.584 
L 375.691167 295.228547 
L 374.931296 295.228547 
z
" clip-path="url(#p979405bc61)" style="fill: #ff0000"/>
   </g>
   <g id="patch_321">
    <path d="M 375.881134 307.584 
L 376.641004 307.584 
L 376.641004 248.448 
L 375.881134 248.448 
z
" clip-path="url(#p979405bc61)" style="fill: #ff0000"/>
   </g>
   <g id="patch_322">
    <path d="M 376.830972 307.584 
L 377.590842 307.584 
L 377.590842 294.936646 
L 376.830972 294.936646 
z
" clip-path="url(#p979405bc61)" style="fill: #ff0000"/>
   </g>
   <g id="patch_323">
    <path d="M 377.78081 307.584 
L 378.54068 307.584 
L 378.54068 284.510982 
L 377.78081 284.510982 
z
" clip-path="url(#p979405bc61)" style="fill: #ff0000"/>
   </g>
   <g id="patch_324">
    <path d="M 378.730647 307.584 
L 379.490518 307.584 
L 379.490518 248.448 
L 378.730647 248.448 
z
" clip-path="url(#p979405bc61)" style="fill: #ff0000"/>
   </g>
   <g id="patch_325">
    <path d="M 379.680485 307.584 
L 380.440355 307.584 
L 380.440355 248.448 
L 379.680485 248.448 
z
" clip-path="url(#p979405bc61)" style="fill: #ff0000"/>
   </g>
   <g id="patch_326">
    <path d="M 380.630323 307.584 
L 381.390193 307.584 
L 381.390193 248.448 
L 380.630323 248.448 
z
" clip-path="url(#p979405bc61)" style="fill: #ff0000"/>
   </g>
   <g id="patch_327">
    <path d="M 381.580161 307.584 
L 382.340031 307.584 
L 382.340031 271.510169 
L 381.580161 271.510169 
z
" clip-path="url(#p979405bc61)" style="fill: #ff0000"/>
   </g>
   <g id="patch_328">
    <path d="M 382.529998 307.584 
L 383.289869 307.584 
L 383.289869 248.448 
L 382.529998 248.448 
z
" clip-path="url(#p979405bc61)" style="fill: #ff0000"/>
   </g>
   <g id="patch_329">
    <path d="M 383.479836 307.584 
L 384.239706 307.584 
L 384.239706 302.368134 
L 383.479836 302.368134 
z
" clip-path="url(#p979405bc61)" style="fill: #ff0000"/>
   </g>
   <g id="patch_330">
    <path d="M 384.429674 307.584 
L 385.189544 307.584 
L 385.189544 305.246948 
L 384.429674 305.246948 
z
" clip-path="url(#p979405bc61)" style="fill: #ff0000"/>
   </g>
   <g id="patch_331">
    <path d="M 385.379512 307.584 
L 386.139382 307.584 
L 386.139382 307.554674 
L 385.379512 307.554674 
z
" clip-path="url(#p979405bc61)" style="fill: #ff0000"/>
   </g>
   <g id="patch_332">
    <path d="M 386.329349 307.584 
L 387.08922 307.584 
L 387.08922 279.614327 
L 386.329349 279.614327 
z
" clip-path="url(#p979405bc61)" style="fill: #ff0000"/>
   </g>
   <g id="patch_333">
    <path d="M 387.279187 307.584 
L 388.039057 307.584 
L 388.039057 248.448 
L 387.279187 248.448 
z
" clip-path="url(#p979405bc61)" style="fill: #ff0000"/>
   </g>
   <g id="patch_334">
    <path d="M 388.229025 307.584 
L 388.988895 307.584 
L 388.988895 248.448 
L 388.229025 248.448 
z
" clip-path="url(#p979405bc61)" style="fill: #ff0000"/>
   </g>
   <g id="patch_335">
    <path d="M 389.178863 307.584 
L 389.938733 307.584 
L 389.938733 248.448 
L 389.178863 248.448 
z
" clip-path="url(#p979405bc61)" style="fill: #ff0000"/>
   </g>
   <g id="patch_336">
    <path d="M 390.1287 307.584 
L 390.888571 307.584 
L 390.888571 248.448 
L 390.1287 248.448 
z
" clip-path="url(#p979405bc61)" style="fill: #ff0000"/>
   </g>
   <g id="patch_337">
    <path d="M 391.078538 307.584 
L 391.838408 307.584 
L 391.838408 279.354022 
L 391.078538 279.354022 
z
" clip-path="url(#p979405bc61)" style="fill: #ff0000"/>
   </g>
   <g id="patch_338">
    <path d="M 392.028376 307.584 
L 392.788246 307.584 
L 392.788246 294.234262 
L 392.028376 294.234262 
z
" clip-path="url(#p979405bc61)" style="fill: #ff0000"/>
   </g>
   <g id="patch_339">
    <path d="M 392.978214 307.584 
L 393.738084 307.584 
L 393.738084 248.448 
L 392.978214 248.448 
z
" clip-path="url(#p979405bc61)" style="fill: #ff0000"/>
   </g>
   <g id="patch_340">
    <path d="M 393.928051 307.584 
L 394.687922 307.584 
L 394.687922 248.448 
L 393.928051 248.448 
z
" clip-path="url(#p979405bc61)" style="fill: #ff0000"/>
   </g>
   <g id="patch_341">
    <path d="M 394.877889 307.584 
L 395.637759 307.584 
L 395.637759 286.84512 
L 394.877889 286.84512 
z
" clip-path="url(#p979405bc61)" style="fill: #ff0000"/>
   </g>
   <g id="patch_342">
    <path d="M 395.827727 307.584 
L 396.587597 307.584 
L 396.587597 281.894217 
L 395.827727 281.894217 
z
" clip-path="url(#p979405bc61)" style="fill: #ff0000"/>
   </g>
   <g id="patch_343">
    <path d="M 396.777565 307.584 
L 397.537435 307.584 
L 397.537435 294.547838 
L 396.777565 294.547838 
z
" clip-path="url(#p979405bc61)" style="fill: #ff0000"/>
   </g>
   <g id="patch_344">
    <path d="M 397.727403 307.584 
L 398.487273 307.584 
L 398.487273 297.21591 
L 397.727403 297.21591 
z
" clip-path="url(#p979405bc61)" style="fill: #ff0000"/>
   </g>
   <g id="matplotlib.axis_1"/>
   <g id="matplotlib.axis_2"/>
   <g id="patch_345">
    <path d="M 57.6 307.584 
L 57.6 41.472 
" style="fill: none; stroke: #000000; stroke-width: 0.8; stroke-linejoin: miter; stroke-linecap: square"/>
   </g>
   <g id="patch_346">
    <path d="M 414.72 307.584 
L 414.72 41.472 
" style="fill: none; stroke: #000000; stroke-width: 0.8; stroke-linejoin: miter; stroke-linecap: square"/>
   </g>
   <g id="patch_347">
    <path d="M 57.6 307.584 
L 414.72 307.584 
" style="fill: none; stroke: #000000; stroke-width: 0.8; stroke-linejoin: miter; stroke-linecap: square"/>
   </g>
   <g id="patch_348">
    <path d="M 57.6 41.472 
L 414.72 41.472 
" style="fill: none; stroke: #000000; stroke-width: 0.8; stroke-linejoin: miter; stroke-linecap: square"/>
   </g>
  </g>
 </g>
 <defs>
  <clipPath id="p979405bc61">
   <rect x="57.6" y="41.472" width="357.12" height="266.112"/>
  </clipPath>
 </defs>
</svg>
