<?xml version="1.0" encoding="utf-8" standalone="no"?>
<!DOCTYPE svg PUBLIC "-//W3C//DTD SVG 1.1//EN"
  "http://www.w3.org/Graphics/SVG/1.1/DTD/svg11.dtd">
<svg xmlns:xlink="http://www.w3.org/1999/xlink" width="460.8pt" height="345.6pt" viewBox="0 0 460.8 345.6" xmlns="http://www.w3.org/2000/svg" version="1.1">
 <metadata>
  <rdf:RDF xmlns:dc="http://purl.org/dc/elements/1.1/" xmlns:cc="http://creativecommons.org/ns#" xmlns:rdf="http://www.w3.org/1999/02/22-rdf-syntax-ns#">
   <cc:Work>
    <dc:type rdf:resource="http://purl.org/dc/dcmitype/StillImage"/>
    <dc:date>2023-08-09T15:53:38.137698</dc:date>
    <dc:format>image/svg+xml</dc:format>
    <dc:creator>
     <cc:Agent>
      <dc:title>Matplotlib v3.5.2, https://matplotlib.org/</dc:title>
     </cc:Agent>
    </dc:creator>
   </cc:Work>
  </rdf:RDF>
 </metadata>
 <defs>
  <style type="text/css">*{stroke-linejoin: round; stroke-linecap: butt}</style>
 </defs>
 <g id="figure_1">
  <g id="patch_1">
   <path d="M 0 345.6 
L 460.8 345.6 
L 460.8 0 
L 0 0 
z
" style="fill: #ffffff"/>
  </g>
  <g id="axes_1">
   <g id="patch_2">
    <path d="M 57.6 307.584 
L 414.72 307.584 
L 414.72 41.472 
L 57.6 41.472 
z
" style="fill: #ffffff"/>
   </g>
   <g id="patch_3">
    <path d="M 73.832727 307.584 
L 74.592597 307.584 
L 74.592597 260.342852 
L 73.832727 260.342852 
z
" clip-path="url(#p307b628d75)" style="fill: #b0c4de"/>
   </g>
   <g id="patch_4">
    <path d="M 74.782565 307.584 
L 75.542435 307.584 
L 75.542435 282.98584 
L 74.782565 282.98584 
z
" clip-path="url(#p307b628d75)" style="fill: #b0c4de"/>
   </g>
   <g id="patch_5">
    <path d="M 75.732403 307.584 
L 76.492273 307.584 
L 76.492273 302.585286 
L 75.732403 302.585286 
z
" clip-path="url(#p307b628d75)" style="fill: #b0c4de"/>
   </g>
   <g id="patch_6">
    <path d="M 76.682241 307.584 
L 77.442111 307.584 
L 77.442111 306.766139 
L 76.682241 306.766139 
z
" clip-path="url(#p307b628d75)" style="fill: #b0c4de"/>
   </g>
   <g id="patch_7">
    <path d="M 77.632078 307.584 
L 78.391949 307.584 
L 78.391949 298.421644 
L 77.632078 298.421644 
z
" clip-path="url(#p307b628d75)" style="fill: #b0c4de"/>
   </g>
   <g id="patch_8">
    <path d="M 78.581916 307.584 
L 79.341786 307.584 
L 79.341786 274.23041 
L 78.581916 274.23041 
z
" clip-path="url(#p307b628d75)" style="fill: #b0c4de"/>
   </g>
   <g id="patch_9">
    <path d="M 79.531754 307.584 
L 80.291624 307.584 
L 80.291624 284.565918 
L 79.531754 284.565918 
z
" clip-path="url(#p307b628d75)" style="fill: #b0c4de"/>
   </g>
   <g id="patch_10">
    <path d="M 80.481592 307.584 
L 81.241462 307.584 
L 81.241462 289.059198 
L 80.481592 289.059198 
z
" clip-path="url(#p307b628d75)" style="fill: #b0c4de"/>
   </g>
   <g id="patch_11">
    <path d="M 81.431429 307.584 
L 82.1913 307.584 
L 82.1913 305.665813 
L 81.431429 305.665813 
z
" clip-path="url(#p307b628d75)" style="fill: #b0c4de"/>
   </g>
   <g id="patch_12">
    <path d="M 82.381267 307.584 
L 83.141137 307.584 
L 83.141137 303.923608 
L 82.381267 303.923608 
z
" clip-path="url(#p307b628d75)" style="fill: #b0c4de"/>
   </g>
   <g id="patch_13">
    <path d="M 83.331105 307.584 
L 84.090975 307.584 
L 84.090975 289.45099 
L 83.331105 289.45099 
z
" clip-path="url(#p307b628d75)" style="fill: #b0c4de"/>
   </g>
   <g id="patch_14">
    <path d="M 84.280943 307.584 
L 85.040813 307.584 
L 85.040813 292.724009 
L 84.280943 292.724009 
z
" clip-path="url(#p307b628d75)" style="fill: #b0c4de"/>
   </g>
   <g id="patch_15">
    <path d="M 85.23078 307.584 
L 85.990651 307.584 
L 85.990651 297.760233 
L 85.23078 297.760233 
z
" clip-path="url(#p307b628d75)" style="fill: #b0c4de"/>
   </g>
   <g id="patch_16">
    <path d="M 86.180618 307.584 
L 86.940488 307.584 
L 86.940488 289.05277 
L 86.180618 289.05277 
z
" clip-path="url(#p307b628d75)" style="fill: #b0c4de"/>
   </g>
   <g id="patch_17">
    <path d="M 87.130456 307.584 
L 87.890326 307.584 
L 87.890326 302.359788 
L 87.130456 302.359788 
z
" clip-path="url(#p307b628d75)" style="fill: #b0c4de"/>
   </g>
   <g id="patch_18">
    <path d="M 88.080294 307.584 
L 88.840164 307.584 
L 88.840164 271.007236 
L 88.080294 271.007236 
z
" clip-path="url(#p307b628d75)" style="fill: #b0c4de"/>
   </g>
   <g id="patch_19">
    <path d="M 89.030131 307.584 
L 89.790002 307.584 
L 89.790002 304.485471 
L 89.030131 304.485471 
z
" clip-path="url(#p307b628d75)" style="fill: #b0c4de"/>
   </g>
   <g id="patch_20">
    <path d="M 89.979969 307.584 
L 90.739839 307.584 
L 90.739839 301.095637 
L 89.979969 301.095637 
z
" clip-path="url(#p307b628d75)" style="fill: #b0c4de"/>
   </g>
   <g id="patch_21">
    <path d="M 90.929807 307.584 
L 91.689677 307.584 
L 91.689677 279.901596 
L 90.929807 279.901596 
z
" clip-path="url(#p307b628d75)" style="fill: #b0c4de"/>
   </g>
   <g id="patch_22">
    <path d="M 91.879645 307.584 
L 92.639515 307.584 
L 92.639515 256.583603 
L 91.879645 256.583603 
z
" clip-path="url(#p307b628d75)" style="fill: #b0c4de"/>
   </g>
   <g id="patch_23">
    <path d="M 92.829482 307.584 
L 93.589353 307.584 
L 93.589353 263.333385 
L 92.829482 263.333385 
z
" clip-path="url(#p307b628d75)" style="fill: #b0c4de"/>
   </g>
   <g id="patch_24">
    <path d="M 93.77932 307.584 
L 94.53919 307.584 
L 94.53919 300.681419 
L 93.77932 300.681419 
z
" clip-path="url(#p307b628d75)" style="fill: #b0c4de"/>
   </g>
   <g id="patch_25">
    <path d="M 94.729158 307.584 
L 95.489028 307.584 
L 95.489028 293.032279 
L 94.729158 293.032279 
z
" clip-path="url(#p307b628d75)" style="fill: #b0c4de"/>
   </g>
   <g id="patch_26">
    <path d="M 95.678996 307.584 
L 96.438866 307.584 
L 96.438866 262.550858 
L 95.678996 262.550858 
z
" clip-path="url(#p307b628d75)" style="fill: #b0c4de"/>
   </g>
   <g id="patch_27">
    <path d="M 96.628833 307.584 
L 97.388704 307.584 
L 97.388704 299.496876 
L 96.628833 299.496876 
z
" clip-path="url(#p307b628d75)" style="fill: #b0c4de"/>
   </g>
   <g id="patch_28">
    <path d="M 97.578671 307.584 
L 98.338541 307.584 
L 98.338541 294.942824 
L 97.578671 294.942824 
z
" clip-path="url(#p307b628d75)" style="fill: #b0c4de"/>
   </g>
   <g id="patch_29">
    <path d="M 98.528509 307.584 
L 99.288379 307.584 
L 99.288379 280.748437 
L 98.528509 280.748437 
z
" clip-path="url(#p307b628d75)" style="fill: #b0c4de"/>
   </g>
   <g id="patch_30">
    <path d="M 99.478347 307.584 
L 100.238217 307.584 
L 100.238217 303.843088 
L 99.478347 303.843088 
z
" clip-path="url(#p307b628d75)" style="fill: #b0c4de"/>
   </g>
   <g id="patch_31">
    <path d="M 100.428184 307.584 
L 101.188055 307.584 
L 101.188055 277.742504 
L 100.428184 277.742504 
z
" clip-path="url(#p307b628d75)" style="fill: #b0c4de"/>
   </g>
   <g id="patch_32">
    <path d="M 101.378022 307.584 
L 102.137892 307.584 
L 102.137892 304.79096 
L 101.378022 304.79096 
z
" clip-path="url(#p307b628d75)" style="fill: #b0c4de"/>
   </g>
   <g id="patch_33">
    <path d="M 102.32786 307.584 
L 103.08773 307.584 
L 103.08773 258.982553 
L 102.32786 258.982553 
z
" clip-path="url(#p307b628d75)" style="fill: #b0c4de"/>
   </g>
   <g id="patch_34">
    <path d="M 103.277698 307.584 
L 104.037568 307.584 
L 104.037568 279.17666 
L 103.277698 279.17666 
z
" clip-path="url(#p307b628d75)" style="fill: #b0c4de"/>
   </g>
   <g id="patch_35">
    <path d="M 104.227536 307.584 
L 104.987406 307.584 
L 104.987406 274.947644 
L 104.227536 274.947644 
z
" clip-path="url(#p307b628d75)" style="fill: #b0c4de"/>
   </g>
   <g id="patch_36">
    <path d="M 105.177373 307.584 
L 105.937243 307.584 
L 105.937243 298.089293 
L 105.177373 298.089293 
z
" clip-path="url(#p307b628d75)" style="fill: #b0c4de"/>
   </g>
   <g id="patch_37">
    <path d="M 106.127211 307.584 
L 106.887081 307.584 
L 106.887081 304.068712 
L 106.127211 304.068712 
z
" clip-path="url(#p307b628d75)" style="fill: #b0c4de"/>
   </g>
   <g id="patch_38">
    <path d="M 107.077049 307.584 
L 107.836919 307.584 
L 107.836919 264.123531 
L 107.077049 264.123531 
z
" clip-path="url(#p307b628d75)" style="fill: #b0c4de"/>
   </g>
   <g id="patch_39">
    <path d="M 108.026887 307.584 
L 108.786757 307.584 
L 108.786757 252.337103 
L 108.026887 252.337103 
z
" clip-path="url(#p307b628d75)" style="fill: #b0c4de"/>
   </g>
   <g id="patch_40">
    <path d="M 108.976724 307.584 
L 109.736594 307.584 
L 109.736594 284.617745 
L 108.976724 284.617745 
z
" clip-path="url(#p307b628d75)" style="fill: #b0c4de"/>
   </g>
   <g id="patch_41">
    <path d="M 109.926562 307.584 
L 110.686432 307.584 
L 110.686432 252.369294 
L 109.926562 252.369294 
z
" clip-path="url(#p307b628d75)" style="fill: #b0c4de"/>
   </g>
   <g id="patch_42">
    <path d="M 110.8764 307.584 
L 111.63627 307.584 
L 111.63627 265.862392 
L 110.8764 265.862392 
z
" clip-path="url(#p307b628d75)" style="fill: #b0c4de"/>
   </g>
   <g id="patch_43">
    <path d="M 111.826238 307.584 
L 112.586108 307.584 
L 112.586108 261.666174 
L 111.826238 261.666174 
z
" clip-path="url(#p307b628d75)" style="fill: #b0c4de"/>
   </g>
   <g id="patch_44">
    <path d="M 112.776075 307.584 
L 113.535946 307.584 
L 113.535946 307.409347 
L 112.776075 307.409347 
z
" clip-path="url(#p307b628d75)" style="fill: #b0c4de"/>
   </g>
   <g id="patch_45">
    <path d="M 113.725913 307.584 
L 114.485783 307.584 
L 114.485783 298.205703 
L 113.725913 298.205703 
z
" clip-path="url(#p307b628d75)" style="fill: #b0c4de"/>
   </g>
   <g id="patch_46">
    <path d="M 114.675751 307.584 
L 115.435621 307.584 
L 115.435621 291.912027 
L 114.675751 291.912027 
z
" clip-path="url(#p307b628d75)" style="fill: #b0c4de"/>
   </g>
   <g id="patch_47">
    <path d="M 115.625589 307.584 
L 116.385459 307.584 
L 116.385459 269.220556 
L 115.625589 269.220556 
z
" clip-path="url(#p307b628d75)" style="fill: #b0c4de"/>
   </g>
   <g id="patch_48">
    <path d="M 116.575426 307.584 
L 117.335297 307.584 
L 117.335297 283.650938 
L 116.575426 283.650938 
z
" clip-path="url(#p307b628d75)" style="fill: #b0c4de"/>
   </g>
   <g id="patch_49">
    <path d="M 117.525264 307.584 
L 118.285134 307.584 
L 118.285134 254.781418 
L 117.525264 254.781418 
z
" clip-path="url(#p307b628d75)" style="fill: #b0c4de"/>
   </g>
   <g id="patch_50">
    <path d="M 118.475102 307.584 
L 119.234972 307.584 
L 119.234972 293.745748 
L 118.475102 293.745748 
z
" clip-path="url(#p307b628d75)" style="fill: #b0c4de"/>
   </g>
   <g id="patch_51">
    <path d="M 119.42494 307.584 
L 120.18481 307.584 
L 120.18481 203.527482 
L 119.42494 203.527482 
z
" clip-path="url(#p307b628d75)" style="fill: #b0c4de"/>
   </g>
   <g id="patch_52">
    <path d="M 120.374777 307.584 
L 121.134648 307.584 
L 121.134648 244.280887 
L 120.374777 244.280887 
z
" clip-path="url(#p307b628d75)" style="fill: #b0c4de"/>
   </g>
   <g id="patch_53">
    <path d="M 121.324615 307.584 
L 122.084485 307.584 
L 122.084485 295.456634 
L 121.324615 295.456634 
z
" clip-path="url(#p307b628d75)" style="fill: #b0c4de"/>
   </g>
   <g id="patch_54">
    <path d="M 122.274453 307.584 
L 123.034323 307.584 
L 123.034323 247.470883 
L 122.274453 247.470883 
z
" clip-path="url(#p307b628d75)" style="fill: #b0c4de"/>
   </g>
   <g id="patch_55">
    <path d="M 123.224291 307.584 
L 123.984161 307.584 
L 123.984161 291.603832 
L 123.224291 291.603832 
z
" clip-path="url(#p307b628d75)" style="fill: #b0c4de"/>
   </g>
   <g id="patch_56">
    <path d="M 124.174128 307.584 
L 124.933999 307.584 
L 124.933999 294.62686 
L 124.174128 294.62686 
z
" clip-path="url(#p307b628d75)" style="fill: #b0c4de"/>
   </g>
   <g id="patch_57">
    <path d="M 125.123966 307.584 
L 125.883836 307.584 
L 125.883836 285.879705 
L 125.123966 285.879705 
z
" clip-path="url(#p307b628d75)" style="fill: #b0c4de"/>
   </g>
   <g id="patch_58">
    <path d="M 126.073804 307.584 
L 126.833674 307.584 
L 126.833674 284.835809 
L 126.073804 284.835809 
z
" clip-path="url(#p307b628d75)" style="fill: #b0c4de"/>
   </g>
   <g id="patch_59">
    <path d="M 127.023642 307.584 
L 127.783512 307.584 
L 127.783512 305.155831 
L 127.023642 305.155831 
z
" clip-path="url(#p307b628d75)" style="fill: #b0c4de"/>
   </g>
   <g id="patch_60">
    <path d="M 127.973479 307.584 
L 128.73335 307.584 
L 128.73335 302.342258 
L 127.973479 302.342258 
z
" clip-path="url(#p307b628d75)" style="fill: #b0c4de"/>
   </g>
   <g id="patch_61">
    <path d="M 128.923317 307.584 
L 129.683187 307.584 
L 129.683187 305.44702 
L 128.923317 305.44702 
z
" clip-path="url(#p307b628d75)" style="fill: #b0c4de"/>
   </g>
   <g id="patch_62">
    <path d="M 129.873155 307.584 
L 130.633025 307.584 
L 130.633025 296.434841 
L 129.873155 296.434841 
z
" clip-path="url(#p307b628d75)" style="fill: #b0c4de"/>
   </g>
   <g id="patch_63">
    <path d="M 130.822993 307.584 
L 131.582863 307.584 
L 131.582863 266.736314 
L 130.822993 266.736314 
z
" clip-path="url(#p307b628d75)" style="fill: #b0c4de"/>
   </g>
   <g id="patch_64">
    <path d="M 131.77283 307.584 
L 132.532701 307.584 
L 132.532701 290.117131 
L 131.77283 290.117131 
z
" clip-path="url(#p307b628d75)" style="fill: #b0c4de"/>
   </g>
   <g id="patch_65">
    <path d="M 132.722668 307.584 
L 133.482538 307.584 
L 133.482538 304.421984 
L 132.722668 304.421984 
z
" clip-path="url(#p307b628d75)" style="fill: #b0c4de"/>
   </g>
   <g id="patch_66">
    <path d="M 133.672506 307.584 
L 134.432376 307.584 
L 134.432376 300.030084 
L 133.672506 300.030084 
z
" clip-path="url(#p307b628d75)" style="fill: #b0c4de"/>
   </g>
   <g id="patch_67">
    <path d="M 134.622344 307.584 
L 135.382214 307.584 
L 135.382214 274.843529 
L 134.622344 274.843529 
z
" clip-path="url(#p307b628d75)" style="fill: #b0c4de"/>
   </g>
   <g id="patch_68">
    <path d="M 135.572181 307.584 
L 136.332052 307.584 
L 136.332052 300.278895 
L 135.572181 300.278895 
z
" clip-path="url(#p307b628d75)" style="fill: #b0c4de"/>
   </g>
   <g id="patch_69">
    <path d="M 136.522019 307.584 
L 137.281889 307.584 
L 137.281889 298.019732 
L 136.522019 298.019732 
z
" clip-path="url(#p307b628d75)" style="fill: #b0c4de"/>
   </g>
   <g id="patch_70">
    <path d="M 137.471857 307.584 
L 138.231727 307.584 
L 138.231727 295.80622 
L 137.471857 295.80622 
z
" clip-path="url(#p307b628d75)" style="fill: #b0c4de"/>
   </g>
   <g id="patch_71">
    <path d="M 138.421695 307.584 
L 139.181565 307.584 
L 139.181565 288.792303 
L 138.421695 288.792303 
z
" clip-path="url(#p307b628d75)" style="fill: #b0c4de"/>
   </g>
   <g id="patch_72">
    <path d="M 139.371533 307.584 
L 140.131403 307.584 
L 140.131403 286.575244 
L 139.371533 286.575244 
z
" clip-path="url(#p307b628d75)" style="fill: #b0c4de"/>
   </g>
   <g id="patch_73">
    <path d="M 140.32137 307.584 
L 141.08124 307.584 
L 141.08124 304.197163 
L 140.32137 304.197163 
z
" clip-path="url(#p307b628d75)" style="fill: #b0c4de"/>
   </g>
   <g id="patch_74">
    <path d="M 141.271208 307.584 
L 142.031078 307.584 
L 142.031078 270.133929 
L 141.271208 270.133929 
z
" clip-path="url(#p307b628d75)" style="fill: #b0c4de"/>
   </g>
   <g id="patch_75">
    <path d="M 142.221046 307.584 
L 142.980916 307.584 
L 142.980916 276.6571 
L 142.221046 276.6571 
z
" clip-path="url(#p307b628d75)" style="fill: #b0c4de"/>
   </g>
   <g id="patch_76">
    <path d="M 143.170884 307.584 
L 143.930754 307.584 
L 143.930754 295.318867 
L 143.170884 295.318867 
z
" clip-path="url(#p307b628d75)" style="fill: #b0c4de"/>
   </g>
   <g id="patch_77">
    <path d="M 144.120721 307.584 
L 144.880592 307.584 
L 144.880592 282.102803 
L 144.120721 282.102803 
z
" clip-path="url(#p307b628d75)" style="fill: #b0c4de"/>
   </g>
   <g id="patch_78">
    <path d="M 145.070559 307.584 
L 145.830429 307.584 
L 145.830429 301.213246 
L 145.070559 301.213246 
z
" clip-path="url(#p307b628d75)" style="fill: #b0c4de"/>
   </g>
   <g id="patch_79">
    <path d="M 146.020397 307.584 
L 146.780267 307.584 
L 146.780267 301.808583 
L 146.020397 301.808583 
z
" clip-path="url(#p307b628d75)" style="fill: #b0c4de"/>
   </g>
   <g id="patch_80">
    <path d="M 146.970235 307.584 
L 147.730105 307.584 
L 147.730105 303.7387 
L 146.970235 303.7387 
z
" clip-path="url(#p307b628d75)" style="fill: #b0c4de"/>
   </g>
   <g id="patch_81">
    <path d="M 147.920072 307.584 
L 148.679943 307.584 
L 148.679943 232.682161 
L 147.920072 232.682161 
z
" clip-path="url(#p307b628d75)" style="fill: #b0c4de"/>
   </g>
   <g id="patch_82">
    <path d="M 148.86991 307.584 
L 149.62978 307.584 
L 149.62978 306.007891 
L 148.86991 306.007891 
z
" clip-path="url(#p307b628d75)" style="fill: #b0c4de"/>
   </g>
   <g id="patch_83">
    <path d="M 149.819748 307.584 
L 150.579618 307.584 
L 150.579618 296.48798 
L 149.819748 296.48798 
z
" clip-path="url(#p307b628d75)" style="fill: #b0c4de"/>
   </g>
   <g id="patch_84">
    <path d="M 150.769586 307.584 
L 151.529456 307.584 
L 151.529456 287.02098 
L 150.769586 287.02098 
z
" clip-path="url(#p307b628d75)" style="fill: #b0c4de"/>
   </g>
   <g id="patch_85">
    <path d="M 151.719423 307.584 
L 152.479294 307.584 
L 152.479294 304.916621 
L 151.719423 304.916621 
z
" clip-path="url(#p307b628d75)" style="fill: #b0c4de"/>
   </g>
   <g id="patch_86">
    <path d="M 152.669261 307.584 
L 153.429131 307.584 
L 153.429131 302.516664 
L 152.669261 302.516664 
z
" clip-path="url(#p307b628d75)" style="fill: #b0c4de"/>
   </g>
   <g id="patch_87">
    <path d="M 153.619099 307.584 
L 154.378969 307.584 
L 154.378969 290.952852 
L 153.619099 290.952852 
z
" clip-path="url(#p307b628d75)" style="fill: #b0c4de"/>
   </g>
   <g id="patch_88">
    <path d="M 154.568937 307.584 
L 155.328807 307.584 
L 155.328807 304.393905 
L 154.568937 304.393905 
z
" clip-path="url(#p307b628d75)" style="fill: #b0c4de"/>
   </g>
   <g id="patch_89">
    <path d="M 155.518774 307.584 
L 156.278645 307.584 
L 156.278645 305.341114 
L 155.518774 305.341114 
z
" clip-path="url(#p307b628d75)" style="fill: #b0c4de"/>
   </g>
   <g id="patch_90">
    <path d="M 156.468612 307.584 
L 157.228482 307.584 
L 157.228482 269.764209 
L 156.468612 269.764209 
z
" clip-path="url(#p307b628d75)" style="fill: #b0c4de"/>
   </g>
   <g id="patch_91">
    <path d="M 157.41845 307.584 
L 158.17832 307.584 
L 158.17832 303.822609 
L 157.41845 303.822609 
z
" clip-path="url(#p307b628d75)" style="fill: #b0c4de"/>
   </g>
   <g id="patch_92">
    <path d="M 158.368288 307.584 
L 159.128158 307.584 
L 159.128158 280.722763 
L 158.368288 280.722763 
z
" clip-path="url(#p307b628d75)" style="fill: #b0c4de"/>
   </g>
   <g id="patch_93">
    <path d="M 159.318125 307.584 
L 160.077996 307.584 
L 160.077996 255.159405 
L 159.318125 255.159405 
z
" clip-path="url(#p307b628d75)" style="fill: #b0c4de"/>
   </g>
   <g id="patch_94">
    <path d="M 160.267963 307.584 
L 161.027833 307.584 
L 161.027833 304.830841 
L 160.267963 304.830841 
z
" clip-path="url(#p307b628d75)" style="fill: #b0c4de"/>
   </g>
   <g id="patch_95">
    <path d="M 161.217801 307.584 
L 161.977671 307.584 
L 161.977671 290.084391 
L 161.217801 290.084391 
z
" clip-path="url(#p307b628d75)" style="fill: #b0c4de"/>
   </g>
   <g id="patch_96">
    <path d="M 162.167639 307.584 
L 162.927509 307.584 
L 162.927509 302.199397 
L 162.167639 302.199397 
z
" clip-path="url(#p307b628d75)" style="fill: #b0c4de"/>
   </g>
   <g id="patch_97">
    <path d="M 163.117476 307.584 
L 163.877347 307.584 
L 163.877347 300.898194 
L 163.117476 300.898194 
z
" clip-path="url(#p307b628d75)" style="fill: #b0c4de"/>
   </g>
   <g id="patch_98">
    <path d="M 164.067314 307.584 
L 164.827184 307.584 
L 164.827184 296.190435 
L 164.067314 296.190435 
z
" clip-path="url(#p307b628d75)" style="fill: #b0c4de"/>
   </g>
   <g id="patch_99">
    <path d="M 165.017152 307.584 
L 165.777022 307.584 
L 165.777022 293.656033 
L 165.017152 293.656033 
z
" clip-path="url(#p307b628d75)" style="fill: #b0c4de"/>
   </g>
   <g id="patch_100">
    <path d="M 165.96699 307.584 
L 166.72686 307.584 
L 166.72686 262.290198 
L 165.96699 262.290198 
z
" clip-path="url(#p307b628d75)" style="fill: #b0c4de"/>
   </g>
   <g id="patch_101">
    <path d="M 166.916827 307.584 
L 167.676698 307.584 
L 167.676698 301.330302 
L 166.916827 301.330302 
z
" clip-path="url(#p307b628d75)" style="fill: #b0c4de"/>
   </g>
   <g id="patch_102">
    <path d="M 167.866665 307.584 
L 168.626535 307.584 
L 168.626535 300.641939 
L 167.866665 300.641939 
z
" clip-path="url(#p307b628d75)" style="fill: #b0c4de"/>
   </g>
   <g id="patch_103">
    <path d="M 168.816503 307.584 
L 169.576373 307.584 
L 169.576373 261.476554 
L 168.816503 261.476554 
z
" clip-path="url(#p307b628d75)" style="fill: #b0c4de"/>
   </g>
   <g id="patch_104">
    <path d="M 169.766341 307.584 
L 170.526211 307.584 
L 170.526211 294.329935 
L 169.766341 294.329935 
z
" clip-path="url(#p307b628d75)" style="fill: #b0c4de"/>
   </g>
   <g id="patch_105">
    <path d="M 170.716179 307.584 
L 171.476049 307.584 
L 171.476049 287.470206 
L 170.716179 287.470206 
z
" clip-path="url(#p307b628d75)" style="fill: #b0c4de"/>
   </g>
   <g id="patch_106">
    <path d="M 171.666016 307.584 
L 172.425886 307.584 
L 172.425886 304.54645 
L 171.666016 304.54645 
z
" clip-path="url(#p307b628d75)" style="fill: #b0c4de"/>
   </g>
   <g id="patch_107">
    <path d="M 172.615854 307.584 
L 173.375724 307.584 
L 173.375724 303.826711 
L 172.615854 303.826711 
z
" clip-path="url(#p307b628d75)" style="fill: #b0c4de"/>
   </g>
   <g id="patch_108">
    <path d="M 173.565692 307.584 
L 174.325562 307.584 
L 174.325562 299.394219 
L 173.565692 299.394219 
z
" clip-path="url(#p307b628d75)" style="fill: #b0c4de"/>
   </g>
   <g id="patch_109">
    <path d="M 174.51553 307.584 
L 175.2754 307.584 
L 175.2754 297.868221 
L 174.51553 297.868221 
z
" clip-path="url(#p307b628d75)" style="fill: #b0c4de"/>
   </g>
   <g id="patch_110">
    <path d="M 175.465367 307.584 
L 176.225238 307.584 
L 176.225238 302.398063 
L 175.465367 302.398063 
z
" clip-path="url(#p307b628d75)" style="fill: #b0c4de"/>
   </g>
   <g id="patch_111">
    <path d="M 176.415205 307.584 
L 177.175075 307.584 
L 177.175075 305.388737 
L 176.415205 305.388737 
z
" clip-path="url(#p307b628d75)" style="fill: #b0c4de"/>
   </g>
   <g id="patch_112">
    <path d="M 177.365043 307.584 
L 178.124913 307.584 
L 178.124913 280.881027 
L 177.365043 280.881027 
z
" clip-path="url(#p307b628d75)" style="fill: #b0c4de"/>
   </g>
   <g id="patch_113">
    <path d="M 178.314881 307.584 
L 179.074751 307.584 
L 179.074751 297.399646 
L 178.314881 297.399646 
z
" clip-path="url(#p307b628d75)" style="fill: #b0c4de"/>
   </g>
   <g id="patch_114">
    <path d="M 179.264718 307.584 
L 180.024589 307.584 
L 180.024589 300.824438 
L 179.264718 300.824438 
z
" clip-path="url(#p307b628d75)" style="fill: #b0c4de"/>
   </g>
   <g id="patch_115">
    <path d="M 180.214556 307.584 
L 180.974426 307.584 
L 180.974426 299.592913 
L 180.214556 299.592913 
z
" clip-path="url(#p307b628d75)" style="fill: #b0c4de"/>
   </g>
   <g id="patch_116">
    <path d="M 181.164394 307.584 
L 181.924264 307.584 
L 181.924264 261.271635 
L 181.164394 261.271635 
z
" clip-path="url(#p307b628d75)" style="fill: #b0c4de"/>
   </g>
   <g id="patch_117">
    <path d="M 182.114232 307.584 
L 182.874102 307.584 
L 182.874102 306.461504 
L 182.114232 306.461504 
z
" clip-path="url(#p307b628d75)" style="fill: #b0c4de"/>
   </g>
   <g id="patch_118">
    <path d="M 183.064069 307.584 
L 183.82394 307.584 
L 183.82394 304.699195 
L 183.064069 304.699195 
z
" clip-path="url(#p307b628d75)" style="fill: #b0c4de"/>
   </g>
   <g id="patch_119">
    <path d="M 184.013907 307.584 
L 184.773777 307.584 
L 184.773777 270.534853 
L 184.013907 270.534853 
z
" clip-path="url(#p307b628d75)" style="fill: #b0c4de"/>
   </g>
   <g id="patch_120">
    <path d="M 184.963745 307.584 
L 185.723615 307.584 
L 185.723615 292.847131 
L 184.963745 292.847131 
z
" clip-path="url(#p307b628d75)" style="fill: #b0c4de"/>
   </g>
   <g id="patch_121">
    <path d="M 185.913583 307.584 
L 186.673453 307.584 
L 186.673453 292.600641 
L 185.913583 292.600641 
z
" clip-path="url(#p307b628d75)" style="fill: #b0c4de"/>
   </g>
   <g id="patch_122">
    <path d="M 186.86342 307.584 
L 187.623291 307.584 
L 187.623291 290.679293 
L 186.86342 290.679293 
z
" clip-path="url(#p307b628d75)" style="fill: #b0c4de"/>
   </g>
   <g id="patch_123">
    <path d="M 187.813258 307.584 
L 188.573128 307.584 
L 188.573128 295.868779 
L 187.813258 295.868779 
z
" clip-path="url(#p307b628d75)" style="fill: #b0c4de"/>
   </g>
   <g id="patch_124">
    <path d="M 188.763096 307.584 
L 189.522966 307.584 
L 189.522966 295.877623 
L 188.763096 295.877623 
z
" clip-path="url(#p307b628d75)" style="fill: #b0c4de"/>
   </g>
   <g id="patch_125">
    <path d="M 189.712934 307.584 
L 190.472804 307.584 
L 190.472804 291.158451 
L 189.712934 291.158451 
z
" clip-path="url(#p307b628d75)" style="fill: #b0c4de"/>
   </g>
   <g id="patch_126">
    <path d="M 190.662771 307.584 
L 191.422642 307.584 
L 191.422642 291.97046 
L 190.662771 291.97046 
z
" clip-path="url(#p307b628d75)" style="fill: #b0c4de"/>
   </g>
   <g id="patch_127">
    <path d="M 191.612609 307.584 
L 192.372479 307.584 
L 192.372479 305.049604 
L 191.612609 305.049604 
z
" clip-path="url(#p307b628d75)" style="fill: #b0c4de"/>
   </g>
   <g id="patch_128">
    <path d="M 192.562447 307.584 
L 193.322317 307.584 
L 193.322317 246.95256 
L 192.562447 246.95256 
z
" clip-path="url(#p307b628d75)" style="fill: #b0c4de"/>
   </g>
   <g id="patch_129">
    <path d="M 193.512285 307.584 
L 194.272155 307.584 
L 194.272155 229.964188 
L 193.512285 229.964188 
z
" clip-path="url(#p307b628d75)" style="fill: #b0c4de"/>
   </g>
   <g id="patch_130">
    <path d="M 194.462122 307.584 
L 195.221993 307.584 
L 195.221993 275.205756 
L 194.462122 275.205756 
z
" clip-path="url(#p307b628d75)" style="fill: #b0c4de"/>
   </g>
   <g id="patch_131">
    <path d="M 195.41196 307.584 
L 196.17183 307.584 
L 196.17183 304.322381 
L 195.41196 304.322381 
z
" clip-path="url(#p307b628d75)" style="fill: #b0c4de"/>
   </g>
   <g id="patch_132">
    <path d="M 196.361798 307.584 
L 197.121668 307.584 
L 197.121668 299.129496 
L 196.361798 299.129496 
z
" clip-path="url(#p307b628d75)" style="fill: #b0c4de"/>
   </g>
   <g id="patch_133">
    <path d="M 197.311636 307.584 
L 198.071506 307.584 
L 198.071506 265.977967 
L 197.311636 265.977967 
z
" clip-path="url(#p307b628d75)" style="fill: #b0c4de"/>
   </g>
   <g id="patch_134">
    <path d="M 198.261473 307.584 
L 199.021344 307.584 
L 199.021344 297.858881 
L 198.261473 297.858881 
z
" clip-path="url(#p307b628d75)" style="fill: #b0c4de"/>
   </g>
   <g id="patch_135">
    <path d="M 199.211311 307.584 
L 199.971181 307.584 
L 199.971181 277.800208 
L 199.211311 277.800208 
z
" clip-path="url(#p307b628d75)" style="fill: #b0c4de"/>
   </g>
   <g id="patch_136">
    <path d="M 200.161149 307.584 
L 200.921019 307.584 
L 200.921019 304.148795 
L 200.161149 304.148795 
z
" clip-path="url(#p307b628d75)" style="fill: #b0c4de"/>
   </g>
   <g id="patch_137">
    <path d="M 201.110987 307.584 
L 201.870857 307.584 
L 201.870857 306.5232 
L 201.110987 306.5232 
z
" clip-path="url(#p307b628d75)" style="fill: #b0c4de"/>
   </g>
   <g id="patch_138">
    <path d="M 202.060825 307.584 
L 202.820695 307.584 
L 202.820695 299.555497 
L 202.060825 299.555497 
z
" clip-path="url(#p307b628d75)" style="fill: #b0c4de"/>
   </g>
   <g id="patch_139">
    <path d="M 203.010662 307.584 
L 203.770532 307.584 
L 203.770532 305.452802 
L 203.010662 305.452802 
z
" clip-path="url(#p307b628d75)" style="fill: #b0c4de"/>
   </g>
   <g id="patch_140">
    <path d="M 203.9605 307.584 
L 204.72037 307.584 
L 204.72037 302.752671 
L 203.9605 302.752671 
z
" clip-path="url(#p307b628d75)" style="fill: #b0c4de"/>
   </g>
   <g id="patch_141">
    <path d="M 204.910338 307.584 
L 205.670208 307.584 
L 205.670208 298.357784 
L 204.910338 298.357784 
z
" clip-path="url(#p307b628d75)" style="fill: #b0c4de"/>
   </g>
   <g id="patch_142">
    <path d="M 205.860176 307.584 
L 206.620046 307.584 
L 206.620046 306.317568 
L 205.860176 306.317568 
z
" clip-path="url(#p307b628d75)" style="fill: #b0c4de"/>
   </g>
   <g id="patch_143">
    <path d="M 206.810013 307.584 
L 207.569884 307.584 
L 207.569884 289.446211 
L 206.810013 289.446211 
z
" clip-path="url(#p307b628d75)" style="fill: #b0c4de"/>
   </g>
   <g id="patch_144">
    <path d="M 207.759851 307.584 
L 208.519721 307.584 
L 208.519721 294.008833 
L 207.759851 294.008833 
z
" clip-path="url(#p307b628d75)" style="fill: #b0c4de"/>
   </g>
   <g id="patch_145">
    <path d="M 208.709689 307.584 
L 209.469559 307.584 
L 209.469559 303.817458 
L 208.709689 303.817458 
z
" clip-path="url(#p307b628d75)" style="fill: #b0c4de"/>
   </g>
   <g id="patch_146">
    <path d="M 209.659527 307.584 
L 210.419397 307.584 
L 210.419397 254.675792 
L 209.659527 254.675792 
z
" clip-path="url(#p307b628d75)" style="fill: #b0c4de"/>
   </g>
   <g id="patch_147">
    <path d="M 210.609364 307.584 
L 211.369235 307.584 
L 211.369235 306.580555 
L 210.609364 306.580555 
z
" clip-path="url(#p307b628d75)" style="fill: #b0c4de"/>
   </g>
   <g id="patch_148">
    <path d="M 211.559202 307.584 
L 212.319072 307.584 
L 212.319072 297.830478 
L 211.559202 297.830478 
z
" clip-path="url(#p307b628d75)" style="fill: #b0c4de"/>
   </g>
   <g id="patch_149">
    <path d="M 212.50904 307.584 
L 213.26891 307.584 
L 213.26891 258.835862 
L 212.50904 258.835862 
z
" clip-path="url(#p307b628d75)" style="fill: #b0c4de"/>
   </g>
   <g id="patch_150">
    <path d="M 213.458878 307.584 
L 214.218748 307.584 
L 214.218748 251.529697 
L 213.458878 251.529697 
z
" clip-path="url(#p307b628d75)" style="fill: #b0c4de"/>
   </g>
   <g id="patch_151">
    <path d="M 214.408715 307.584 
L 215.168586 307.584 
L 215.168586 288.911101 
L 214.408715 288.911101 
z
" clip-path="url(#p307b628d75)" style="fill: #b0c4de"/>
   </g>
   <g id="patch_152">
    <path d="M 215.358553 307.584 
L 216.118423 307.584 
L 216.118423 304.317378 
L 215.358553 304.317378 
z
" clip-path="url(#p307b628d75)" style="fill: #b0c4de"/>
   </g>
   <g id="patch_153">
    <path d="M 216.308391 307.584 
L 217.068261 307.584 
L 217.068261 279.590455 
L 216.308391 279.590455 
z
" clip-path="url(#p307b628d75)" style="fill: #b0c4de"/>
   </g>
   <g id="patch_154">
    <path d="M 217.258229 307.584 
L 218.018099 307.584 
L 218.018099 307.199428 
L 217.258229 307.199428 
z
" clip-path="url(#p307b628d75)" style="fill: #b0c4de"/>
   </g>
   <g id="patch_155">
    <path d="M 218.208066 307.584 
L 218.967937 307.584 
L 218.967937 304.090455 
L 218.208066 304.090455 
z
" clip-path="url(#p307b628d75)" style="fill: #b0c4de"/>
   </g>
   <g id="patch_156">
    <path d="M 219.157904 307.584 
L 219.917774 307.584 
L 219.917774 306.904883 
L 219.157904 306.904883 
z
" clip-path="url(#p307b628d75)" style="fill: #b0c4de"/>
   </g>
   <g id="patch_157">
    <path d="M 220.107742 307.584 
L 220.867612 307.584 
L 220.867612 305.338357 
L 220.107742 305.338357 
z
" clip-path="url(#p307b628d75)" style="fill: #b0c4de"/>
   </g>
   <g id="patch_158">
    <path d="M 221.05758 307.584 
L 221.81745 307.584 
L 221.81745 227.971007 
L 221.05758 227.971007 
z
" clip-path="url(#p307b628d75)" style="fill: #b0c4de"/>
   </g>
   <g id="patch_159">
    <path d="M 222.007417 307.584 
L 222.767288 307.584 
L 222.767288 306.486938 
L 222.007417 306.486938 
z
" clip-path="url(#p307b628d75)" style="fill: #b0c4de"/>
   </g>
   <g id="patch_160">
    <path d="M 222.957255 307.584 
L 223.717125 307.584 
L 223.717125 305.536302 
L 222.957255 305.536302 
z
" clip-path="url(#p307b628d75)" style="fill: #b0c4de"/>
   </g>
   <g id="patch_161">
    <path d="M 223.907093 307.584 
L 224.666963 307.584 
L 224.666963 273.001135 
L 223.907093 273.001135 
z
" clip-path="url(#p307b628d75)" style="fill: #b0c4de"/>
   </g>
   <g id="patch_162">
    <path d="M 224.856931 307.584 
L 225.616801 307.584 
L 225.616801 302.201747 
L 224.856931 302.201747 
z
" clip-path="url(#p307b628d75)" style="fill: #b0c4de"/>
   </g>
   <g id="patch_163">
    <path d="M 225.806768 307.584 
L 226.566639 307.584 
L 226.566639 302.372201 
L 225.806768 302.372201 
z
" clip-path="url(#p307b628d75)" style="fill: #b0c4de"/>
   </g>
   <g id="patch_164">
    <path d="M 226.756606 307.584 
L 227.516476 307.584 
L 227.516476 292.406519 
L 226.756606 292.406519 
z
" clip-path="url(#p307b628d75)" style="fill: #b0c4de"/>
   </g>
   <g id="patch_165">
    <path d="M 227.706444 307.584 
L 228.466314 307.584 
L 228.466314 304.949717 
L 227.706444 304.949717 
z
" clip-path="url(#p307b628d75)" style="fill: #b0c4de"/>
   </g>
   <g id="patch_166">
    <path d="M 228.656282 307.584 
L 229.416152 307.584 
L 229.416152 291.351055 
L 228.656282 291.351055 
z
" clip-path="url(#p307b628d75)" style="fill: #b0c4de"/>
   </g>
   <g id="patch_167">
    <path d="M 229.606119 307.584 
L 230.36599 307.584 
L 230.36599 306.972122 
L 229.606119 306.972122 
z
" clip-path="url(#p307b628d75)" style="fill: #b0c4de"/>
   </g>
   <g id="patch_168">
    <path d="M 230.555957 307.584 
L 231.315827 307.584 
L 231.315827 306.714057 
L 230.555957 306.714057 
z
" clip-path="url(#p307b628d75)" style="fill: #b0c4de"/>
   </g>
   <g id="patch_169">
    <path d="M 231.505795 307.584 
L 232.265665 307.584 
L 232.265665 297.578556 
L 231.505795 297.578556 
z
" clip-path="url(#p307b628d75)" style="fill: #b0c4de"/>
   </g>
   <g id="patch_170">
    <path d="M 232.455633 307.584 
L 233.215503 307.584 
L 233.215503 287.71875 
L 232.455633 287.71875 
z
" clip-path="url(#p307b628d75)" style="fill: #b0c4de"/>
   </g>
   <g id="patch_171">
    <path d="M 233.405471 307.584 
L 234.165341 307.584 
L 234.165341 307.366849 
L 233.405471 307.366849 
z
" clip-path="url(#p307b628d75)" style="fill: #b0c4de"/>
   </g>
   <g id="patch_172">
    <path d="M 234.355308 307.584 
L 235.115178 307.584 
L 235.115178 306.915747 
L 234.355308 306.915747 
z
" clip-path="url(#p307b628d75)" style="fill: #b0c4de"/>
   </g>
   <g id="patch_173">
    <path d="M 235.305146 307.584 
L 236.065016 307.584 
L 236.065016 299.720407 
L 235.305146 299.720407 
z
" clip-path="url(#p307b628d75)" style="fill: #b0c4de"/>
   </g>
   <g id="patch_174">
    <path d="M 236.254984 307.584 
L 237.014854 307.584 
L 237.014854 298.799034 
L 236.254984 298.799034 
z
" clip-path="url(#p307b628d75)" style="fill: #b0c4de"/>
   </g>
   <g id="patch_175">
    <path d="M 237.204822 307.584 
L 237.964692 307.584 
L 237.964692 306.673695 
L 237.204822 306.673695 
z
" clip-path="url(#p307b628d75)" style="fill: #b0c4de"/>
   </g>
   <g id="patch_176">
    <path d="M 238.154659 307.584 
L 238.914529 307.584 
L 238.914529 304.207206 
L 238.154659 304.207206 
z
" clip-path="url(#p307b628d75)" style="fill: #b0c4de"/>
   </g>
   <g id="patch_177">
    <path d="M 239.104497 307.584 
L 239.864367 307.584 
L 239.864367 293.873758 
L 239.104497 293.873758 
z
" clip-path="url(#p307b628d75)" style="fill: #b0c4de"/>
   </g>
   <g id="patch_178">
    <path d="M 240.054335 307.584 
L 240.814205 307.584 
L 240.814205 305.966417 
L 240.054335 305.966417 
z
" clip-path="url(#p307b628d75)" style="fill: #b0c4de"/>
   </g>
   <g id="patch_179">
    <path d="M 241.004173 307.584 
L 241.764043 307.584 
L 241.764043 285.499457 
L 241.004173 285.499457 
z
" clip-path="url(#p307b628d75)" style="fill: #b0c4de"/>
   </g>
   <g id="patch_180">
    <path d="M 241.95401 307.584 
L 242.713881 307.584 
L 242.713881 307.243349 
L 241.95401 307.243349 
z
" clip-path="url(#p307b628d75)" style="fill: #b0c4de"/>
   </g>
   <g id="patch_181">
    <path d="M 242.903848 307.584 
L 243.663718 307.584 
L 243.663718 271.395911 
L 242.903848 271.395911 
z
" clip-path="url(#p307b628d75)" style="fill: #b0c4de"/>
   </g>
   <g id="patch_182">
    <path d="M 243.853686 307.584 
L 244.613556 307.584 
L 244.613556 305.196958 
L 243.853686 305.196958 
z
" clip-path="url(#p307b628d75)" style="fill: #b0c4de"/>
   </g>
   <g id="patch_183">
    <path d="M 244.803524 307.584 
L 245.563394 307.584 
L 245.563394 288.690059 
L 244.803524 288.690059 
z
" clip-path="url(#p307b628d75)" style="fill: #b0c4de"/>
   </g>
   <g id="patch_184">
    <path d="M 245.753361 307.584 
L 246.513232 307.584 
L 246.513232 283.268242 
L 245.753361 283.268242 
z
" clip-path="url(#p307b628d75)" style="fill: #b0c4de"/>
   </g>
   <g id="patch_185">
    <path d="M 246.703199 307.584 
L 247.463069 307.584 
L 247.463069 305.029557 
L 246.703199 305.029557 
z
" clip-path="url(#p307b628d75)" style="fill: #b0c4de"/>
   </g>
   <g id="patch_186">
    <path d="M 247.653037 307.584 
L 248.412907 307.584 
L 248.412907 294.882142 
L 247.653037 294.882142 
z
" clip-path="url(#p307b628d75)" style="fill: #b0c4de"/>
   </g>
   <g id="patch_187">
    <path d="M 248.602875 307.584 
L 249.362745 307.584 
L 249.362745 252.432475 
L 248.602875 252.432475 
z
" clip-path="url(#p307b628d75)" style="fill: #b0c4de"/>
   </g>
   <g id="patch_188">
    <path d="M 249.552712 307.584 
L 250.312583 307.584 
L 250.312583 300.322926 
L 249.552712 300.322926 
z
" clip-path="url(#p307b628d75)" style="fill: #b0c4de"/>
   </g>
   <g id="patch_189">
    <path d="M 250.50255 307.584 
L 251.26242 307.584 
L 251.26242 303.417746 
L 250.50255 303.417746 
z
" clip-path="url(#p307b628d75)" style="fill: #b0c4de"/>
   </g>
   <g id="patch_190">
    <path d="M 251.452388 307.584 
L 252.212258 307.584 
L 252.212258 304.436589 
L 251.452388 304.436589 
z
" clip-path="url(#p307b628d75)" style="fill: #b0c4de"/>
   </g>
   <g id="patch_191">
    <path d="M 252.402226 307.584 
L 253.162096 307.584 
L 253.162096 305.995801 
L 252.402226 305.995801 
z
" clip-path="url(#p307b628d75)" style="fill: #b0c4de"/>
   </g>
   <g id="patch_192">
    <path d="M 253.352063 307.584 
L 254.111934 307.584 
L 254.111934 306.036576 
L 253.352063 306.036576 
z
" clip-path="url(#p307b628d75)" style="fill: #b0c4de"/>
   </g>
   <g id="patch_193">
    <path d="M 254.301901 307.584 
L 255.061771 307.584 
L 255.061771 299.865817 
L 254.301901 299.865817 
z
" clip-path="url(#p307b628d75)" style="fill: #b0c4de"/>
   </g>
   <g id="patch_194">
    <path d="M 255.251739 307.584 
L 256.011609 307.584 
L 256.011609 297.96217 
L 255.251739 297.96217 
z
" clip-path="url(#p307b628d75)" style="fill: #b0c4de"/>
   </g>
   <g id="patch_195">
    <path d="M 256.201577 307.584 
L 256.961447 307.584 
L 256.961447 267.105122 
L 256.201577 267.105122 
z
" clip-path="url(#p307b628d75)" style="fill: #b0c4de"/>
   </g>
   <g id="patch_196">
    <path d="M 257.151414 307.584 
L 257.911285 307.584 
L 257.911285 277.963532 
L 257.151414 277.963532 
z
" clip-path="url(#p307b628d75)" style="fill: #b0c4de"/>
   </g>
   <g id="patch_197">
    <path d="M 258.101252 307.584 
L 258.861122 307.584 
L 258.861122 249.425509 
L 258.101252 249.425509 
z
" clip-path="url(#p307b628d75)" style="fill: #b0c4de"/>
   </g>
   <g id="patch_198">
    <path d="M 259.05109 307.584 
L 259.81096 307.584 
L 259.81096 246.274092 
L 259.05109 246.274092 
z
" clip-path="url(#p307b628d75)" style="fill: #b0c4de"/>
   </g>
   <g id="patch_199">
    <path d="M 260.000928 307.584 
L 260.760798 307.584 
L 260.760798 88.536165 
L 260.000928 88.536165 
z
" clip-path="url(#p307b628d75)" style="fill: #b0c4de"/>
   </g>
   <g id="patch_200">
    <path d="M 260.950765 307.584 
L 261.710636 307.584 
L 261.710636 284.035439 
L 260.950765 284.035439 
z
" clip-path="url(#p307b628d75)" style="fill: #b0c4de"/>
   </g>
   <g id="patch_201">
    <path d="M 261.900603 307.584 
L 262.660473 307.584 
L 262.660473 294.508602 
L 261.900603 294.508602 
z
" clip-path="url(#p307b628d75)" style="fill: #b0c4de"/>
   </g>
   <g id="patch_202">
    <path d="M 262.850441 307.584 
L 263.610311 307.584 
L 263.610311 219.98537 
L 262.850441 219.98537 
z
" clip-path="url(#p307b628d75)" style="fill: #b0c4de"/>
   </g>
   <g id="patch_203">
    <path d="M 263.800279 307.584 
L 264.560149 307.584 
L 264.560149 300.97139 
L 263.800279 300.97139 
z
" clip-path="url(#p307b628d75)" style="fill: #b0c4de"/>
   </g>
   <g id="patch_204">
    <path d="M 264.750116 307.584 
L 265.509987 307.584 
L 265.509987 262.321734 
L 264.750116 262.321734 
z
" clip-path="url(#p307b628d75)" style="fill: #b0c4de"/>
   </g>
   <g id="patch_205">
    <path d="M 265.699954 307.584 
L 266.459824 307.584 
L 266.459824 285.757781 
L 265.699954 285.757781 
z
" clip-path="url(#p307b628d75)" style="fill: #b0c4de"/>
   </g>
   <g id="patch_206">
    <path d="M 266.649792 307.584 
L 267.409662 307.584 
L 267.409662 301.087336 
L 266.649792 301.087336 
z
" clip-path="url(#p307b628d75)" style="fill: #b0c4de"/>
   </g>
   <g id="patch_207">
    <path d="M 267.59963 307.584 
L 268.3595 307.584 
L 268.3595 298.306788 
L 267.59963 298.306788 
z
" clip-path="url(#p307b628d75)" style="fill: #b0c4de"/>
   </g>
   <g id="patch_208">
    <path d="M 268.549468 307.584 
L 269.309338 307.584 
L 269.309338 287.54671 
L 268.549468 287.54671 
z
" clip-path="url(#p307b628d75)" style="fill: #b0c4de"/>
   </g>
   <g id="patch_209">
    <path d="M 269.499305 307.584 
L 270.259175 307.584 
L 270.259175 289.714017 
L 269.499305 289.714017 
z
" clip-path="url(#p307b628d75)" style="fill: #b0c4de"/>
   </g>
   <g id="patch_210">
    <path d="M 270.449143 307.584 
L 271.209013 307.584 
L 271.209013 294.619766 
L 270.449143 294.619766 
z
" clip-path="url(#p307b628d75)" style="fill: #b0c4de"/>
   </g>
   <g id="patch_211">
    <path d="M 271.398981 307.584 
L 272.158851 307.584 
L 272.158851 212.47638 
L 271.398981 212.47638 
z
" clip-path="url(#p307b628d75)" style="fill: #b0c4de"/>
   </g>
   <g id="patch_212">
    <path d="M 272.348819 307.584 
L 273.108689 307.584 
L 273.108689 236.701246 
L 272.348819 236.701246 
z
" clip-path="url(#p307b628d75)" style="fill: #b0c4de"/>
   </g>
   <g id="patch_213">
    <path d="M 273.298656 307.584 
L 274.058527 307.584 
L 274.058527 245.397212 
L 273.298656 245.397212 
z
" clip-path="url(#p307b628d75)" style="fill: #b0c4de"/>
   </g>
   <g id="patch_214">
    <path d="M 274.248494 307.584 
L 275.008364 307.584 
L 275.008364 194.050261 
L 274.248494 194.050261 
z
" clip-path="url(#p307b628d75)" style="fill: #b0c4de"/>
   </g>
   <g id="patch_215">
    <path d="M 275.198332 307.584 
L 275.958202 307.584 
L 275.958202 234.085984 
L 275.198332 234.085984 
z
" clip-path="url(#p307b628d75)" style="fill: #b0c4de"/>
   </g>
   <g id="patch_216">
    <path d="M 276.14817 307.584 
L 276.90804 307.584 
L 276.90804 247.096044 
L 276.14817 247.096044 
z
" clip-path="url(#p307b628d75)" style="fill: #b0c4de"/>
   </g>
   <g id="patch_217">
    <path d="M 277.098007 307.584 
L 277.857878 307.584 
L 277.857878 303.389451 
L 277.098007 303.389451 
z
" clip-path="url(#p307b628d75)" style="fill: #b0c4de"/>
   </g>
   <g id="patch_218">
    <path d="M 278.047845 307.584 
L 278.807715 307.584 
L 278.807715 293.060905 
L 278.047845 293.060905 
z
" clip-path="url(#p307b628d75)" style="fill: #b0c4de"/>
   </g>
   <g id="patch_219">
    <path d="M 278.997683 307.584 
L 279.757553 307.584 
L 279.757553 303.772365 
L 278.997683 303.772365 
z
" clip-path="url(#p307b628d75)" style="fill: #b0c4de"/>
   </g>
   <g id="patch_220">
    <path d="M 279.947521 307.584 
L 280.707391 307.584 
L 280.707391 304.449558 
L 279.947521 304.449558 
z
" clip-path="url(#p307b628d75)" style="fill: #b0c4de"/>
   </g>
   <g id="patch_221">
    <path d="M 280.897358 307.584 
L 281.657229 307.584 
L 281.657229 263.080378 
L 280.897358 263.080378 
z
" clip-path="url(#p307b628d75)" style="fill: #b0c4de"/>
   </g>
   <g id="patch_222">
    <path d="M 281.847196 307.584 
L 282.607066 307.584 
L 282.607066 301.03228 
L 281.847196 301.03228 
z
" clip-path="url(#p307b628d75)" style="fill: #b0c4de"/>
   </g>
   <g id="patch_223">
    <path d="M 282.797034 307.584 
L 283.556904 307.584 
L 283.556904 248.050875 
L 282.797034 248.050875 
z
" clip-path="url(#p307b628d75)" style="fill: #b0c4de"/>
   </g>
   <g id="patch_224">
    <path d="M 283.746872 307.584 
L 284.506742 307.584 
L 284.506742 297.604597 
L 283.746872 297.604597 
z
" clip-path="url(#p307b628d75)" style="fill: #b0c4de"/>
   </g>
   <g id="patch_225">
    <path d="M 284.696709 307.584 
L 285.45658 307.584 
L 285.45658 277.770057 
L 284.696709 277.770057 
z
" clip-path="url(#p307b628d75)" style="fill: #b0c4de"/>
   </g>
   <g id="patch_226">
    <path d="M 285.646547 307.584 
L 286.406417 307.584 
L 286.406417 291.370445 
L 285.646547 291.370445 
z
" clip-path="url(#p307b628d75)" style="fill: #b0c4de"/>
   </g>
   <g id="patch_227">
    <path d="M 286.596385 307.584 
L 287.356255 307.584 
L 287.356255 303.473404 
L 286.596385 303.473404 
z
" clip-path="url(#p307b628d75)" style="fill: #b0c4de"/>
   </g>
   <g id="patch_228">
    <path d="M 287.546223 307.584 
L 288.306093 307.584 
L 288.306093 251.304868 
L 287.546223 251.304868 
z
" clip-path="url(#p307b628d75)" style="fill: #b0c4de"/>
   </g>
   <g id="patch_229">
    <path d="M 288.49606 307.584 
L 289.255931 307.584 
L 289.255931 297.311422 
L 288.49606 297.311422 
z
" clip-path="url(#p307b628d75)" style="fill: #b0c4de"/>
   </g>
   <g id="patch_230">
    <path d="M 289.445898 307.584 
L 290.205768 307.584 
L 290.205768 298.38839 
L 289.445898 298.38839 
z
" clip-path="url(#p307b628d75)" style="fill: #b0c4de"/>
   </g>
   <g id="patch_231">
    <path d="M 290.395736 307.584 
L 291.155606 307.584 
L 291.155606 276.394729 
L 290.395736 276.394729 
z
" clip-path="url(#p307b628d75)" style="fill: #b0c4de"/>
   </g>
   <g id="patch_232">
    <path d="M 291.345574 307.584 
L 292.105444 307.584 
L 292.105444 266.867877 
L 291.345574 266.867877 
z
" clip-path="url(#p307b628d75)" style="fill: #b0c4de"/>
   </g>
   <g id="patch_233">
    <path d="M 292.295411 307.584 
L 293.055282 307.584 
L 293.055282 257.330454 
L 292.295411 257.330454 
z
" clip-path="url(#p307b628d75)" style="fill: #b0c4de"/>
   </g>
   <g id="patch_234">
    <path d="M 293.245249 307.584 
L 294.005119 307.584 
L 294.005119 291.216421 
L 293.245249 291.216421 
z
" clip-path="url(#p307b628d75)" style="fill: #b0c4de"/>
   </g>
   <g id="patch_235">
    <path d="M 294.195087 307.584 
L 294.954957 307.584 
L 294.954957 214.239165 
L 294.195087 214.239165 
z
" clip-path="url(#p307b628d75)" style="fill: #b0c4de"/>
   </g>
   <g id="patch_236">
    <path d="M 295.144925 307.584 
L 295.904795 307.584 
L 295.904795 230.757716 
L 295.144925 230.757716 
z
" clip-path="url(#p307b628d75)" style="fill: #b0c4de"/>
   </g>
   <g id="patch_237">
    <path d="M 296.094762 307.584 
L 296.854633 307.584 
L 296.854633 285.102296 
L 296.094762 285.102296 
z
" clip-path="url(#p307b628d75)" style="fill: #b0c4de"/>
   </g>
   <g id="patch_238">
    <path d="M 297.0446 307.584 
L 297.80447 307.584 
L 297.80447 285.825639 
L 297.0446 285.825639 
z
" clip-path="url(#p307b628d75)" style="fill: #b0c4de"/>
   </g>
   <g id="patch_239">
    <path d="M 297.994438 307.584 
L 298.754308 307.584 
L 298.754308 273.304546 
L 297.994438 273.304546 
z
" clip-path="url(#p307b628d75)" style="fill: #b0c4de"/>
   </g>
   <g id="patch_240">
    <path d="M 298.944276 307.584 
L 299.704146 307.584 
L 299.704146 278.724758 
L 298.944276 278.724758 
z
" clip-path="url(#p307b628d75)" style="fill: #b0c4de"/>
   </g>
   <g id="patch_241">
    <path d="M 299.894114 307.584 
L 300.653984 307.584 
L 300.653984 279.353256 
L 299.894114 279.353256 
z
" clip-path="url(#p307b628d75)" style="fill: #b0c4de"/>
   </g>
   <g id="patch_242">
    <path d="M 300.843951 307.584 
L 301.603821 307.584 
L 301.603821 304.38596 
L 300.843951 304.38596 
z
" clip-path="url(#p307b628d75)" style="fill: #b0c4de"/>
   </g>
   <g id="patch_243">
    <path d="M 301.793789 307.584 
L 302.553659 307.584 
L 302.553659 284.874016 
L 301.793789 284.874016 
z
" clip-path="url(#p307b628d75)" style="fill: #b0c4de"/>
   </g>
   <g id="patch_244">
    <path d="M 302.743627 307.584 
L 303.503497 307.584 
L 303.503497 304.084173 
L 302.743627 304.084173 
z
" clip-path="url(#p307b628d75)" style="fill: #b0c4de"/>
   </g>
   <g id="patch_245">
    <path d="M 303.693465 307.584 
L 304.453335 307.584 
L 304.453335 288.046677 
L 303.693465 288.046677 
z
" clip-path="url(#p307b628d75)" style="fill: #b0c4de"/>
   </g>
   <g id="patch_246">
    <path d="M 304.643302 307.584 
L 305.403173 307.584 
L 305.403173 306.016659 
L 304.643302 306.016659 
z
" clip-path="url(#p307b628d75)" style="fill: #b0c4de"/>
   </g>
   <g id="patch_247">
    <path d="M 305.59314 307.584 
L 306.35301 307.584 
L 306.35301 254.385685 
L 305.59314 254.385685 
z
" clip-path="url(#p307b628d75)" style="fill: #b0c4de"/>
   </g>
   <g id="patch_248">
    <path d="M 306.542978 307.584 
L 307.302848 307.584 
L 307.302848 230.398555 
L 306.542978 230.398555 
z
" clip-path="url(#p307b628d75)" style="fill: #b0c4de"/>
   </g>
   <g id="patch_249">
    <path d="M 307.492816 307.584 
L 308.252686 307.584 
L 308.252686 243.513824 
L 307.492816 243.513824 
z
" clip-path="url(#p307b628d75)" style="fill: #b0c4de"/>
   </g>
   <g id="patch_250">
    <path d="M 308.442653 307.584 
L 309.202524 307.584 
L 309.202524 239.707478 
L 308.442653 239.707478 
z
" clip-path="url(#p307b628d75)" style="fill: #b0c4de"/>
   </g>
   <g id="patch_251">
    <path d="M 309.392491 307.584 
L 310.152361 307.584 
L 310.152361 306.974344 
L 309.392491 306.974344 
z
" clip-path="url(#p307b628d75)" style="fill: #b0c4de"/>
   </g>
   <g id="patch_252">
    <path d="M 310.342329 307.584 
L 311.102199 307.584 
L 311.102199 257.943493 
L 310.342329 257.943493 
z
" clip-path="url(#p307b628d75)" style="fill: #b0c4de"/>
   </g>
   <g id="patch_253">
    <path d="M 311.292167 307.584 
L 312.052037 307.584 
L 312.052037 201.093493 
L 311.292167 201.093493 
z
" clip-path="url(#p307b628d75)" style="fill: #b0c4de"/>
   </g>
   <g id="patch_254">
    <path d="M 312.242004 307.584 
L 313.001875 307.584 
L 313.001875 280.497698 
L 312.242004 280.497698 
z
" clip-path="url(#p307b628d75)" style="fill: #b0c4de"/>
   </g>
   <g id="patch_255">
    <path d="M 313.191842 307.584 
L 313.951712 307.584 
L 313.951712 291.140279 
L 313.191842 291.140279 
z
" clip-path="url(#p307b628d75)" style="fill: #b0c4de"/>
   </g>
   <g id="patch_256">
    <path d="M 314.14168 307.584 
L 314.90155 307.584 
L 314.90155 192.480598 
L 314.14168 192.480598 
z
" clip-path="url(#p307b628d75)" style="fill: #b0c4de"/>
   </g>
   <g id="patch_257">
    <path d="M 315.091518 307.584 
L 315.851388 307.584 
L 315.851388 255.505583 
L 315.091518 255.505583 
z
" clip-path="url(#p307b628d75)" style="fill: #b0c4de"/>
   </g>
   <g id="patch_258">
    <path d="M 316.041355 307.584 
L 316.801226 307.584 
L 316.801226 210.581041 
L 316.041355 210.581041 
z
" clip-path="url(#p307b628d75)" style="fill: #b0c4de"/>
   </g>
   <g id="patch_259">
    <path d="M 316.991193 307.584 
L 317.751063 307.584 
L 317.751063 249.493146 
L 316.991193 249.493146 
z
" clip-path="url(#p307b628d75)" style="fill: #b0c4de"/>
   </g>
   <g id="patch_260">
    <path d="M 317.941031 307.584 
L 318.700901 307.584 
L 318.700901 275.095902 
L 317.941031 275.095902 
z
" clip-path="url(#p307b628d75)" style="fill: #b0c4de"/>
   </g>
   <g id="patch_261">
    <path d="M 318.890869 307.584 
L 319.650739 307.584 
L 319.650739 291.329702 
L 318.890869 291.329702 
z
" clip-path="url(#p307b628d75)" style="fill: #b0c4de"/>
   </g>
   <g id="patch_262">
    <path d="M 319.840706 307.584 
L 320.600577 307.584 
L 320.600577 307.112472 
L 319.840706 307.112472 
z
" clip-path="url(#p307b628d75)" style="fill: #b0c4de"/>
   </g>
   <g id="patch_263">
    <path d="M 320.790544 307.584 
L 321.550414 307.584 
L 321.550414 254.152148 
L 320.790544 254.152148 
z
" clip-path="url(#p307b628d75)" style="fill: #b0c4de"/>
   </g>
   <g id="patch_264">
    <path d="M 321.740382 307.584 
L 322.500252 307.584 
L 322.500252 275.271534 
L 321.740382 275.271534 
z
" clip-path="url(#p307b628d75)" style="fill: #b0c4de"/>
   </g>
   <g id="patch_265">
    <path d="M 322.69022 307.584 
L 323.45009 307.584 
L 323.45009 304.532989 
L 322.69022 304.532989 
z
" clip-path="url(#p307b628d75)" style="fill: #b0c4de"/>
   </g>
   <g id="patch_266">
    <path d="M 323.640057 307.584 
L 324.399928 307.584 
L 324.399928 267.638219 
L 323.640057 267.638219 
z
" clip-path="url(#p307b628d75)" style="fill: #b0c4de"/>
   </g>
   <g id="patch_267">
    <path d="M 324.589895 307.584 
L 325.349765 307.584 
L 325.349765 267.48606 
L 324.589895 267.48606 
z
" clip-path="url(#p307b628d75)" style="fill: #b0c4de"/>
   </g>
   <g id="patch_268">
    <path d="M 325.539733 307.584 
L 326.299603 307.584 
L 326.299603 294.730136 
L 325.539733 294.730136 
z
" clip-path="url(#p307b628d75)" style="fill: #b0c4de"/>
   </g>
   <g id="patch_269">
    <path d="M 326.489571 307.584 
L 327.249441 307.584 
L 327.249441 264.65409 
L 326.489571 264.65409 
z
" clip-path="url(#p307b628d75)" style="fill: #b0c4de"/>
   </g>
   <g id="patch_270">
    <path d="M 327.439408 307.584 
L 328.199279 307.584 
L 328.199279 278.591622 
L 327.439408 278.591622 
z
" clip-path="url(#p307b628d75)" style="fill: #b0c4de"/>
   </g>
   <g id="patch_271">
    <path d="M 328.389246 307.584 
L 329.149116 307.584 
L 329.149116 285.436253 
L 328.389246 285.436253 
z
" clip-path="url(#p307b628d75)" style="fill: #b0c4de"/>
   </g>
   <g id="patch_272">
    <path d="M 329.339084 307.584 
L 330.098954 307.584 
L 330.098954 297.796592 
L 329.339084 297.796592 
z
" clip-path="url(#p307b628d75)" style="fill: #b0c4de"/>
   </g>
   <g id="patch_273">
    <path d="M 330.288922 307.584 
L 331.048792 307.584 
L 331.048792 274.625988 
L 330.288922 274.625988 
z
" clip-path="url(#p307b628d75)" style="fill: #b0c4de"/>
   </g>
   <g id="patch_274">
    <path d="M 331.23876 307.584 
L 331.99863 307.584 
L 331.99863 291.490522 
L 331.23876 291.490522 
z
" clip-path="url(#p307b628d75)" style="fill: #b0c4de"/>
   </g>
   <g id="patch_275">
    <path d="M 332.188597 307.584 
L 332.948467 307.584 
L 332.948467 253.244302 
L 332.188597 253.244302 
z
" clip-path="url(#p307b628d75)" style="fill: #b0c4de"/>
   </g>
   <g id="patch_276">
    <path d="M 333.138435 307.584 
L 333.898305 307.584 
L 333.898305 226.139787 
L 333.138435 226.139787 
z
" clip-path="url(#p307b628d75)" style="fill: #b0c4de"/>
   </g>
   <g id="patch_277">
    <path d="M 334.088273 307.584 
L 334.848143 307.584 
L 334.848143 294.610708 
L 334.088273 294.610708 
z
" clip-path="url(#p307b628d75)" style="fill: #b0c4de"/>
   </g>
   <g id="patch_278">
    <path d="M 335.038111 307.584 
L 335.797981 307.584 
L 335.797981 195.516071 
L 335.038111 195.516071 
z
" clip-path="url(#p307b628d75)" style="fill: #b0c4de"/>
   </g>
   <g id="patch_279">
    <path d="M 335.987948 307.584 
L 336.747819 307.584 
L 336.747819 257.795133 
L 335.987948 257.795133 
z
" clip-path="url(#p307b628d75)" style="fill: #b0c4de"/>
   </g>
   <g id="patch_280">
    <path d="M 336.937786 307.584 
L 337.697656 307.584 
L 337.697656 275.865365 
L 336.937786 275.865365 
z
" clip-path="url(#p307b628d75)" style="fill: #b0c4de"/>
   </g>
   <g id="patch_281">
    <path d="M 337.887624 307.584 
L 338.647494 307.584 
L 338.647494 262.324938 
L 337.887624 262.324938 
z
" clip-path="url(#p307b628d75)" style="fill: #b0c4de"/>
   </g>
   <g id="patch_282">
    <path d="M 338.837462 307.584 
L 339.597332 307.584 
L 339.597332 252.338963 
L 338.837462 252.338963 
z
" clip-path="url(#p307b628d75)" style="fill: #b0c4de"/>
   </g>
   <g id="patch_283">
    <path d="M 339.787299 307.584 
L 340.54717 307.584 
L 340.54717 270.190519 
L 339.787299 270.190519 
z
" clip-path="url(#p307b628d75)" style="fill: #b0c4de"/>
   </g>
   <g id="patch_284">
    <path d="M 340.737137 307.584 
L 341.497007 307.584 
L 341.497007 297.139873 
L 340.737137 297.139873 
z
" clip-path="url(#p307b628d75)" style="fill: #b0c4de"/>
   </g>
   <g id="patch_285">
    <path d="M 341.686975 307.584 
L 342.446845 307.584 
L 342.446845 286.459195 
L 341.686975 286.459195 
z
" clip-path="url(#p307b628d75)" style="fill: #b0c4de"/>
   </g>
   <g id="patch_286">
    <path d="M 342.636813 307.584 
L 343.396683 307.584 
L 343.396683 301.092966 
L 342.636813 301.092966 
z
" clip-path="url(#p307b628d75)" style="fill: #b0c4de"/>
   </g>
   <g id="patch_287">
    <path d="M 343.58665 307.584 
L 344.346521 307.584 
L 344.346521 264.585017 
L 343.58665 264.585017 
z
" clip-path="url(#p307b628d75)" style="fill: #b0c4de"/>
   </g>
   <g id="patch_288">
    <path d="M 344.536488 307.584 
L 345.296358 307.584 
L 345.296358 279.068958 
L 344.536488 279.068958 
z
" clip-path="url(#p307b628d75)" style="fill: #b0c4de"/>
   </g>
   <g id="patch_289">
    <path d="M 345.486326 307.584 
L 346.246196 307.584 
L 346.246196 289.1176 
L 345.486326 289.1176 
z
" clip-path="url(#p307b628d75)" style="fill: #b0c4de"/>
   </g>
   <g id="patch_290">
    <path d="M 346.436164 307.584 
L 347.196034 307.584 
L 347.196034 245.915888 
L 346.436164 245.915888 
z
" clip-path="url(#p307b628d75)" style="fill: #b0c4de"/>
   </g>
   <g id="patch_291">
    <path d="M 347.386001 307.584 
L 348.145872 307.584 
L 348.145872 237.226191 
L 347.386001 237.226191 
z
" clip-path="url(#p307b628d75)" style="fill: #b0c4de"/>
   </g>
   <g id="patch_292">
    <path d="M 348.335839 307.584 
L 349.095709 307.584 
L 349.095709 299.320404 
L 348.335839 299.320404 
z
" clip-path="url(#p307b628d75)" style="fill: #b0c4de"/>
   </g>
   <g id="patch_293">
    <path d="M 349.285677 307.584 
L 350.045547 307.584 
L 350.045547 258.605473 
L 349.285677 258.605473 
z
" clip-path="url(#p307b628d75)" style="fill: #b0c4de"/>
   </g>
   <g id="patch_294">
    <path d="M 350.235515 307.584 
L 350.995385 307.584 
L 350.995385 228.068047 
L 350.235515 228.068047 
z
" clip-path="url(#p307b628d75)" style="fill: #b0c4de"/>
   </g>
   <g id="patch_295">
    <path d="M 351.185352 307.584 
L 351.945223 307.584 
L 351.945223 301.953559 
L 351.185352 301.953559 
z
" clip-path="url(#p307b628d75)" style="fill: #b0c4de"/>
   </g>
   <g id="patch_296">
    <path d="M 352.13519 307.584 
L 352.89506 307.584 
L 352.89506 217.742798 
L 352.13519 217.742798 
z
" clip-path="url(#p307b628d75)" style="fill: #b0c4de"/>
   </g>
   <g id="patch_297">
    <path d="M 353.085028 307.584 
L 353.844898 307.584 
L 353.844898 286.142316 
L 353.085028 286.142316 
z
" clip-path="url(#p307b628d75)" style="fill: #b0c4de"/>
   </g>
   <g id="patch_298">
    <path d="M 354.034866 307.584 
L 354.794736 307.584 
L 354.794736 283.240284 
L 354.034866 283.240284 
z
" clip-path="url(#p307b628d75)" style="fill: #b0c4de"/>
   </g>
   <g id="patch_299">
    <path d="M 354.984703 307.584 
L 355.744574 307.584 
L 355.744574 237.766481 
L 354.984703 237.766481 
z
" clip-path="url(#p307b628d75)" style="fill: #b0c4de"/>
   </g>
   <g id="patch_300">
    <path d="M 355.934541 307.584 
L 356.694411 307.584 
L 356.694411 300.221024 
L 355.934541 300.221024 
z
" clip-path="url(#p307b628d75)" style="fill: #b0c4de"/>
   </g>
   <g id="patch_301">
    <path d="M 356.884379 307.584 
L 357.644249 307.584 
L 357.644249 288.372738 
L 356.884379 288.372738 
z
" clip-path="url(#p307b628d75)" style="fill: #b0c4de"/>
   </g>
   <g id="patch_302">
    <path d="M 357.834217 307.584 
L 358.594087 307.584 
L 358.594087 298.206206 
L 357.834217 298.206206 
z
" clip-path="url(#p307b628d75)" style="fill: #b0c4de"/>
   </g>
   <g id="patch_303">
    <path d="M 358.784054 307.584 
L 359.543925 307.584 
L 359.543925 291.63807 
L 358.784054 291.63807 
z
" clip-path="url(#p307b628d75)" style="fill: #b0c4de"/>
   </g>
   <g id="patch_304">
    <path d="M 359.733892 307.584 
L 360.493762 307.584 
L 360.493762 252.373264 
L 359.733892 252.373264 
z
" clip-path="url(#p307b628d75)" style="fill: #b0c4de"/>
   </g>
   <g id="patch_305">
    <path d="M 360.68373 307.584 
L 361.4436 307.584 
L 361.4436 289.175031 
L 360.68373 289.175031 
z
" clip-path="url(#p307b628d75)" style="fill: #b0c4de"/>
   </g>
   <g id="patch_306">
    <path d="M 361.633568 307.584 
L 362.393438 307.584 
L 362.393438 285.164033 
L 361.633568 285.164033 
z
" clip-path="url(#p307b628d75)" style="fill: #b0c4de"/>
   </g>
   <g id="patch_307">
    <path d="M 362.583406 307.584 
L 363.343276 307.584 
L 363.343276 305.809897 
L 362.583406 305.809897 
z
" clip-path="url(#p307b628d75)" style="fill: #b0c4de"/>
   </g>
   <g id="patch_308">
    <path d="M 363.533243 307.584 
L 364.293113 307.584 
L 364.293113 192.730353 
L 363.533243 192.730353 
z
" clip-path="url(#p307b628d75)" style="fill: #b0c4de"/>
   </g>
   <g id="patch_309">
    <path d="M 364.483081 307.584 
L 365.242951 307.584 
L 365.242951 270.359809 
L 364.483081 270.359809 
z
" clip-path="url(#p307b628d75)" style="fill: #b0c4de"/>
   </g>
   <g id="patch_310">
    <path d="M 365.432919 307.584 
L 366.192789 307.584 
L 366.192789 210.259837 
L 365.432919 210.259837 
z
" clip-path="url(#p307b628d75)" style="fill: #b0c4de"/>
   </g>
   <g id="patch_311">
    <path d="M 366.382757 307.584 
L 367.142627 307.584 
L 367.142627 198.306705 
L 366.382757 198.306705 
z
" clip-path="url(#p307b628d75)" style="fill: #b0c4de"/>
   </g>
   <g id="patch_312">
    <path d="M 367.332594 307.584 
L 368.092464 307.584 
L 368.092464 300.200491 
L 367.332594 300.200491 
z
" clip-path="url(#p307b628d75)" style="fill: #b0c4de"/>
   </g>
   <g id="patch_313">
    <path d="M 368.282432 307.584 
L 369.042302 307.584 
L 369.042302 261.618633 
L 368.282432 261.618633 
z
" clip-path="url(#p307b628d75)" style="fill: #b0c4de"/>
   </g>
   <g id="patch_314">
    <path d="M 369.23227 307.584 
L 369.99214 307.584 
L 369.99214 290.769959 
L 369.23227 290.769959 
z
" clip-path="url(#p307b628d75)" style="fill: #b0c4de"/>
   </g>
   <g id="patch_315">
    <path d="M 370.182108 307.584 
L 370.941978 307.584 
L 370.941978 306.933368 
L 370.182108 306.933368 
z
" clip-path="url(#p307b628d75)" style="fill: #b0c4de"/>
   </g>
   <g id="patch_316">
    <path d="M 371.131945 307.584 
L 371.891816 307.584 
L 371.891816 169.783838 
L 371.131945 169.783838 
z
" clip-path="url(#p307b628d75)" style="fill: #b0c4de"/>
   </g>
   <g id="patch_317">
    <path d="M 372.081783 307.584 
L 372.841653 307.584 
L 372.841653 258.352962 
L 372.081783 258.352962 
z
" clip-path="url(#p307b628d75)" style="fill: #b0c4de"/>
   </g>
   <g id="patch_318">
    <path d="M 373.031621 307.584 
L 373.791491 307.584 
L 373.791491 226.806113 
L 373.031621 226.806113 
z
" clip-path="url(#p307b628d75)" style="fill: #b0c4de"/>
   </g>
   <g id="patch_319">
    <path d="M 373.981459 307.584 
L 374.741329 307.584 
L 374.741329 292.286992 
L 373.981459 292.286992 
z
" clip-path="url(#p307b628d75)" style="fill: #b0c4de"/>
   </g>
   <g id="patch_320">
    <path d="M 374.931296 307.584 
L 375.691167 307.584 
L 375.691167 307.338709 
L 374.931296 307.338709 
z
" clip-path="url(#p307b628d75)" style="fill: #b0c4de"/>
   </g>
   <g id="patch_321">
    <path d="M 375.881134 307.584 
L 376.641004 307.584 
L 376.641004 123.299014 
L 375.881134 123.299014 
z
" clip-path="url(#p307b628d75)" style="fill: #b0c4de"/>
   </g>
   <g id="patch_322">
    <path d="M 376.830972 307.584 
L 377.590842 307.584 
L 377.590842 201.498002 
L 376.830972 201.498002 
z
" clip-path="url(#p307b628d75)" style="fill: #b0c4de"/>
   </g>
   <g id="patch_323">
    <path d="M 377.78081 307.584 
L 378.54068 307.584 
L 378.54068 52.172033 
L 377.78081 52.172033 
z
" clip-path="url(#p307b628d75)" style="fill: #b0c4de"/>
   </g>
   <g id="patch_324">
    <path d="M 378.730647 307.584 
L 379.490518 307.584 
L 379.490518 213.136171 
L 378.730647 213.136171 
z
" clip-path="url(#p307b628d75)" style="fill: #b0c4de"/>
   </g>
   <g id="patch_325">
    <path d="M 379.680485 307.584 
L 380.440355 307.584 
L 380.440355 180.69394 
L 379.680485 180.69394 
z
" clip-path="url(#p307b628d75)" style="fill: #b0c4de"/>
   </g>
   <g id="patch_326">
    <path d="M 380.630323 307.584 
L 381.390193 307.584 
L 381.390193 253.963372 
L 380.630323 253.963372 
z
" clip-path="url(#p307b628d75)" style="fill: #b0c4de"/>
   </g>
   <g id="patch_327">
    <path d="M 381.580161 307.584 
L 382.340031 307.584 
L 382.340031 303.751023 
L 381.580161 303.751023 
z
" clip-path="url(#p307b628d75)" style="fill: #b0c4de"/>
   </g>
   <g id="patch_328">
    <path d="M 382.529998 307.584 
L 383.289869 307.584 
L 383.289869 71.240266 
L 382.529998 71.240266 
z
" clip-path="url(#p307b628d75)" style="fill: #b0c4de"/>
   </g>
   <g id="patch_329">
    <path d="M 383.479836 307.584 
L 384.239706 307.584 
L 384.239706 265.990478 
L 383.479836 265.990478 
z
" clip-path="url(#p307b628d75)" style="fill: #b0c4de"/>
   </g>
   <g id="patch_330">
    <path d="M 384.429674 307.584 
L 385.189544 307.584 
L 385.189544 291.035421 
L 384.429674 291.035421 
z
" clip-path="url(#p307b628d75)" style="fill: #b0c4de"/>
   </g>
   <g id="patch_331">
    <path d="M 385.379512 307.584 
L 386.139382 307.584 
L 386.139382 219.46409 
L 385.379512 219.46409 
z
" clip-path="url(#p307b628d75)" style="fill: #b0c4de"/>
   </g>
   <g id="patch_332">
    <path d="M 386.329349 307.584 
L 387.08922 307.584 
L 387.08922 300.546919 
L 386.329349 300.546919 
z
" clip-path="url(#p307b628d75)" style="fill: #b0c4de"/>
   </g>
   <g id="patch_333">
    <path d="M 387.279187 307.584 
L 388.039057 307.584 
L 388.039057 254.995619 
L 387.279187 254.995619 
z
" clip-path="url(#p307b628d75)" style="fill: #b0c4de"/>
   </g>
   <g id="patch_334">
    <path d="M 388.229025 307.584 
L 388.988895 307.584 
L 388.988895 218.677422 
L 388.229025 218.677422 
z
" clip-path="url(#p307b628d75)" style="fill: #b0c4de"/>
   </g>
   <g id="patch_335">
    <path d="M 389.178863 307.584 
L 389.938733 307.584 
L 389.938733 191.565801 
L 389.178863 191.565801 
z
" clip-path="url(#p307b628d75)" style="fill: #b0c4de"/>
   </g>
   <g id="patch_336">
    <path d="M 390.1287 307.584 
L 390.888571 307.584 
L 390.888571 285.993434 
L 390.1287 285.993434 
z
" clip-path="url(#p307b628d75)" style="fill: #b0c4de"/>
   </g>
   <g id="patch_337">
    <path d="M 391.078538 307.584 
L 391.838408 307.584 
L 391.838408 240.494027 
L 391.078538 240.494027 
z
" clip-path="url(#p307b628d75)" style="fill: #b0c4de"/>
   </g>
   <g id="patch_338">
    <path d="M 392.028376 307.584 
L 392.788246 307.584 
L 392.788246 299.227675 
L 392.028376 299.227675 
z
" clip-path="url(#p307b628d75)" style="fill: #b0c4de"/>
   </g>
   <g id="patch_339">
    <path d="M 392.978214 307.584 
L 393.738084 307.584 
L 393.738084 276.901869 
L 392.978214 276.901869 
z
" clip-path="url(#p307b628d75)" style="fill: #b0c4de"/>
   </g>
   <g id="patch_340">
    <path d="M 393.928051 307.584 
L 394.687922 307.584 
L 394.687922 254.702872 
L 393.928051 254.702872 
z
" clip-path="url(#p307b628d75)" style="fill: #b0c4de"/>
   </g>
   <g id="patch_341">
    <path d="M 394.877889 307.584 
L 395.637759 307.584 
L 395.637759 233.073591 
L 394.877889 233.073591 
z
" clip-path="url(#p307b628d75)" style="fill: #b0c4de"/>
   </g>
   <g id="patch_342">
    <path d="M 395.827727 307.584 
L 396.587597 307.584 
L 396.587597 231.005734 
L 395.827727 231.005734 
z
" clip-path="url(#p307b628d75)" style="fill: #b0c4de"/>
   </g>
   <g id="patch_343">
    <path d="M 396.777565 307.584 
L 397.537435 307.584 
L 397.537435 293.594621 
L 396.777565 293.594621 
z
" clip-path="url(#p307b628d75)" style="fill: #b0c4de"/>
   </g>
   <g id="patch_344">
    <path d="M 397.727403 307.584 
L 398.487273 307.584 
L 398.487273 302.927559 
L 397.727403 302.927559 
z
" clip-path="url(#p307b628d75)" style="fill: #b0c4de"/>
   </g>
   <g id="matplotlib.axis_1"/>
   <g id="matplotlib.axis_2"/>
   <g id="patch_345">
    <path d="M 57.6 307.584 
L 57.6 41.472 
" style="fill: none; stroke: #000000; stroke-width: 0.8; stroke-linejoin: miter; stroke-linecap: square"/>
   </g>
   <g id="patch_346">
    <path d="M 414.72 307.584 
L 414.72 41.472 
" style="fill: none; stroke: #000000; stroke-width: 0.8; stroke-linejoin: miter; stroke-linecap: square"/>
   </g>
   <g id="patch_347">
    <path d="M 57.6 307.584 
L 414.72 307.584 
" style="fill: none; stroke: #000000; stroke-width: 0.8; stroke-linejoin: miter; stroke-linecap: square"/>
   </g>
   <g id="patch_348">
    <path d="M 57.6 41.472 
L 414.72 41.472 
" style="fill: none; stroke: #000000; stroke-width: 0.8; stroke-linejoin: miter; stroke-linecap: square"/>
   </g>
  </g>
 </g>
 <defs>
  <clipPath id="p307b628d75">
   <rect x="57.6" y="41.472" width="357.12" height="266.112"/>
  </clipPath>
 </defs>
</svg>
