<?xml version="1.0" encoding="utf-8" standalone="no"?>
<!DOCTYPE svg PUBLIC "-//W3C//DTD SVG 1.1//EN"
  "http://www.w3.org/Graphics/SVG/1.1/DTD/svg11.dtd">
<svg xmlns:xlink="http://www.w3.org/1999/xlink" width="460.8pt" height="345.6pt" viewBox="0 0 460.8 345.6" xmlns="http://www.w3.org/2000/svg" version="1.1">
 <metadata>
  <rdf:RDF xmlns:dc="http://purl.org/dc/elements/1.1/" xmlns:cc="http://creativecommons.org/ns#" xmlns:rdf="http://www.w3.org/1999/02/22-rdf-syntax-ns#">
   <cc:Work>
    <dc:type rdf:resource="http://purl.org/dc/dcmitype/StillImage"/>
    <dc:date>2023-08-08T20:57:33.624289</dc:date>
    <dc:format>image/svg+xml</dc:format>
    <dc:creator>
     <cc:Agent>
      <dc:title>Matplotlib v3.5.2, https://matplotlib.org/</dc:title>
     </cc:Agent>
    </dc:creator>
   </cc:Work>
  </rdf:RDF>
 </metadata>
 <defs>
  <style type="text/css">*{stroke-linejoin: round; stroke-linecap: butt}</style>
 </defs>
 <g id="figure_1">
  <g id="patch_1">
   <path d="M 0 345.6 
L 460.8 345.6 
L 460.8 0 
L 0 0 
z
" style="fill: #ffffff"/>
  </g>
  <g id="axes_1">
   <g id="patch_2">
    <path d="M 57.6 307.584 
L 414.72 307.584 
L 414.72 41.472 
L 57.6 41.472 
z
" style="fill: #ffffff"/>
   </g>
   <g id="PolyCollection_1">
    <defs>
     <path id="m3a53b2d3dc" d="M 73.832727 -121.210571 
L 73.832727 -101.896252 
L 74.784793 -98.54185 
L 75.73686 -58.859982 
L 76.688926 -57.103382 
L 77.640992 -67.110841 
L 78.593058 -93.608746 
L 79.545124 -73.245441 
L 80.49719 -70.833842 
L 81.449256 -56.434853 
L 82.401322 -54.359661 
L 83.353388 -58.672713 
L 84.305455 -76.504238 
L 85.257521 -71.807754 
L 86.209587 -78.339209 
L 87.161653 -61.397023 
L 88.113719 -101.599566 
L 89.065785 -53.129413 
L 90.017851 -58.0236 
L 90.969917 -80.234949 
L 91.921983 -120.133761 
L 92.87405 -87.253575 
L 93.826116 -61.973456 
L 94.778182 -120.526973 
L 95.730248 -98.485476 
L 96.682314 -81.796268 
L 97.63438 -78.265264 
L 98.586446 -101.063105 
L 99.538512 -74.540014 
L 100.490579 -81.924115 
L 101.442645 -54.371602 
L 102.394711 -98.277479 
L 103.346777 -79.996085 
L 104.298843 -99.345941 
L 105.250909 -56.465382 
L 106.202975 -67.60927 
L 107.155041 -110.051384 
L 108.107107 -108.794828 
L 109.059174 -73.613157 
L 110.01124 -73.144492 
L 110.963306 -107.725127 
L 111.915372 -100.837762 
L 112.867438 -50.449151 
L 113.819504 -89.904873 
L 114.77157 -122.85187 
L 115.723636 -70.933492 
L 116.675702 -70.081886 
L 117.627769 -126.071429 
L 118.579835 -71.971126 
L 119.531901 -110.872606 
L 120.483967 -99.786171 
L 121.436033 -63.900584 
L 122.388099 -145.466365 
L 123.340165 -67.858091 
L 124.292231 -76.123682 
L 125.244298 -133.349383 
L 126.196364 -94.10458 
L 127.14843 -53.497048 
L 128.100496 -61.44903 
L 129.052562 -66.483475 
L 130.004628 -88.452802 
L 130.956694 -100.340854 
L 131.90876 -92.062552 
L 132.860826 -56.612227 
L 133.812893 -65.322544 
L 134.764959 -116.821521 
L 135.717025 -87.703854 
L 136.669091 -66.657478 
L 137.621157 -75.996149 
L 138.573223 -85.956036 
L 139.525289 -70.464321 
L 140.477355 -54.201927 
L 141.429421 -144.923683 
L 142.381488 -112.409432 
L 143.333554 -88.869899 
L 144.28562 -117.295555 
L 145.237686 -84.055586 
L 146.189752 -67.796305 
L 147.141818 -76.812729 
L 148.093884 -174.91749 
L 149.04595 -53.78906 
L 149.998017 -62.195118 
L 150.950083 -70.876086 
L 151.902149 -63.124949 
L 152.854215 -59.661675 
L 153.806281 -100.385813 
L 154.758347 -55.667127 
L 155.710413 -57.644198 
L 156.662479 -93.276747 
L 157.614545 -65.564783 
L 158.566612 -77.509032 
L 159.518678 -79.110245 
L 160.470744 -67.421145 
L 161.42281 -71.773643 
L 162.374876 -56.19859 
L 163.326942 -53.151388 
L 164.279008 -83.228021 
L 165.231074 -75.156221 
L 166.18314 -125.722644 
L 167.135207 -102.212965 
L 168.087273 -64.309779 
L 169.039339 -92.046819 
L 169.991405 -71.691125 
L 170.943471 -80.889857 
L 171.895537 -58.24766 
L 172.847603 -80.888222 
L 173.799669 -86.249005 
L 174.751736 -93.55288 
L 175.703802 -53.482556 
L 176.655868 -54.607955 
L 177.607934 -77.097517 
L 178.56 -61.823603 
L 179.512066 -55.506247 
L 180.464132 -82.551888 
L 181.416198 -99.480337 
L 182.368264 -56.821033 
L 183.320331 -52.458808 
L 184.272397 -94.802302 
L 185.224463 -68.48298 
L 186.176529 -77.677849 
L 187.128595 -90.761342 
L 188.080661 -76.874771 
L 189.032727 -76.616136 
L 189.984793 -76.980041 
L 190.93686 -89.695599 
L 191.888926 -52.981978 
L 192.840992 -138.446422 
L 193.793058 -110.765318 
L 194.745124 -101.998741 
L 195.69719 -58.95635 
L 196.649256 -79.435704 
L 197.601322 -89.324529 
L 198.553388 -68.536441 
L 199.505455 -95.522085 
L 200.457521 -59.069666 
L 201.409587 -53.432257 
L 202.361653 -72.298494 
L 203.313719 -57.004108 
L 204.265785 -54.440582 
L 205.217851 -71.797692 
L 206.169917 -60.597089 
L 207.121983 -68.3308 
L 208.07405 -79.010882 
L 209.026116 -63.167946 
L 209.978182 -102.71731 
L 210.930248 -52.117972 
L 211.882314 -77.727202 
L 212.83438 -99.752433 
L 213.786446 -117.106763 
L 214.738512 -78.038112 
L 215.690579 -79.789749 
L 216.642645 -76.180743 
L 217.594711 -50.461739 
L 218.546777 -57.456833 
L 219.498843 -50.32134 
L 220.450909 -88.491531 
L 221.402975 -82.574561 
L 222.355041 -52.349025 
L 223.307107 -52.712728 
L 224.259174 -116.356222 
L 225.21124 -56.745861 
L 226.163306 -55.760716 
L 227.115372 -102.331247 
L 228.067438 -55.895115 
L 229.019504 -91.106448 
L 229.97157 -50.75471 
L 230.923636 -51.489016 
L 231.875702 -58.907778 
L 232.827769 -106.279764 
L 233.779835 -50.112 
L 234.731901 -50.264145 
L 235.683967 -65.666617 
L 236.636033 -66.960107 
L 237.588099 -51.476534 
L 238.540165 -56.93736 
L 239.492231 -86.033104 
L 240.444298 -54.497544 
L 241.396364 -115.078621 
L 242.34843 -52.023295 
L 243.300496 -101.297549 
L 244.252562 -57.138907 
L 245.204628 -127.706729 
L 246.156694 -76.489733 
L 247.10876 -58.085238 
L 248.060826 -71.401293 
L 249.012893 -130.40795 
L 249.964959 -73.328782 
L 250.917025 -67.561855 
L 251.869091 -59.576446 
L 252.821157 -57.387809 
L 253.773223 -54.481874 
L 254.725289 -79.558058 
L 255.677355 -102.880831 
L 256.629421 -116.919197 
L 257.581488 -85.864784 
L 258.533554 -119.387835 
L 259.48562 -119.183806 
L 260.437686 -142.453879 
L 261.389752 -121.378577 
L 262.341818 -117.842864 
L 263.293884 -147.056673 
L 264.24595 -97.067841 
L 265.198017 -119.653215 
L 266.150083 -150.123477 
L 267.102149 -63.740929 
L 268.054215 -125.003213 
L 269.006281 -80.067469 
L 269.958347 -86.385575 
L 270.910413 -96.737277 
L 271.862479 -139.595686 
L 272.814545 -125.205088 
L 273.766612 -150.396814 
L 274.718678 -119.69987 
L 275.670744 -163.349844 
L 276.62281 -131.863781 
L 277.574876 -53.089155 
L 278.526942 -121.489693 
L 279.479008 -56.200239 
L 280.431074 -79.6826 
L 281.38314 -104.451769 
L 282.335207 -102.381347 
L 283.287273 -139.710992 
L 284.239339 -73.516322 
L 285.191405 -89.546672 
L 286.143471 -94.741109 
L 287.095537 -55.775168 
L 288.047603 -160.020015 
L 288.999669 -59.825594 
L 289.951736 -69.121336 
L 290.903802 -114.235986 
L 291.855868 -109.592076 
L 292.807934 -130.4162 
L 293.76 -67.817326 
L 294.712066 -123.12497 
L 295.664132 -119.663952 
L 296.616198 -101.392995 
L 297.568264 -75.778332 
L 298.520331 -136.253509 
L 299.472397 -76.10702 
L 300.424463 -127.085363 
L 301.376529 -100.385792 
L 302.328595 -143.46171 
L 303.280661 -54.744311 
L 304.232727 -83.144472 
L 305.184793 -117.087832 
L 306.13686 -149.385774 
L 307.088926 -137.952914 
L 308.040992 -133.707309 
L 308.993058 -114.444317 
L 309.945124 -51.734423 
L 310.89719 -162.875402 
L 311.849256 -155.653576 
L 312.801322 -113.630021 
L 313.753388 -68.611848 
L 314.705455 -144.331421 
L 315.657521 -117.364826 
L 316.609587 -153.072297 
L 317.561653 -110.423603 
L 318.513719 -104.022514 
L 319.465785 -150.814507 
L 320.417851 -51.41639 
L 321.369917 -124.963037 
L 322.321983 -93.819777 
L 323.27405 -149.239689 
L 324.226116 -130.476262 
L 325.178182 -115.702708 
L 326.130248 -106.725378 
L 327.082314 -134.51413 
L 328.03438 -93.582494 
L 328.986446 -109.729118 
L 329.938512 -66.283753 
L 330.890579 -129.449427 
L 331.842645 -141.440354 
L 332.794711 -130.600775 
L 333.746777 -130.112308 
L 334.698843 -134.882124 
L 335.650909 -108.053296 
L 336.602975 -144.087566 
L 337.555041 -120.113088 
L 338.507107 -111.517284 
L 339.459174 -112.393291 
L 340.41124 -153.728709 
L 341.363306 -122.124685 
L 342.315372 -122.776826 
L 343.267438 -189.010143 
L 344.219504 -148.022382 
L 345.17157 -131.863785 
L 346.123636 -129.051738 
L 347.075702 -127.139846 
L 348.027769 -137.181194 
L 348.979835 -124.695737 
L 349.931901 -116.05548 
L 350.883967 -157.34453 
L 351.836033 -142.541458 
L 352.788099 -149.034924 
L 353.740165 -103.229498 
L 354.692231 -127.1503 
L 355.644298 -130.673355 
L 356.596364 -71.912244 
L 357.54843 -148.901092 
L 358.500496 -120.234804 
L 359.452562 -184.249297 
L 360.404628 -155.417332 
L 361.356694 -113.795391 
L 362.30876 -148.169414 
L 363.260826 -103.949615 
L 364.212893 -132.64314 
L 365.164959 -154.690728 
L 366.117025 -128.300475 
L 367.069091 -132.266858 
L 368.021157 -115.947724 
L 368.973223 -154.797434 
L 369.925289 -110.763913 
L 370.877355 -159.721665 
L 371.829421 -146.054965 
L 372.781488 -148.285682 
L 373.733554 -147.830294 
L 374.68562 -138.967856 
L 375.637686 -130.129116 
L 376.589752 -125.212199 
L 377.541818 -95.614443 
L 378.493884 -112.923397 
L 379.44595 -139.401441 
L 380.398017 -171.605728 
L 381.350083 -159.005423 
L 382.302149 -181.773868 
L 383.254215 -133.300703 
L 384.206281 -114.874828 
L 385.158347 -93.562048 
L 386.110413 -147.038589 
L 387.062479 -141.766768 
L 388.014545 -115.49139 
L 388.966612 -133.004485 
L 389.918678 -156.377843 
L 390.870744 -159.435331 
L 391.82281 -134.129999 
L 392.774876 -102.323788 
L 393.726942 -156.79968 
L 394.679008 -108.388015 
L 395.631074 -150.434667 
L 396.58314 -176.879422 
L 397.535207 -116.801886 
L 398.487273 -134.847445 
L 398.487273 -219.242731 
L 398.487273 -219.242731 
L 397.535207 -161.739261 
L 396.58314 -264.930825 
L 395.631074 -229.845723 
L 394.679008 -163.613703 
L 393.726942 -228.812597 
L 392.774876 -171.146678 
L 391.82281 -180.536777 
L 390.870744 -247.589408 
L 389.918678 -230.334086 
L 388.966612 -202.165596 
L 388.014545 -187.280626 
L 387.062479 -201.643093 
L 386.110413 -194.670834 
L 385.158347 -137.936696 
L 384.206281 -182.089783 
L 383.254215 -213.66543 
L 382.302149 -268.494946 
L 381.350083 -237.654751 
L 380.398017 -276.615543 
L 379.44595 -197.315454 
L 378.493884 -178.879658 
L 377.541818 -142.667423 
L 376.589752 -178.206041 
L 375.637686 -202.305784 
L 374.68562 -202.759446 
L 373.733554 -215.667472 
L 372.781488 -191.220647 
L 371.829421 -220.798741 
L 370.877355 -219.368591 
L 369.925289 -204.78101 
L 368.973223 -224.399208 
L 368.021157 -164.660043 
L 367.069091 -212.196996 
L 366.117025 -181.579424 
L 365.164959 -218.861817 
L 364.212893 -190.397527 
L 363.260826 -136.69227 
L 362.30876 -205.646496 
L 361.356694 -179.522532 
L 360.404628 -216.06377 
L 359.452562 -292.032 
L 358.500496 -179.88804 
L 357.54843 -210.242667 
L 356.596364 -83.329661 
L 355.644298 -190.81585 
L 354.692231 -179.060228 
L 353.740165 -156.929425 
L 352.788099 -222.57177 
L 351.836033 -208.063933 
L 350.883967 -225.557341 
L 349.931901 -183.369088 
L 348.979835 -187.879026 
L 348.027769 -203.916336 
L 347.075702 -189.45121 
L 346.123636 -175.48768 
L 345.17157 -185.18025 
L 344.219504 -216.490631 
L 343.267438 -265.486796 
L 342.315372 -167.247087 
L 341.363306 -159.416969 
L 340.41124 -214.958409 
L 339.459174 -175.529206 
L 338.507107 -167.563952 
L 337.555041 -166.049126 
L 336.602975 -204.442447 
L 335.650909 -162.650218 
L 334.698843 -211.915033 
L 333.746777 -184.947573 
L 332.794711 -196.436096 
L 331.842645 -204.238786 
L 330.890579 -189.486825 
L 329.938512 -71.007289 
L 328.986446 -163.953303 
L 328.03438 -116.00922 
L 327.082314 -181.312722 
L 326.130248 -155.632929 
L 325.178182 -173.824417 
L 324.226116 -176.820945 
L 323.27405 -208.150055 
L 322.321983 -114.135868 
L 321.369917 -191.286424 
L 320.417851 -52.184723 
L 319.465785 -218.444947 
L 318.513719 -143.124264 
L 317.561653 -162.011338 
L 316.609587 -219.81193 
L 315.657521 -144.58898 
L 314.705455 -211.957378 
L 313.753388 -73.85424 
L 312.801322 -156.358125 
L 311.849256 -209.840537 
L 310.89719 -210.396987 
L 309.945124 -52.705085 
L 308.993058 -139.018646 
L 308.040992 -180.546302 
L 307.088926 -190.952809 
L 306.13686 -203.304288 
L 305.184793 -165.876529 
L 304.232727 -98.951043 
L 303.280661 -56.629869 
L 302.328595 -210.126924 
L 301.376529 -129.715176 
L 300.424463 -175.890617 
L 299.472397 -87.191171 
L 298.520331 -189.088607 
L 297.568264 -88.088519 
L 296.616198 -136.646038 
L 295.664132 -159.312176 
L 294.712066 -177.791592 
L 293.76 -74.690399 
L 292.807934 -181.650376 
L 291.855868 -147.070781 
L 290.903802 -154.646613 
L 289.951736 -75.84968 
L 288.999669 -63.526823 
L 288.047603 -207.544182 
L 287.095537 -57.717841 
L 286.143471 -110.079873 
L 285.191405 -107.922759 
L 284.239339 -83.55175 
L 283.287273 -196.953617 
L 282.335207 -140.929773 
L 281.38314 -129.560876 
L 280.431074 -96.990221 
L 279.479008 -58.10639 
L 278.526942 -181.617395 
L 277.574876 -54.365471 
L 276.62281 -190.401021 
L 275.670744 -223.912584 
L 274.718678 -154.604481 
L 273.766612 -197.484818 
L 272.814545 -175.380826 
L 271.862479 -185.856609 
L 270.910413 -116.803179 
L 269.958347 -102.249143 
L 269.006281 -91.721385 
L 268.054215 -171.326263 
L 267.102149 -69.285179 
L 266.150083 -229.821288 
L 265.198017 -162.812185 
L 264.24595 -121.531773 
L 263.293884 -212.752922 
L 262.341818 -144.627504 
L 261.389752 -153.76404 
L 260.437686 -195.985005 
L 259.48562 -144.978402 
L 258.533554 -167.434517 
L 257.581488 -101.636674 
L 256.629421 -155.805737 
L 255.677355 -130.736307 
L 254.725289 -92.648677 
L 253.773223 -56.069321 
L 252.821157 -60.951894 
L 251.869091 -62.25122 
L 250.917025 -75.28882 
L 249.964959 -81.810422 
L 249.012893 -169.999726 
L 248.060826 -77.754459 
L 247.10876 -61.233023 
L 246.156694 -85.673735 
L 245.204628 -167.523556 
L 244.252562 -59.900449 
L 243.300496 -140.41901 
L 242.34843 -52.767333 
L 241.396364 -155.668822 
L 240.444298 -56.159425 
L 239.492231 -100.237793 
L 238.540165 -58.844378 
L 237.588099 -52.080257 
L 236.636033 -70.917794 
L 235.683967 -72.066648 
L 234.731901 -50.493029 
L 233.779835 -50.34577 
L 232.827769 -157.518928 
L 231.875702 -62.411037 
L 230.923636 -52.061695 
L 229.97157 -51.173326 
L 229.019504 -113.834312 
L 228.067438 -57.540467 
L 227.115372 -134.348402 
L 226.163306 -59.022362 
L 225.21124 -58.50841 
L 224.259174 -163.749109 
L 223.307107 -53.696969 
L 222.355041 -53.474981 
L 221.402975 -105.448647 
L 220.450909 -106.282139 
L 219.498843 -50.545647 
L 218.546777 -60.757802 
L 217.594711 -50.711842 
L 216.642645 -83.617827 
L 215.690579 -96.787344 
L 214.738512 -84.756891 
L 213.786446 -147.309456 
L 212.83438 -124.437296 
L 211.882314 -87.270375 
L 210.930248 -53.244721 
L 209.978182 -131.151497 
L 209.026116 -67.610715 
L 208.07405 -90.033671 
L 207.121983 -75.368081 
L 206.169917 -65.008318 
L 205.217851 -80.264749 
L 204.265785 -55.829054 
L 203.313719 -59.326355 
L 202.361653 -83.8073 
L 201.409587 -54.547333 
L 200.457521 -61.402275 
L 199.505455 -108.451621 
L 198.553388 -73.184642 
L 197.601322 -113.372669 
L 196.649256 -93.79912 
L 195.69719 -61.671645 
L 194.745124 -126.049886 
L 193.793058 -145.885483 
L 192.840992 -196.979763 
L 191.888926 -54.105118 
L 190.93686 -108.877317 
L 189.984793 -87.823612 
L 189.032727 -82.875618 
L 188.080661 -91.257265 
L 187.128595 -104.654785 
L 186.176529 -90.988436 
L 185.224463 -74.702411 
L 184.272397 -127.640578 
L 183.320331 -53.519431 
L 182.368264 -59.715839 
L 181.416198 -120.913857 
L 180.464132 -95.771291 
L 179.512066 -57.390004 
L 178.56 -67.988942 
L 177.607934 -89.0176 
L 176.655868 -56.285905 
L 175.703802 -55.088033 
L 174.751736 -106.995708 
L 173.799669 -100.202874 
L 172.847603 -91.557394 
L 171.895537 -60.890182 
L 170.943471 -98.509816 
L 169.991405 -79.85796 
L 169.039339 -112.177124 
L 168.087273 -70.57111 
L 167.135207 -130.600376 
L 166.18314 -153.040213 
L 165.231074 -84.494315 
L 164.279008 -102.491973 
L 163.326942 -54.819026 
L 162.374876 -59.045507 
L 161.42281 -79.371399 
L 160.470744 -75.705142 
L 159.518678 -100.899425 
L 158.566612 -89.399406 
L 157.614545 -74.59912 
L 156.662479 -103.941754 
L 155.710413 -60.230367 
L 154.758347 -58.870516 
L 153.806281 -116.467952 
L 152.854215 -63.40439 
L 151.902149 -69.971392 
L 150.950083 -79.083752 
L 149.998017 -66.39112 
L 149.04595 -55.039129 
L 148.093884 -229.977294 
L 147.141818 -85.878749 
L 146.189752 -72.95598 
L 145.237686 -98.606483 
L 144.28562 -144.843602 
L 143.333554 -109.84832 
L 142.381488 -151.63115 
L 141.429421 -185.51953 
L 140.477355 -55.7824 
L 139.525289 -79.455467 
L 138.573223 -99.647339 
L 137.621157 -85.565062 
L 136.669091 -75.748538 
L 135.717025 -113.889386 
L 134.764959 -174.256704 
L 133.812893 -72.624135 
L 132.860826 -59.370253 
L 131.90876 -127.181995 
L 130.956694 -121.893027 
L 130.004628 -107.216795 
L 129.052562 -72.542388 
L 128.100496 -65.39102 
L 127.14843 -54.735492 
L 126.196364 -106.705423 
L 125.244298 -181.920341 
L 124.292231 -86.358819 
L 123.340165 -76.481457 
L 122.388099 -177.47154 
L 121.436033 -69.390238 
L 120.483967 -134.786115 
L 119.531901 -139.01678 
L 118.579835 -82.846002 
L 117.627769 -157.625097 
L 116.675702 -78.571733 
L 115.723636 -84.731428 
L 114.77157 -158.111996 
L 113.819504 -105.083849 
L 112.867438 -51.045884 
L 111.915372 -123.784741 
L 110.963306 -128.817896 
L 110.01124 -88.40555 
L 109.059174 -80.435591 
L 108.107107 -130.52598 
L 107.155041 -129.441748 
L 106.202975 -73.256988 
L 105.250909 -58.658007 
L 104.298843 -124.533618 
L 103.346777 -97.120961 
L 102.394711 -123.845325 
L 101.442645 -55.967048 
L 100.490579 -98.156293 
L 99.538512 -82.742742 
L 98.586446 -119.903315 
L 97.63438 -91.061959 
L 96.682314 -95.583535 
L 95.730248 -116.76871 
L 94.778182 -146.141716 
L 93.826116 -66.410686 
L 92.87405 -105.938898 
L 91.921983 -145.846142 
L 90.969917 -96.16246 
L 90.017851 -61.372613 
L 89.065785 -54.710605 
L 88.113719 -124.984629 
L 87.161653 -65.508678 
L 86.209587 -88.581359 
L 85.257521 -78.283007 
L 84.305455 -84.932704 
L 83.353388 -63.761985 
L 82.401322 -56.369071 
L 81.449256 -60.124261 
L 80.49719 -78.06319 
L 79.545124 -83.423975 
L 78.593058 -115.802738 
L 77.640992 -72.395581 
L 76.688926 -62.155513 
L 75.73686 -61.892028 
L 74.784793 -123.240769 
L 73.832727 -121.210571 
z
" style="stroke: #0000ff; stroke-opacity: 0.2"/>
    </defs>
    <g clip-path="url(#pefee0d8e52)">
     <use xlink:href="#m3a53b2d3dc" x="0" y="345.6" style="fill: #0000ff; fill-opacity: 0.2; stroke: #0000ff; stroke-opacity: 0.2"/>
    </g>
   </g>
   <g id="matplotlib.axis_1">
    <g id="xtick_1">
     <g id="line2d_1">
      <defs>
       <path id="m816b4a829b" d="M 0 0 
L 0 3.5 
" style="stroke: #000000; stroke-width: 0.8"/>
      </defs>
      <g>
       <use xlink:href="#m816b4a829b" x="73.832727" y="307.584" style="stroke: #000000; stroke-width: 0.8"/>
      </g>
     </g>
     <g id="text_1">
      <!-- 0 -->
      <g transform="translate(70.651477 322.182437)scale(0.1 -0.1)">
       <defs>
        <path id="DejaVuSans-30" d="M 2034 4250 
Q 1547 4250 1301 3770 
Q 1056 3291 1056 2328 
Q 1056 1369 1301 889 
Q 1547 409 2034 409 
Q 2525 409 2770 889 
Q 3016 1369 3016 2328 
Q 3016 3291 2770 3770 
Q 2525 4250 2034 4250 
z
M 2034 4750 
Q 2819 4750 3233 4129 
Q 3647 3509 3647 2328 
Q 3647 1150 3233 529 
Q 2819 -91 2034 -91 
Q 1250 -91 836 529 
Q 422 1150 422 2328 
Q 422 3509 836 4129 
Q 1250 4750 2034 4750 
z
" transform="scale(0.015625)"/>
       </defs>
       <use xlink:href="#DejaVuSans-30"/>
      </g>
     </g>
    </g>
    <g id="xtick_2">
     <g id="line2d_2">
      <g>
       <use xlink:href="#m816b4a829b" x="121.436033" y="307.584" style="stroke: #000000; stroke-width: 0.8"/>
      </g>
     </g>
     <g id="text_2">
      <!-- 50 -->
      <g transform="translate(115.073533 322.182437)scale(0.1 -0.1)">
       <defs>
        <path id="DejaVuSans-35" d="M 691 4666 
L 3169 4666 
L 3169 4134 
L 1269 4134 
L 1269 2991 
Q 1406 3038 1543 3061 
Q 1681 3084 1819 3084 
Q 2600 3084 3056 2656 
Q 3513 2228 3513 1497 
Q 3513 744 3044 326 
Q 2575 -91 1722 -91 
Q 1428 -91 1123 -41 
Q 819 9 494 109 
L 494 744 
Q 775 591 1075 516 
Q 1375 441 1709 441 
Q 2250 441 2565 725 
Q 2881 1009 2881 1497 
Q 2881 1984 2565 2268 
Q 2250 2553 1709 2553 
Q 1456 2553 1204 2497 
Q 953 2441 691 2322 
L 691 4666 
z
" transform="scale(0.015625)"/>
       </defs>
       <use xlink:href="#DejaVuSans-35"/>
       <use xlink:href="#DejaVuSans-30" x="63.623047"/>
      </g>
     </g>
    </g>
    <g id="xtick_3">
     <g id="line2d_3">
      <g>
       <use xlink:href="#m816b4a829b" x="169.039339" y="307.584" style="stroke: #000000; stroke-width: 0.8"/>
      </g>
     </g>
     <g id="text_3">
      <!-- 100 -->
      <g transform="translate(159.495589 322.182437)scale(0.1 -0.1)">
       <defs>
        <path id="DejaVuSans-31" d="M 794 531 
L 1825 531 
L 1825 4091 
L 703 3866 
L 703 4441 
L 1819 4666 
L 2450 4666 
L 2450 531 
L 3481 531 
L 3481 0 
L 794 0 
L 794 531 
z
" transform="scale(0.015625)"/>
       </defs>
       <use xlink:href="#DejaVuSans-31"/>
       <use xlink:href="#DejaVuSans-30" x="63.623047"/>
       <use xlink:href="#DejaVuSans-30" x="127.246094"/>
      </g>
     </g>
    </g>
    <g id="xtick_4">
     <g id="line2d_4">
      <g>
       <use xlink:href="#m816b4a829b" x="216.642645" y="307.584" style="stroke: #000000; stroke-width: 0.8"/>
      </g>
     </g>
     <g id="text_4">
      <!-- 150 -->
      <g transform="translate(207.098895 322.182437)scale(0.1 -0.1)">
       <use xlink:href="#DejaVuSans-31"/>
       <use xlink:href="#DejaVuSans-35" x="63.623047"/>
       <use xlink:href="#DejaVuSans-30" x="127.246094"/>
      </g>
     </g>
    </g>
    <g id="xtick_5">
     <g id="line2d_5">
      <g>
       <use xlink:href="#m816b4a829b" x="264.24595" y="307.584" style="stroke: #000000; stroke-width: 0.8"/>
      </g>
     </g>
     <g id="text_5">
      <!-- 200 -->
      <g transform="translate(254.7022 322.182437)scale(0.1 -0.1)">
       <defs>
        <path id="DejaVuSans-32" d="M 1228 531 
L 3431 531 
L 3431 0 
L 469 0 
L 469 531 
Q 828 903 1448 1529 
Q 2069 2156 2228 2338 
Q 2531 2678 2651 2914 
Q 2772 3150 2772 3378 
Q 2772 3750 2511 3984 
Q 2250 4219 1831 4219 
Q 1534 4219 1204 4116 
Q 875 4013 500 3803 
L 500 4441 
Q 881 4594 1212 4672 
Q 1544 4750 1819 4750 
Q 2544 4750 2975 4387 
Q 3406 4025 3406 3419 
Q 3406 3131 3298 2873 
Q 3191 2616 2906 2266 
Q 2828 2175 2409 1742 
Q 1991 1309 1228 531 
z
" transform="scale(0.015625)"/>
       </defs>
       <use xlink:href="#DejaVuSans-32"/>
       <use xlink:href="#DejaVuSans-30" x="63.623047"/>
       <use xlink:href="#DejaVuSans-30" x="127.246094"/>
      </g>
     </g>
    </g>
    <g id="xtick_6">
     <g id="line2d_6">
      <g>
       <use xlink:href="#m816b4a829b" x="311.849256" y="307.584" style="stroke: #000000; stroke-width: 0.8"/>
      </g>
     </g>
     <g id="text_6">
      <!-- 250 -->
      <g transform="translate(302.305506 322.182437)scale(0.1 -0.1)">
       <use xlink:href="#DejaVuSans-32"/>
       <use xlink:href="#DejaVuSans-35" x="63.623047"/>
       <use xlink:href="#DejaVuSans-30" x="127.246094"/>
      </g>
     </g>
    </g>
    <g id="xtick_7">
     <g id="line2d_7">
      <g>
       <use xlink:href="#m816b4a829b" x="359.452562" y="307.584" style="stroke: #000000; stroke-width: 0.8"/>
      </g>
     </g>
     <g id="text_7">
      <!-- 300 -->
      <g transform="translate(349.908812 322.182437)scale(0.1 -0.1)">
       <defs>
        <path id="DejaVuSans-33" d="M 2597 2516 
Q 3050 2419 3304 2112 
Q 3559 1806 3559 1356 
Q 3559 666 3084 287 
Q 2609 -91 1734 -91 
Q 1441 -91 1130 -33 
Q 819 25 488 141 
L 488 750 
Q 750 597 1062 519 
Q 1375 441 1716 441 
Q 2309 441 2620 675 
Q 2931 909 2931 1356 
Q 2931 1769 2642 2001 
Q 2353 2234 1838 2234 
L 1294 2234 
L 1294 2753 
L 1863 2753 
Q 2328 2753 2575 2939 
Q 2822 3125 2822 3475 
Q 2822 3834 2567 4026 
Q 2313 4219 1838 4219 
Q 1578 4219 1281 4162 
Q 984 4106 628 3988 
L 628 4550 
Q 988 4650 1302 4700 
Q 1616 4750 1894 4750 
Q 2613 4750 3031 4423 
Q 3450 4097 3450 3541 
Q 3450 3153 3228 2886 
Q 3006 2619 2597 2516 
z
" transform="scale(0.015625)"/>
       </defs>
       <use xlink:href="#DejaVuSans-33"/>
       <use xlink:href="#DejaVuSans-30" x="63.623047"/>
       <use xlink:href="#DejaVuSans-30" x="127.246094"/>
      </g>
     </g>
    </g>
    <g id="xtick_8">
     <g id="line2d_8">
      <g>
       <use xlink:href="#m816b4a829b" x="407.055868" y="307.584" style="stroke: #000000; stroke-width: 0.8"/>
      </g>
     </g>
     <g id="text_8">
      <!-- 350 -->
      <g transform="translate(397.512118 322.182437)scale(0.1 -0.1)">
       <use xlink:href="#DejaVuSans-33"/>
       <use xlink:href="#DejaVuSans-35" x="63.623047"/>
       <use xlink:href="#DejaVuSans-30" x="127.246094"/>
      </g>
     </g>
    </g>
    <g id="text_9">
     <!-- test1 -->
     <g transform="translate(223.377187 335.860562)scale(0.1 -0.1)">
      <defs>
       <path id="DejaVuSans-74" d="M 1172 4494 
L 1172 3500 
L 2356 3500 
L 2356 3053 
L 1172 3053 
L 1172 1153 
Q 1172 725 1289 603 
Q 1406 481 1766 481 
L 2356 481 
L 2356 0 
L 1766 0 
Q 1100 0 847 248 
Q 594 497 594 1153 
L 594 3053 
L 172 3053 
L 172 3500 
L 594 3500 
L 594 4494 
L 1172 4494 
z
" transform="scale(0.015625)"/>
       <path id="DejaVuSans-65" d="M 3597 1894 
L 3597 1613 
L 953 1613 
Q 991 1019 1311 708 
Q 1631 397 2203 397 
Q 2534 397 2845 478 
Q 3156 559 3463 722 
L 3463 178 
Q 3153 47 2828 -22 
Q 2503 -91 2169 -91 
Q 1331 -91 842 396 
Q 353 884 353 1716 
Q 353 2575 817 3079 
Q 1281 3584 2069 3584 
Q 2775 3584 3186 3129 
Q 3597 2675 3597 1894 
z
M 3022 2063 
Q 3016 2534 2758 2815 
Q 2500 3097 2075 3097 
Q 1594 3097 1305 2825 
Q 1016 2553 972 2059 
L 3022 2063 
z
" transform="scale(0.015625)"/>
       <path id="DejaVuSans-73" d="M 2834 3397 
L 2834 2853 
Q 2591 2978 2328 3040 
Q 2066 3103 1784 3103 
Q 1356 3103 1142 2972 
Q 928 2841 928 2578 
Q 928 2378 1081 2264 
Q 1234 2150 1697 2047 
L 1894 2003 
Q 2506 1872 2764 1633 
Q 3022 1394 3022 966 
Q 3022 478 2636 193 
Q 2250 -91 1575 -91 
Q 1294 -91 989 -36 
Q 684 19 347 128 
L 347 722 
Q 666 556 975 473 
Q 1284 391 1588 391 
Q 1994 391 2212 530 
Q 2431 669 2431 922 
Q 2431 1156 2273 1281 
Q 2116 1406 1581 1522 
L 1381 1569 
Q 847 1681 609 1914 
Q 372 2147 372 2553 
Q 372 3047 722 3315 
Q 1072 3584 1716 3584 
Q 2034 3584 2315 3537 
Q 2597 3491 2834 3397 
z
" transform="scale(0.015625)"/>
      </defs>
      <use xlink:href="#DejaVuSans-74"/>
      <use xlink:href="#DejaVuSans-65" x="39.208984"/>
      <use xlink:href="#DejaVuSans-73" x="100.732422"/>
      <use xlink:href="#DejaVuSans-74" x="152.832031"/>
      <use xlink:href="#DejaVuSans-31" x="192.041016"/>
     </g>
    </g>
   </g>
   <g id="matplotlib.axis_2">
    <g id="ytick_1">
     <g id="line2d_9">
      <defs>
       <path id="ma439411a5e" d="M 0 0 
L -3.5 0 
" style="stroke: #000000; stroke-width: 0.8"/>
      </defs>
      <g>
       <use xlink:href="#ma439411a5e" x="57.6" y="296.220192" style="stroke: #000000; stroke-width: 0.8"/>
      </g>
     </g>
     <g id="text_10">
      <!-- 0.00 -->
      <g transform="translate(28.334375 300.019411)scale(0.1 -0.1)">
       <defs>
        <path id="DejaVuSans-2e" d="M 684 794 
L 1344 794 
L 1344 0 
L 684 0 
L 684 794 
z
" transform="scale(0.015625)"/>
       </defs>
       <use xlink:href="#DejaVuSans-30"/>
       <use xlink:href="#DejaVuSans-2e" x="63.623047"/>
       <use xlink:href="#DejaVuSans-30" x="95.410156"/>
       <use xlink:href="#DejaVuSans-30" x="159.033203"/>
      </g>
     </g>
    </g>
    <g id="ytick_2">
     <g id="line2d_10">
      <g>
       <use xlink:href="#ma439411a5e" x="57.6" y="261.348407" style="stroke: #000000; stroke-width: 0.8"/>
      </g>
     </g>
     <g id="text_11">
      <!-- 0.25 -->
      <g transform="translate(28.334375 265.147626)scale(0.1 -0.1)">
       <use xlink:href="#DejaVuSans-30"/>
       <use xlink:href="#DejaVuSans-2e" x="63.623047"/>
       <use xlink:href="#DejaVuSans-32" x="95.410156"/>
       <use xlink:href="#DejaVuSans-35" x="159.033203"/>
      </g>
     </g>
    </g>
    <g id="ytick_3">
     <g id="line2d_11">
      <g>
       <use xlink:href="#ma439411a5e" x="57.6" y="226.476623" style="stroke: #000000; stroke-width: 0.8"/>
      </g>
     </g>
     <g id="text_12">
      <!-- 0.50 -->
      <g transform="translate(28.334375 230.275842)scale(0.1 -0.1)">
       <use xlink:href="#DejaVuSans-30"/>
       <use xlink:href="#DejaVuSans-2e" x="63.623047"/>
       <use xlink:href="#DejaVuSans-35" x="95.410156"/>
       <use xlink:href="#DejaVuSans-30" x="159.033203"/>
      </g>
     </g>
    </g>
    <g id="ytick_4">
     <g id="line2d_12">
      <g>
       <use xlink:href="#ma439411a5e" x="57.6" y="191.604838" style="stroke: #000000; stroke-width: 0.8"/>
      </g>
     </g>
     <g id="text_13">
      <!-- 0.75 -->
      <g transform="translate(28.334375 195.404057)scale(0.1 -0.1)">
       <defs>
        <path id="DejaVuSans-37" d="M 525 4666 
L 3525 4666 
L 3525 4397 
L 1831 0 
L 1172 0 
L 2766 4134 
L 525 4134 
L 525 4666 
z
" transform="scale(0.015625)"/>
       </defs>
       <use xlink:href="#DejaVuSans-30"/>
       <use xlink:href="#DejaVuSans-2e" x="63.623047"/>
       <use xlink:href="#DejaVuSans-37" x="95.410156"/>
       <use xlink:href="#DejaVuSans-35" x="159.033203"/>
      </g>
     </g>
    </g>
    <g id="ytick_5">
     <g id="line2d_13">
      <g>
       <use xlink:href="#ma439411a5e" x="57.6" y="156.733054" style="stroke: #000000; stroke-width: 0.8"/>
      </g>
     </g>
     <g id="text_14">
      <!-- 1.00 -->
      <g transform="translate(28.334375 160.532273)scale(0.1 -0.1)">
       <use xlink:href="#DejaVuSans-31"/>
       <use xlink:href="#DejaVuSans-2e" x="63.623047"/>
       <use xlink:href="#DejaVuSans-30" x="95.410156"/>
       <use xlink:href="#DejaVuSans-30" x="159.033203"/>
      </g>
     </g>
    </g>
    <g id="ytick_6">
     <g id="line2d_14">
      <g>
       <use xlink:href="#ma439411a5e" x="57.6" y="121.861269" style="stroke: #000000; stroke-width: 0.8"/>
      </g>
     </g>
     <g id="text_15">
      <!-- 1.25 -->
      <g transform="translate(28.334375 125.660488)scale(0.1 -0.1)">
       <use xlink:href="#DejaVuSans-31"/>
       <use xlink:href="#DejaVuSans-2e" x="63.623047"/>
       <use xlink:href="#DejaVuSans-32" x="95.410156"/>
       <use xlink:href="#DejaVuSans-35" x="159.033203"/>
      </g>
     </g>
    </g>
    <g id="ytick_7">
     <g id="line2d_15">
      <g>
       <use xlink:href="#ma439411a5e" x="57.6" y="86.989485" style="stroke: #000000; stroke-width: 0.8"/>
      </g>
     </g>
     <g id="text_16">
      <!-- 1.50 -->
      <g transform="translate(28.334375 90.788704)scale(0.1 -0.1)">
       <use xlink:href="#DejaVuSans-31"/>
       <use xlink:href="#DejaVuSans-2e" x="63.623047"/>
       <use xlink:href="#DejaVuSans-35" x="95.410156"/>
       <use xlink:href="#DejaVuSans-30" x="159.033203"/>
      </g>
     </g>
    </g>
    <g id="ytick_8">
     <g id="line2d_16">
      <g>
       <use xlink:href="#ma439411a5e" x="57.6" y="52.1177" style="stroke: #000000; stroke-width: 0.8"/>
      </g>
     </g>
     <g id="text_17">
      <!-- 1.75 -->
      <g transform="translate(28.334375 55.916919)scale(0.1 -0.1)">
       <use xlink:href="#DejaVuSans-31"/>
       <use xlink:href="#DejaVuSans-2e" x="63.623047"/>
       <use xlink:href="#DejaVuSans-37" x="95.410156"/>
       <use xlink:href="#DejaVuSans-35" x="159.033203"/>
      </g>
     </g>
    </g>
    <g id="text_18">
     <!-- test2 -->
     <g transform="translate(22.254688 187.310812)rotate(-90)scale(0.1 -0.1)">
      <use xlink:href="#DejaVuSans-74"/>
      <use xlink:href="#DejaVuSans-65" x="39.208984"/>
      <use xlink:href="#DejaVuSans-73" x="100.732422"/>
      <use xlink:href="#DejaVuSans-74" x="152.832031"/>
      <use xlink:href="#DejaVuSans-32" x="192.041016"/>
     </g>
    </g>
   </g>
   <g id="line2d_17">
    <path d="M 73.832727 234.480888 
L 74.784793 235.49329 
L 75.73686 285.269527 
L 76.688926 286.115824 
L 77.640992 275.823639 
L 78.593058 241.212052 
L 79.545124 267.391915 
L 80.49719 271.305588 
L 81.449256 287.342786 
L 82.401322 290.234369 
L 83.353388 284.473126 
L 84.305455 264.911839 
L 85.257521 270.535731 
L 86.209587 262.476468 
L 87.161653 282.193324 
L 88.113719 233.235522 
L 89.065785 291.703862 
L 90.017851 285.998569 
L 90.969917 257.986284 
L 91.921983 213.225998 
L 92.87405 249.544507 
L 93.826116 281.466303 
L 94.778182 212.439693 
L 95.730248 237.940797 
L 96.682314 257.185302 
L 97.63438 261.270475 
L 98.586446 235.40245 
L 99.538512 266.996423 
L 100.490579 255.331902 
L 101.442645 290.413761 
L 102.394711 234.761089 
L 103.346777 257.70938 
L 104.298843 234.475813 
L 105.250909 288.091229 
L 106.202975 275.236818 
L 107.155041 226.008798 
L 108.107107 225.943383 
L 109.059174 268.661856 
L 110.01124 265.4371 
L 110.963306 227.597024 
L 111.915372 234.102635 
L 112.867438 294.845155 
L 114.77157 206.175939 
L 115.723636 268.143722 
L 116.675702 271.315064 
L 117.627769 204.216177 
L 118.579835 268.512953 
L 119.531901 221.34109 
L 120.483967 230.015773 
L 121.436033 279.055195 
L 122.388099 184.342563 
L 123.340165 273.64674 
L 124.292231 264.692551 
L 125.244298 192.545527 
L 127.14843 291.482422 
L 128.100496 282.221661 
L 129.052562 276.033195 
L 130.004628 248.79017 
L 130.956694 235.07759 
L 131.90876 236.472792 
L 132.860826 287.615263 
L 133.812893 276.723127 
L 134.764959 201.84935 
L 135.717025 246.047114 
L 136.669091 274.521487 
L 137.621157 265.021065 
L 138.573223 253.175291 
L 139.525289 270.788124 
L 140.477355 290.645305 
L 141.429421 180.736098 
L 143.333554 246.918637 
L 144.28562 214.538467 
L 145.237686 254.614455 
L 146.189752 275.222676 
L 147.141818 264.307915 
L 148.093884 146.614518 
L 149.04595 291.208925 
L 150.950083 270.680111 
L 151.902149 279.209472 
L 152.854215 284.213489 
L 153.806281 236.999569 
L 154.758347 288.422389 
L 155.710413 286.670667 
L 156.662479 247.276534 
L 157.614545 275.839602 
L 158.566612 262.217322 
L 159.518678 255.986598 
L 160.470744 274.285856 
L 161.42281 270.10549 
L 162.374876 288.012802 
L 163.326942 291.65059 
L 164.279008 253.078856 
L 165.231074 266.044363 
L 166.18314 206.961903 
L 167.135207 230.432201 
L 168.087273 278.332438 
L 169.039339 243.663342 
L 169.991405 270.140904 
L 170.943471 256.514567 
L 171.895537 286.072097 
L 172.847603 259.592723 
L 174.751736 245.568306 
L 175.703802 291.336902 
L 176.655868 290.145795 
L 177.607934 262.928889 
L 178.56 280.637173 
L 179.512066 289.20237 
L 180.464132 256.47177 
L 181.416198 235.790489 
L 182.368264 287.375036 
L 183.320331 292.627384 
L 184.272397 237.304783 
L 185.224463 273.953145 
L 187.128595 247.967409 
L 188.080661 261.943895 
L 189.032727 265.866221 
L 189.984793 263.501488 
L 190.93686 246.049246 
L 191.888926 292.054517 
L 192.840992 179.37248 
L 193.793058 217.397513 
L 194.745124 232.906214 
L 195.69719 285.321953 
L 196.649256 259.744201 
L 197.601322 245.131688 
L 198.553388 274.853115 
L 199.505455 243.59934 
L 200.457521 285.425753 
L 201.409587 291.609414 
L 202.361653 267.714146 
L 203.313719 287.420133 
L 204.265785 290.485769 
L 205.217851 269.615955 
L 206.169917 282.833385 
L 207.121983 273.885901 
L 208.07405 261.150482 
L 209.026116 280.36228 
L 209.978182 229.79148 
L 210.930248 292.931672 
L 212.83438 233.834227 
L 213.786446 213.760535 
L 214.738512 264.050785 
L 215.690579 257.965703 
L 216.642645 266.064508 
L 217.594711 295.013586 
L 218.546777 286.525187 
L 219.498843 295.166634 
L 220.450909 248.87825 
L 221.402975 252.346851 
L 222.355041 292.719854 
L 223.307107 292.395431 
L 224.259174 207.411196 
L 225.21124 287.98909 
L 226.163306 288.151513 
L 227.115372 227.745888 
L 228.067438 288.913886 
L 229.019504 243.245456 
L 229.97157 294.63553 
L 230.923636 293.838152 
L 231.875702 284.992058 
L 232.827769 217.137723 
L 233.779835 295.385475 
L 234.731901 295.226064 
L 235.683967 276.902025 
L 236.636033 276.67302 
L 237.588099 293.817181 
L 238.540165 287.755101 
L 239.492231 252.965182 
L 240.444298 290.30666 
L 241.396364 211.369945 
L 242.34843 293.202832 
L 243.300496 225.892409 
L 244.252562 287.092674 
L 245.204628 198.537992 
L 246.156694 264.883118 
L 247.10876 285.856379 
L 248.060826 271.027854 
L 249.012893 196.535213 
L 249.964959 268.142494 
L 250.917025 274.319752 
L 251.869091 284.732825 
L 252.821157 286.440296 
L 253.773223 290.350264 
L 255.677355 228.928583 
L 256.629421 210.496227 
L 257.581488 251.773758 
L 258.533554 203.544774 
L 259.48562 213.645069 
L 260.437686 177.997921 
L 261.389752 208.870999 
L 262.341818 214.769981 
L 263.293884 166.497901 
L 264.24595 236.842283 
L 265.198017 204.9442 
L 266.150083 155.431734 
L 267.102149 279.236685 
L 268.054215 198.914213 
L 269.006281 259.989462 
L 269.958347 251.449725 
L 270.910413 239.13896 
L 271.862479 184.68502 
L 272.814545 195.675729 
L 273.766612 172.293439 
L 274.718678 207.935448 
L 275.670744 153.554863 
L 276.62281 187.382058 
L 277.574876 291.893256 
L 278.526942 196.163807 
L 279.479008 288.429702 
L 281.38314 228.695975 
L 282.335207 225.157577 
L 283.287273 179.672086 
L 284.239339 267.002479 
L 285.191405 247.31297 
L 286.143471 243.558855 
L 287.095537 288.949646 
L 288.047603 163.218827 
L 288.999669 284.022423 
L 289.951736 273.034821 
L 290.903802 213.254166 
L 291.855868 217.188331 
L 292.807934 190.093438 
L 293.76 274.468506 
L 294.712066 196.827437 
L 295.664132 206.012036 
L 296.616198 227.214701 
L 297.568264 264.258328 
L 298.520331 183.571715 
L 299.472397 264.075742 
L 300.424463 194.29875 
L 301.376529 231.804806 
L 302.328595 170.226242 
L 303.280661 289.944237 
L 304.232727 254.594784 
L 305.184793 205.83103 
L 306.13686 170.045187 
L 307.088926 182.828486 
L 308.040992 190.289052 
L 308.993058 219.030598 
L 309.945124 293.378375 
L 310.89719 159.875901 
L 311.849256 163.919089 
L 312.801322 212.754423 
L 313.753388 274.431666 
L 314.705455 168.148761 
L 315.657521 215.068938 
L 316.609587 160.849896 
L 317.561653 210.283021 
L 318.513719 224.147782 
L 319.465785 164.030739 
L 320.417851 293.798563 
L 321.369917 189.844922 
L 322.321983 242.199316 
L 323.27405 168.927142 
L 324.226116 192.414206 
L 325.178182 201.568209 
L 326.130248 214.855449 
L 327.082314 189.073641 
L 328.03438 241.918071 
L 328.986446 209.199538 
L 329.938512 277.017543 
L 330.890579 186.160645 
L 331.842645 175.037743 
L 332.794711 184.925039 
L 333.746777 188.618354 
L 334.698843 173.751122 
L 335.650909 211.332732 
L 336.602975 173.083077 
L 337.555041 202.613064 
L 338.507107 206.544311 
L 339.459174 204.99578 
L 340.41124 163.665468 
L 341.363306 205.567049 
L 342.315372 200.925963 
L 343.267438 121.349554 
L 344.219504 165.425758 
L 345.17157 188.530241 
L 346.123636 192.773981 
L 347.075702 189.381844 
L 348.027769 177.784699 
L 348.979835 192.645279 
L 349.931901 198.656659 
L 350.883967 157.974945 
L 351.836033 171.579259 
L 352.788099 159.881314 
L 353.740165 217.421225 
L 354.692231 193.258293 
L 355.644298 186.699763 
L 356.596364 268.707313 
L 357.54843 167.277338 
L 358.500496 197.319763 
L 359.452562 109.376745 
L 360.404628 159.967007 
L 361.356694 203.2276 
L 362.30876 170.939516 
L 363.260826 225.545787 
L 364.212893 185.283942 
L 365.164959 157.834695 
L 366.117025 191.129107 
L 367.069091 173.808955 
L 368.021157 207.017507 
L 368.973223 155.99789 
L 369.925289 190.962251 
L 370.877355 158.810227 
L 371.829421 165.075943 
L 372.781488 177.179043 
L 373.733554 167.021788 
L 374.68562 178.07851 
L 375.637686 181.331394 
L 376.589752 195.710348 
L 377.541818 228.430045 
L 378.493884 201.496758 
L 379.44595 178.624454 
L 380.398017 125.134839 
L 381.350083 148.629751 
L 382.302149 121.158414 
L 383.254215 173.336424 
L 384.206281 198.011819 
L 385.158347 231.294833 
L 386.110413 174.800426 
L 387.062479 174.401632 
L 388.014545 196.177101 
L 388.966612 178.883579 
L 389.918678 155.285522 
L 390.870744 141.765912 
L 391.82281 189.246782 
L 392.774876 210.816327 
L 393.726942 155.936698 
L 394.679008 210.958773 
L 395.631074 158.425111 
L 396.58314 126.134125 
L 397.535207 206.941891 
L 398.487273 172.089378 
L 398.487273 172.089378 
" clip-path="url(#pefee0d8e52)" style="fill: none; stroke: #0000ff; stroke-width: 1.5; stroke-linecap: square"/>
   </g>
   <g id="patch_3">
    <path d="M 57.6 307.584 
L 57.6 41.472 
" style="fill: none; stroke: #000000; stroke-width: 0.8; stroke-linejoin: miter; stroke-linecap: square"/>
   </g>
   <g id="patch_4">
    <path d="M 414.72 307.584 
L 414.72 41.472 
" style="fill: none; stroke: #000000; stroke-width: 0.8; stroke-linejoin: miter; stroke-linecap: square"/>
   </g>
   <g id="patch_5">
    <path d="M 57.6 307.584 
L 414.72 307.584 
" style="fill: none; stroke: #000000; stroke-width: 0.8; stroke-linejoin: miter; stroke-linecap: square"/>
   </g>
   <g id="patch_6">
    <path d="M 57.6 41.472 
L 414.72 41.472 
" style="fill: none; stroke: #000000; stroke-width: 0.8; stroke-linejoin: miter; stroke-linecap: square"/>
   </g>
  </g>
 </g>
 <defs>
  <clipPath id="pefee0d8e52">
   <rect x="57.6" y="41.472" width="357.12" height="266.112"/>
  </clipPath>
 </defs>
</svg>
