<?xml version="1.0" encoding="utf-8" standalone="no"?>
<!DOCTYPE svg PUBLIC "-//W3C//DTD SVG 1.1//EN"
  "http://www.w3.org/Graphics/SVG/1.1/DTD/svg11.dtd">
<svg xmlns:xlink="http://www.w3.org/1999/xlink" width="460.8pt" height="345.6pt" viewBox="0 0 460.8 345.6" xmlns="http://www.w3.org/2000/svg" version="1.1">
 <metadata>
  <rdf:RDF xmlns:dc="http://purl.org/dc/elements/1.1/" xmlns:cc="http://creativecommons.org/ns#" xmlns:rdf="http://www.w3.org/1999/02/22-rdf-syntax-ns#">
   <cc:Work>
    <dc:type rdf:resource="http://purl.org/dc/dcmitype/StillImage"/>
    <dc:date>2023-08-08T21:10:56.785226</dc:date>
    <dc:format>image/svg+xml</dc:format>
    <dc:creator>
     <cc:Agent>
      <dc:title>Matplotlib v3.5.2, https://matplotlib.org/</dc:title>
     </cc:Agent>
    </dc:creator>
   </cc:Work>
  </rdf:RDF>
 </metadata>
 <defs>
  <style type="text/css">*{stroke-linejoin: round; stroke-linecap: butt}</style>
 </defs>
 <g id="figure_1">
  <g id="patch_1">
   <path d="M 0 345.6 
L 460.8 345.6 
L 460.8 0 
L 0 0 
z
" style="fill: #ffffff"/>
  </g>
  <g id="axes_1">
   <g id="patch_2">
    <path d="M 57.6 307.584 
L 414.72 307.584 
L 414.72 41.472 
L 57.6 41.472 
z
" style="fill: #ffffff"/>
   </g>
   <g id="PolyCollection_1">
    <defs>
     <path id="m815b549931" d="M 73.832727 -87.385635 
L 73.832727 -71.493877 
L 74.784793 -130.534654 
L 75.73686 -53.450509 
L 76.688926 -68.090161 
L 77.640992 -53.29382 
L 78.593058 -63.730981 
L 79.545124 -63.07209 
L 80.49719 -59.341172 
L 81.449256 -50.51538 
L 82.401322 -55.019472 
L 83.353388 -55.100258 
L 84.305455 -66.975253 
L 85.257521 -56.554156 
L 86.209587 -62.753671 
L 87.161653 -52.145881 
L 88.113719 -91.03414 
L 89.065785 -50.551451 
L 90.017851 -50.373378 
L 90.969917 -55.969586 
L 91.921983 -85.225891 
L 92.87405 -58.991223 
L 93.826116 -68.666871 
L 94.778182 -61.163561 
L 95.730248 -67.355758 
L 96.682314 -61.013278 
L 97.63438 -65.814179 
L 98.586446 -64.37913 
L 99.538512 -59.148807 
L 100.490579 -101.615887 
L 101.442645 -54.046721 
L 102.394711 -87.377426 
L 103.346777 -53.470937 
L 104.298843 -108.857357 
L 105.250909 -57.148792 
L 106.202975 -56.085675 
L 107.155041 -80.242672 
L 108.107107 -73.407803 
L 109.059174 -58.846441 
L 110.01124 -56.981841 
L 110.963306 -81.275259 
L 111.915372 -100.104994 
L 112.867438 -50.112 
L 113.819504 -57.519258 
L 114.77157 -61.113935 
L 115.723636 -67.83781 
L 116.675702 -82.291285 
L 117.627769 -65.57656 
L 118.579835 -60.020202 
L 119.531901 -58.433115 
L 120.483967 -64.46609 
L 121.436033 -54.441043 
L 122.388099 -112.182372 
L 123.340165 -53.479174 
L 124.292231 -62.239678 
L 125.244298 -82.47547 
L 126.196364 -70.512815 
L 127.14843 -52.286585 
L 128.100496 -63.602429 
L 129.052562 -53.955137 
L 130.004628 -61.073273 
L 130.956694 -59.266696 
L 131.90876 -80.207091 
L 132.860826 -52.652167 
L 133.812893 -61.127691 
L 134.764959 -88.778689 
L 135.717025 -54.298528 
L 136.669091 -57.2965 
L 137.621157 -61.385871 
L 138.573223 -55.102585 
L 139.525289 -70.652694 
L 140.477355 -51.254269 
L 141.429421 -70.517269 
L 142.381488 -59.785454 
L 143.333554 -128.050561 
L 144.28562 -91.747896 
L 145.237686 -67.30248 
L 146.189752 -55.031241 
L 147.141818 -72.840197 
L 148.093884 -90.412013 
L 149.04595 -51.44158 
L 149.998017 -57.588645 
L 150.950083 -66.252811 
L 151.902149 -57.204175 
L 152.854215 -56.580976 
L 153.806281 -76.778567 
L 154.758347 -59.666316 
L 155.710413 -51.113972 
L 156.662479 -61.206875 
L 157.614545 -56.063668 
L 158.566612 -55.916127 
L 159.518678 -82.512515 
L 160.470744 -52.084689 
L 161.42281 -54.107321 
L 162.374876 -56.137789 
L 163.326942 -55.024794 
L 164.279008 -65.348051 
L 165.231074 -63.234931 
L 166.18314 -152.319529 
L 167.135207 -59.591658 
L 168.087273 -88.881038 
L 169.039339 -54.921966 
L 169.991405 -94.337467 
L 170.943471 -69.318438 
L 171.895537 -52.702989 
L 172.847603 -57.608159 
L 173.799669 -58.888343 
L 174.751736 -66.588673 
L 175.703802 -52.425989 
L 176.655868 -51.814187 
L 177.607934 -55.825234 
L 178.56 -57.130204 
L 179.512066 -50.635917 
L 180.464132 -60.676083 
L 181.416198 -92.823543 
L 182.368264 -59.944037 
L 183.320331 -50.723495 
L 184.272397 -64.531607 
L 185.224463 -60.608862 
L 186.176529 -74.048132 
L 187.128595 -74.88508 
L 188.080661 -73.486347 
L 189.032727 -62.365944 
L 189.984793 -60.669204 
L 190.93686 -67.460808 
L 191.888926 -51.88107 
L 192.840992 -68.578951 
L 193.793058 -60.182389 
L 194.745124 -54.904291 
L 195.69719 -56.782157 
L 196.649256 -167.778747 
L 197.601322 -88.358181 
L 198.553388 -57.18499 
L 199.505455 -93.608454 
L 200.457521 -54.013101 
L 201.409587 -50.571473 
L 202.361653 -53.216781 
L 203.313719 -51.72707 
L 204.265785 -51.93097 
L 205.217851 -72.447986 
L 206.169917 -53.066207 
L 207.121983 -52.221439 
L 208.07405 -93.176802 
L 209.026116 -63.080612 
L 209.978182 -67.462347 
L 210.930248 -53.345646 
L 211.882314 -52.233706 
L 212.83438 -79.422587 
L 213.786446 -72.114761 
L 214.738512 -56.311746 
L 215.690579 -65.840726 
L 216.642645 -61.994221 
L 217.594711 -50.196364 
L 218.546777 -56.961607 
L 219.498843 -50.206498 
L 220.450909 -133.891095 
L 221.402975 -133.997893 
L 222.355041 -50.465422 
L 223.307107 -50.964758 
L 224.259174 -95.843869 
L 225.21124 -53.516256 
L 226.163306 -50.789804 
L 227.115372 -104.746955 
L 228.067438 -52.547591 
L 229.019504 -71.01131 
L 229.97157 -50.249267 
L 230.923636 -51.216194 
L 231.875702 -56.423184 
L 232.827769 -65.235503 
L 233.779835 -50.368054 
L 234.731901 -50.346901 
L 235.683967 -55.223927 
L 236.636033 -53.791646 
L 237.588099 -50.648169 
L 238.540165 -57.852636 
L 239.492231 -81.696199 
L 240.444298 -53.662376 
L 241.396364 -58.021072 
L 242.34843 -50.669459 
L 243.300496 -134.368303 
L 244.252562 -53.378195 
L 245.204628 -56.053683 
L 246.156694 -60.041578 
L 247.10876 -54.207275 
L 248.060826 -62.456888 
L 249.012893 -60.086983 
L 249.964959 -68.44426 
L 250.917025 -55.933904 
L 251.869091 -53.874254 
L 252.821157 -54.61498 
L 253.773223 -51.373805 
L 254.725289 -60.896443 
L 255.677355 -88.572764 
L 256.629421 -73.05783 
L 257.581488 -63.652535 
L 258.533554 -78.694729 
L 259.48562 -68.994661 
L 260.437686 -61.604495 
L 261.389752 -57.31002 
L 262.341818 -87.507613 
L 263.293884 -155.226072 
L 264.24595 -118.24895 
L 265.198017 -65.07486 
L 266.150083 -56.598786 
L 267.102149 -56.047116 
L 268.054215 -59.328095 
L 269.006281 -65.831483 
L 269.958347 -55.390083 
L 270.910413 -72.407739 
L 271.862479 -85.386892 
L 272.814545 -74.736307 
L 273.766612 -119.815011 
L 274.718678 -65.672466 
L 275.670744 -66.645363 
L 276.62281 -76.098558 
L 277.574876 -51.185028 
L 278.526942 -104.756374 
L 279.479008 -54.798499 
L 280.431074 -63.986576 
L 281.38314 -72.235171 
L 282.335207 -58.312965 
L 283.287273 -83.78732 
L 284.239339 -72.591069 
L 285.191405 -61.374926 
L 286.143471 -66.781839 
L 287.095537 -54.271119 
L 288.047603 -117.962411 
L 288.999669 -57.195215 
L 289.951736 -56.447793 
L 290.903802 -71.890356 
L 291.855868 -70.660254 
L 292.807934 -62.144624 
L 293.76 -62.001601 
L 294.712066 -61.951402 
L 295.664132 -103.182332 
L 296.616198 -73.542396 
L 297.568264 -76.476308 
L 298.520331 -89.672419 
L 299.472397 -73.805265 
L 300.424463 -83.682213 
L 301.376529 -72.853716 
L 302.328595 -91.98416 
L 303.280661 -53.737127 
L 304.232727 -82.199986 
L 305.184793 -70.155953 
L 306.13686 -89.29007 
L 307.088926 -92.309778 
L 308.040992 -208.353584 
L 308.993058 -66.483105 
L 309.945124 -51.068385 
L 310.89719 -83.572541 
L 311.849256 -83.542423 
L 312.801322 -60.909807 
L 313.753388 -56.519247 
L 314.705455 -69.296042 
L 315.657521 -96.900771 
L 316.609587 -229.41928 
L 317.561653 -77.651372 
L 318.513719 -90.716955 
L 319.465785 -71.152441 
L 320.417851 -51.531361 
L 321.369917 -76.500357 
L 322.321983 -78.268056 
L 323.27405 -78.608861 
L 324.226116 -122.679547 
L 325.178182 -86.585288 
L 326.130248 -120.556881 
L 327.082314 -81.884895 
L 328.03438 -80.003869 
L 328.986446 -79.648899 
L 329.938512 -57.989565 
L 330.890579 -65.47081 
L 331.842645 -64.952992 
L 332.794711 -75.342542 
L 333.746777 -109.75224 
L 334.698843 -60.216329 
L 335.650909 -76.075777 
L 336.602975 -103.079819 
L 337.555041 -69.130266 
L 338.507107 -66.724486 
L 339.459174 -109.775235 
L 340.41124 -61.245872 
L 341.363306 -83.145362 
L 342.315372 -72.382139 
L 343.267438 -190.41092 
L 344.219504 -53.542845 
L 345.17157 -116.176981 
L 346.123636 -97.270742 
L 347.075702 -79.957899 
L 348.027769 -68.631928 
L 348.979835 -123.604164 
L 349.931901 -69.479957 
L 350.883967 -129.327238 
L 351.836033 -89.486171 
L 352.788099 -63.702877 
L 353.740165 -123.109568 
L 354.692231 -74.996444 
L 355.644298 -128.898134 
L 356.596364 -74.660628 
L 357.54843 -79.82371 
L 358.500496 -69.018469 
L 359.452562 -86.426582 
L 360.404628 -84.512048 
L 361.356694 -96.145532 
L 362.30876 -146.042103 
L 363.260826 -120.629767 
L 364.212893 -130.609903 
L 365.164959 -101.971164 
L 366.117025 -67.424745 
L 367.069091 -73.964747 
L 368.021157 -75.127733 
L 368.973223 -72.72577 
L 369.925289 -60.255829 
L 370.877355 -89.347204 
L 371.829421 -126.38209 
L 372.781488 -68.976692 
L 373.733554 -65.534772 
L 374.68562 -81.559023 
L 375.637686 -93.058471 
L 376.589752 -78.923972 
L 377.541818 -63.924404 
L 378.493884 -56.411892 
L 379.44595 -96.19387 
L 380.398017 -83.679988 
L 381.350083 -71.996905 
L 382.302149 -157.703975 
L 383.254215 -74.618352 
L 384.206281 -62.714374 
L 385.158347 -61.78525 
L 386.110413 -91.516622 
L 387.062479 -65.234151 
L 388.014545 -62.868986 
L 388.966612 -76.026903 
L 389.918678 -113.971873 
L 390.870744 -60.271268 
L 391.82281 -58.805401 
L 392.774876 -55.859547 
L 393.726942 -67.061458 
L 394.679008 -82.971046 
L 395.631074 -54.965353 
L 396.58314 -125.919123 
L 397.535207 -76.647505 
L 398.487273 -87.844364 
L 398.487273 -109.069371 
L 398.487273 -109.069371 
L 397.535207 -104.117408 
L 396.58314 -155.13375 
L 395.631074 -62.251157 
L 394.679008 -107.226289 
L 393.726942 -81.073557 
L 392.774876 -63.349594 
L 391.82281 -70.429087 
L 390.870744 -70.879305 
L 389.918678 -140.649506 
L 388.966612 -99.546548 
L 388.014545 -78.305189 
L 387.062479 -80.648974 
L 386.110413 -124.510296 
L 385.158347 -86.207105 
L 384.206281 -76.143842 
L 383.254215 -103.805216 
L 382.302149 -206.885726 
L 381.350083 -90.9058 
L 380.398017 -103.882439 
L 379.44595 -130.402931 
L 378.493884 -63.093803 
L 377.541818 -74.611448 
L 376.589752 -103.338413 
L 375.637686 -118.140687 
L 374.68562 -105.012577 
L 373.733554 -81.95945 
L 372.781488 -85.024938 
L 371.829421 -163.552925 
L 370.877355 -113.606593 
L 369.925289 -71.940426 
L 368.973223 -89.858411 
L 368.021157 -100.698172 
L 367.069091 -93.267695 
L 366.117025 -91.26953 
L 365.164959 -124.473761 
L 364.212893 -170.394738 
L 363.260826 -144.461972 
L 362.30876 -181.865186 
L 361.356694 -123.104451 
L 360.404628 -103.689533 
L 359.452562 -105.162642 
L 358.500496 -86.842141 
L 357.54843 -100.546958 
L 356.596364 -88.547858 
L 355.644298 -157.382639 
L 354.692231 -90.013584 
L 353.740165 -176.425058 
L 352.788099 -77.54741 
L 351.836033 -115.746112 
L 350.883967 -161.645963 
L 349.931901 -86.768894 
L 348.979835 -155.928911 
L 348.027769 -80.675127 
L 347.075702 -103.693541 
L 346.123636 -120.176415 
L 345.17157 -151.997936 
L 344.219504 -61.344284 
L 343.267438 -247.410182 
L 342.315372 -90.654624 
L 341.363306 -97.862291 
L 340.41124 -70.762217 
L 339.459174 -142.340212 
L 338.507107 -80.648716 
L 337.555041 -81.932258 
L 336.602975 -129.474413 
L 335.650909 -95.510486 
L 334.698843 -76.295134 
L 333.746777 -151.724077 
L 332.794711 -90.379617 
L 331.842645 -78.761079 
L 330.890579 -83.022778 
L 329.938512 -60.781751 
L 328.986446 -96.352869 
L 328.03438 -93.253723 
L 327.082314 -103.340212 
L 326.130248 -146.792707 
L 325.178182 -110.067252 
L 324.226116 -147.045543 
L 323.27405 -91.131106 
L 322.321983 -94.165402 
L 321.369917 -91.913849 
L 320.417851 -51.963457 
L 319.465785 -88.839292 
L 318.513719 -114.592602 
L 317.561653 -93.76099 
L 316.609587 -292.032 
L 315.657521 -118.073768 
L 314.705455 -89.160775 
L 313.753388 -59.691744 
L 312.801322 -78.896293 
L 311.849256 -107.928026 
L 310.89719 -105.318477 
L 309.945124 -51.462259 
L 308.993058 -75.261672 
L 308.040992 -272.78523 
L 307.088926 -107.131344 
L 306.13686 -112.121658 
L 305.184793 -86.878863 
L 304.232727 -89.586988 
L 303.280661 -54.835897 
L 302.328595 -114.611887 
L 301.376529 -89.637416 
L 300.424463 -97.322339 
L 299.472397 -82.816248 
L 298.520331 -111.497518 
L 297.568264 -82.067551 
L 296.616198 -83.263996 
L 295.664132 -121.833606 
L 294.712066 -76.826474 
L 293.76 -66.078815 
L 292.807934 -77.786571 
L 291.855868 -88.922574 
L 290.903802 -84.803508 
L 289.951736 -59.361278 
L 288.999669 -58.892789 
L 288.047603 -141.245652 
L 287.095537 -55.45495 
L 286.143471 -73.875892 
L 285.191405 -68.04783 
L 284.239339 -84.733994 
L 283.287273 -103.116909 
L 282.335207 -69.116703 
L 281.38314 -85.4158 
L 280.431074 -74.660121 
L 279.479008 -55.746721 
L 278.526942 -135.759614 
L 277.574876 -51.837541 
L 276.62281 -93.277342 
L 275.670744 -77.142382 
L 274.718678 -73.264164 
L 273.766612 -152.769702 
L 272.814545 -94.806199 
L 271.862479 -109.962036 
L 270.910413 -79.954435 
L 269.958347 -58.943809 
L 269.006281 -71.964762 
L 268.054215 -67.726468 
L 267.102149 -58.112963 
L 266.150083 -65.584586 
L 265.198017 -79.635044 
L 264.24595 -148.189528 
L 263.293884 -190.227163 
L 262.341818 -101.25937 
L 261.389752 -63.327008 
L 260.437686 -71.134103 
L 259.48562 -81.309086 
L 258.533554 -100.320968 
L 257.581488 -68.967853 
L 256.629421 -84.209738 
L 255.677355 -107.846892 
L 254.725289 -65.023447 
L 253.773223 -51.910795 
L 252.821157 -55.944459 
L 251.869091 -54.999574 
L 250.917025 -59.10212 
L 249.964959 -72.331143 
L 249.012893 -71.340543 
L 248.060826 -66.49535 
L 247.10876 -55.410404 
L 246.156694 -63.904027 
L 245.204628 -63.905932 
L 244.252562 -54.543213 
L 243.300496 -162.015073 
L 242.34843 -50.993531 
L 241.396364 -69.198466 
L 240.444298 -54.580179 
L 239.492231 -90.712514 
L 238.540165 -59.883074 
L 237.588099 -50.907296 
L 236.636033 -55.319207 
L 235.683967 -57.437563 
L 234.731901 -50.492503 
L 233.779835 -50.474853 
L 232.827769 -75.121498 
L 231.875702 -57.962195 
L 230.923636 -51.537861 
L 229.97157 -50.4462 
L 229.019504 -78.758495 
L 228.067438 -53.398085 
L 227.115372 -126.12432 
L 226.163306 -51.406239 
L 225.21124 -54.298634 
L 224.259174 -116.144958 
L 223.307107 -51.371655 
L 222.355041 -50.736838 
L 221.402975 -185.642043 
L 220.450909 -183.315797 
L 219.498843 -50.292487 
L 218.546777 -59.446103 
L 217.594711 -50.307277 
L 216.642645 -67.487105 
L 215.690579 -73.09763 
L 214.738512 -59.432845 
L 213.786446 -85.123502 
L 212.83438 -90.27039 
L 211.882314 -53.54554 
L 210.930248 -54.641658 
L 209.978182 -75.360214 
L 209.026116 -66.471903 
L 208.07405 -104.373232 
L 207.121983 -53.329962 
L 206.169917 -54.56287 
L 205.217851 -80.390988 
L 204.265785 -52.746939 
L 203.313719 -52.747161 
L 202.361653 -57.505724 
L 201.409587 -50.915591 
L 200.457521 -55.305437 
L 199.505455 -102.234464 
L 198.553388 -59.976174 
L 197.601322 -103.05739 
L 196.649256 -219.934494 
L 195.69719 -58.799882 
L 194.745124 -58.089297 
L 193.793058 -68.688433 
L 192.840992 -86.702132 
L 191.888926 -52.477366 
L 190.93686 -75.236613 
L 189.984793 -65.009794 
L 189.032727 -66.357347 
L 188.080661 -82.54317 
L 187.128595 -85.299201 
L 186.176529 -82.794938 
L 185.224463 -64.075823 
L 184.272397 -72.932928 
L 183.320331 -51.209366 
L 182.368264 -62.643996 
L 181.416198 -117.604071 
L 180.464132 -66.159975 
L 179.512066 -51.022753 
L 178.56 -60.471955 
L 177.607934 -58.710498 
L 176.655868 -52.671356 
L 175.703802 -53.351901 
L 174.751736 -74.272046 
L 173.799669 -62.099266 
L 172.847603 -61.674079 
L 171.895537 -54.084227 
L 170.943471 -79.086622 
L 169.991405 -104.89009 
L 169.039339 -58.461555 
L 168.087273 -103.201954 
L 167.135207 -67.090618 
L 166.18314 -187.182879 
L 165.231074 -69.72099 
L 164.279008 -79.049314 
L 163.326942 -56.354106 
L 162.374876 -58.0609 
L 161.42281 -56.159179 
L 160.470744 -53.470929 
L 159.518678 -94.566321 
L 158.566612 -59.753587 
L 157.614545 -59.071287 
L 156.662479 -66.832826 
L 155.710413 -51.736065 
L 154.758347 -62.989123 
L 153.806281 -85.430394 
L 152.854215 -58.651468 
L 151.902149 -59.854086 
L 150.950083 -72.598626 
L 149.998017 -60.028938 
L 149.04595 -52.035832 
L 148.093884 -111.370607 
L 147.141818 -78.193174 
L 146.189752 -56.887202 
L 145.237686 -75.210264 
L 144.28562 -103.702155 
L 143.333554 -156.371886 
L 142.381488 -65.616831 
L 141.429421 -86.356078 
L 140.477355 -51.880412 
L 139.525289 -76.594708 
L 138.573223 -58.995638 
L 137.621157 -65.652138 
L 136.669091 -60.654362 
L 135.717025 -61.662965 
L 134.764959 -103.718631 
L 133.812893 -65.347415 
L 132.860826 -53.625284 
L 131.90876 -91.85567 
L 130.956694 -64.408073 
L 130.004628 -67.27161 
L 129.052562 -56.542974 
L 128.100496 -68.52902 
L 127.14843 -52.885907 
L 126.196364 -79.20289 
L 125.244298 -98.079594 
L 124.292231 -71.032565 
L 123.340165 -55.819872 
L 122.388099 -138.492752 
L 121.436033 -56.27041 
L 120.483967 -73.712293 
L 119.531901 -64.014131 
L 118.579835 -64.805301 
L 117.627769 -78.013747 
L 116.675702 -93.387146 
L 115.723636 -73.837981 
L 114.77157 -68.82713 
L 113.819504 -62.656674 
L 112.867438 -50.203831 
L 111.915372 -116.238265 
L 110.963306 -95.688646 
L 110.01124 -60.9585 
L 109.059174 -62.297249 
L 108.107107 -81.465568 
L 107.155041 -93.709053 
L 106.202975 -58.255154 
L 105.250909 -58.650818 
L 104.298843 -126.575434 
L 103.346777 -57.072086 
L 102.394711 -100.205249 
L 101.442645 -55.099611 
L 100.490579 -116.907888 
L 99.538512 -62.331562 
L 98.586446 -70.301572 
L 97.63438 -72.355992 
L 96.682314 -66.232259 
L 95.730248 -78.761713 
L 94.778182 -67.89288 
L 93.826116 -72.658536 
L 92.87405 -65.696547 
L 91.921983 -101.079236 
L 90.969917 -60.138139 
L 90.017851 -51.13547 
L 89.065785 -51.023209 
L 88.113719 -104.321983 
L 87.161653 -53.555668 
L 86.209587 -67.998778 
L 85.257521 -59.470857 
L 84.305455 -75.090099 
L 83.353388 -57.117983 
L 82.401322 -57.324359 
L 81.449256 -51.210204 
L 80.49719 -62.847508 
L 79.545124 -68.680441 
L 78.593058 -68.663359 
L 77.640992 -55.048042 
L 76.688926 -73.189946 
L 75.73686 -54.648161 
L 74.784793 -159.340625 
L 73.832727 -87.385635 
z
" style="stroke: #ff0000; stroke-opacity: 0.2"/>
    </defs>
    <g clip-path="url(#p82b8735b7e)">
     <use xlink:href="#m815b549931" x="0" y="345.6" style="fill: #ff0000; fill-opacity: 0.2; stroke: #ff0000; stroke-opacity: 0.2"/>
    </g>
   </g>
   <g id="matplotlib.axis_1">
    <g id="xtick_1">
     <g id="line2d_1">
      <defs>
       <path id="m594ab5cb6c" d="M 0 0 
L 0 3.5 
" style="stroke: #000000; stroke-width: 0.8"/>
      </defs>
      <g>
       <use xlink:href="#m594ab5cb6c" x="73.832727" y="307.584" style="stroke: #000000; stroke-width: 0.8"/>
      </g>
     </g>
     <g id="text_1">
      <!-- 0 -->
      <g transform="translate(70.651477 322.182437)scale(0.1 -0.1)">
       <defs>
        <path id="DejaVuSans-30" d="M 2034 4250 
Q 1547 4250 1301 3770 
Q 1056 3291 1056 2328 
Q 1056 1369 1301 889 
Q 1547 409 2034 409 
Q 2525 409 2770 889 
Q 3016 1369 3016 2328 
Q 3016 3291 2770 3770 
Q 2525 4250 2034 4250 
z
M 2034 4750 
Q 2819 4750 3233 4129 
Q 3647 3509 3647 2328 
Q 3647 1150 3233 529 
Q 2819 -91 2034 -91 
Q 1250 -91 836 529 
Q 422 1150 422 2328 
Q 422 3509 836 4129 
Q 1250 4750 2034 4750 
z
" transform="scale(0.015625)"/>
       </defs>
       <use xlink:href="#DejaVuSans-30"/>
      </g>
     </g>
    </g>
    <g id="xtick_2">
     <g id="line2d_2">
      <g>
       <use xlink:href="#m594ab5cb6c" x="121.436033" y="307.584" style="stroke: #000000; stroke-width: 0.8"/>
      </g>
     </g>
     <g id="text_2">
      <!-- 50 -->
      <g transform="translate(115.073533 322.182437)scale(0.1 -0.1)">
       <defs>
        <path id="DejaVuSans-35" d="M 691 4666 
L 3169 4666 
L 3169 4134 
L 1269 4134 
L 1269 2991 
Q 1406 3038 1543 3061 
Q 1681 3084 1819 3084 
Q 2600 3084 3056 2656 
Q 3513 2228 3513 1497 
Q 3513 744 3044 326 
Q 2575 -91 1722 -91 
Q 1428 -91 1123 -41 
Q 819 9 494 109 
L 494 744 
Q 775 591 1075 516 
Q 1375 441 1709 441 
Q 2250 441 2565 725 
Q 2881 1009 2881 1497 
Q 2881 1984 2565 2268 
Q 2250 2553 1709 2553 
Q 1456 2553 1204 2497 
Q 953 2441 691 2322 
L 691 4666 
z
" transform="scale(0.015625)"/>
       </defs>
       <use xlink:href="#DejaVuSans-35"/>
       <use xlink:href="#DejaVuSans-30" x="63.623047"/>
      </g>
     </g>
    </g>
    <g id="xtick_3">
     <g id="line2d_3">
      <g>
       <use xlink:href="#m594ab5cb6c" x="169.039339" y="307.584" style="stroke: #000000; stroke-width: 0.8"/>
      </g>
     </g>
     <g id="text_3">
      <!-- 100 -->
      <g transform="translate(159.495589 322.182437)scale(0.1 -0.1)">
       <defs>
        <path id="DejaVuSans-31" d="M 794 531 
L 1825 531 
L 1825 4091 
L 703 3866 
L 703 4441 
L 1819 4666 
L 2450 4666 
L 2450 531 
L 3481 531 
L 3481 0 
L 794 0 
L 794 531 
z
" transform="scale(0.015625)"/>
       </defs>
       <use xlink:href="#DejaVuSans-31"/>
       <use xlink:href="#DejaVuSans-30" x="63.623047"/>
       <use xlink:href="#DejaVuSans-30" x="127.246094"/>
      </g>
     </g>
    </g>
    <g id="xtick_4">
     <g id="line2d_4">
      <g>
       <use xlink:href="#m594ab5cb6c" x="216.642645" y="307.584" style="stroke: #000000; stroke-width: 0.8"/>
      </g>
     </g>
     <g id="text_4">
      <!-- 150 -->
      <g transform="translate(207.098895 322.182437)scale(0.1 -0.1)">
       <use xlink:href="#DejaVuSans-31"/>
       <use xlink:href="#DejaVuSans-35" x="63.623047"/>
       <use xlink:href="#DejaVuSans-30" x="127.246094"/>
      </g>
     </g>
    </g>
    <g id="xtick_5">
     <g id="line2d_5">
      <g>
       <use xlink:href="#m594ab5cb6c" x="264.24595" y="307.584" style="stroke: #000000; stroke-width: 0.8"/>
      </g>
     </g>
     <g id="text_5">
      <!-- 200 -->
      <g transform="translate(254.7022 322.182437)scale(0.1 -0.1)">
       <defs>
        <path id="DejaVuSans-32" d="M 1228 531 
L 3431 531 
L 3431 0 
L 469 0 
L 469 531 
Q 828 903 1448 1529 
Q 2069 2156 2228 2338 
Q 2531 2678 2651 2914 
Q 2772 3150 2772 3378 
Q 2772 3750 2511 3984 
Q 2250 4219 1831 4219 
Q 1534 4219 1204 4116 
Q 875 4013 500 3803 
L 500 4441 
Q 881 4594 1212 4672 
Q 1544 4750 1819 4750 
Q 2544 4750 2975 4387 
Q 3406 4025 3406 3419 
Q 3406 3131 3298 2873 
Q 3191 2616 2906 2266 
Q 2828 2175 2409 1742 
Q 1991 1309 1228 531 
z
" transform="scale(0.015625)"/>
       </defs>
       <use xlink:href="#DejaVuSans-32"/>
       <use xlink:href="#DejaVuSans-30" x="63.623047"/>
       <use xlink:href="#DejaVuSans-30" x="127.246094"/>
      </g>
     </g>
    </g>
    <g id="xtick_6">
     <g id="line2d_6">
      <g>
       <use xlink:href="#m594ab5cb6c" x="311.849256" y="307.584" style="stroke: #000000; stroke-width: 0.8"/>
      </g>
     </g>
     <g id="text_6">
      <!-- 250 -->
      <g transform="translate(302.305506 322.182437)scale(0.1 -0.1)">
       <use xlink:href="#DejaVuSans-32"/>
       <use xlink:href="#DejaVuSans-35" x="63.623047"/>
       <use xlink:href="#DejaVuSans-30" x="127.246094"/>
      </g>
     </g>
    </g>
    <g id="xtick_7">
     <g id="line2d_7">
      <g>
       <use xlink:href="#m594ab5cb6c" x="359.452562" y="307.584" style="stroke: #000000; stroke-width: 0.8"/>
      </g>
     </g>
     <g id="text_7">
      <!-- 300 -->
      <g transform="translate(349.908812 322.182437)scale(0.1 -0.1)">
       <defs>
        <path id="DejaVuSans-33" d="M 2597 2516 
Q 3050 2419 3304 2112 
Q 3559 1806 3559 1356 
Q 3559 666 3084 287 
Q 2609 -91 1734 -91 
Q 1441 -91 1130 -33 
Q 819 25 488 141 
L 488 750 
Q 750 597 1062 519 
Q 1375 441 1716 441 
Q 2309 441 2620 675 
Q 2931 909 2931 1356 
Q 2931 1769 2642 2001 
Q 2353 2234 1838 2234 
L 1294 2234 
L 1294 2753 
L 1863 2753 
Q 2328 2753 2575 2939 
Q 2822 3125 2822 3475 
Q 2822 3834 2567 4026 
Q 2313 4219 1838 4219 
Q 1578 4219 1281 4162 
Q 984 4106 628 3988 
L 628 4550 
Q 988 4650 1302 4700 
Q 1616 4750 1894 4750 
Q 2613 4750 3031 4423 
Q 3450 4097 3450 3541 
Q 3450 3153 3228 2886 
Q 3006 2619 2597 2516 
z
" transform="scale(0.015625)"/>
       </defs>
       <use xlink:href="#DejaVuSans-33"/>
       <use xlink:href="#DejaVuSans-30" x="63.623047"/>
       <use xlink:href="#DejaVuSans-30" x="127.246094"/>
      </g>
     </g>
    </g>
    <g id="xtick_8">
     <g id="line2d_8">
      <g>
       <use xlink:href="#m594ab5cb6c" x="407.055868" y="307.584" style="stroke: #000000; stroke-width: 0.8"/>
      </g>
     </g>
     <g id="text_8">
      <!-- 350 -->
      <g transform="translate(397.512118 322.182437)scale(0.1 -0.1)">
       <use xlink:href="#DejaVuSans-33"/>
       <use xlink:href="#DejaVuSans-35" x="63.623047"/>
       <use xlink:href="#DejaVuSans-30" x="127.246094"/>
      </g>
     </g>
    </g>
    <g id="text_9">
     <!-- test1 -->
     <g transform="translate(223.377187 335.860562)scale(0.1 -0.1)">
      <defs>
       <path id="DejaVuSans-74" d="M 1172 4494 
L 1172 3500 
L 2356 3500 
L 2356 3053 
L 1172 3053 
L 1172 1153 
Q 1172 725 1289 603 
Q 1406 481 1766 481 
L 2356 481 
L 2356 0 
L 1766 0 
Q 1100 0 847 248 
Q 594 497 594 1153 
L 594 3053 
L 172 3053 
L 172 3500 
L 594 3500 
L 594 4494 
L 1172 4494 
z
" transform="scale(0.015625)"/>
       <path id="DejaVuSans-65" d="M 3597 1894 
L 3597 1613 
L 953 1613 
Q 991 1019 1311 708 
Q 1631 397 2203 397 
Q 2534 397 2845 478 
Q 3156 559 3463 722 
L 3463 178 
Q 3153 47 2828 -22 
Q 2503 -91 2169 -91 
Q 1331 -91 842 396 
Q 353 884 353 1716 
Q 353 2575 817 3079 
Q 1281 3584 2069 3584 
Q 2775 3584 3186 3129 
Q 3597 2675 3597 1894 
z
M 3022 2063 
Q 3016 2534 2758 2815 
Q 2500 3097 2075 3097 
Q 1594 3097 1305 2825 
Q 1016 2553 972 2059 
L 3022 2063 
z
" transform="scale(0.015625)"/>
       <path id="DejaVuSans-73" d="M 2834 3397 
L 2834 2853 
Q 2591 2978 2328 3040 
Q 2066 3103 1784 3103 
Q 1356 3103 1142 2972 
Q 928 2841 928 2578 
Q 928 2378 1081 2264 
Q 1234 2150 1697 2047 
L 1894 2003 
Q 2506 1872 2764 1633 
Q 3022 1394 3022 966 
Q 3022 478 2636 193 
Q 2250 -91 1575 -91 
Q 1294 -91 989 -36 
Q 684 19 347 128 
L 347 722 
Q 666 556 975 473 
Q 1284 391 1588 391 
Q 1994 391 2212 530 
Q 2431 669 2431 922 
Q 2431 1156 2273 1281 
Q 2116 1406 1581 1522 
L 1381 1569 
Q 847 1681 609 1914 
Q 372 2147 372 2553 
Q 372 3047 722 3315 
Q 1072 3584 1716 3584 
Q 2034 3584 2315 3537 
Q 2597 3491 2834 3397 
z
" transform="scale(0.015625)"/>
      </defs>
      <use xlink:href="#DejaVuSans-74"/>
      <use xlink:href="#DejaVuSans-65" x="39.208984"/>
      <use xlink:href="#DejaVuSans-73" x="100.732422"/>
      <use xlink:href="#DejaVuSans-74" x="152.832031"/>
      <use xlink:href="#DejaVuSans-31" x="192.041016"/>
     </g>
    </g>
   </g>
   <g id="matplotlib.axis_2">
    <g id="ytick_1">
     <g id="line2d_9">
      <defs>
       <path id="m7536e7b0e4" d="M 0 0 
L -3.5 0 
" style="stroke: #000000; stroke-width: 0.8"/>
      </defs>
      <g>
       <use xlink:href="#m7536e7b0e4" x="57.6" y="295.675215" style="stroke: #000000; stroke-width: 0.8"/>
      </g>
     </g>
     <g id="text_10">
      <!-- 0.0 -->
      <g transform="translate(34.696875 299.474433)scale(0.1 -0.1)">
       <defs>
        <path id="DejaVuSans-2e" d="M 684 794 
L 1344 794 
L 1344 0 
L 684 0 
L 684 794 
z
" transform="scale(0.015625)"/>
       </defs>
       <use xlink:href="#DejaVuSans-30"/>
       <use xlink:href="#DejaVuSans-2e" x="63.623047"/>
       <use xlink:href="#DejaVuSans-30" x="95.410156"/>
      </g>
     </g>
    </g>
    <g id="ytick_2">
     <g id="line2d_10">
      <g>
       <use xlink:href="#m7536e7b0e4" x="57.6" y="262.181573" style="stroke: #000000; stroke-width: 0.8"/>
      </g>
     </g>
     <g id="text_11">
      <!-- 0.5 -->
      <g transform="translate(34.696875 265.980791)scale(0.1 -0.1)">
       <use xlink:href="#DejaVuSans-30"/>
       <use xlink:href="#DejaVuSans-2e" x="63.623047"/>
       <use xlink:href="#DejaVuSans-35" x="95.410156"/>
      </g>
     </g>
    </g>
    <g id="ytick_3">
     <g id="line2d_11">
      <g>
       <use xlink:href="#m7536e7b0e4" x="57.6" y="228.68793" style="stroke: #000000; stroke-width: 0.8"/>
      </g>
     </g>
     <g id="text_12">
      <!-- 1.0 -->
      <g transform="translate(34.696875 232.487149)scale(0.1 -0.1)">
       <use xlink:href="#DejaVuSans-31"/>
       <use xlink:href="#DejaVuSans-2e" x="63.623047"/>
       <use xlink:href="#DejaVuSans-30" x="95.410156"/>
      </g>
     </g>
    </g>
    <g id="ytick_4">
     <g id="line2d_12">
      <g>
       <use xlink:href="#m7536e7b0e4" x="57.6" y="195.194288" style="stroke: #000000; stroke-width: 0.8"/>
      </g>
     </g>
     <g id="text_13">
      <!-- 1.5 -->
      <g transform="translate(34.696875 198.993507)scale(0.1 -0.1)">
       <use xlink:href="#DejaVuSans-31"/>
       <use xlink:href="#DejaVuSans-2e" x="63.623047"/>
       <use xlink:href="#DejaVuSans-35" x="95.410156"/>
      </g>
     </g>
    </g>
    <g id="ytick_5">
     <g id="line2d_13">
      <g>
       <use xlink:href="#m7536e7b0e4" x="57.6" y="161.700646" style="stroke: #000000; stroke-width: 0.8"/>
      </g>
     </g>
     <g id="text_14">
      <!-- 2.0 -->
      <g transform="translate(34.696875 165.499865)scale(0.1 -0.1)">
       <use xlink:href="#DejaVuSans-32"/>
       <use xlink:href="#DejaVuSans-2e" x="63.623047"/>
       <use xlink:href="#DejaVuSans-30" x="95.410156"/>
      </g>
     </g>
    </g>
    <g id="ytick_6">
     <g id="line2d_14">
      <g>
       <use xlink:href="#m7536e7b0e4" x="57.6" y="128.207004" style="stroke: #000000; stroke-width: 0.8"/>
      </g>
     </g>
     <g id="text_15">
      <!-- 2.5 -->
      <g transform="translate(34.696875 132.006223)scale(0.1 -0.1)">
       <use xlink:href="#DejaVuSans-32"/>
       <use xlink:href="#DejaVuSans-2e" x="63.623047"/>
       <use xlink:href="#DejaVuSans-35" x="95.410156"/>
      </g>
     </g>
    </g>
    <g id="ytick_7">
     <g id="line2d_15">
      <g>
       <use xlink:href="#m7536e7b0e4" x="57.6" y="94.713362" style="stroke: #000000; stroke-width: 0.8"/>
      </g>
     </g>
     <g id="text_16">
      <!-- 3.0 -->
      <g transform="translate(34.696875 98.512581)scale(0.1 -0.1)">
       <use xlink:href="#DejaVuSans-33"/>
       <use xlink:href="#DejaVuSans-2e" x="63.623047"/>
       <use xlink:href="#DejaVuSans-30" x="95.410156"/>
      </g>
     </g>
    </g>
    <g id="ytick_8">
     <g id="line2d_16">
      <g>
       <use xlink:href="#m7536e7b0e4" x="57.6" y="61.21972" style="stroke: #000000; stroke-width: 0.8"/>
      </g>
     </g>
     <g id="text_17">
      <!-- 3.5 -->
      <g transform="translate(34.696875 65.018938)scale(0.1 -0.1)">
       <use xlink:href="#DejaVuSans-33"/>
       <use xlink:href="#DejaVuSans-2e" x="63.623047"/>
       <use xlink:href="#DejaVuSans-35" x="95.410156"/>
      </g>
     </g>
    </g>
    <g id="text_18">
     <!-- test2 -->
     <g transform="translate(28.617188 187.310812)rotate(-90)scale(0.1 -0.1)">
      <use xlink:href="#DejaVuSans-74"/>
      <use xlink:href="#DejaVuSans-65" x="39.208984"/>
      <use xlink:href="#DejaVuSans-73" x="100.732422"/>
      <use xlink:href="#DejaVuSans-74" x="152.832031"/>
      <use xlink:href="#DejaVuSans-32" x="192.041016"/>
     </g>
    </g>
   </g>
   <g id="line2d_17">
    <path d="M 73.832727 266.982214 
L 74.784793 201.303896 
L 75.73686 291.568 
L 76.688926 274.984258 
L 77.640992 291.495158 
L 78.593058 279.488958 
L 79.545124 279.872051 
L 80.49719 284.532212 
L 81.449256 294.767646 
L 82.401322 289.484159 
L 83.353388 289.512795 
L 84.305455 274.943462 
L 85.257521 287.660995 
L 86.209587 280.313095 
L 87.161653 292.810648 
L 88.113719 248.167236 
L 89.065785 294.819718 
L 90.017851 294.889556 
L 90.969917 287.686583 
L 91.921983 252.243222 
L 92.87405 283.474941 
L 93.826116 274.967345 
L 94.778182 281.419492 
L 95.730248 272.769268 
L 96.682314 282.051469 
L 97.63438 276.853028 
L 98.586446 278.389622 
L 99.538512 284.928422 
L 100.490579 236.385679 
L 101.442645 291.01863 
L 102.394711 251.883543 
L 103.346777 290.471411 
L 104.298843 228.584957 
L 105.250909 287.720284 
L 106.202975 288.461728 
L 107.155041 258.517235 
L 108.107107 268.01651 
L 109.059174 285.093221 
L 110.01124 286.670316 
L 110.963306 257.040955 
L 111.915372 238.172772 
L 112.867438 295.444028 
L 113.819504 285.848203 
L 114.77157 280.987314 
L 115.723636 274.86776 
L 116.675702 257.994616 
L 117.627769 274.075342 
L 118.579835 283.304256 
L 119.531901 284.371062 
L 120.483967 276.409036 
L 121.436033 290.284911 
L 122.388099 220.139102 
L 123.340165 291.001183 
L 124.292231 279.098335 
L 125.244298 255.850703 
L 126.196364 271.115642 
L 127.14843 293.044861 
L 128.100496 279.597404 
L 129.052562 290.313504 
L 130.004628 281.567671 
L 130.956694 283.883801 
L 131.90876 259.881567 
L 132.860826 292.484848 
L 133.812893 282.335212 
L 134.764959 249.818088 
L 135.717025 288.101314 
L 136.669091 286.650115 
L 137.621157 282.083996 
L 138.573223 288.708328 
L 139.525289 271.937729 
L 140.477355 294.055466 
L 141.429421 267.755017 
L 142.381488 282.904618 
L 143.333554 203.664755 
L 144.28562 247.650027 
L 145.237686 274.54692 
L 146.189752 289.622026 
L 147.141818 269.937771 
L 148.093884 244.988569 
L 149.04595 293.856944 
L 149.998017 286.766561 
L 150.950083 276.009206 
L 151.902149 287.097739 
L 152.854215 288.00414 
L 153.806281 264.291228 
L 154.758347 284.214912 
L 155.710413 294.187906 
L 156.662479 281.607147 
L 157.614545 287.981343 
L 158.566612 287.929954 
L 159.518678 257.085099 
L 160.470744 292.817381 
L 161.42281 290.512703 
L 162.374876 288.503062 
L 163.326942 289.912188 
L 164.279008 274.34053 
L 165.231074 279.270425 
L 166.18314 176.295038 
L 167.135207 282.552615 
L 168.087273 249.829787 
L 169.039339 288.955987 
L 169.991405 246.100088 
L 170.943471 271.655154 
L 171.895537 292.238343 
L 172.847603 286.156905 
L 173.799669 285.167117 
L 174.751736 275.259397 
L 175.703802 292.730576 
L 176.655868 293.377494 
L 177.607934 288.385954 
L 178.56 286.948514 
L 179.512066 294.778127 
L 180.464132 282.384717 
L 181.416198 241.905772 
L 182.368264 284.327734 
L 183.320331 294.63948 
L 184.272397 277.287564 
L 185.224463 283.220111 
L 186.176529 267.376414 
L 187.128595 265.513591 
L 188.080661 267.565673 
L 189.032727 281.327688 
L 189.984793 282.777221 
L 190.93686 274.466612 
L 191.888926 293.433626 
L 192.840992 269.003072 
L 193.793058 281.450011 
L 194.745124 289.233312 
L 195.69719 287.82131 
L 196.649256 152.633359 
L 197.601322 250.251589 
L 198.553388 286.991527 
L 199.505455 247.509837 
L 200.457521 290.940136 
L 201.409587 294.862739 
L 202.361653 290.430767 
L 203.313719 293.363946 
L 204.265785 293.276321 
L 205.217851 269.21245 
L 206.169917 291.836657 
L 207.121983 292.84047 
L 208.07405 246.840824 
L 209.026116 280.812872 
L 209.978182 274.300276 
L 210.930248 291.586312 
L 211.882314 292.719767 
L 212.83438 260.680301 
L 213.786446 267.474851 
L 214.738512 287.753824 
L 215.690579 276.220582 
L 216.642645 280.913832 
L 217.594711 295.349404 
L 218.546777 287.446724 
L 219.498843 295.350215 
L 220.450909 186.906035 
L 221.402975 186.606155 
L 222.355041 295.002263 
L 223.307107 294.433031 
L 224.259174 240.342274 
L 225.21124 291.725245 
L 226.163306 294.50174 
L 227.115372 230.527104 
L 228.067438 292.668342 
L 229.019504 270.713154 
L 229.97157 295.250651 
L 230.923636 294.227584 
L 231.875702 288.394202 
L 232.827769 275.834168 
L 233.779835 295.177632 
L 234.731901 295.182483 
L 235.683967 289.27631 
L 236.636033 291.125789 
L 237.588099 294.8268 
L 238.540165 286.707177 
L 239.492231 259.693405 
L 240.444298 291.463876 
L 241.396364 282.390474 
L 242.34843 294.782314 
L 243.300496 196.938443 
L 244.252562 291.650909 
L 245.204628 285.906264 
L 246.156694 283.792104 
L 247.10876 290.818893 
L 248.060826 281.275115 
L 249.012893 280.189186 
L 249.964959 275.337856 
L 250.917025 288.184116 
L 251.869091 291.16965 
L 252.821157 290.300805 
L 253.773223 293.965166 
L 254.725289 282.743814 
L 255.677355 247.47003 
L 256.629421 267.454135 
L 257.581488 279.464419 
L 258.533554 256.948423 
L 259.48562 270.664263 
L 260.437686 279.596671 
L 261.389752 285.500993 
L 262.341818 251.393205 
L 263.293884 172.970599 
L 264.24595 213.0504 
L 265.198017 273.590975 
L 266.150083 284.882466 
L 267.102149 288.517207 
L 269.006281 276.710064 
L 269.958347 288.49379 
L 271.862479 248.721981 
L 272.814545 261.832267 
L 273.766612 209.95822 
L 274.718678 276.160665 
L 275.670744 274.129623 
L 276.62281 260.931314 
L 277.574876 294.09787 
L 278.526942 226.18128 
L 279.479008 290.337086 
L 280.431074 276.571429 
L 281.38314 266.995647 
L 282.335207 282.268783 
L 283.287273 252.67101 
L 285.191405 281.15683 
L 286.143471 275.611965 
L 287.095537 290.726627 
L 288.047603 215.984906 
L 288.999669 287.564358 
L 289.951736 287.673561 
L 290.903802 267.799846 
L 291.855868 266.592842 
L 292.807934 276.214857 
L 293.76 281.632588 
L 294.712066 276.905483 
L 295.664132 233.428131 
L 296.616198 267.142159 
L 297.568264 266.257022 
L 298.520331 245.085865 
L 299.472397 267.443518 
L 300.424463 255.155624 
L 301.376529 264.762844 
L 302.328595 243.000426 
L 303.280661 291.331877 
L 304.232727 259.717305 
L 305.184793 267.384601 
L 306.13686 245.667669 
L 307.088926 246.071184 
L 308.040992 105.689952 
L 308.993058 274.876859 
L 309.945124 294.341133 
L 310.89719 251.485426 
L 311.849256 250.419536 
L 312.801322 276.979714 
L 313.753388 287.60675 
L 314.705455 267.198499 
L 315.657521 238.837465 
L 316.609587 85.881727 
L 317.561653 259.977261 
L 318.513719 243.517663 
L 319.465785 265.800678 
L 320.417851 293.85099 
L 321.369917 261.231641 
L 322.321983 259.67582 
L 323.27405 260.989708 
L 324.226116 210.875587 
L 325.178182 248.068423 
L 326.130248 211.723017 
L 327.082314 253.737275 
L 328.03438 259.231794 
L 328.986446 258.03953 
L 329.938512 286.25961 
L 330.890579 272.268202 
L 331.842645 273.959582 
L 332.794711 262.890995 
L 333.746777 215.377337 
L 334.698843 277.761905 
L 335.650909 260.387988 
L 336.602975 229.935822 
L 337.555041 269.996038 
L 338.507107 271.911549 
L 339.459174 220.383075 
L 340.41124 279.843329 
L 341.363306 254.904424 
L 342.315372 264.698203 
L 343.267438 126.864417 
L 344.219504 288.7169 
L 345.17157 211.849364 
L 346.123636 236.938368 
L 348.027769 271.205744 
L 348.979835 205.949392 
L 349.931901 267.840484 
L 350.883967 200.605699 
L 351.836033 243.878696 
L 352.788099 275.399656 
L 353.740165 195.355835 
L 354.692231 263.556174 
L 355.644298 202.672699 
L 356.596364 264.22378 
L 357.54843 256.161838 
L 358.500496 268.217961 
L 359.452562 249.925305 
L 360.404628 252.155881 
L 361.356694 235.906066 
L 362.30876 183.206621 
L 363.260826 213.767027 
L 364.212893 196.452948 
L 366.117025 267.176363 
L 367.069091 262.295979 
L 368.021157 258.037422 
L 368.973223 264.821302 
L 369.925289 279.906243 
L 370.877355 245.063517 
L 371.829421 201.224807 
L 372.781488 269.026853 
L 373.733554 272.433923 
L 374.68562 252.720149 
L 375.637686 240.188062 
L 376.589752 255.355869 
L 377.541818 276.438191 
L 378.493884 286.151833 
L 379.44595 232.55625 
L 380.398017 252.319935 
L 381.350083 264.800737 
L 382.302149 163.060634 
L 383.254215 257.790171 
L 384.206281 276.682602 
L 385.158347 273.915833 
L 386.110413 238.5737 
L 387.062479 272.860249 
L 388.014545 275.615343 
L 388.966612 258.526646 
L 389.918678 219.477176 
L 390.870744 280.302963 
L 391.82281 281.276437 
L 392.774876 285.965793 
L 393.726942 272.342748 
L 394.679008 250.605746 
L 395.631074 287.296444 
L 396.58314 205.614169 
L 397.535207 255.516226 
L 398.487273 247.602864 
L 398.487273 247.602864 
" clip-path="url(#p82b8735b7e)" style="fill: none; stroke: #ff0000; stroke-width: 1.5; stroke-linecap: square"/>
   </g>
   <g id="patch_3">
    <path d="M 57.6 307.584 
L 57.6 41.472 
" style="fill: none; stroke: #000000; stroke-width: 0.8; stroke-linejoin: miter; stroke-linecap: square"/>
   </g>
   <g id="patch_4">
    <path d="M 414.72 307.584 
L 414.72 41.472 
" style="fill: none; stroke: #000000; stroke-width: 0.8; stroke-linejoin: miter; stroke-linecap: square"/>
   </g>
   <g id="patch_5">
    <path d="M 57.6 307.584 
L 414.72 307.584 
" style="fill: none; stroke: #000000; stroke-width: 0.8; stroke-linejoin: miter; stroke-linecap: square"/>
   </g>
   <g id="patch_6">
    <path d="M 57.6 41.472 
L 414.72 41.472 
" style="fill: none; stroke: #000000; stroke-width: 0.8; stroke-linejoin: miter; stroke-linecap: square"/>
   </g>
  </g>
 </g>
 <defs>
  <clipPath id="p82b8735b7e">
   <rect x="57.6" y="41.472" width="357.12" height="266.112"/>
  </clipPath>
 </defs>
</svg>
