<?xml version="1.0" encoding="utf-8" standalone="no"?>
<!DOCTYPE svg PUBLIC "-//W3C//DTD SVG 1.1//EN"
  "http://www.w3.org/Graphics/SVG/1.1/DTD/svg11.dtd">
<svg xmlns:xlink="http://www.w3.org/1999/xlink" width="460.8pt" height="345.6pt" viewBox="0 0 460.8 345.6" xmlns="http://www.w3.org/2000/svg" version="1.1">
 <metadata>
  <rdf:RDF xmlns:dc="http://purl.org/dc/elements/1.1/" xmlns:cc="http://creativecommons.org/ns#" xmlns:rdf="http://www.w3.org/1999/02/22-rdf-syntax-ns#">
   <cc:Work>
    <dc:type rdf:resource="http://purl.org/dc/dcmitype/StillImage"/>
    <dc:date>2023-08-15T12:19:34.520589</dc:date>
    <dc:format>image/svg+xml</dc:format>
    <dc:creator>
     <cc:Agent>
      <dc:title>Matplotlib v3.5.2, https://matplotlib.org/</dc:title>
     </cc:Agent>
    </dc:creator>
   </cc:Work>
  </rdf:RDF>
 </metadata>
 <defs>
  <style type="text/css">*{stroke-linejoin: round; stroke-linecap: butt}</style>
 </defs>
 <g id="figure_1">
  <g id="patch_1">
   <path d="M 0 345.6 
L 460.8 345.6 
L 460.8 0 
L 0 0 
z
" style="fill: #ffffff"/>
  </g>
  <g id="axes_1">
   <g id="patch_2">
    <path d="M 57.6 307.584 
L 414.72 307.584 
L 414.72 41.472 
L 57.6 41.472 
z
" style="fill: #ffffff"/>
   </g>
   <g id="patch_3">
    <path d="M 73.832727 307.584 
L 74.592597 307.584 
L 74.592597 228.537613 
L 73.832727 228.537613 
z
" clip-path="url(#pd641904d20)" style="fill: #ff0000"/>
   </g>
   <g id="patch_4">
    <path d="M 74.782565 307.584 
L 75.542435 307.584 
L 75.542435 186.410167 
L 74.782565 186.410167 
z
" clip-path="url(#pd641904d20)" style="fill: #ff0000"/>
   </g>
   <g id="patch_5">
    <path d="M 75.732403 307.584 
L 76.492273 307.584 
L 76.492273 294.722484 
L 75.732403 294.722484 
z
" clip-path="url(#pd641904d20)" style="fill: #ff0000"/>
   </g>
   <g id="patch_6">
    <path d="M 76.682241 307.584 
L 77.442111 307.584 
L 77.442111 296.509713 
L 76.682241 296.509713 
z
" clip-path="url(#pd641904d20)" style="fill: #ff0000"/>
   </g>
   <g id="patch_7">
    <path d="M 77.632078 307.584 
L 78.391949 307.584 
L 78.391949 296.15591 
L 77.632078 296.15591 
z
" clip-path="url(#pd641904d20)" style="fill: #ff0000"/>
   </g>
   <g id="patch_8">
    <path d="M 78.581916 307.584 
L 79.341786 307.584 
L 79.341786 221.91525 
L 78.581916 221.91525 
z
" clip-path="url(#pd641904d20)" style="fill: #ff0000"/>
   </g>
   <g id="patch_9">
    <path d="M 79.531754 307.584 
L 80.291624 307.584 
L 80.291624 261.624493 
L 79.531754 261.624493 
z
" clip-path="url(#pd641904d20)" style="fill: #ff0000"/>
   </g>
   <g id="patch_10">
    <path d="M 80.481592 307.584 
L 81.241462 307.584 
L 81.241462 298.553952 
L 80.481592 298.553952 
z
" clip-path="url(#pd641904d20)" style="fill: #ff0000"/>
   </g>
   <g id="patch_11">
    <path d="M 81.431429 307.584 
L 82.1913 307.584 
L 82.1913 303.850271 
L 81.431429 303.850271 
z
" clip-path="url(#pd641904d20)" style="fill: #ff0000"/>
   </g>
   <g id="patch_12">
    <path d="M 82.381267 307.584 
L 83.141137 307.584 
L 83.141137 306.515591 
L 82.381267 306.515591 
z
" clip-path="url(#pd641904d20)" style="fill: #ff0000"/>
   </g>
   <g id="patch_13">
    <path d="M 83.331105 307.584 
L 84.090975 307.584 
L 84.090975 287.250253 
L 83.331105 287.250253 
z
" clip-path="url(#pd641904d20)" style="fill: #ff0000"/>
   </g>
   <g id="patch_14">
    <path d="M 84.280943 307.584 
L 85.040813 307.584 
L 85.040813 251.648757 
L 84.280943 251.648757 
z
" clip-path="url(#pd641904d20)" style="fill: #ff0000"/>
   </g>
   <g id="patch_15">
    <path d="M 85.23078 307.584 
L 85.990651 307.584 
L 85.990651 270.125282 
L 85.23078 270.125282 
z
" clip-path="url(#pd641904d20)" style="fill: #ff0000"/>
   </g>
   <g id="patch_16">
    <path d="M 86.180618 307.584 
L 86.940488 307.584 
L 86.940488 265.412201 
L 86.180618 265.412201 
z
" clip-path="url(#pd641904d20)" style="fill: #ff0000"/>
   </g>
   <g id="patch_17">
    <path d="M 87.130456 307.584 
L 87.890326 307.584 
L 87.890326 290.701262 
L 87.130456 290.701262 
z
" clip-path="url(#pd641904d20)" style="fill: #ff0000"/>
   </g>
   <g id="patch_18">
    <path d="M 88.080294 307.584 
L 88.840164 307.584 
L 88.840164 210.475641 
L 88.080294 210.475641 
z
" clip-path="url(#pd641904d20)" style="fill: #ff0000"/>
   </g>
   <g id="patch_19">
    <path d="M 89.030131 307.584 
L 89.790002 307.584 
L 89.790002 306.013413 
L 89.030131 306.013413 
z
" clip-path="url(#pd641904d20)" style="fill: #ff0000"/>
   </g>
   <g id="patch_20">
    <path d="M 89.979969 307.584 
L 90.739839 307.584 
L 90.739839 302.535211 
L 89.979969 302.535211 
z
" clip-path="url(#pd641904d20)" style="fill: #ff0000"/>
   </g>
   <g id="patch_21">
    <path d="M 90.929807 307.584 
L 91.689677 307.584 
L 91.689677 277.146815 
L 90.929807 277.146815 
z
" clip-path="url(#pd641904d20)" style="fill: #ff0000"/>
   </g>
   <g id="patch_22">
    <path d="M 91.879645 307.584 
L 92.639515 307.584 
L 92.639515 131.237748 
L 91.879645 131.237748 
z
" clip-path="url(#pd641904d20)" style="fill: #ff0000"/>
   </g>
   <g id="patch_23">
    <path d="M 92.829482 307.584 
L 93.589353 307.584 
L 93.589353 264.059358 
L 92.829482 264.059358 
z
" clip-path="url(#pd641904d20)" style="fill: #ff0000"/>
   </g>
   <g id="patch_24">
    <path d="M 93.77932 307.584 
L 94.53919 307.584 
L 94.53919 280.524399 
L 93.77932 280.524399 
z
" clip-path="url(#pd641904d20)" style="fill: #ff0000"/>
   </g>
   <g id="patch_25">
    <path d="M 94.729158 307.584 
L 95.489028 307.584 
L 95.489028 251.154567 
L 94.729158 251.154567 
z
" clip-path="url(#pd641904d20)" style="fill: #ff0000"/>
   </g>
   <g id="patch_26">
    <path d="M 95.678996 307.584 
L 96.438866 307.584 
L 96.438866 198.662241 
L 95.678996 198.662241 
z
" clip-path="url(#pd641904d20)" style="fill: #ff0000"/>
   </g>
   <g id="patch_27">
    <path d="M 96.628833 307.584 
L 97.388704 307.584 
L 97.388704 278.901426 
L 96.628833 278.901426 
z
" clip-path="url(#pd641904d20)" style="fill: #ff0000"/>
   </g>
   <g id="patch_28">
    <path d="M 97.578671 307.584 
L 98.338541 307.584 
L 98.338541 272.976828 
L 97.578671 272.976828 
z
" clip-path="url(#pd641904d20)" style="fill: #ff0000"/>
   </g>
   <g id="patch_29">
    <path d="M 98.528509 307.584 
L 99.288379 307.584 
L 99.288379 206.572897 
L 98.528509 206.572897 
z
" clip-path="url(#pd641904d20)" style="fill: #ff0000"/>
   </g>
   <g id="patch_30">
    <path d="M 99.478347 307.584 
L 100.238217 307.584 
L 100.238217 274.510719 
L 99.478347 274.510719 
z
" clip-path="url(#pd641904d20)" style="fill: #ff0000"/>
   </g>
   <g id="patch_31">
    <path d="M 100.428184 307.584 
L 101.188055 307.584 
L 101.188055 263.990544 
L 100.428184 263.990544 
z
" clip-path="url(#pd641904d20)" style="fill: #ff0000"/>
   </g>
   <g id="patch_32">
    <path d="M 101.378022 307.584 
L 102.137892 307.584 
L 102.137892 297.753492 
L 101.378022 297.753492 
z
" clip-path="url(#pd641904d20)" style="fill: #ff0000"/>
   </g>
   <g id="patch_33">
    <path d="M 102.32786 307.584 
L 103.08773 307.584 
L 103.08773 293.975095 
L 102.32786 293.975095 
z
" clip-path="url(#pd641904d20)" style="fill: #ff0000"/>
   </g>
   <g id="patch_34">
    <path d="M 103.277698 307.584 
L 104.037568 307.584 
L 104.037568 294.758664 
L 103.277698 294.758664 
z
" clip-path="url(#pd641904d20)" style="fill: #ff0000"/>
   </g>
   <g id="patch_35">
    <path d="M 104.227536 307.584 
L 104.987406 307.584 
L 104.987406 222.654092 
L 104.227536 222.654092 
z
" clip-path="url(#pd641904d20)" style="fill: #ff0000"/>
   </g>
   <g id="patch_36">
    <path d="M 105.177373 307.584 
L 105.937243 307.584 
L 105.937243 293.683951 
L 105.177373 293.683951 
z
" clip-path="url(#pd641904d20)" style="fill: #ff0000"/>
   </g>
   <g id="patch_37">
    <path d="M 106.127211 307.584 
L 106.887081 307.584 
L 106.887081 297.100843 
L 106.127211 297.100843 
z
" clip-path="url(#pd641904d20)" style="fill: #ff0000"/>
   </g>
   <g id="patch_38">
    <path d="M 107.077049 307.584 
L 107.836919 307.584 
L 107.836919 219.489852 
L 107.077049 219.489852 
z
" clip-path="url(#pd641904d20)" style="fill: #ff0000"/>
   </g>
   <g id="patch_39">
    <path d="M 108.026887 307.584 
L 108.786757 307.584 
L 108.786757 236.138593 
L 108.026887 236.138593 
z
" clip-path="url(#pd641904d20)" style="fill: #ff0000"/>
   </g>
   <g id="patch_40">
    <path d="M 108.976724 307.584 
L 109.736594 307.584 
L 109.736594 277.242289 
L 108.976724 277.242289 
z
" clip-path="url(#pd641904d20)" style="fill: #ff0000"/>
   </g>
   <g id="patch_41">
    <path d="M 109.926562 307.584 
L 110.686432 307.584 
L 110.686432 282.046392 
L 109.926562 282.046392 
z
" clip-path="url(#pd641904d20)" style="fill: #ff0000"/>
   </g>
   <g id="patch_42">
    <path d="M 110.8764 307.584 
L 111.63627 307.584 
L 111.63627 217.55204 
L 110.8764 217.55204 
z
" clip-path="url(#pd641904d20)" style="fill: #ff0000"/>
   </g>
   <g id="patch_43">
    <path d="M 111.826238 307.584 
L 112.586108 307.584 
L 112.586108 162.132182 
L 111.826238 162.132182 
z
" clip-path="url(#pd641904d20)" style="fill: #ff0000"/>
   </g>
   <g id="patch_44">
    <path d="M 112.776075 307.584 
L 113.535946 307.584 
L 113.535946 306.636 
L 112.776075 306.636 
z
" clip-path="url(#pd641904d20)" style="fill: #ff0000"/>
   </g>
   <g id="patch_45">
    <path d="M 113.725913 307.584 
L 114.485783 307.584 
L 114.485783 279.075262 
L 113.725913 279.075262 
z
" clip-path="url(#pd641904d20)" style="fill: #ff0000"/>
   </g>
   <g id="patch_46">
    <path d="M 114.675751 307.584 
L 115.435621 307.584 
L 115.435621 190.738346 
L 114.675751 190.738346 
z
" clip-path="url(#pd641904d20)" style="fill: #ff0000"/>
   </g>
   <g id="patch_47">
    <path d="M 115.625589 307.584 
L 116.385459 307.584 
L 116.385459 263.213169 
L 115.625589 263.213169 
z
" clip-path="url(#pd641904d20)" style="fill: #ff0000"/>
   </g>
   <g id="patch_48">
    <path d="M 116.575426 307.584 
L 117.335297 307.584 
L 117.335297 281.085269 
L 116.575426 281.085269 
z
" clip-path="url(#pd641904d20)" style="fill: #ff0000"/>
   </g>
   <g id="patch_49">
    <path d="M 117.525264 307.584 
L 118.285134 307.584 
L 118.285134 176.841632 
L 117.525264 176.841632 
z
" clip-path="url(#pd641904d20)" style="fill: #ff0000"/>
   </g>
   <g id="patch_50">
    <path d="M 118.475102 307.584 
L 119.234972 307.584 
L 119.234972 282.669643 
L 118.475102 282.669643 
z
" clip-path="url(#pd641904d20)" style="fill: #ff0000"/>
   </g>
   <g id="patch_51">
    <path d="M 119.42494 307.584 
L 120.18481 307.584 
L 120.18481 255.395665 
L 119.42494 255.395665 
z
" clip-path="url(#pd641904d20)" style="fill: #ff0000"/>
   </g>
   <g id="patch_52">
    <path d="M 120.374777 307.584 
L 121.134648 307.584 
L 121.134648 295.074063 
L 120.374777 295.074063 
z
" clip-path="url(#pd641904d20)" style="fill: #ff0000"/>
   </g>
   <g id="patch_53">
    <path d="M 121.324615 307.584 
L 122.084485 307.584 
L 122.084485 285.152253 
L 121.324615 285.152253 
z
" clip-path="url(#pd641904d20)" style="fill: #ff0000"/>
   </g>
   <g id="patch_54">
    <path d="M 122.274453 307.584 
L 123.034323 307.584 
L 123.034323 112.912264 
L 122.274453 112.912264 
z
" clip-path="url(#pd641904d20)" style="fill: #ff0000"/>
   </g>
   <g id="patch_55">
    <path d="M 123.224291 307.584 
L 123.984161 307.584 
L 123.984161 287.334249 
L 123.224291 287.334249 
z
" clip-path="url(#pd641904d20)" style="fill: #ff0000"/>
   </g>
   <g id="patch_56">
    <path d="M 124.174128 307.584 
L 124.933999 307.584 
L 124.933999 246.324458 
L 124.174128 246.324458 
z
" clip-path="url(#pd641904d20)" style="fill: #ff0000"/>
   </g>
   <g id="patch_57">
    <path d="M 125.123966 307.584 
L 125.883836 307.584 
L 125.883836 159.817552 
L 125.123966 159.817552 
z
" clip-path="url(#pd641904d20)" style="fill: #ff0000"/>
   </g>
   <g id="patch_58">
    <path d="M 126.073804 307.584 
L 126.833674 307.584 
L 126.833674 203.456317 
L 126.073804 203.456317 
z
" clip-path="url(#pd641904d20)" style="fill: #ff0000"/>
   </g>
   <g id="patch_59">
    <path d="M 127.023642 307.584 
L 127.783512 307.584 
L 127.783512 303.719724 
L 127.023642 303.719724 
z
" clip-path="url(#pd641904d20)" style="fill: #ff0000"/>
   </g>
   <g id="patch_60">
    <path d="M 127.973479 307.584 
L 128.73335 307.584 
L 128.73335 298.226556 
L 127.973479 298.226556 
z
" clip-path="url(#pd641904d20)" style="fill: #ff0000"/>
   </g>
   <g id="patch_61">
    <path d="M 128.923317 307.584 
L 129.683187 307.584 
L 129.683187 287.157501 
L 128.923317 287.157501 
z
" clip-path="url(#pd641904d20)" style="fill: #ff0000"/>
   </g>
   <g id="patch_62">
    <path d="M 129.873155 307.584 
L 130.633025 307.584 
L 130.633025 204.944254 
L 129.873155 204.944254 
z
" clip-path="url(#pd641904d20)" style="fill: #ff0000"/>
   </g>
   <g id="patch_63">
    <path d="M 130.822993 307.584 
L 131.582863 307.584 
L 131.582863 268.886096 
L 130.822993 268.886096 
z
" clip-path="url(#pd641904d20)" style="fill: #ff0000"/>
   </g>
   <g id="patch_64">
    <path d="M 131.77283 307.584 
L 132.532701 307.584 
L 132.532701 176.913732 
L 131.77283 176.913732 
z
" clip-path="url(#pd641904d20)" style="fill: #ff0000"/>
   </g>
   <g id="patch_65">
    <path d="M 132.722668 307.584 
L 133.482538 307.584 
L 133.482538 303.313865 
L 132.722668 303.313865 
z
" clip-path="url(#pd641904d20)" style="fill: #ff0000"/>
   </g>
   <g id="patch_66">
    <path d="M 133.672506 307.584 
L 134.432376 307.584 
L 134.432376 289.349325 
L 133.672506 289.349325 
z
" clip-path="url(#pd641904d20)" style="fill: #ff0000"/>
   </g>
   <g id="patch_67">
    <path d="M 134.622344 307.584 
L 135.382214 307.584 
L 135.382214 232.652698 
L 134.622344 232.652698 
z
" clip-path="url(#pd641904d20)" style="fill: #ff0000"/>
   </g>
   <g id="patch_68">
    <path d="M 135.572181 307.584 
L 136.332052 307.584 
L 136.332052 280.098473 
L 135.572181 280.098473 
z
" clip-path="url(#pd641904d20)" style="fill: #ff0000"/>
   </g>
   <g id="patch_69">
    <path d="M 136.522019 307.584 
L 137.281889 307.584 
L 137.281889 306.75286 
L 136.522019 306.75286 
z
" clip-path="url(#pd641904d20)" style="fill: #ff0000"/>
   </g>
   <g id="patch_70">
    <path d="M 137.471857 307.584 
L 138.231727 307.584 
L 138.231727 261.424824 
L 137.471857 261.424824 
z
" clip-path="url(#pd641904d20)" style="fill: #ff0000"/>
   </g>
   <g id="patch_71">
    <path d="M 138.421695 307.584 
L 139.181565 307.584 
L 139.181565 284.20391 
L 138.421695 284.20391 
z
" clip-path="url(#pd641904d20)" style="fill: #ff0000"/>
   </g>
   <g id="patch_72">
    <path d="M 139.371533 307.584 
L 140.131403 307.584 
L 140.131403 272.686171 
L 139.371533 272.686171 
z
" clip-path="url(#pd641904d20)" style="fill: #ff0000"/>
   </g>
   <g id="patch_73">
    <path d="M 140.32137 307.584 
L 141.08124 307.584 
L 141.08124 304.682889 
L 140.32137 304.682889 
z
" clip-path="url(#pd641904d20)" style="fill: #ff0000"/>
   </g>
   <g id="patch_74">
    <path d="M 141.271208 307.584 
L 142.031078 307.584 
L 142.031078 190.005984 
L 141.271208 190.005984 
z
" clip-path="url(#pd641904d20)" style="fill: #ff0000"/>
   </g>
   <g id="patch_75">
    <path d="M 142.221046 307.584 
L 142.980916 307.584 
L 142.980916 307.584 
L 142.221046 307.584 
z
" clip-path="url(#pd641904d20)" style="fill: #ff0000"/>
   </g>
   <g id="patch_76">
    <path d="M 143.170884 307.584 
L 143.930754 307.584 
L 143.930754 244.763812 
L 143.170884 244.763812 
z
" clip-path="url(#pd641904d20)" style="fill: #ff0000"/>
   </g>
   <g id="patch_77">
    <path d="M 144.120721 307.584 
L 144.880592 307.584 
L 144.880592 235.030834 
L 144.120721 235.030834 
z
" clip-path="url(#pd641904d20)" style="fill: #ff0000"/>
   </g>
   <g id="patch_78">
    <path d="M 145.070559 307.584 
L 145.830429 307.584 
L 145.830429 289.812198 
L 145.070559 289.812198 
z
" clip-path="url(#pd641904d20)" style="fill: #ff0000"/>
   </g>
   <g id="patch_79">
    <path d="M 146.020397 307.584 
L 146.780267 307.584 
L 146.780267 296.564881 
L 146.020397 296.564881 
z
" clip-path="url(#pd641904d20)" style="fill: #ff0000"/>
   </g>
   <g id="patch_80">
    <path d="M 146.970235 307.584 
L 147.730105 307.584 
L 147.730105 264.691213 
L 146.970235 264.691213 
z
" clip-path="url(#pd641904d20)" style="fill: #ff0000"/>
   </g>
   <g id="patch_81">
    <path d="M 147.920072 307.584 
L 148.679943 307.584 
L 148.679943 64.735854 
L 147.920072 64.735854 
z
" clip-path="url(#pd641904d20)" style="fill: #ff0000"/>
   </g>
   <g id="patch_82">
    <path d="M 148.86991 307.584 
L 149.62978 307.584 
L 149.62978 305.434198 
L 148.86991 305.434198 
z
" clip-path="url(#pd641904d20)" style="fill: #ff0000"/>
   </g>
   <g id="patch_83">
    <path d="M 149.819748 307.584 
L 150.579618 307.584 
L 150.579618 297.347436 
L 149.819748 297.347436 
z
" clip-path="url(#pd641904d20)" style="fill: #ff0000"/>
   </g>
   <g id="patch_84">
    <path d="M 150.769586 307.584 
L 151.529456 307.584 
L 151.529456 269.179538 
L 150.769586 269.179538 
z
" clip-path="url(#pd641904d20)" style="fill: #ff0000"/>
   </g>
   <g id="patch_85">
    <path d="M 151.719423 307.584 
L 152.479294 307.584 
L 152.479294 300.92988 
L 151.719423 300.92988 
z
" clip-path="url(#pd641904d20)" style="fill: #ff0000"/>
   </g>
   <g id="patch_86">
    <path d="M 152.669261 307.584 
L 153.429131 307.584 
L 153.429131 293.683698 
L 152.669261 293.683698 
z
" clip-path="url(#pd641904d20)" style="fill: #ff0000"/>
   </g>
   <g id="patch_87">
    <path d="M 153.619099 307.584 
L 154.378969 307.584 
L 154.378969 233.107522 
L 153.619099 233.107522 
z
" clip-path="url(#pd641904d20)" style="fill: #ff0000"/>
   </g>
   <g id="patch_88">
    <path d="M 154.568937 307.584 
L 155.328807 307.584 
L 155.328807 293.658655 
L 154.568937 293.658655 
z
" clip-path="url(#pd641904d20)" style="fill: #ff0000"/>
   </g>
   <g id="patch_89">
    <path d="M 155.518774 307.584 
L 156.278645 307.584 
L 156.278645 302.24733 
L 155.518774 302.24733 
z
" clip-path="url(#pd641904d20)" style="fill: #ff0000"/>
   </g>
   <g id="patch_90">
    <path d="M 156.468612 307.584 
L 157.228482 307.584 
L 157.228482 240.059009 
L 156.468612 240.059009 
z
" clip-path="url(#pd641904d20)" style="fill: #ff0000"/>
   </g>
   <g id="patch_91">
    <path d="M 157.41845 307.584 
L 158.17832 307.584 
L 158.17832 279.120522 
L 157.41845 279.120522 
z
" clip-path="url(#pd641904d20)" style="fill: #ff0000"/>
   </g>
   <g id="patch_92">
    <path d="M 158.368288 307.584 
L 159.128158 307.584 
L 159.128158 276.927319 
L 158.368288 276.927319 
z
" clip-path="url(#pd641904d20)" style="fill: #ff0000"/>
   </g>
   <g id="patch_93">
    <path d="M 159.318125 307.584 
L 160.077996 307.584 
L 160.077996 247.649271 
L 159.318125 247.649271 
z
" clip-path="url(#pd641904d20)" style="fill: #ff0000"/>
   </g>
   <g id="patch_94">
    <path d="M 160.267963 307.584 
L 161.027833 307.584 
L 161.027833 300.402378 
L 160.267963 300.402378 
z
" clip-path="url(#pd641904d20)" style="fill: #ff0000"/>
   </g>
   <g id="patch_95">
    <path d="M 161.217801 307.584 
L 161.977671 307.584 
L 161.977671 280.856102 
L 161.217801 280.856102 
z
" clip-path="url(#pd641904d20)" style="fill: #ff0000"/>
   </g>
   <g id="patch_96">
    <path d="M 162.167639 307.584 
L 162.927509 307.584 
L 162.927509 303.214868 
L 162.167639 303.214868 
z
" clip-path="url(#pd641904d20)" style="fill: #ff0000"/>
   </g>
   <g id="patch_97">
    <path d="M 163.117476 307.584 
L 163.877347 307.584 
L 163.877347 304.628191 
L 163.117476 304.628191 
z
" clip-path="url(#pd641904d20)" style="fill: #ff0000"/>
   </g>
   <g id="patch_98">
    <path d="M 164.067314 307.584 
L 164.827184 307.584 
L 164.827184 297.323699 
L 164.067314 297.323699 
z
" clip-path="url(#pd641904d20)" style="fill: #ff0000"/>
   </g>
   <g id="patch_99">
    <path d="M 165.017152 307.584 
L 165.777022 307.584 
L 165.777022 278.420668 
L 165.017152 278.420668 
z
" clip-path="url(#pd641904d20)" style="fill: #ff0000"/>
   </g>
   <g id="patch_100">
    <path d="M 165.96699 307.584 
L 166.72686 307.584 
L 166.72686 244.557761 
L 165.96699 244.557761 
z
" clip-path="url(#pd641904d20)" style="fill: #ff0000"/>
   </g>
   <g id="patch_101">
    <path d="M 166.916827 307.584 
L 167.676698 307.584 
L 167.676698 271.334749 
L 166.916827 271.334749 
z
" clip-path="url(#pd641904d20)" style="fill: #ff0000"/>
   </g>
   <g id="patch_102">
    <path d="M 167.866665 307.584 
L 168.626535 307.584 
L 168.626535 287.27498 
L 167.866665 287.27498 
z
" clip-path="url(#pd641904d20)" style="fill: #ff0000"/>
   </g>
   <g id="patch_103">
    <path d="M 168.816503 307.584 
L 169.576373 307.584 
L 169.576373 261.875896 
L 168.816503 261.875896 
z
" clip-path="url(#pd641904d20)" style="fill: #ff0000"/>
   </g>
   <g id="patch_104">
    <path d="M 169.766341 307.584 
L 170.526211 307.584 
L 170.526211 258.275781 
L 169.766341 258.275781 
z
" clip-path="url(#pd641904d20)" style="fill: #ff0000"/>
   </g>
   <g id="patch_105">
    <path d="M 170.716179 307.584 
L 171.476049 307.584 
L 171.476049 303.929891 
L 170.716179 303.929891 
z
" clip-path="url(#pd641904d20)" style="fill: #ff0000"/>
   </g>
   <g id="patch_106">
    <path d="M 171.666016 307.584 
L 172.425886 307.584 
L 172.425886 300.242699 
L 171.666016 300.242699 
z
" clip-path="url(#pd641904d20)" style="fill: #ff0000"/>
   </g>
   <g id="patch_107">
    <path d="M 172.615854 307.584 
L 173.375724 307.584 
L 173.375724 274.72049 
L 172.615854 274.72049 
z
" clip-path="url(#pd641904d20)" style="fill: #ff0000"/>
   </g>
   <g id="patch_108">
    <path d="M 173.565692 307.584 
L 174.325562 307.584 
L 174.325562 294.264447 
L 173.565692 294.264447 
z
" clip-path="url(#pd641904d20)" style="fill: #ff0000"/>
   </g>
   <g id="patch_109">
    <path d="M 174.51553 307.584 
L 175.2754 307.584 
L 175.2754 246.577921 
L 174.51553 246.577921 
z
" clip-path="url(#pd641904d20)" style="fill: #ff0000"/>
   </g>
   <g id="patch_110">
    <path d="M 175.465367 307.584 
L 176.225238 307.584 
L 176.225238 301.855272 
L 175.465367 301.855272 
z
" clip-path="url(#pd641904d20)" style="fill: #ff0000"/>
   </g>
   <g id="patch_111">
    <path d="M 176.415205 307.584 
L 177.175075 307.584 
L 177.175075 302.084129 
L 176.415205 302.084129 
z
" clip-path="url(#pd641904d20)" style="fill: #ff0000"/>
   </g>
   <g id="patch_112">
    <path d="M 177.365043 307.584 
L 178.124913 307.584 
L 178.124913 304.441724 
L 177.365043 304.441724 
z
" clip-path="url(#pd641904d20)" style="fill: #ff0000"/>
   </g>
   <g id="patch_113">
    <path d="M 178.314881 307.584 
L 179.074751 307.584 
L 179.074751 301.091456 
L 178.314881 301.091456 
z
" clip-path="url(#pd641904d20)" style="fill: #ff0000"/>
   </g>
   <g id="patch_114">
    <path d="M 179.264718 307.584 
L 180.024589 307.584 
L 180.024589 301.354206 
L 179.264718 301.354206 
z
" clip-path="url(#pd641904d20)" style="fill: #ff0000"/>
   </g>
   <g id="patch_115">
    <path d="M 180.214556 307.584 
L 180.974426 307.584 
L 180.974426 291.830502 
L 180.214556 291.830502 
z
" clip-path="url(#pd641904d20)" style="fill: #ff0000"/>
   </g>
   <g id="patch_116">
    <path d="M 181.164394 307.584 
L 181.924264 307.584 
L 181.924264 257.888325 
L 181.164394 257.888325 
z
" clip-path="url(#pd641904d20)" style="fill: #ff0000"/>
   </g>
   <g id="patch_117">
    <path d="M 182.114232 307.584 
L 182.874102 307.584 
L 182.874102 296.953981 
L 182.114232 296.953981 
z
" clip-path="url(#pd641904d20)" style="fill: #ff0000"/>
   </g>
   <g id="patch_118">
    <path d="M 183.064069 307.584 
L 183.82394 307.584 
L 183.82394 303.294906 
L 183.064069 303.294906 
z
" clip-path="url(#pd641904d20)" style="fill: #ff0000"/>
   </g>
   <g id="patch_119">
    <path d="M 184.013907 307.584 
L 184.773777 307.584 
L 184.773777 286.877341 
L 184.013907 286.877341 
z
" clip-path="url(#pd641904d20)" style="fill: #ff0000"/>
   </g>
   <g id="patch_120">
    <path d="M 184.963745 307.584 
L 185.723615 307.584 
L 185.723615 297.94485 
L 184.963745 297.94485 
z
" clip-path="url(#pd641904d20)" style="fill: #ff0000"/>
   </g>
   <g id="patch_121">
    <path d="M 185.913583 307.584 
L 186.673453 307.584 
L 186.673453 243.800084 
L 185.913583 243.800084 
z
" clip-path="url(#pd641904d20)" style="fill: #ff0000"/>
   </g>
   <g id="patch_122">
    <path d="M 186.86342 307.584 
L 187.623291 307.584 
L 187.623291 285.55775 
L 186.86342 285.55775 
z
" clip-path="url(#pd641904d20)" style="fill: #ff0000"/>
   </g>
   <g id="patch_123">
    <path d="M 187.813258 307.584 
L 188.573128 307.584 
L 188.573128 294.781158 
L 187.813258 294.781158 
z
" clip-path="url(#pd641904d20)" style="fill: #ff0000"/>
   </g>
   <g id="patch_124">
    <path d="M 188.763096 307.584 
L 189.522966 307.584 
L 189.522966 275.567051 
L 188.763096 275.567051 
z
" clip-path="url(#pd641904d20)" style="fill: #ff0000"/>
   </g>
   <g id="patch_125">
    <path d="M 189.712934 307.584 
L 190.472804 307.584 
L 190.472804 284.626425 
L 189.712934 284.626425 
z
" clip-path="url(#pd641904d20)" style="fill: #ff0000"/>
   </g>
   <g id="patch_126">
    <path d="M 190.662771 307.584 
L 191.422642 307.584 
L 191.422642 280.751323 
L 190.662771 280.751323 
z
" clip-path="url(#pd641904d20)" style="fill: #ff0000"/>
   </g>
   <g id="patch_127">
    <path d="M 191.612609 307.584 
L 192.372479 307.584 
L 192.372479 305.447425 
L 191.612609 305.447425 
z
" clip-path="url(#pd641904d20)" style="fill: #ff0000"/>
   </g>
   <g id="patch_128">
    <path d="M 192.562447 307.584 
L 193.322317 307.584 
L 193.322317 156.503655 
L 192.562447 156.503655 
z
" clip-path="url(#pd641904d20)" style="fill: #ff0000"/>
   </g>
   <g id="patch_129">
    <path d="M 193.512285 307.584 
L 194.272155 307.584 
L 194.272155 176.344477 
L 193.512285 176.344477 
z
" clip-path="url(#pd641904d20)" style="fill: #ff0000"/>
   </g>
   <g id="patch_130">
    <path d="M 194.462122 307.584 
L 195.221993 307.584 
L 195.221993 297.355491 
L 194.462122 297.355491 
z
" clip-path="url(#pd641904d20)" style="fill: #ff0000"/>
   </g>
   <g id="patch_131">
    <path d="M 195.41196 307.584 
L 196.17183 307.584 
L 196.17183 298.651722 
L 195.41196 298.651722 
z
" clip-path="url(#pd641904d20)" style="fill: #ff0000"/>
   </g>
   <g id="patch_132">
    <path d="M 196.361798 307.584 
L 197.121668 307.584 
L 197.121668 265.62002 
L 196.361798 265.62002 
z
" clip-path="url(#pd641904d20)" style="fill: #ff0000"/>
   </g>
   <g id="patch_133">
    <path d="M 197.311636 307.584 
L 198.071506 307.584 
L 198.071506 285.535907 
L 197.311636 285.535907 
z
" clip-path="url(#pd641904d20)" style="fill: #ff0000"/>
   </g>
   <g id="patch_134">
    <path d="M 198.261473 307.584 
L 199.021344 307.584 
L 199.021344 283.5918 
L 198.261473 283.5918 
z
" clip-path="url(#pd641904d20)" style="fill: #ff0000"/>
   </g>
   <g id="patch_135">
    <path d="M 199.211311 307.584 
L 199.971181 307.584 
L 199.971181 233.014755 
L 199.211311 233.014755 
z
" clip-path="url(#pd641904d20)" style="fill: #ff0000"/>
   </g>
   <g id="patch_136">
    <path d="M 200.161149 307.584 
L 200.921019 307.584 
L 200.921019 297.063907 
L 200.161149 297.063907 
z
" clip-path="url(#pd641904d20)" style="fill: #ff0000"/>
   </g>
   <g id="patch_137">
    <path d="M 201.110987 307.584 
L 201.870857 307.584 
L 201.870857 303.442499 
L 201.110987 303.442499 
z
" clip-path="url(#pd641904d20)" style="fill: #ff0000"/>
   </g>
   <g id="patch_138">
    <path d="M 202.060825 307.584 
L 202.820695 307.584 
L 202.820695 293.545405 
L 202.060825 293.545405 
z
" clip-path="url(#pd641904d20)" style="fill: #ff0000"/>
   </g>
   <g id="patch_139">
    <path d="M 203.010662 307.584 
L 203.770532 307.584 
L 203.770532 297.778614 
L 203.010662 297.778614 
z
" clip-path="url(#pd641904d20)" style="fill: #ff0000"/>
   </g>
   <g id="patch_140">
    <path d="M 203.9605 307.584 
L 204.72037 307.584 
L 204.72037 301.174692 
L 203.9605 301.174692 
z
" clip-path="url(#pd641904d20)" style="fill: #ff0000"/>
   </g>
   <g id="patch_141">
    <path d="M 204.910338 307.584 
L 205.670208 307.584 
L 205.670208 279.837972 
L 204.910338 279.837972 
z
" clip-path="url(#pd641904d20)" style="fill: #ff0000"/>
   </g>
   <g id="patch_142">
    <path d="M 205.860176 307.584 
L 206.620046 307.584 
L 206.620046 303.855616 
L 205.860176 303.855616 
z
" clip-path="url(#pd641904d20)" style="fill: #ff0000"/>
   </g>
   <g id="patch_143">
    <path d="M 206.810013 307.584 
L 207.569884 307.584 
L 207.569884 298.899956 
L 206.810013 298.899956 
z
" clip-path="url(#pd641904d20)" style="fill: #ff0000"/>
   </g>
   <g id="patch_144">
    <path d="M 207.759851 307.584 
L 208.519721 307.584 
L 208.519721 249.473103 
L 207.759851 249.473103 
z
" clip-path="url(#pd641904d20)" style="fill: #ff0000"/>
   </g>
   <g id="patch_145">
    <path d="M 208.709689 307.584 
L 209.469559 307.584 
L 209.469559 288.148675 
L 208.709689 288.148675 
z
" clip-path="url(#pd641904d20)" style="fill: #ff0000"/>
   </g>
   <g id="patch_146">
    <path d="M 209.659527 307.584 
L 210.419397 307.584 
L 210.419397 287.179691 
L 209.659527 287.179691 
z
" clip-path="url(#pd641904d20)" style="fill: #ff0000"/>
   </g>
   <g id="patch_147">
    <path d="M 210.609364 307.584 
L 211.369235 307.584 
L 211.369235 306.128497 
L 210.609364 306.128497 
z
" clip-path="url(#pd641904d20)" style="fill: #ff0000"/>
   </g>
   <g id="patch_148">
    <path d="M 211.559202 307.584 
L 212.319072 307.584 
L 212.319072 300.085544 
L 211.559202 300.085544 
z
" clip-path="url(#pd641904d20)" style="fill: #ff0000"/>
   </g>
   <g id="patch_149">
    <path d="M 212.50904 307.584 
L 213.26891 307.584 
L 213.26891 190.149025 
L 212.50904 190.149025 
z
" clip-path="url(#pd641904d20)" style="fill: #ff0000"/>
   </g>
   <g id="patch_150">
    <path d="M 213.458878 307.584 
L 214.218748 307.584 
L 214.218748 294.138702 
L 213.458878 294.138702 
z
" clip-path="url(#pd641904d20)" style="fill: #ff0000"/>
   </g>
   <g id="patch_151">
    <path d="M 214.408715 307.584 
L 215.168586 307.584 
L 215.168586 264.714336 
L 214.408715 264.714336 
z
" clip-path="url(#pd641904d20)" style="fill: #ff0000"/>
   </g>
   <g id="patch_152">
    <path d="M 215.358553 307.584 
L 216.118423 307.584 
L 216.118423 294.082475 
L 215.358553 294.082475 
z
" clip-path="url(#pd641904d20)" style="fill: #ff0000"/>
   </g>
   <g id="patch_153">
    <path d="M 216.308391 307.584 
L 217.068261 307.584 
L 217.068261 266.894173 
L 216.308391 266.894173 
z
" clip-path="url(#pd641904d20)" style="fill: #ff0000"/>
   </g>
   <g id="patch_154">
    <path d="M 217.258229 307.584 
L 218.018099 307.584 
L 218.018099 306.852802 
L 217.258229 306.852802 
z
" clip-path="url(#pd641904d20)" style="fill: #ff0000"/>
   </g>
   <g id="patch_155">
    <path d="M 218.208066 307.584 
L 218.967937 307.584 
L 218.967937 304.384753 
L 218.208066 304.384753 
z
" clip-path="url(#pd641904d20)" style="fill: #ff0000"/>
   </g>
   <g id="patch_156">
    <path d="M 219.157904 307.584 
L 219.917774 307.584 
L 219.917774 306.781469 
L 219.157904 306.781469 
z
" clip-path="url(#pd641904d20)" style="fill: #ff0000"/>
   </g>
   <g id="patch_157">
    <path d="M 220.107742 307.584 
L 220.867612 307.584 
L 220.867612 307.584 
L 220.107742 307.584 
z
" clip-path="url(#pd641904d20)" style="fill: #ff0000"/>
   </g>
   <g id="patch_158">
    <path d="M 221.05758 307.584 
L 221.81745 307.584 
L 221.81745 295.480691 
L 221.05758 295.480691 
z
" clip-path="url(#pd641904d20)" style="fill: #ff0000"/>
   </g>
   <g id="patch_159">
    <path d="M 222.007417 307.584 
L 222.767288 307.584 
L 222.767288 307.285703 
L 222.007417 307.285703 
z
" clip-path="url(#pd641904d20)" style="fill: #ff0000"/>
   </g>
   <g id="patch_160">
    <path d="M 222.957255 307.584 
L 223.717125 307.584 
L 223.717125 304.845267 
L 222.957255 304.845267 
z
" clip-path="url(#pd641904d20)" style="fill: #ff0000"/>
   </g>
   <g id="patch_161">
    <path d="M 223.907093 307.584 
L 224.666963 307.584 
L 224.666963 111.912658 
L 223.907093 111.912658 
z
" clip-path="url(#pd641904d20)" style="fill: #ff0000"/>
   </g>
   <g id="patch_162">
    <path d="M 224.856931 307.584 
L 225.616801 307.584 
L 225.616801 302.765283 
L 224.856931 302.765283 
z
" clip-path="url(#pd641904d20)" style="fill: #ff0000"/>
   </g>
   <g id="patch_163">
    <path d="M 225.806768 307.584 
L 226.566639 307.584 
L 226.566639 306.188543 
L 225.806768 306.188543 
z
" clip-path="url(#pd641904d20)" style="fill: #ff0000"/>
   </g>
   <g id="patch_164">
    <path d="M 226.756606 307.584 
L 227.516476 307.584 
L 227.516476 272.249007 
L 226.756606 272.249007 
z
" clip-path="url(#pd641904d20)" style="fill: #ff0000"/>
   </g>
   <g id="patch_165">
    <path d="M 227.706444 307.584 
L 228.466314 307.584 
L 228.466314 303.373816 
L 227.706444 303.373816 
z
" clip-path="url(#pd641904d20)" style="fill: #ff0000"/>
   </g>
   <g id="patch_166">
    <path d="M 228.656282 307.584 
L 229.416152 307.584 
L 229.416152 222.132777 
L 228.656282 222.132777 
z
" clip-path="url(#pd641904d20)" style="fill: #ff0000"/>
   </g>
   <g id="patch_167">
    <path d="M 229.606119 307.584 
L 230.36599 307.584 
L 230.36599 305.657317 
L 229.606119 305.657317 
z
" clip-path="url(#pd641904d20)" style="fill: #ff0000"/>
   </g>
   <g id="patch_168">
    <path d="M 230.555957 307.584 
L 231.315827 307.584 
L 231.315827 305.692427 
L 230.555957 305.692427 
z
" clip-path="url(#pd641904d20)" style="fill: #ff0000"/>
   </g>
   <g id="patch_169">
    <path d="M 231.505795 307.584 
L 232.265665 307.584 
L 232.265665 292.219487 
L 231.505795 292.219487 
z
" clip-path="url(#pd641904d20)" style="fill: #ff0000"/>
   </g>
   <g id="patch_170">
    <path d="M 232.455633 307.584 
L 233.215503 307.584 
L 233.215503 292.271285 
L 232.455633 292.271285 
z
" clip-path="url(#pd641904d20)" style="fill: #ff0000"/>
   </g>
   <g id="patch_171">
    <path d="M 233.405471 307.584 
L 234.165341 307.584 
L 234.165341 306.657719 
L 233.405471 306.657719 
z
" clip-path="url(#pd641904d20)" style="fill: #ff0000"/>
   </g>
   <g id="patch_172">
    <path d="M 234.355308 307.584 
L 235.115178 307.584 
L 235.115178 305.951011 
L 234.355308 305.951011 
z
" clip-path="url(#pd641904d20)" style="fill: #ff0000"/>
   </g>
   <g id="patch_173">
    <path d="M 235.305146 307.584 
L 236.065016 307.584 
L 236.065016 293.779116 
L 235.305146 293.779116 
z
" clip-path="url(#pd641904d20)" style="fill: #ff0000"/>
   </g>
   <g id="patch_174">
    <path d="M 236.254984 307.584 
L 237.014854 307.584 
L 237.014854 291.77437 
L 236.254984 291.77437 
z
" clip-path="url(#pd641904d20)" style="fill: #ff0000"/>
   </g>
   <g id="patch_175">
    <path d="M 237.204822 307.584 
L 237.964692 307.584 
L 237.964692 305.865452 
L 237.204822 305.865452 
z
" clip-path="url(#pd641904d20)" style="fill: #ff0000"/>
   </g>
   <g id="patch_176">
    <path d="M 238.154659 307.584 
L 238.914529 307.584 
L 238.914529 291.455292 
L 238.154659 291.455292 
z
" clip-path="url(#pd641904d20)" style="fill: #ff0000"/>
   </g>
   <g id="patch_177">
    <path d="M 239.104497 307.584 
L 239.864367 307.584 
L 239.864367 243.201242 
L 239.104497 243.201242 
z
" clip-path="url(#pd641904d20)" style="fill: #ff0000"/>
   </g>
   <g id="patch_178">
    <path d="M 240.054335 307.584 
L 240.814205 307.584 
L 240.814205 300.035743 
L 240.054335 300.035743 
z
" clip-path="url(#pd641904d20)" style="fill: #ff0000"/>
   </g>
   <g id="patch_179">
    <path d="M 241.004173 307.584 
L 241.764043 307.584 
L 241.764043 275.358271 
L 241.004173 275.358271 
z
" clip-path="url(#pd641904d20)" style="fill: #ff0000"/>
   </g>
   <g id="patch_180">
    <path d="M 241.95401 307.584 
L 242.713881 307.584 
L 242.713881 305.063063 
L 241.95401 305.063063 
z
" clip-path="url(#pd641904d20)" style="fill: #ff0000"/>
   </g>
   <g id="patch_181">
    <path d="M 242.903848 307.584 
L 243.663718 307.584 
L 243.663718 73.662036 
L 242.903848 73.662036 
z
" clip-path="url(#pd641904d20)" style="fill: #ff0000"/>
   </g>
   <g id="patch_182">
    <path d="M 243.853686 307.584 
L 244.613556 307.584 
L 244.613556 301.599721 
L 243.853686 301.599721 
z
" clip-path="url(#pd641904d20)" style="fill: #ff0000"/>
   </g>
   <g id="patch_183">
    <path d="M 244.803524 307.584 
L 245.563394 307.584 
L 245.563394 263.433995 
L 244.803524 263.433995 
z
" clip-path="url(#pd641904d20)" style="fill: #ff0000"/>
   </g>
   <g id="patch_184">
    <path d="M 245.753361 307.584 
L 246.513232 307.584 
L 246.513232 271.303119 
L 245.753361 271.303119 
z
" clip-path="url(#pd641904d20)" style="fill: #ff0000"/>
   </g>
   <g id="patch_185">
    <path d="M 246.703199 307.584 
L 247.463069 307.584 
L 247.463069 293.13115 
L 246.703199 293.13115 
z
" clip-path="url(#pd641904d20)" style="fill: #ff0000"/>
   </g>
   <g id="patch_186">
    <path d="M 247.653037 307.584 
L 248.412907 307.584 
L 248.412907 264.977528 
L 247.653037 264.977528 
z
" clip-path="url(#pd641904d20)" style="fill: #ff0000"/>
   </g>
   <g id="patch_187">
    <path d="M 248.602875 307.584 
L 249.362745 307.584 
L 249.362745 251.703469 
L 248.602875 251.703469 
z
" clip-path="url(#pd641904d20)" style="fill: #ff0000"/>
   </g>
   <g id="patch_188">
    <path d="M 249.552712 307.584 
L 250.312583 307.584 
L 250.312583 268.592848 
L 249.552712 268.592848 
z
" clip-path="url(#pd641904d20)" style="fill: #ff0000"/>
   </g>
   <g id="patch_189">
    <path d="M 250.50255 307.584 
L 251.26242 307.584 
L 251.26242 281.782706 
L 250.50255 281.782706 
z
" clip-path="url(#pd641904d20)" style="fill: #ff0000"/>
   </g>
   <g id="patch_190">
    <path d="M 251.452388 307.584 
L 252.212258 307.584 
L 252.212258 293.963947 
L 251.452388 293.963947 
z
" clip-path="url(#pd641904d20)" style="fill: #ff0000"/>
   </g>
   <g id="patch_191">
    <path d="M 252.402226 307.584 
L 253.162096 307.584 
L 253.162096 297.562046 
L 252.402226 297.562046 
z
" clip-path="url(#pd641904d20)" style="fill: #ff0000"/>
   </g>
   <g id="patch_192">
    <path d="M 253.352063 307.584 
L 254.111934 307.584 
L 254.111934 301.544582 
L 253.352063 301.544582 
z
" clip-path="url(#pd641904d20)" style="fill: #ff0000"/>
   </g>
   <g id="patch_193">
    <path d="M 254.301901 307.584 
L 255.061771 307.584 
L 255.061771 243.933934 
L 254.301901 243.933934 
z
" clip-path="url(#pd641904d20)" style="fill: #ff0000"/>
   </g>
   <g id="patch_194">
    <path d="M 255.251739 307.584 
L 256.011609 307.584 
L 256.011609 277.279481 
L 255.251739 277.279481 
z
" clip-path="url(#pd641904d20)" style="fill: #ff0000"/>
   </g>
   <g id="patch_195">
    <path d="M 256.201577 307.584 
L 256.961447 307.584 
L 256.961447 226.286268 
L 256.201577 226.286268 
z
" clip-path="url(#pd641904d20)" style="fill: #ff0000"/>
   </g>
   <g id="patch_196">
    <path d="M 257.151414 307.584 
L 257.911285 307.584 
L 257.911285 248.0508 
L 257.151414 248.0508 
z
" clip-path="url(#pd641904d20)" style="fill: #ff0000"/>
   </g>
   <g id="patch_197">
    <path d="M 258.101252 307.584 
L 258.861122 307.584 
L 258.861122 159.953191 
L 258.101252 159.953191 
z
" clip-path="url(#pd641904d20)" style="fill: #ff0000"/>
   </g>
   <g id="patch_198">
    <path d="M 259.05109 307.584 
L 259.81096 307.584 
L 259.81096 238.370029 
L 259.05109 238.370029 
z
" clip-path="url(#pd641904d20)" style="fill: #ff0000"/>
   </g>
   <g id="patch_199">
    <path d="M 260.000928 307.584 
L 260.760798 307.584 
L 260.760798 234.500721 
L 260.000928 234.500721 
z
" clip-path="url(#pd641904d20)" style="fill: #ff0000"/>
   </g>
   <g id="patch_200">
    <path d="M 260.950765 307.584 
L 261.710636 307.584 
L 261.710636 299.54636 
L 260.950765 299.54636 
z
" clip-path="url(#pd641904d20)" style="fill: #ff0000"/>
   </g>
   <g id="patch_201">
    <path d="M 261.900603 307.584 
L 262.660473 307.584 
L 262.660473 223.172201 
L 261.900603 223.172201 
z
" clip-path="url(#pd641904d20)" style="fill: #ff0000"/>
   </g>
   <g id="patch_202">
    <path d="M 262.850441 307.584 
L 263.610311 307.584 
L 263.610311 220.343184 
L 262.850441 220.343184 
z
" clip-path="url(#pd641904d20)" style="fill: #ff0000"/>
   </g>
   <g id="patch_203">
    <path d="M 263.800279 307.584 
L 264.560149 307.584 
L 264.560149 256.419654 
L 263.800279 256.419654 
z
" clip-path="url(#pd641904d20)" style="fill: #ff0000"/>
   </g>
   <g id="patch_204">
    <path d="M 264.750116 307.584 
L 265.509987 307.584 
L 265.509987 177.236698 
L 264.750116 177.236698 
z
" clip-path="url(#pd641904d20)" style="fill: #ff0000"/>
   </g>
   <g id="patch_205">
    <path d="M 265.699954 307.584 
L 266.459824 307.584 
L 266.459824 296.482421 
L 265.699954 296.482421 
z
" clip-path="url(#pd641904d20)" style="fill: #ff0000"/>
   </g>
   <g id="patch_206">
    <path d="M 266.649792 307.584 
L 267.409662 307.584 
L 267.409662 292.338965 
L 266.649792 292.338965 
z
" clip-path="url(#pd641904d20)" style="fill: #ff0000"/>
   </g>
   <g id="patch_207">
    <path d="M 267.59963 307.584 
L 268.3595 307.584 
L 268.3595 307.584 
L 267.59963 307.584 
z
" clip-path="url(#pd641904d20)" style="fill: #ff0000"/>
   </g>
   <g id="patch_208">
    <path d="M 268.549468 307.584 
L 269.309338 307.584 
L 269.309338 242.210079 
L 268.549468 242.210079 
z
" clip-path="url(#pd641904d20)" style="fill: #ff0000"/>
   </g>
   <g id="patch_209">
    <path d="M 269.499305 307.584 
L 270.259175 307.584 
L 270.259175 265.990334 
L 269.499305 265.990334 
z
" clip-path="url(#pd641904d20)" style="fill: #ff0000"/>
   </g>
   <g id="patch_210">
    <path d="M 270.449143 307.584 
L 271.209013 307.584 
L 271.209013 274.952735 
L 270.449143 274.952735 
z
" clip-path="url(#pd641904d20)" style="fill: #ff0000"/>
   </g>
   <g id="patch_211">
    <path d="M 271.398981 307.584 
L 272.158851 307.584 
L 272.158851 205.162576 
L 271.398981 205.162576 
z
" clip-path="url(#pd641904d20)" style="fill: #ff0000"/>
   </g>
   <g id="patch_212">
    <path d="M 272.348819 307.584 
L 273.108689 307.584 
L 273.108689 217.200279 
L 272.348819 217.200279 
z
" clip-path="url(#pd641904d20)" style="fill: #ff0000"/>
   </g>
   <g id="patch_213">
    <path d="M 273.298656 307.584 
L 274.058527 307.584 
L 274.058527 237.310894 
L 273.298656 237.310894 
z
" clip-path="url(#pd641904d20)" style="fill: #ff0000"/>
   </g>
   <g id="patch_214">
    <path d="M 274.248494 307.584 
L 275.008364 307.584 
L 275.008364 233.370561 
L 274.248494 233.370561 
z
" clip-path="url(#pd641904d20)" style="fill: #ff0000"/>
   </g>
   <g id="patch_215">
    <path d="M 275.198332 307.584 
L 275.958202 307.584 
L 275.958202 244.742038 
L 275.198332 244.742038 
z
" clip-path="url(#pd641904d20)" style="fill: #ff0000"/>
   </g>
   <g id="patch_216">
    <path d="M 276.14817 307.584 
L 276.90804 307.584 
L 276.90804 263.368185 
L 276.14817 263.368185 
z
" clip-path="url(#pd641904d20)" style="fill: #ff0000"/>
   </g>
   <g id="patch_217">
    <path d="M 277.098007 307.584 
L 277.857878 307.584 
L 277.857878 302.047958 
L 277.098007 302.047958 
z
" clip-path="url(#pd641904d20)" style="fill: #ff0000"/>
   </g>
   <g id="patch_218">
    <path d="M 278.047845 307.584 
L 278.807715 307.584 
L 278.807715 118.344006 
L 278.047845 118.344006 
z
" clip-path="url(#pd641904d20)" style="fill: #ff0000"/>
   </g>
   <g id="patch_219">
    <path d="M 278.997683 307.584 
L 279.757553 307.584 
L 279.757553 298.609945 
L 278.997683 298.609945 
z
" clip-path="url(#pd641904d20)" style="fill: #ff0000"/>
   </g>
   <g id="patch_220">
    <path d="M 279.947521 307.584 
L 280.707391 307.584 
L 280.707391 265.350485 
L 279.947521 265.350485 
z
" clip-path="url(#pd641904d20)" style="fill: #ff0000"/>
   </g>
   <g id="patch_221">
    <path d="M 280.897358 307.584 
L 281.657229 307.584 
L 281.657229 237.39337 
L 280.897358 237.39337 
z
" clip-path="url(#pd641904d20)" style="fill: #ff0000"/>
   </g>
   <g id="patch_222">
    <path d="M 281.847196 307.584 
L 282.607066 307.584 
L 282.607066 307.584 
L 281.847196 307.584 
z
" clip-path="url(#pd641904d20)" style="fill: #ff0000"/>
   </g>
   <g id="patch_223">
    <path d="M 282.797034 307.584 
L 283.556904 307.584 
L 283.556904 269.118621 
L 282.797034 269.118621 
z
" clip-path="url(#pd641904d20)" style="fill: #ff0000"/>
   </g>
   <g id="patch_224">
    <path d="M 283.746872 307.584 
L 284.506742 307.584 
L 284.506742 269.743924 
L 283.746872 269.743924 
z
" clip-path="url(#pd641904d20)" style="fill: #ff0000"/>
   </g>
   <g id="patch_225">
    <path d="M 284.696709 307.584 
L 285.45658 307.584 
L 285.45658 262.91979 
L 284.696709 262.91979 
z
" clip-path="url(#pd641904d20)" style="fill: #ff0000"/>
   </g>
   <g id="patch_226">
    <path d="M 285.646547 307.584 
L 286.406417 307.584 
L 286.406417 234.42912 
L 285.646547 234.42912 
z
" clip-path="url(#pd641904d20)" style="fill: #ff0000"/>
   </g>
   <g id="patch_227">
    <path d="M 286.596385 307.584 
L 287.356255 307.584 
L 287.356255 299.244607 
L 286.596385 299.244607 
z
" clip-path="url(#pd641904d20)" style="fill: #ff0000"/>
   </g>
   <g id="patch_228">
    <path d="M 287.546223 307.584 
L 288.306093 307.584 
L 288.306093 61.766326 
L 287.546223 61.766326 
z
" clip-path="url(#pd641904d20)" style="fill: #ff0000"/>
   </g>
   <g id="patch_229">
    <path d="M 288.49606 307.584 
L 289.255931 307.584 
L 289.255931 293.967435 
L 288.49606 293.967435 
z
" clip-path="url(#pd641904d20)" style="fill: #ff0000"/>
   </g>
   <g id="patch_230">
    <path d="M 289.445898 307.584 
L 290.205768 307.584 
L 290.205768 287.255483 
L 289.445898 287.255483 
z
" clip-path="url(#pd641904d20)" style="fill: #ff0000"/>
   </g>
   <g id="patch_231">
    <path d="M 290.395736 307.584 
L 291.155606 307.584 
L 291.155606 240.742517 
L 290.395736 240.742517 
z
" clip-path="url(#pd641904d20)" style="fill: #ff0000"/>
   </g>
   <g id="patch_232">
    <path d="M 291.345574 307.584 
L 292.105444 307.584 
L 292.105444 132.823916 
L 291.345574 132.823916 
z
" clip-path="url(#pd641904d20)" style="fill: #ff0000"/>
   </g>
   <g id="patch_233">
    <path d="M 292.295411 307.584 
L 293.055282 307.584 
L 293.055282 123.909629 
L 292.295411 123.909629 
z
" clip-path="url(#pd641904d20)" style="fill: #ff0000"/>
   </g>
   <g id="patch_234">
    <path d="M 293.245249 307.584 
L 294.005119 307.584 
L 294.005119 285.721717 
L 293.245249 285.721717 
z
" clip-path="url(#pd641904d20)" style="fill: #ff0000"/>
   </g>
   <g id="patch_235">
    <path d="M 294.195087 307.584 
L 294.954957 307.584 
L 294.954957 235.029243 
L 294.195087 235.029243 
z
" clip-path="url(#pd641904d20)" style="fill: #ff0000"/>
   </g>
   <g id="patch_236">
    <path d="M 295.144925 307.584 
L 295.904795 307.584 
L 295.904795 238.578233 
L 295.144925 238.578233 
z
" clip-path="url(#pd641904d20)" style="fill: #ff0000"/>
   </g>
   <g id="patch_237">
    <path d="M 296.094762 307.584 
L 296.854633 307.584 
L 296.854633 217.630079 
L 296.094762 217.630079 
z
" clip-path="url(#pd641904d20)" style="fill: #ff0000"/>
   </g>
   <g id="patch_238">
    <path d="M 297.0446 307.584 
L 297.80447 307.584 
L 297.80447 274.805622 
L 297.0446 274.805622 
z
" clip-path="url(#pd641904d20)" style="fill: #ff0000"/>
   </g>
   <g id="patch_239">
    <path d="M 297.994438 307.584 
L 298.754308 307.584 
L 298.754308 64.57729 
L 297.994438 64.57729 
z
" clip-path="url(#pd641904d20)" style="fill: #ff0000"/>
   </g>
   <g id="patch_240">
    <path d="M 298.944276 307.584 
L 299.704146 307.584 
L 299.704146 285.716031 
L 298.944276 285.716031 
z
" clip-path="url(#pd641904d20)" style="fill: #ff0000"/>
   </g>
   <g id="patch_241">
    <path d="M 299.894114 307.584 
L 300.653984 307.584 
L 300.653984 171.107784 
L 299.894114 171.107784 
z
" clip-path="url(#pd641904d20)" style="fill: #ff0000"/>
   </g>
   <g id="patch_242">
    <path d="M 300.843951 307.584 
L 301.603821 307.584 
L 301.603821 238.721198 
L 300.843951 238.721198 
z
" clip-path="url(#pd641904d20)" style="fill: #ff0000"/>
   </g>
   <g id="patch_243">
    <path d="M 301.793789 307.584 
L 302.553659 307.584 
L 302.553659 260.14996 
L 301.793789 260.14996 
z
" clip-path="url(#pd641904d20)" style="fill: #ff0000"/>
   </g>
   <g id="patch_244">
    <path d="M 302.743627 307.584 
L 303.503497 307.584 
L 303.503497 295.040593 
L 302.743627 295.040593 
z
" clip-path="url(#pd641904d20)" style="fill: #ff0000"/>
   </g>
   <g id="patch_245">
    <path d="M 303.693465 307.584 
L 304.453335 307.584 
L 304.453335 196.921781 
L 303.693465 196.921781 
z
" clip-path="url(#pd641904d20)" style="fill: #ff0000"/>
   </g>
   <g id="patch_246">
    <path d="M 304.643302 307.584 
L 305.403173 307.584 
L 305.403173 235.705798 
L 304.643302 235.705798 
z
" clip-path="url(#pd641904d20)" style="fill: #ff0000"/>
   </g>
   <g id="patch_247">
    <path d="M 305.59314 307.584 
L 306.35301 307.584 
L 306.35301 192.893921 
L 305.59314 192.893921 
z
" clip-path="url(#pd641904d20)" style="fill: #ff0000"/>
   </g>
   <g id="patch_248">
    <path d="M 306.542978 307.584 
L 307.302848 307.584 
L 307.302848 262.167337 
L 306.542978 262.167337 
z
" clip-path="url(#pd641904d20)" style="fill: #ff0000"/>
   </g>
   <g id="patch_249">
    <path d="M 307.492816 307.584 
L 308.252686 307.584 
L 308.252686 145.831574 
L 307.492816 145.831574 
z
" clip-path="url(#pd641904d20)" style="fill: #ff0000"/>
   </g>
   <g id="patch_250">
    <path d="M 308.442653 307.584 
L 309.202524 307.584 
L 309.202524 183.652159 
L 308.442653 183.652159 
z
" clip-path="url(#pd641904d20)" style="fill: #ff0000"/>
   </g>
   <g id="patch_251">
    <path d="M 309.392491 307.584 
L 310.152361 307.584 
L 310.152361 303.985193 
L 309.392491 303.985193 
z
" clip-path="url(#pd641904d20)" style="fill: #ff0000"/>
   </g>
   <g id="patch_252">
    <path d="M 310.342329 307.584 
L 311.102199 307.584 
L 311.102199 199.5833 
L 310.342329 199.5833 
z
" clip-path="url(#pd641904d20)" style="fill: #ff0000"/>
   </g>
   <g id="patch_253">
    <path d="M 311.292167 307.584 
L 312.052037 307.584 
L 312.052037 61.766326 
L 311.292167 61.766326 
z
" clip-path="url(#pd641904d20)" style="fill: #ff0000"/>
   </g>
   <g id="patch_254">
    <path d="M 312.242004 307.584 
L 313.001875 307.584 
L 313.001875 178.674478 
L 312.242004 178.674478 
z
" clip-path="url(#pd641904d20)" style="fill: #ff0000"/>
   </g>
   <g id="patch_255">
    <path d="M 313.191842 307.584 
L 313.951712 307.584 
L 313.951712 276.436395 
L 313.191842 276.436395 
z
" clip-path="url(#pd641904d20)" style="fill: #ff0000"/>
   </g>
   <g id="patch_256">
    <path d="M 314.14168 307.584 
L 314.90155 307.584 
L 314.90155 182.957924 
L 314.14168 182.957924 
z
" clip-path="url(#pd641904d20)" style="fill: #ff0000"/>
   </g>
   <g id="patch_257">
    <path d="M 315.091518 307.584 
L 315.851388 307.584 
L 315.851388 156.799348 
L 315.091518 156.799348 
z
" clip-path="url(#pd641904d20)" style="fill: #ff0000"/>
   </g>
   <g id="patch_258">
    <path d="M 316.041355 307.584 
L 316.801226 307.584 
L 316.801226 61.766326 
L 316.041355 61.766326 
z
" clip-path="url(#pd641904d20)" style="fill: #ff0000"/>
   </g>
   <g id="patch_259">
    <path d="M 316.991193 307.584 
L 317.751063 307.584 
L 317.751063 153.10024 
L 316.991193 153.10024 
z
" clip-path="url(#pd641904d20)" style="fill: #ff0000"/>
   </g>
   <g id="patch_260">
    <path d="M 317.941031 307.584 
L 318.700901 307.584 
L 318.700901 205.227113 
L 317.941031 205.227113 
z
" clip-path="url(#pd641904d20)" style="fill: #ff0000"/>
   </g>
   <g id="patch_261">
    <path d="M 318.890869 307.584 
L 319.650739 307.584 
L 319.650739 88.96798 
L 318.890869 88.96798 
z
" clip-path="url(#pd641904d20)" style="fill: #ff0000"/>
   </g>
   <g id="patch_262">
    <path d="M 319.840706 307.584 
L 320.600577 307.584 
L 320.600577 304.600057 
L 319.840706 304.600057 
z
" clip-path="url(#pd641904d20)" style="fill: #ff0000"/>
   </g>
   <g id="patch_263">
    <path d="M 320.790544 307.584 
L 321.550414 307.584 
L 321.550414 151.996313 
L 320.790544 151.996313 
z
" clip-path="url(#pd641904d20)" style="fill: #ff0000"/>
   </g>
   <g id="patch_264">
    <path d="M 321.740382 307.584 
L 322.500252 307.584 
L 322.500252 158.68153 
L 321.740382 158.68153 
z
" clip-path="url(#pd641904d20)" style="fill: #ff0000"/>
   </g>
   <g id="patch_265">
    <path d="M 322.69022 307.584 
L 323.45009 307.584 
L 323.45009 184.354701 
L 322.69022 184.354701 
z
" clip-path="url(#pd641904d20)" style="fill: #ff0000"/>
   </g>
   <g id="patch_266">
    <path d="M 323.640057 307.584 
L 324.399928 307.584 
L 324.399928 61.766326 
L 323.640057 61.766326 
z
" clip-path="url(#pd641904d20)" style="fill: #ff0000"/>
   </g>
   <g id="patch_267">
    <path d="M 324.589895 307.584 
L 325.349765 307.584 
L 325.349765 171.410913 
L 324.589895 171.410913 
z
" clip-path="url(#pd641904d20)" style="fill: #ff0000"/>
   </g>
   <g id="patch_268">
    <path d="M 325.539733 307.584 
L 326.299603 307.584 
L 326.299603 155.760643 
L 325.539733 155.760643 
z
" clip-path="url(#pd641904d20)" style="fill: #ff0000"/>
   </g>
   <g id="patch_269">
    <path d="M 326.489571 307.584 
L 327.249441 307.584 
L 327.249441 168.763783 
L 326.489571 168.763783 
z
" clip-path="url(#pd641904d20)" style="fill: #ff0000"/>
   </g>
   <g id="patch_270">
    <path d="M 327.439408 307.584 
L 328.199279 307.584 
L 328.199279 184.156978 
L 327.439408 184.156978 
z
" clip-path="url(#pd641904d20)" style="fill: #ff0000"/>
   </g>
   <g id="patch_271">
    <path d="M 328.389246 307.584 
L 329.149116 307.584 
L 329.149116 239.001262 
L 328.389246 239.001262 
z
" clip-path="url(#pd641904d20)" style="fill: #ff0000"/>
   </g>
   <g id="patch_272">
    <path d="M 329.339084 307.584 
L 330.098954 307.584 
L 330.098954 279.001206 
L 329.339084 279.001206 
z
" clip-path="url(#pd641904d20)" style="fill: #ff0000"/>
   </g>
   <g id="patch_273">
    <path d="M 330.288922 307.584 
L 331.048792 307.584 
L 331.048792 205.801325 
L 330.288922 205.801325 
z
" clip-path="url(#pd641904d20)" style="fill: #ff0000"/>
   </g>
   <g id="patch_274">
    <path d="M 331.23876 307.584 
L 331.99863 307.584 
L 331.99863 187.288945 
L 331.23876 187.288945 
z
" clip-path="url(#pd641904d20)" style="fill: #ff0000"/>
   </g>
   <g id="patch_275">
    <path d="M 332.188597 307.584 
L 332.948467 307.584 
L 332.948467 145.067024 
L 332.188597 145.067024 
z
" clip-path="url(#pd641904d20)" style="fill: #ff0000"/>
   </g>
   <g id="patch_276">
    <path d="M 333.138435 307.584 
L 333.898305 307.584 
L 333.898305 220.286269 
L 333.138435 220.286269 
z
" clip-path="url(#pd641904d20)" style="fill: #ff0000"/>
   </g>
   <g id="patch_277">
    <path d="M 334.088273 307.584 
L 334.848143 307.584 
L 334.848143 307.584 
L 334.088273 307.584 
z
" clip-path="url(#pd641904d20)" style="fill: #ff0000"/>
   </g>
   <g id="patch_278">
    <path d="M 335.038111 307.584 
L 335.797981 307.584 
L 335.797981 205.433482 
L 335.038111 205.433482 
z
" clip-path="url(#pd641904d20)" style="fill: #ff0000"/>
   </g>
   <g id="patch_279">
    <path d="M 335.987948 307.584 
L 336.747819 307.584 
L 336.747819 61.766326 
L 335.987948 61.766326 
z
" clip-path="url(#pd641904d20)" style="fill: #ff0000"/>
   </g>
   <g id="patch_280">
    <path d="M 336.937786 307.584 
L 337.697656 307.584 
L 337.697656 199.326986 
L 336.937786 199.326986 
z
" clip-path="url(#pd641904d20)" style="fill: #ff0000"/>
   </g>
   <g id="patch_281">
    <path d="M 337.887624 307.584 
L 338.647494 307.584 
L 338.647494 194.60457 
L 337.887624 194.60457 
z
" clip-path="url(#pd641904d20)" style="fill: #ff0000"/>
   </g>
   <g id="patch_282">
    <path d="M 338.837462 307.584 
L 339.597332 307.584 
L 339.597332 123.242735 
L 338.837462 123.242735 
z
" clip-path="url(#pd641904d20)" style="fill: #ff0000"/>
   </g>
   <g id="patch_283">
    <path d="M 339.787299 307.584 
L 340.54717 307.584 
L 340.54717 259.022203 
L 339.787299 259.022203 
z
" clip-path="url(#pd641904d20)" style="fill: #ff0000"/>
   </g>
   <g id="patch_284">
    <path d="M 340.737137 307.584 
L 341.497007 307.584 
L 341.497007 195.778999 
L 340.737137 195.778999 
z
" clip-path="url(#pd641904d20)" style="fill: #ff0000"/>
   </g>
   <g id="patch_285">
    <path d="M 341.686975 307.584 
L 342.446845 307.584 
L 342.446845 77.062981 
L 341.686975 77.062981 
z
" clip-path="url(#pd641904d20)" style="fill: #ff0000"/>
   </g>
   <g id="patch_286">
    <path d="M 342.636813 307.584 
L 343.396683 307.584 
L 343.396683 290.114764 
L 342.636813 290.114764 
z
" clip-path="url(#pd641904d20)" style="fill: #ff0000"/>
   </g>
   <g id="patch_287">
    <path d="M 343.58665 307.584 
L 344.346521 307.584 
L 344.346521 280.977028 
L 343.58665 280.977028 
z
" clip-path="url(#pd641904d20)" style="fill: #ff0000"/>
   </g>
   <g id="patch_288">
    <path d="M 344.536488 307.584 
L 345.296358 307.584 
L 345.296358 275.377766 
L 344.536488 275.377766 
z
" clip-path="url(#pd641904d20)" style="fill: #ff0000"/>
   </g>
   <g id="patch_289">
    <path d="M 345.486326 307.584 
L 346.246196 307.584 
L 346.246196 78.308571 
L 345.486326 78.308571 
z
" clip-path="url(#pd641904d20)" style="fill: #ff0000"/>
   </g>
   <g id="patch_290">
    <path d="M 346.436164 307.584 
L 347.196034 307.584 
L 347.196034 250.277269 
L 346.436164 250.277269 
z
" clip-path="url(#pd641904d20)" style="fill: #ff0000"/>
   </g>
   <g id="patch_291">
    <path d="M 347.386001 307.584 
L 348.145872 307.584 
L 348.145872 249.274547 
L 347.386001 249.274547 
z
" clip-path="url(#pd641904d20)" style="fill: #ff0000"/>
   </g>
   <g id="patch_292">
    <path d="M 348.335839 307.584 
L 349.095709 307.584 
L 349.095709 265.681445 
L 348.335839 265.681445 
z
" clip-path="url(#pd641904d20)" style="fill: #ff0000"/>
   </g>
   <g id="patch_293">
    <path d="M 349.285677 307.584 
L 350.045547 307.584 
L 350.045547 240.186108 
L 349.285677 240.186108 
z
" clip-path="url(#pd641904d20)" style="fill: #ff0000"/>
   </g>
   <g id="patch_294">
    <path d="M 350.235515 307.584 
L 350.995385 307.584 
L 350.995385 61.766326 
L 350.235515 61.766326 
z
" clip-path="url(#pd641904d20)" style="fill: #ff0000"/>
   </g>
   <g id="patch_295">
    <path d="M 351.185352 307.584 
L 351.945223 307.584 
L 351.945223 194.393185 
L 351.185352 194.393185 
z
" clip-path="url(#pd641904d20)" style="fill: #ff0000"/>
   </g>
   <g id="patch_296">
    <path d="M 352.13519 307.584 
L 352.89506 307.584 
L 352.89506 61.766326 
L 352.13519 61.766326 
z
" clip-path="url(#pd641904d20)" style="fill: #ff0000"/>
   </g>
   <g id="patch_297">
    <path d="M 353.085028 307.584 
L 353.844898 307.584 
L 353.844898 295.626654 
L 353.085028 295.626654 
z
" clip-path="url(#pd641904d20)" style="fill: #ff0000"/>
   </g>
   <g id="patch_298">
    <path d="M 354.034866 307.584 
L 354.794736 307.584 
L 354.794736 299.054874 
L 354.034866 299.054874 
z
" clip-path="url(#pd641904d20)" style="fill: #ff0000"/>
   </g>
   <g id="patch_299">
    <path d="M 354.984703 307.584 
L 355.744574 307.584 
L 355.744574 83.960294 
L 354.984703 83.960294 
z
" clip-path="url(#pd641904d20)" style="fill: #ff0000"/>
   </g>
   <g id="patch_300">
    <path d="M 355.934541 307.584 
L 356.694411 307.584 
L 356.694411 283.531769 
L 355.934541 283.531769 
z
" clip-path="url(#pd641904d20)" style="fill: #ff0000"/>
   </g>
   <g id="patch_301">
    <path d="M 356.884379 307.584 
L 357.644249 307.584 
L 357.644249 249.4748 
L 356.884379 249.4748 
z
" clip-path="url(#pd641904d20)" style="fill: #ff0000"/>
   </g>
   <g id="patch_302">
    <path d="M 357.834217 307.584 
L 358.594087 307.584 
L 358.594087 106.291305 
L 357.834217 106.291305 
z
" clip-path="url(#pd641904d20)" style="fill: #ff0000"/>
   </g>
   <g id="patch_303">
    <path d="M 358.784054 307.584 
L 359.543925 307.584 
L 359.543925 307.584 
L 358.784054 307.584 
z
" clip-path="url(#pd641904d20)" style="fill: #ff0000"/>
   </g>
   <g id="patch_304">
    <path d="M 359.733892 307.584 
L 360.493762 307.584 
L 360.493762 307.584 
L 359.733892 307.584 
z
" clip-path="url(#pd641904d20)" style="fill: #ff0000"/>
   </g>
   <g id="patch_305">
    <path d="M 360.68373 307.584 
L 361.4436 307.584 
L 361.4436 252.925245 
L 360.68373 252.925245 
z
" clip-path="url(#pd641904d20)" style="fill: #ff0000"/>
   </g>
   <g id="patch_306">
    <path d="M 361.633568 307.584 
L 362.393438 307.584 
L 362.393438 171.421529 
L 361.633568 171.421529 
z
" clip-path="url(#pd641904d20)" style="fill: #ff0000"/>
   </g>
   <g id="patch_307">
    <path d="M 362.583406 307.584 
L 363.343276 307.584 
L 363.343276 170.436077 
L 362.583406 170.436077 
z
" clip-path="url(#pd641904d20)" style="fill: #ff0000"/>
   </g>
   <g id="patch_308">
    <path d="M 363.533243 307.584 
L 364.293113 307.584 
L 364.293113 251.41465 
L 363.533243 251.41465 
z
" clip-path="url(#pd641904d20)" style="fill: #ff0000"/>
   </g>
   <g id="patch_309">
    <path d="M 364.483081 307.584 
L 365.242951 307.584 
L 365.242951 222.546175 
L 364.483081 222.546175 
z
" clip-path="url(#pd641904d20)" style="fill: #ff0000"/>
   </g>
   <g id="patch_310">
    <path d="M 365.432919 307.584 
L 366.192789 307.584 
L 366.192789 80.228786 
L 365.432919 80.228786 
z
" clip-path="url(#pd641904d20)" style="fill: #ff0000"/>
   </g>
   <g id="patch_311">
    <path d="M 366.382757 307.584 
L 367.142627 307.584 
L 367.142627 264.688751 
L 366.382757 264.688751 
z
" clip-path="url(#pd641904d20)" style="fill: #ff0000"/>
   </g>
   <g id="patch_312">
    <path d="M 367.332594 307.584 
L 368.092464 307.584 
L 368.092464 134.073076 
L 367.332594 134.073076 
z
" clip-path="url(#pd641904d20)" style="fill: #ff0000"/>
   </g>
   <g id="patch_313">
    <path d="M 368.282432 307.584 
L 369.042302 307.584 
L 369.042302 134.167078 
L 368.282432 134.167078 
z
" clip-path="url(#pd641904d20)" style="fill: #ff0000"/>
   </g>
   <g id="patch_314">
    <path d="M 369.23227 307.584 
L 369.99214 307.584 
L 369.99214 171.415938 
L 369.23227 171.415938 
z
" clip-path="url(#pd641904d20)" style="fill: #ff0000"/>
   </g>
   <g id="patch_315">
    <path d="M 370.182108 307.584 
L 370.941978 307.584 
L 370.941978 115.296414 
L 370.182108 115.296414 
z
" clip-path="url(#pd641904d20)" style="fill: #ff0000"/>
   </g>
   <g id="patch_316">
    <path d="M 371.131945 307.584 
L 371.891816 307.584 
L 371.891816 190.192752 
L 371.131945 190.192752 
z
" clip-path="url(#pd641904d20)" style="fill: #ff0000"/>
   </g>
   <g id="patch_317">
    <path d="M 372.081783 307.584 
L 372.841653 307.584 
L 372.841653 236.622225 
L 372.081783 236.622225 
z
" clip-path="url(#pd641904d20)" style="fill: #ff0000"/>
   </g>
   <g id="patch_318">
    <path d="M 373.031621 307.584 
L 373.791491 307.584 
L 373.791491 163.036432 
L 373.031621 163.036432 
z
" clip-path="url(#pd641904d20)" style="fill: #ff0000"/>
   </g>
   <g id="patch_319">
    <path d="M 373.981459 307.584 
L 374.741329 307.584 
L 374.741329 297.095726 
L 373.981459 297.095726 
z
" clip-path="url(#pd641904d20)" style="fill: #ff0000"/>
   </g>
   <g id="patch_320">
    <path d="M 374.931296 307.584 
L 375.691167 307.584 
L 375.691167 229.029032 
L 374.931296 229.029032 
z
" clip-path="url(#pd641904d20)" style="fill: #ff0000"/>
   </g>
   <g id="patch_321">
    <path d="M 375.881134 307.584 
L 376.641004 307.584 
L 376.641004 179.851961 
L 375.881134 179.851961 
z
" clip-path="url(#pd641904d20)" style="fill: #ff0000"/>
   </g>
   <g id="patch_322">
    <path d="M 376.830972 307.584 
L 377.590842 307.584 
L 377.590842 270.162211 
L 376.830972 270.162211 
z
" clip-path="url(#pd641904d20)" style="fill: #ff0000"/>
   </g>
   <g id="patch_323">
    <path d="M 377.78081 307.584 
L 378.54068 307.584 
L 378.54068 284.837362 
L 377.78081 284.837362 
z
" clip-path="url(#pd641904d20)" style="fill: #ff0000"/>
   </g>
   <g id="patch_324">
    <path d="M 378.730647 307.584 
L 379.490518 307.584 
L 379.490518 184.665121 
L 378.730647 184.665121 
z
" clip-path="url(#pd641904d20)" style="fill: #ff0000"/>
   </g>
   <g id="patch_325">
    <path d="M 379.680485 307.584 
L 380.440355 307.584 
L 380.440355 125.8246 
L 379.680485 125.8246 
z
" clip-path="url(#pd641904d20)" style="fill: #ff0000"/>
   </g>
   <g id="patch_326">
    <path d="M 380.630323 307.584 
L 381.390193 307.584 
L 381.390193 254.227052 
L 380.630323 254.227052 
z
" clip-path="url(#pd641904d20)" style="fill: #ff0000"/>
   </g>
   <g id="patch_327">
    <path d="M 381.580161 307.584 
L 382.340031 307.584 
L 382.340031 221.277203 
L 381.580161 221.277203 
z
" clip-path="url(#pd641904d20)" style="fill: #ff0000"/>
   </g>
   <g id="patch_328">
    <path d="M 382.529998 307.584 
L 383.289869 307.584 
L 383.289869 246.362356 
L 382.529998 246.362356 
z
" clip-path="url(#pd641904d20)" style="fill: #ff0000"/>
   </g>
   <g id="patch_329">
    <path d="M 383.479836 307.584 
L 384.239706 307.584 
L 384.239706 245.859322 
L 383.479836 245.859322 
z
" clip-path="url(#pd641904d20)" style="fill: #ff0000"/>
   </g>
   <g id="patch_330">
    <path d="M 384.429674 307.584 
L 385.189544 307.584 
L 385.189544 240.190994 
L 384.429674 240.190994 
z
" clip-path="url(#pd641904d20)" style="fill: #ff0000"/>
   </g>
   <g id="patch_331">
    <path d="M 385.379512 307.584 
L 386.139382 307.584 
L 386.139382 237.376781 
L 385.379512 237.376781 
z
" clip-path="url(#pd641904d20)" style="fill: #ff0000"/>
   </g>
   <g id="patch_332">
    <path d="M 386.329349 307.584 
L 387.08922 307.584 
L 387.08922 307.584 
L 386.329349 307.584 
z
" clip-path="url(#pd641904d20)" style="fill: #ff0000"/>
   </g>
   <g id="patch_333">
    <path d="M 387.279187 307.584 
L 388.039057 307.584 
L 388.039057 208.805013 
L 387.279187 208.805013 
z
" clip-path="url(#pd641904d20)" style="fill: #ff0000"/>
   </g>
   <g id="patch_334">
    <path d="M 388.229025 307.584 
L 388.988895 307.584 
L 388.988895 129.737664 
L 388.229025 129.737664 
z
" clip-path="url(#pd641904d20)" style="fill: #ff0000"/>
   </g>
   <g id="patch_335">
    <path d="M 389.178863 307.584 
L 389.938733 307.584 
L 389.938733 61.766326 
L 389.178863 61.766326 
z
" clip-path="url(#pd641904d20)" style="fill: #ff0000"/>
   </g>
   <g id="patch_336">
    <path d="M 390.1287 307.584 
L 390.888571 307.584 
L 390.888571 307.584 
L 390.1287 307.584 
z
" clip-path="url(#pd641904d20)" style="fill: #ff0000"/>
   </g>
   <g id="patch_337">
    <path d="M 391.078538 307.584 
L 391.838408 307.584 
L 391.838408 279.177691 
L 391.078538 279.177691 
z
" clip-path="url(#pd641904d20)" style="fill: #ff0000"/>
   </g>
   <g id="patch_338">
    <path d="M 392.028376 307.584 
L 392.788246 307.584 
L 392.788246 307.584 
L 392.028376 307.584 
z
" clip-path="url(#pd641904d20)" style="fill: #ff0000"/>
   </g>
   <g id="patch_339">
    <path d="M 392.978214 307.584 
L 393.738084 307.584 
L 393.738084 300.778544 
L 392.978214 300.778544 
z
" clip-path="url(#pd641904d20)" style="fill: #ff0000"/>
   </g>
   <g id="patch_340">
    <path d="M 393.928051 307.584 
L 394.687922 307.584 
L 394.687922 214.571591 
L 393.928051 214.571591 
z
" clip-path="url(#pd641904d20)" style="fill: #ff0000"/>
   </g>
   <g id="patch_341">
    <path d="M 394.877889 307.584 
L 395.637759 307.584 
L 395.637759 222.833281 
L 394.877889 222.833281 
z
" clip-path="url(#pd641904d20)" style="fill: #ff0000"/>
   </g>
   <g id="patch_342">
    <path d="M 395.827727 307.584 
L 396.587597 307.584 
L 396.587597 228.85733 
L 395.827727 228.85733 
z
" clip-path="url(#pd641904d20)" style="fill: #ff0000"/>
   </g>
   <g id="patch_343">
    <path d="M 396.777565 307.584 
L 397.537435 307.584 
L 397.537435 257.079929 
L 396.777565 257.079929 
z
" clip-path="url(#pd641904d20)" style="fill: #ff0000"/>
   </g>
   <g id="patch_344">
    <path d="M 397.727403 307.584 
L 398.487273 307.584 
L 398.487273 148.284702 
L 397.727403 148.284702 
z
" clip-path="url(#pd641904d20)" style="fill: #ff0000"/>
   </g>
   <g id="matplotlib.axis_1"/>
   <g id="matplotlib.axis_2"/>
   <g id="patch_345">
    <path d="M 57.6 307.584 
L 57.6 41.472 
" style="fill: none; stroke: #000000; stroke-width: 0.8; stroke-linejoin: miter; stroke-linecap: square"/>
   </g>
   <g id="patch_346">
    <path d="M 414.72 307.584 
L 414.72 41.472 
" style="fill: none; stroke: #000000; stroke-width: 0.8; stroke-linejoin: miter; stroke-linecap: square"/>
   </g>
   <g id="patch_347">
    <path d="M 57.6 307.584 
L 414.72 307.584 
" style="fill: none; stroke: #000000; stroke-width: 0.8; stroke-linejoin: miter; stroke-linecap: square"/>
   </g>
   <g id="patch_348">
    <path d="M 57.6 41.472 
L 414.72 41.472 
" style="fill: none; stroke: #000000; stroke-width: 0.8; stroke-linejoin: miter; stroke-linecap: square"/>
   </g>
  </g>
 </g>
 <defs>
  <clipPath id="pd641904d20">
   <rect x="57.6" y="41.472" width="357.12" height="266.112"/>
  </clipPath>
 </defs>
</svg>
