<?xml version="1.0" encoding="utf-8" standalone="no"?>
<!DOCTYPE svg PUBLIC "-//W3C//DTD SVG 1.1//EN"
  "http://www.w3.org/Graphics/SVG/1.1/DTD/svg11.dtd">
<svg xmlns:xlink="http://www.w3.org/1999/xlink" width="460.8pt" height="345.6pt" viewBox="0 0 460.8 345.6" xmlns="http://www.w3.org/2000/svg" version="1.1">
 <metadata>
  <rdf:RDF xmlns:dc="http://purl.org/dc/elements/1.1/" xmlns:cc="http://creativecommons.org/ns#" xmlns:rdf="http://www.w3.org/1999/02/22-rdf-syntax-ns#">
   <cc:Work>
    <dc:type rdf:resource="http://purl.org/dc/dcmitype/StillImage"/>
    <dc:date>2023-08-15T12:19:33.267813</dc:date>
    <dc:format>image/svg+xml</dc:format>
    <dc:creator>
     <cc:Agent>
      <dc:title>Matplotlib v3.5.2, https://matplotlib.org/</dc:title>
     </cc:Agent>
    </dc:creator>
   </cc:Work>
  </rdf:RDF>
 </metadata>
 <defs>
  <style type="text/css">*{stroke-linejoin: round; stroke-linecap: butt}</style>
 </defs>
 <g id="figure_1">
  <g id="patch_1">
   <path d="M 0 345.6 
L 460.8 345.6 
L 460.8 0 
L 0 0 
z
" style="fill: #ffffff"/>
  </g>
  <g id="axes_1">
   <g id="patch_2">
    <path d="M 57.6 307.584 
L 414.72 307.584 
L 414.72 41.472 
L 57.6 41.472 
z
" style="fill: #ffffff"/>
   </g>
   <g id="patch_3">
    <path d="M 73.832727 307.584 
L 74.592597 307.584 
L 74.592597 138.35521 
L 73.832727 138.35521 
z
" clip-path="url(#p3fad81a19e)" style="fill: #00ffff"/>
   </g>
   <g id="patch_4">
    <path d="M 74.782565 307.584 
L 75.542435 307.584 
L 75.542435 138.35521 
L 74.782565 138.35521 
z
" clip-path="url(#p3fad81a19e)" style="fill: #00ffff"/>
   </g>
   <g id="patch_5">
    <path d="M 75.732403 307.584 
L 76.492273 307.584 
L 76.492273 281.387997 
L 75.732403 281.387997 
z
" clip-path="url(#p3fad81a19e)" style="fill: #00ffff"/>
   </g>
   <g id="patch_6">
    <path d="M 76.682241 307.584 
L 77.442111 307.584 
L 77.442111 270.426519 
L 76.682241 270.426519 
z
" clip-path="url(#p3fad81a19e)" style="fill: #00ffff"/>
   </g>
   <g id="patch_7">
    <path d="M 77.632078 307.584 
L 78.391949 307.584 
L 78.391949 252.705413 
L 77.632078 252.705413 
z
" clip-path="url(#p3fad81a19e)" style="fill: #00ffff"/>
   </g>
   <g id="patch_8">
    <path d="M 78.581916 307.584 
L 79.341786 307.584 
L 79.341786 178.96809 
L 78.581916 178.96809 
z
" clip-path="url(#p3fad81a19e)" style="fill: #00ffff"/>
   </g>
   <g id="patch_9">
    <path d="M 79.531754 307.584 
L 80.291624 307.584 
L 80.291624 170.811889 
L 79.531754 170.811889 
z
" clip-path="url(#p3fad81a19e)" style="fill: #00ffff"/>
   </g>
   <g id="patch_10">
    <path d="M 80.481592 307.584 
L 81.241462 307.584 
L 81.241462 247.297555 
L 80.481592 247.297555 
z
" clip-path="url(#p3fad81a19e)" style="fill: #00ffff"/>
   </g>
   <g id="patch_11">
    <path d="M 81.431429 307.584 
L 82.1913 307.584 
L 82.1913 307.584 
L 81.431429 307.584 
z
" clip-path="url(#p3fad81a19e)" style="fill: #00ffff"/>
   </g>
   <g id="patch_12">
    <path d="M 82.381267 307.584 
L 83.141137 307.584 
L 83.141137 284.889593 
L 82.381267 284.889593 
z
" clip-path="url(#p3fad81a19e)" style="fill: #00ffff"/>
   </g>
   <g id="patch_13">
    <path d="M 83.331105 307.584 
L 84.090975 307.584 
L 84.090975 295.71435 
L 83.331105 295.71435 
z
" clip-path="url(#p3fad81a19e)" style="fill: #00ffff"/>
   </g>
   <g id="patch_14">
    <path d="M 84.280943 307.584 
L 85.040813 307.584 
L 85.040813 233.927092 
L 84.280943 233.927092 
z
" clip-path="url(#p3fad81a19e)" style="fill: #00ffff"/>
   </g>
   <g id="patch_15">
    <path d="M 85.23078 307.584 
L 85.990651 307.584 
L 85.990651 224.501294 
L 85.23078 224.501294 
z
" clip-path="url(#p3fad81a19e)" style="fill: #00ffff"/>
   </g>
   <g id="patch_16">
    <path d="M 86.180618 307.584 
L 86.940488 307.584 
L 86.940488 233.961353 
L 86.180618 233.961353 
z
" clip-path="url(#p3fad81a19e)" style="fill: #00ffff"/>
   </g>
   <g id="patch_17">
    <path d="M 87.130456 307.584 
L 87.890326 307.584 
L 87.890326 259.90626 
L 87.130456 259.90626 
z
" clip-path="url(#p3fad81a19e)" style="fill: #00ffff"/>
   </g>
   <g id="patch_18">
    <path d="M 88.080294 307.584 
L 88.840164 307.584 
L 88.840164 138.35521 
L 88.080294 138.35521 
z
" clip-path="url(#p3fad81a19e)" style="fill: #00ffff"/>
   </g>
   <g id="patch_19">
    <path d="M 89.030131 307.584 
L 89.790002 307.584 
L 89.790002 299.333978 
L 89.030131 299.333978 
z
" clip-path="url(#p3fad81a19e)" style="fill: #00ffff"/>
   </g>
   <g id="patch_20">
    <path d="M 89.979969 307.584 
L 90.739839 307.584 
L 90.739839 292.179675 
L 89.979969 292.179675 
z
" clip-path="url(#p3fad81a19e)" style="fill: #00ffff"/>
   </g>
   <g id="patch_21">
    <path d="M 90.929807 307.584 
L 91.689677 307.584 
L 91.689677 245.165544 
L 90.929807 245.165544 
z
" clip-path="url(#p3fad81a19e)" style="fill: #00ffff"/>
   </g>
   <g id="patch_22">
    <path d="M 91.879645 307.584 
L 92.639515 307.584 
L 92.639515 138.35521 
L 91.879645 138.35521 
z
" clip-path="url(#p3fad81a19e)" style="fill: #00ffff"/>
   </g>
   <g id="patch_23">
    <path d="M 92.829482 307.584 
L 93.589353 307.584 
L 93.589353 264.943081 
L 92.829482 264.943081 
z
" clip-path="url(#p3fad81a19e)" style="fill: #00ffff"/>
   </g>
   <g id="patch_24">
    <path d="M 93.77932 307.584 
L 94.53919 307.584 
L 94.53919 251.952714 
L 93.77932 251.952714 
z
" clip-path="url(#p3fad81a19e)" style="fill: #00ffff"/>
   </g>
   <g id="patch_25">
    <path d="M 94.729158 307.584 
L 95.489028 307.584 
L 95.489028 165.345547 
L 94.729158 165.345547 
z
" clip-path="url(#p3fad81a19e)" style="fill: #00ffff"/>
   </g>
   <g id="patch_26">
    <path d="M 95.678996 307.584 
L 96.438866 307.584 
L 96.438866 287.522843 
L 95.678996 287.522843 
z
" clip-path="url(#p3fad81a19e)" style="fill: #00ffff"/>
   </g>
   <g id="patch_27">
    <path d="M 96.628833 307.584 
L 97.388704 307.584 
L 97.388704 196.867555 
L 96.628833 196.867555 
z
" clip-path="url(#p3fad81a19e)" style="fill: #00ffff"/>
   </g>
   <g id="patch_28">
    <path d="M 97.578671 307.584 
L 98.338541 307.584 
L 98.338541 175.582939 
L 97.578671 175.582939 
z
" clip-path="url(#p3fad81a19e)" style="fill: #00ffff"/>
   </g>
   <g id="patch_29">
    <path d="M 98.528509 307.584 
L 99.288379 307.584 
L 99.288379 157.637479 
L 98.528509 157.637479 
z
" clip-path="url(#p3fad81a19e)" style="fill: #00ffff"/>
   </g>
   <g id="patch_30">
    <path d="M 99.478347 307.584 
L 100.238217 307.584 
L 100.238217 215.586981 
L 99.478347 215.586981 
z
" clip-path="url(#p3fad81a19e)" style="fill: #00ffff"/>
   </g>
   <g id="patch_31">
    <path d="M 100.428184 307.584 
L 101.188055 307.584 
L 101.188055 138.35521 
L 100.428184 138.35521 
z
" clip-path="url(#p3fad81a19e)" style="fill: #00ffff"/>
   </g>
   <g id="patch_32">
    <path d="M 101.378022 307.584 
L 102.137892 307.584 
L 102.137892 294.637743 
L 101.378022 294.637743 
z
" clip-path="url(#p3fad81a19e)" style="fill: #00ffff"/>
   </g>
   <g id="patch_33">
    <path d="M 102.32786 307.584 
L 103.08773 307.584 
L 103.08773 209.795753 
L 102.32786 209.795753 
z
" clip-path="url(#p3fad81a19e)" style="fill: #00ffff"/>
   </g>
   <g id="patch_34">
    <path d="M 103.277698 307.584 
L 104.037568 307.584 
L 104.037568 172.578878 
L 103.277698 172.578878 
z
" clip-path="url(#p3fad81a19e)" style="fill: #00ffff"/>
   </g>
   <g id="patch_35">
    <path d="M 104.227536 307.584 
L 104.987406 307.584 
L 104.987406 138.35521 
L 104.227536 138.35521 
z
" clip-path="url(#p3fad81a19e)" style="fill: #00ffff"/>
   </g>
   <g id="patch_36">
    <path d="M 105.177373 307.584 
L 105.937243 307.584 
L 105.937243 288.71083 
L 105.177373 288.71083 
z
" clip-path="url(#p3fad81a19e)" style="fill: #00ffff"/>
   </g>
   <g id="patch_37">
    <path d="M 106.127211 307.584 
L 106.887081 307.584 
L 106.887081 249.719676 
L 106.127211 249.719676 
z
" clip-path="url(#p3fad81a19e)" style="fill: #00ffff"/>
   </g>
   <g id="patch_38">
    <path d="M 107.077049 307.584 
L 107.836919 307.584 
L 107.836919 138.35521 
L 107.077049 138.35521 
z
" clip-path="url(#p3fad81a19e)" style="fill: #00ffff"/>
   </g>
   <g id="patch_39">
    <path d="M 108.026887 307.584 
L 108.786757 307.584 
L 108.786757 138.35521 
L 108.026887 138.35521 
z
" clip-path="url(#p3fad81a19e)" style="fill: #00ffff"/>
   </g>
   <g id="patch_40">
    <path d="M 108.976724 307.584 
L 109.736594 307.584 
L 109.736594 231.268999 
L 108.976724 231.268999 
z
" clip-path="url(#p3fad81a19e)" style="fill: #00ffff"/>
   </g>
   <g id="patch_41">
    <path d="M 109.926562 307.584 
L 110.686432 307.584 
L 110.686432 173.980165 
L 109.926562 173.980165 
z
" clip-path="url(#p3fad81a19e)" style="fill: #00ffff"/>
   </g>
   <g id="patch_42">
    <path d="M 110.8764 307.584 
L 111.63627 307.584 
L 111.63627 138.35521 
L 110.8764 138.35521 
z
" clip-path="url(#p3fad81a19e)" style="fill: #00ffff"/>
   </g>
   <g id="patch_43">
    <path d="M 111.826238 307.584 
L 112.586108 307.584 
L 112.586108 199.977697 
L 111.826238 199.977697 
z
" clip-path="url(#p3fad81a19e)" style="fill: #00ffff"/>
   </g>
   <g id="patch_44">
    <path d="M 112.776075 307.584 
L 113.535946 307.584 
L 113.535946 304.636074 
L 112.776075 304.636074 
z
" clip-path="url(#p3fad81a19e)" style="fill: #00ffff"/>
   </g>
   <g id="patch_45">
    <path d="M 113.725913 307.584 
L 114.485783 307.584 
L 114.485783 162.26481 
L 113.725913 162.26481 
z
" clip-path="url(#p3fad81a19e)" style="fill: #00ffff"/>
   </g>
   <g id="patch_46">
    <path d="M 114.675751 307.584 
L 115.435621 307.584 
L 115.435621 263.423793 
L 114.675751 263.423793 
z
" clip-path="url(#p3fad81a19e)" style="fill: #00ffff"/>
   </g>
   <g id="patch_47">
    <path d="M 115.625589 307.584 
L 116.385459 307.584 
L 116.385459 247.022876 
L 115.625589 247.022876 
z
" clip-path="url(#p3fad81a19e)" style="fill: #00ffff"/>
   </g>
   <g id="patch_48">
    <path d="M 116.575426 307.584 
L 117.335297 307.584 
L 117.335297 254.537417 
L 116.575426 254.537417 
z
" clip-path="url(#p3fad81a19e)" style="fill: #00ffff"/>
   </g>
   <g id="patch_49">
    <path d="M 117.525264 307.584 
L 118.285134 307.584 
L 118.285134 239.239557 
L 117.525264 239.239557 
z
" clip-path="url(#p3fad81a19e)" style="fill: #00ffff"/>
   </g>
   <g id="patch_50">
    <path d="M 118.475102 307.584 
L 119.234972 307.584 
L 119.234972 259.201933 
L 118.475102 259.201933 
z
" clip-path="url(#p3fad81a19e)" style="fill: #00ffff"/>
   </g>
   <g id="patch_51">
    <path d="M 119.42494 307.584 
L 120.18481 307.584 
L 120.18481 236.284155 
L 119.42494 236.284155 
z
" clip-path="url(#p3fad81a19e)" style="fill: #00ffff"/>
   </g>
   <g id="patch_52">
    <path d="M 120.374777 307.584 
L 121.134648 307.584 
L 121.134648 144.873505 
L 120.374777 144.873505 
z
" clip-path="url(#p3fad81a19e)" style="fill: #00ffff"/>
   </g>
   <g id="patch_53">
    <path d="M 121.324615 307.584 
L 122.084485 307.584 
L 122.084485 247.362127 
L 121.324615 247.362127 
z
" clip-path="url(#p3fad81a19e)" style="fill: #00ffff"/>
   </g>
   <g id="patch_54">
    <path d="M 122.274453 307.584 
L 123.034323 307.584 
L 123.034323 138.35521 
L 122.274453 138.35521 
z
" clip-path="url(#p3fad81a19e)" style="fill: #00ffff"/>
   </g>
   <g id="patch_55">
    <path d="M 123.224291 307.584 
L 123.984161 307.584 
L 123.984161 214.089189 
L 123.224291 214.089189 
z
" clip-path="url(#p3fad81a19e)" style="fill: #00ffff"/>
   </g>
   <g id="patch_56">
    <path d="M 124.174128 307.584 
L 124.933999 307.584 
L 124.933999 207.650101 
L 124.174128 207.650101 
z
" clip-path="url(#p3fad81a19e)" style="fill: #00ffff"/>
   </g>
   <g id="patch_57">
    <path d="M 125.123966 307.584 
L 125.883836 307.584 
L 125.883836 138.35521 
L 125.123966 138.35521 
z
" clip-path="url(#p3fad81a19e)" style="fill: #00ffff"/>
   </g>
   <g id="patch_58">
    <path d="M 126.073804 307.584 
L 126.833674 307.584 
L 126.833674 206.099048 
L 126.073804 206.099048 
z
" clip-path="url(#p3fad81a19e)" style="fill: #00ffff"/>
   </g>
   <g id="patch_59">
    <path d="M 127.023642 307.584 
L 127.783512 307.584 
L 127.783512 296.861668 
L 127.023642 296.861668 
z
" clip-path="url(#p3fad81a19e)" style="fill: #00ffff"/>
   </g>
   <g id="patch_60">
    <path d="M 127.973479 307.584 
L 128.73335 307.584 
L 128.73335 249.942862 
L 127.973479 249.942862 
z
" clip-path="url(#p3fad81a19e)" style="fill: #00ffff"/>
   </g>
   <g id="patch_61">
    <path d="M 128.923317 307.584 
L 129.683187 307.584 
L 129.683187 238.015158 
L 128.923317 238.015158 
z
" clip-path="url(#p3fad81a19e)" style="fill: #00ffff"/>
   </g>
   <g id="patch_62">
    <path d="M 129.873155 307.584 
L 130.633025 307.584 
L 130.633025 289.270086 
L 129.873155 289.270086 
z
" clip-path="url(#p3fad81a19e)" style="fill: #00ffff"/>
   </g>
   <g id="patch_63">
    <path d="M 130.822993 307.584 
L 131.582863 307.584 
L 131.582863 138.35521 
L 130.822993 138.35521 
z
" clip-path="url(#p3fad81a19e)" style="fill: #00ffff"/>
   </g>
   <g id="patch_64">
    <path d="M 131.77283 307.584 
L 132.532701 307.584 
L 132.532701 138.35521 
L 131.77283 138.35521 
z
" clip-path="url(#p3fad81a19e)" style="fill: #00ffff"/>
   </g>
   <g id="patch_65">
    <path d="M 132.722668 307.584 
L 133.482538 307.584 
L 133.482538 278.548068 
L 132.722668 278.548068 
z
" clip-path="url(#p3fad81a19e)" style="fill: #00ffff"/>
   </g>
   <g id="patch_66">
    <path d="M 133.672506 307.584 
L 134.432376 307.584 
L 134.432376 225.79589 
L 133.672506 225.79589 
z
" clip-path="url(#p3fad81a19e)" style="fill: #00ffff"/>
   </g>
   <g id="patch_67">
    <path d="M 134.622344 307.584 
L 135.382214 307.584 
L 135.382214 307.584 
L 134.622344 307.584 
z
" clip-path="url(#p3fad81a19e)" style="fill: #00ffff"/>
   </g>
   <g id="patch_68">
    <path d="M 135.572181 307.584 
L 136.332052 307.584 
L 136.332052 138.35521 
L 135.572181 138.35521 
z
" clip-path="url(#p3fad81a19e)" style="fill: #00ffff"/>
   </g>
   <g id="patch_69">
    <path d="M 136.522019 307.584 
L 137.281889 307.584 
L 137.281889 166.92274 
L 136.522019 166.92274 
z
" clip-path="url(#p3fad81a19e)" style="fill: #00ffff"/>
   </g>
   <g id="patch_70">
    <path d="M 137.471857 307.584 
L 138.231727 307.584 
L 138.231727 246.480421 
L 137.471857 246.480421 
z
" clip-path="url(#p3fad81a19e)" style="fill: #00ffff"/>
   </g>
   <g id="patch_71">
    <path d="M 138.421695 307.584 
L 139.181565 307.584 
L 139.181565 139.976096 
L 138.421695 139.976096 
z
" clip-path="url(#p3fad81a19e)" style="fill: #00ffff"/>
   </g>
   <g id="patch_72">
    <path d="M 139.371533 307.584 
L 140.131403 307.584 
L 140.131403 240.326206 
L 139.371533 240.326206 
z
" clip-path="url(#p3fad81a19e)" style="fill: #00ffff"/>
   </g>
   <g id="patch_73">
    <path d="M 140.32137 307.584 
L 141.08124 307.584 
L 141.08124 289.80085 
L 140.32137 289.80085 
z
" clip-path="url(#p3fad81a19e)" style="fill: #00ffff"/>
   </g>
   <g id="patch_74">
    <path d="M 141.271208 307.584 
L 142.031078 307.584 
L 142.031078 245.109069 
L 141.271208 245.109069 
z
" clip-path="url(#p3fad81a19e)" style="fill: #00ffff"/>
   </g>
   <g id="patch_75">
    <path d="M 142.221046 307.584 
L 142.980916 307.584 
L 142.980916 138.35521 
L 142.221046 138.35521 
z
" clip-path="url(#p3fad81a19e)" style="fill: #00ffff"/>
   </g>
   <g id="patch_76">
    <path d="M 143.170884 307.584 
L 143.930754 307.584 
L 143.930754 138.35521 
L 143.170884 138.35521 
z
" clip-path="url(#p3fad81a19e)" style="fill: #00ffff"/>
   </g>
   <g id="patch_77">
    <path d="M 144.120721 307.584 
L 144.880592 307.584 
L 144.880592 241.971818 
L 144.120721 241.971818 
z
" clip-path="url(#p3fad81a19e)" style="fill: #00ffff"/>
   </g>
   <g id="patch_78">
    <path d="M 145.070559 307.584 
L 145.830429 307.584 
L 145.830429 271.049864 
L 145.070559 271.049864 
z
" clip-path="url(#p3fad81a19e)" style="fill: #00ffff"/>
   </g>
   <g id="patch_79">
    <path d="M 146.020397 307.584 
L 146.780267 307.584 
L 146.780267 221.210162 
L 146.020397 221.210162 
z
" clip-path="url(#p3fad81a19e)" style="fill: #00ffff"/>
   </g>
   <g id="patch_80">
    <path d="M 146.970235 307.584 
L 147.730105 307.584 
L 147.730105 149.395093 
L 146.970235 149.395093 
z
" clip-path="url(#p3fad81a19e)" style="fill: #00ffff"/>
   </g>
   <g id="patch_81">
    <path d="M 147.920072 307.584 
L 148.679943 307.584 
L 148.679943 138.35521 
L 147.920072 138.35521 
z
" clip-path="url(#p3fad81a19e)" style="fill: #00ffff"/>
   </g>
   <g id="patch_82">
    <path d="M 148.86991 307.584 
L 149.62978 307.584 
L 149.62978 288.024212 
L 148.86991 288.024212 
z
" clip-path="url(#p3fad81a19e)" style="fill: #00ffff"/>
   </g>
   <g id="patch_83">
    <path d="M 149.819748 307.584 
L 150.579618 307.584 
L 150.579618 248.09959 
L 149.819748 248.09959 
z
" clip-path="url(#p3fad81a19e)" style="fill: #00ffff"/>
   </g>
   <g id="patch_84">
    <path d="M 150.769586 307.584 
L 151.529456 307.584 
L 151.529456 172.907326 
L 150.769586 172.907326 
z
" clip-path="url(#p3fad81a19e)" style="fill: #00ffff"/>
   </g>
   <g id="patch_85">
    <path d="M 151.719423 307.584 
L 152.479294 307.584 
L 152.479294 242.283634 
L 151.719423 242.283634 
z
" clip-path="url(#p3fad81a19e)" style="fill: #00ffff"/>
   </g>
   <g id="patch_86">
    <path d="M 152.669261 307.584 
L 153.429131 307.584 
L 153.429131 255.417021 
L 152.669261 255.417021 
z
" clip-path="url(#p3fad81a19e)" style="fill: #00ffff"/>
   </g>
   <g id="patch_87">
    <path d="M 153.619099 307.584 
L 154.378969 307.584 
L 154.378969 138.35521 
L 153.619099 138.35521 
z
" clip-path="url(#p3fad81a19e)" style="fill: #00ffff"/>
   </g>
   <g id="patch_88">
    <path d="M 154.568937 307.584 
L 155.328807 307.584 
L 155.328807 262.146565 
L 154.568937 262.146565 
z
" clip-path="url(#p3fad81a19e)" style="fill: #00ffff"/>
   </g>
   <g id="patch_89">
    <path d="M 155.518774 307.584 
L 156.278645 307.584 
L 156.278645 290.355067 
L 155.518774 290.355067 
z
" clip-path="url(#p3fad81a19e)" style="fill: #00ffff"/>
   </g>
   <g id="patch_90">
    <path d="M 156.468612 307.584 
L 157.228482 307.584 
L 157.228482 233.643522 
L 156.468612 233.643522 
z
" clip-path="url(#p3fad81a19e)" style="fill: #00ffff"/>
   </g>
   <g id="patch_91">
    <path d="M 157.41845 307.584 
L 158.17832 307.584 
L 158.17832 264.401239 
L 157.41845 264.401239 
z
" clip-path="url(#p3fad81a19e)" style="fill: #00ffff"/>
   </g>
   <g id="patch_92">
    <path d="M 158.368288 307.584 
L 159.128158 307.584 
L 159.128158 201.527541 
L 158.368288 201.527541 
z
" clip-path="url(#p3fad81a19e)" style="fill: #00ffff"/>
   </g>
   <g id="patch_93">
    <path d="M 159.318125 307.584 
L 160.077996 307.584 
L 160.077996 138.35521 
L 159.318125 138.35521 
z
" clip-path="url(#p3fad81a19e)" style="fill: #00ffff"/>
   </g>
   <g id="patch_94">
    <path d="M 160.267963 307.584 
L 161.027833 307.584 
L 161.027833 268.955176 
L 160.267963 268.955176 
z
" clip-path="url(#p3fad81a19e)" style="fill: #00ffff"/>
   </g>
   <g id="patch_95">
    <path d="M 161.217801 307.584 
L 161.977671 307.584 
L 161.977671 270.86502 
L 161.217801 270.86502 
z
" clip-path="url(#p3fad81a19e)" style="fill: #00ffff"/>
   </g>
   <g id="patch_96">
    <path d="M 162.167639 307.584 
L 162.927509 307.584 
L 162.927509 288.078353 
L 162.167639 288.078353 
z
" clip-path="url(#p3fad81a19e)" style="fill: #00ffff"/>
   </g>
   <g id="patch_97">
    <path d="M 163.117476 307.584 
L 163.877347 307.584 
L 163.877347 288.081007 
L 163.117476 288.081007 
z
" clip-path="url(#p3fad81a19e)" style="fill: #00ffff"/>
   </g>
   <g id="patch_98">
    <path d="M 164.067314 307.584 
L 164.827184 307.584 
L 164.827184 209.887682 
L 164.067314 209.887682 
z
" clip-path="url(#p3fad81a19e)" style="fill: #00ffff"/>
   </g>
   <g id="patch_99">
    <path d="M 165.017152 307.584 
L 165.777022 307.584 
L 165.777022 184.876473 
L 165.017152 184.876473 
z
" clip-path="url(#p3fad81a19e)" style="fill: #00ffff"/>
   </g>
   <g id="patch_100">
    <path d="M 165.96699 307.584 
L 166.72686 307.584 
L 166.72686 138.35521 
L 165.96699 138.35521 
z
" clip-path="url(#p3fad81a19e)" style="fill: #00ffff"/>
   </g>
   <g id="patch_101">
    <path d="M 166.916827 307.584 
L 167.676698 307.584 
L 167.676698 307.584 
L 166.916827 307.584 
z
" clip-path="url(#p3fad81a19e)" style="fill: #00ffff"/>
   </g>
   <g id="patch_102">
    <path d="M 167.866665 307.584 
L 168.626535 307.584 
L 168.626535 232.158682 
L 167.866665 232.158682 
z
" clip-path="url(#p3fad81a19e)" style="fill: #00ffff"/>
   </g>
   <g id="patch_103">
    <path d="M 168.816503 307.584 
L 169.576373 307.584 
L 169.576373 220.746549 
L 168.816503 220.746549 
z
" clip-path="url(#p3fad81a19e)" style="fill: #00ffff"/>
   </g>
   <g id="patch_104">
    <path d="M 169.766341 307.584 
L 170.526211 307.584 
L 170.526211 181.255844 
L 169.766341 181.255844 
z
" clip-path="url(#p3fad81a19e)" style="fill: #00ffff"/>
   </g>
   <g id="patch_105">
    <path d="M 170.716179 307.584 
L 171.476049 307.584 
L 171.476049 236.109493 
L 170.716179 236.109493 
z
" clip-path="url(#p3fad81a19e)" style="fill: #00ffff"/>
   </g>
   <g id="patch_106">
    <path d="M 171.666016 307.584 
L 172.425886 307.584 
L 172.425886 287.051519 
L 171.666016 287.051519 
z
" clip-path="url(#p3fad81a19e)" style="fill: #00ffff"/>
   </g>
   <g id="patch_107">
    <path d="M 172.615854 307.584 
L 173.375724 307.584 
L 173.375724 225.642282 
L 172.615854 225.642282 
z
" clip-path="url(#p3fad81a19e)" style="fill: #00ffff"/>
   </g>
   <g id="patch_108">
    <path d="M 173.565692 307.584 
L 174.325562 307.584 
L 174.325562 138.35521 
L 173.565692 138.35521 
z
" clip-path="url(#p3fad81a19e)" style="fill: #00ffff"/>
   </g>
   <g id="patch_109">
    <path d="M 174.51553 307.584 
L 175.2754 307.584 
L 175.2754 176.796458 
L 174.51553 176.796458 
z
" clip-path="url(#p3fad81a19e)" style="fill: #00ffff"/>
   </g>
   <g id="patch_110">
    <path d="M 175.465367 307.584 
L 176.225238 307.584 
L 176.225238 292.320109 
L 175.465367 292.320109 
z
" clip-path="url(#p3fad81a19e)" style="fill: #00ffff"/>
   </g>
   <g id="patch_111">
    <path d="M 176.415205 307.584 
L 177.175075 307.584 
L 177.175075 284.556734 
L 176.415205 284.556734 
z
" clip-path="url(#p3fad81a19e)" style="fill: #00ffff"/>
   </g>
   <g id="patch_112">
    <path d="M 177.365043 307.584 
L 178.124913 307.584 
L 178.124913 217.562953 
L 177.365043 217.562953 
z
" clip-path="url(#p3fad81a19e)" style="fill: #00ffff"/>
   </g>
   <g id="patch_113">
    <path d="M 178.314881 307.584 
L 179.074751 307.584 
L 179.074751 253.953126 
L 178.314881 253.953126 
z
" clip-path="url(#p3fad81a19e)" style="fill: #00ffff"/>
   </g>
   <g id="patch_114">
    <path d="M 179.264718 307.584 
L 180.024589 307.584 
L 180.024589 300.951062 
L 179.264718 300.951062 
z
" clip-path="url(#p3fad81a19e)" style="fill: #00ffff"/>
   </g>
   <g id="patch_115">
    <path d="M 180.214556 307.584 
L 180.974426 307.584 
L 180.974426 225.072968 
L 180.214556 225.072968 
z
" clip-path="url(#p3fad81a19e)" style="fill: #00ffff"/>
   </g>
   <g id="patch_116">
    <path d="M 181.164394 307.584 
L 181.924264 307.584 
L 181.924264 138.35521 
L 181.164394 138.35521 
z
" clip-path="url(#p3fad81a19e)" style="fill: #00ffff"/>
   </g>
   <g id="patch_117">
    <path d="M 182.114232 307.584 
L 182.874102 307.584 
L 182.874102 256.539001 
L 182.114232 256.539001 
z
" clip-path="url(#p3fad81a19e)" style="fill: #00ffff"/>
   </g>
   <g id="patch_118">
    <path d="M 183.064069 307.584 
L 183.82394 307.584 
L 183.82394 297.658512 
L 183.064069 297.658512 
z
" clip-path="url(#p3fad81a19e)" style="fill: #00ffff"/>
   </g>
   <g id="patch_119">
    <path d="M 184.013907 307.584 
L 184.773777 307.584 
L 184.773777 293.477235 
L 184.013907 293.477235 
z
" clip-path="url(#p3fad81a19e)" style="fill: #00ffff"/>
   </g>
   <g id="patch_120">
    <path d="M 184.963745 307.584 
L 185.723615 307.584 
L 185.723615 266.811486 
L 184.963745 266.811486 
z
" clip-path="url(#p3fad81a19e)" style="fill: #00ffff"/>
   </g>
   <g id="patch_121">
    <path d="M 185.913583 307.584 
L 186.673453 307.584 
L 186.673453 167.502552 
L 185.913583 167.502552 
z
" clip-path="url(#p3fad81a19e)" style="fill: #00ffff"/>
   </g>
   <g id="patch_122">
    <path d="M 186.86342 307.584 
L 187.623291 307.584 
L 187.623291 138.35521 
L 186.86342 138.35521 
z
" clip-path="url(#p3fad81a19e)" style="fill: #00ffff"/>
   </g>
   <g id="patch_123">
    <path d="M 187.813258 307.584 
L 188.573128 307.584 
L 188.573128 138.35521 
L 187.813258 138.35521 
z
" clip-path="url(#p3fad81a19e)" style="fill: #00ffff"/>
   </g>
   <g id="patch_124">
    <path d="M 188.763096 307.584 
L 189.522966 307.584 
L 189.522966 218.508748 
L 188.763096 218.508748 
z
" clip-path="url(#p3fad81a19e)" style="fill: #00ffff"/>
   </g>
   <g id="patch_125">
    <path d="M 189.712934 307.584 
L 190.472804 307.584 
L 190.472804 257.094682 
L 189.712934 257.094682 
z
" clip-path="url(#p3fad81a19e)" style="fill: #00ffff"/>
   </g>
   <g id="patch_126">
    <path d="M 190.662771 307.584 
L 191.422642 307.584 
L 191.422642 138.35521 
L 190.662771 138.35521 
z
" clip-path="url(#p3fad81a19e)" style="fill: #00ffff"/>
   </g>
   <g id="patch_127">
    <path d="M 191.612609 307.584 
L 192.372479 307.584 
L 192.372479 292.732208 
L 191.612609 292.732208 
z
" clip-path="url(#p3fad81a19e)" style="fill: #00ffff"/>
   </g>
   <g id="patch_128">
    <path d="M 192.562447 307.584 
L 193.322317 307.584 
L 193.322317 138.35521 
L 192.562447 138.35521 
z
" clip-path="url(#p3fad81a19e)" style="fill: #00ffff"/>
   </g>
   <g id="patch_129">
    <path d="M 193.512285 307.584 
L 194.272155 307.584 
L 194.272155 138.35521 
L 193.512285 138.35521 
z
" clip-path="url(#p3fad81a19e)" style="fill: #00ffff"/>
   </g>
   <g id="patch_130">
    <path d="M 194.462122 307.584 
L 195.221993 307.584 
L 195.221993 138.35521 
L 194.462122 138.35521 
z
" clip-path="url(#p3fad81a19e)" style="fill: #00ffff"/>
   </g>
   <g id="patch_131">
    <path d="M 195.41196 307.584 
L 196.17183 307.584 
L 196.17183 259.477999 
L 195.41196 259.477999 
z
" clip-path="url(#p3fad81a19e)" style="fill: #00ffff"/>
   </g>
   <g id="patch_132">
    <path d="M 196.361798 307.584 
L 197.121668 307.584 
L 197.121668 138.35521 
L 196.361798 138.35521 
z
" clip-path="url(#p3fad81a19e)" style="fill: #00ffff"/>
   </g>
   <g id="patch_133">
    <path d="M 197.311636 307.584 
L 198.071506 307.584 
L 198.071506 260.968249 
L 197.311636 260.968249 
z
" clip-path="url(#p3fad81a19e)" style="fill: #00ffff"/>
   </g>
   <g id="patch_134">
    <path d="M 198.261473 307.584 
L 199.021344 307.584 
L 199.021344 256.359664 
L 198.261473 256.359664 
z
" clip-path="url(#p3fad81a19e)" style="fill: #00ffff"/>
   </g>
   <g id="patch_135">
    <path d="M 199.211311 307.584 
L 199.971181 307.584 
L 199.971181 169.569006 
L 199.211311 169.569006 
z
" clip-path="url(#p3fad81a19e)" style="fill: #00ffff"/>
   </g>
   <g id="patch_136">
    <path d="M 200.161149 307.584 
L 200.921019 307.584 
L 200.921019 277.750196 
L 200.161149 277.750196 
z
" clip-path="url(#p3fad81a19e)" style="fill: #00ffff"/>
   </g>
   <g id="patch_137">
    <path d="M 201.110987 307.584 
L 201.870857 307.584 
L 201.870857 289.107482 
L 201.110987 289.107482 
z
" clip-path="url(#p3fad81a19e)" style="fill: #00ffff"/>
   </g>
   <g id="patch_138">
    <path d="M 202.060825 307.584 
L 202.820695 307.584 
L 202.820695 280.946032 
L 202.060825 280.946032 
z
" clip-path="url(#p3fad81a19e)" style="fill: #00ffff"/>
   </g>
   <g id="patch_139">
    <path d="M 203.010662 307.584 
L 203.770532 307.584 
L 203.770532 284.51133 
L 203.010662 284.51133 
z
" clip-path="url(#p3fad81a19e)" style="fill: #00ffff"/>
   </g>
   <g id="patch_140">
    <path d="M 203.9605 307.584 
L 204.72037 307.584 
L 204.72037 292.395984 
L 203.9605 292.395984 
z
" clip-path="url(#p3fad81a19e)" style="fill: #00ffff"/>
   </g>
   <g id="patch_141">
    <path d="M 204.910338 307.584 
L 205.670208 307.584 
L 205.670208 249.564432 
L 204.910338 249.564432 
z
" clip-path="url(#p3fad81a19e)" style="fill: #00ffff"/>
   </g>
   <g id="patch_142">
    <path d="M 205.860176 307.584 
L 206.620046 307.584 
L 206.620046 258.957661 
L 205.860176 258.957661 
z
" clip-path="url(#p3fad81a19e)" style="fill: #00ffff"/>
   </g>
   <g id="patch_143">
    <path d="M 206.810013 307.584 
L 207.569884 307.584 
L 207.569884 258.271936 
L 206.810013 258.271936 
z
" clip-path="url(#p3fad81a19e)" style="fill: #00ffff"/>
   </g>
   <g id="patch_144">
    <path d="M 207.759851 307.584 
L 208.519721 307.584 
L 208.519721 175.803908 
L 207.759851 175.803908 
z
" clip-path="url(#p3fad81a19e)" style="fill: #00ffff"/>
   </g>
   <g id="patch_145">
    <path d="M 208.709689 307.584 
L 209.469559 307.584 
L 209.469559 247.636315 
L 208.709689 247.636315 
z
" clip-path="url(#p3fad81a19e)" style="fill: #00ffff"/>
   </g>
   <g id="patch_146">
    <path d="M 209.659527 307.584 
L 210.419397 307.584 
L 210.419397 138.35521 
L 209.659527 138.35521 
z
" clip-path="url(#p3fad81a19e)" style="fill: #00ffff"/>
   </g>
   <g id="patch_147">
    <path d="M 210.609364 307.584 
L 211.369235 307.584 
L 211.369235 294.395666 
L 210.609364 294.395666 
z
" clip-path="url(#p3fad81a19e)" style="fill: #00ffff"/>
   </g>
   <g id="patch_148">
    <path d="M 211.559202 307.584 
L 212.319072 307.584 
L 212.319072 179.670505 
L 211.559202 179.670505 
z
" clip-path="url(#p3fad81a19e)" style="fill: #00ffff"/>
   </g>
   <g id="patch_149">
    <path d="M 212.50904 307.584 
L 213.26891 307.584 
L 213.26891 276.718077 
L 212.50904 276.718077 
z
" clip-path="url(#p3fad81a19e)" style="fill: #00ffff"/>
   </g>
   <g id="patch_150">
    <path d="M 213.458878 307.584 
L 214.218748 307.584 
L 214.218748 142.920432 
L 213.458878 142.920432 
z
" clip-path="url(#p3fad81a19e)" style="fill: #00ffff"/>
   </g>
   <g id="patch_151">
    <path d="M 214.408715 307.584 
L 215.168586 307.584 
L 215.168586 247.488575 
L 214.408715 247.488575 
z
" clip-path="url(#p3fad81a19e)" style="fill: #00ffff"/>
   </g>
   <g id="patch_152">
    <path d="M 215.358553 307.584 
L 216.118423 307.584 
L 216.118423 237.432694 
L 215.358553 237.432694 
z
" clip-path="url(#p3fad81a19e)" style="fill: #00ffff"/>
   </g>
   <g id="patch_153">
    <path d="M 216.308391 307.584 
L 217.068261 307.584 
L 217.068261 249.883523 
L 216.308391 249.883523 
z
" clip-path="url(#p3fad81a19e)" style="fill: #00ffff"/>
   </g>
   <g id="patch_154">
    <path d="M 217.258229 307.584 
L 218.018099 307.584 
L 218.018099 304.196349 
L 217.258229 304.196349 
z
" clip-path="url(#p3fad81a19e)" style="fill: #00ffff"/>
   </g>
   <g id="patch_155">
    <path d="M 218.208066 307.584 
L 218.967937 307.584 
L 218.967937 272.135113 
L 218.208066 272.135113 
z
" clip-path="url(#p3fad81a19e)" style="fill: #00ffff"/>
   </g>
   <g id="patch_156">
    <path d="M 219.157904 307.584 
L 219.917774 307.584 
L 219.917774 304.639472 
L 219.157904 304.639472 
z
" clip-path="url(#p3fad81a19e)" style="fill: #00ffff"/>
   </g>
   <g id="patch_157">
    <path d="M 220.107742 307.584 
L 220.867612 307.584 
L 220.867612 138.35521 
L 220.107742 138.35521 
z
" clip-path="url(#p3fad81a19e)" style="fill: #00ffff"/>
   </g>
   <g id="patch_158">
    <path d="M 221.05758 307.584 
L 221.81745 307.584 
L 221.81745 157.419596 
L 221.05758 157.419596 
z
" clip-path="url(#p3fad81a19e)" style="fill: #00ffff"/>
   </g>
   <g id="patch_159">
    <path d="M 222.007417 307.584 
L 222.767288 307.584 
L 222.767288 297.167696 
L 222.007417 297.167696 
z
" clip-path="url(#p3fad81a19e)" style="fill: #00ffff"/>
   </g>
   <g id="patch_160">
    <path d="M 222.957255 307.584 
L 223.717125 307.584 
L 223.717125 295.523058 
L 222.957255 295.523058 
z
" clip-path="url(#p3fad81a19e)" style="fill: #00ffff"/>
   </g>
   <g id="patch_161">
    <path d="M 223.907093 307.584 
L 224.666963 307.584 
L 224.666963 138.35521 
L 223.907093 138.35521 
z
" clip-path="url(#p3fad81a19e)" style="fill: #00ffff"/>
   </g>
   <g id="patch_162">
    <path d="M 224.856931 307.584 
L 225.616801 307.584 
L 225.616801 276.049233 
L 224.856931 276.049233 
z
" clip-path="url(#p3fad81a19e)" style="fill: #00ffff"/>
   </g>
   <g id="patch_163">
    <path d="M 225.806768 307.584 
L 226.566639 307.584 
L 226.566639 301.186104 
L 225.806768 301.186104 
z
" clip-path="url(#p3fad81a19e)" style="fill: #00ffff"/>
   </g>
   <g id="patch_164">
    <path d="M 226.756606 307.584 
L 227.516476 307.584 
L 227.516476 138.35521 
L 226.756606 138.35521 
z
" clip-path="url(#p3fad81a19e)" style="fill: #00ffff"/>
   </g>
   <g id="patch_165">
    <path d="M 227.706444 307.584 
L 228.466314 307.584 
L 228.466314 286.836211 
L 227.706444 286.836211 
z
" clip-path="url(#p3fad81a19e)" style="fill: #00ffff"/>
   </g>
   <g id="patch_166">
    <path d="M 228.656282 307.584 
L 229.416152 307.584 
L 229.416152 238.190675 
L 228.656282 238.190675 
z
" clip-path="url(#p3fad81a19e)" style="fill: #00ffff"/>
   </g>
   <g id="patch_167">
    <path d="M 229.606119 307.584 
L 230.36599 307.584 
L 230.36599 302.881644 
L 229.606119 302.881644 
z
" clip-path="url(#p3fad81a19e)" style="fill: #00ffff"/>
   </g>
   <g id="patch_168">
    <path d="M 230.555957 307.584 
L 231.315827 307.584 
L 231.315827 299.786096 
L 230.555957 299.786096 
z
" clip-path="url(#p3fad81a19e)" style="fill: #00ffff"/>
   </g>
   <g id="patch_169">
    <path d="M 231.505795 307.584 
L 232.265665 307.584 
L 232.265665 272.048234 
L 231.505795 272.048234 
z
" clip-path="url(#p3fad81a19e)" style="fill: #00ffff"/>
   </g>
   <g id="patch_170">
    <path d="M 232.455633 307.584 
L 233.215503 307.584 
L 233.215503 138.35521 
L 232.455633 138.35521 
z
" clip-path="url(#p3fad81a19e)" style="fill: #00ffff"/>
   </g>
   <g id="patch_171">
    <path d="M 233.405471 307.584 
L 234.165341 307.584 
L 234.165341 303.730717 
L 233.405471 303.730717 
z
" clip-path="url(#p3fad81a19e)" style="fill: #00ffff"/>
   </g>
   <g id="patch_172">
    <path d="M 234.355308 307.584 
L 235.115178 307.584 
L 235.115178 303.774851 
L 234.355308 303.774851 
z
" clip-path="url(#p3fad81a19e)" style="fill: #00ffff"/>
   </g>
   <g id="patch_173">
    <path d="M 235.305146 307.584 
L 236.065016 307.584 
L 236.065016 236.503044 
L 235.305146 236.503044 
z
" clip-path="url(#p3fad81a19e)" style="fill: #00ffff"/>
   </g>
   <g id="patch_174">
    <path d="M 236.254984 307.584 
L 237.014854 307.584 
L 237.014854 231.404605 
L 236.254984 231.404605 
z
" clip-path="url(#p3fad81a19e)" style="fill: #00ffff"/>
   </g>
   <g id="patch_175">
    <path d="M 237.204822 307.584 
L 237.964692 307.584 
L 237.964692 300.567057 
L 237.204822 300.567057 
z
" clip-path="url(#p3fad81a19e)" style="fill: #00ffff"/>
   </g>
   <g id="patch_176">
    <path d="M 238.154659 307.584 
L 238.914529 307.584 
L 238.914529 287.46903 
L 238.154659 287.46903 
z
" clip-path="url(#p3fad81a19e)" style="fill: #00ffff"/>
   </g>
   <g id="patch_177">
    <path d="M 239.104497 307.584 
L 239.864367 307.584 
L 239.864367 220.283257 
L 239.104497 220.283257 
z
" clip-path="url(#p3fad81a19e)" style="fill: #00ffff"/>
   </g>
   <g id="patch_178">
    <path d="M 240.054335 307.584 
L 240.814205 307.584 
L 240.814205 292.180381 
L 240.054335 292.180381 
z
" clip-path="url(#p3fad81a19e)" style="fill: #00ffff"/>
   </g>
   <g id="patch_179">
    <path d="M 241.004173 307.584 
L 241.764043 307.584 
L 241.764043 138.35521 
L 241.004173 138.35521 
z
" clip-path="url(#p3fad81a19e)" style="fill: #00ffff"/>
   </g>
   <g id="patch_180">
    <path d="M 241.95401 307.584 
L 242.713881 307.584 
L 242.713881 295.637369 
L 241.95401 295.637369 
z
" clip-path="url(#p3fad81a19e)" style="fill: #00ffff"/>
   </g>
   <g id="patch_181">
    <path d="M 242.903848 307.584 
L 243.663718 307.584 
L 243.663718 138.35521 
L 242.903848 138.35521 
z
" clip-path="url(#p3fad81a19e)" style="fill: #00ffff"/>
   </g>
   <g id="patch_182">
    <path d="M 243.853686 307.584 
L 244.613556 307.584 
L 244.613556 278.925087 
L 243.853686 278.925087 
z
" clip-path="url(#p3fad81a19e)" style="fill: #00ffff"/>
   </g>
   <g id="patch_183">
    <path d="M 244.803524 307.584 
L 245.563394 307.584 
L 245.563394 138.35521 
L 244.803524 138.35521 
z
" clip-path="url(#p3fad81a19e)" style="fill: #00ffff"/>
   </g>
   <g id="patch_184">
    <path d="M 245.753361 307.584 
L 246.513232 307.584 
L 246.513232 241.486498 
L 245.753361 241.486498 
z
" clip-path="url(#p3fad81a19e)" style="fill: #00ffff"/>
   </g>
   <g id="patch_185">
    <path d="M 246.703199 307.584 
L 247.463069 307.584 
L 247.463069 274.167971 
L 246.703199 274.167971 
z
" clip-path="url(#p3fad81a19e)" style="fill: #00ffff"/>
   </g>
   <g id="patch_186">
    <path d="M 247.653037 307.584 
L 248.412907 307.584 
L 248.412907 237.504117 
L 247.653037 237.504117 
z
" clip-path="url(#p3fad81a19e)" style="fill: #00ffff"/>
   </g>
   <g id="patch_187">
    <path d="M 248.602875 307.584 
L 249.362745 307.584 
L 249.362745 138.35521 
L 248.602875 138.35521 
z
" clip-path="url(#p3fad81a19e)" style="fill: #00ffff"/>
   </g>
   <g id="patch_188">
    <path d="M 249.552712 307.584 
L 250.312583 307.584 
L 250.312583 197.875781 
L 249.552712 197.875781 
z
" clip-path="url(#p3fad81a19e)" style="fill: #00ffff"/>
   </g>
   <g id="patch_189">
    <path d="M 250.50255 307.584 
L 251.26242 307.584 
L 251.26242 248.929823 
L 250.50255 248.929823 
z
" clip-path="url(#p3fad81a19e)" style="fill: #00ffff"/>
   </g>
   <g id="patch_190">
    <path d="M 251.452388 307.584 
L 252.212258 307.584 
L 252.212258 263.951415 
L 251.452388 263.951415 
z
" clip-path="url(#p3fad81a19e)" style="fill: #00ffff"/>
   </g>
   <g id="patch_191">
    <path d="M 252.402226 307.584 
L 253.162096 307.584 
L 253.162096 291.56459 
L 252.402226 291.56459 
z
" clip-path="url(#p3fad81a19e)" style="fill: #00ffff"/>
   </g>
   <g id="patch_192">
    <path d="M 253.352063 307.584 
L 254.111934 307.584 
L 254.111934 296.309649 
L 253.352063 296.309649 
z
" clip-path="url(#p3fad81a19e)" style="fill: #00ffff"/>
   </g>
   <g id="patch_193">
    <path d="M 254.301901 307.584 
L 255.061771 307.584 
L 255.061771 248.630273 
L 254.301901 248.630273 
z
" clip-path="url(#p3fad81a19e)" style="fill: #00ffff"/>
   </g>
   <g id="patch_194">
    <path d="M 255.251739 307.584 
L 256.011609 307.584 
L 256.011609 138.35521 
L 255.251739 138.35521 
z
" clip-path="url(#p3fad81a19e)" style="fill: #00ffff"/>
   </g>
   <g id="patch_195">
    <path d="M 256.201577 307.584 
L 256.961447 307.584 
L 256.961447 138.35521 
L 256.201577 138.35521 
z
" clip-path="url(#p3fad81a19e)" style="fill: #00ffff"/>
   </g>
   <g id="patch_196">
    <path d="M 257.151414 307.584 
L 257.911285 307.584 
L 257.911285 220.547574 
L 257.151414 220.547574 
z
" clip-path="url(#p3fad81a19e)" style="fill: #00ffff"/>
   </g>
   <g id="patch_197">
    <path d="M 258.101252 307.584 
L 258.861122 307.584 
L 258.861122 138.35521 
L 258.101252 138.35521 
z
" clip-path="url(#p3fad81a19e)" style="fill: #00ffff"/>
   </g>
   <g id="patch_198">
    <path d="M 259.05109 307.584 
L 259.81096 307.584 
L 259.81096 307.584 
L 259.05109 307.584 
z
" clip-path="url(#p3fad81a19e)" style="fill: #00ffff"/>
   </g>
   <g id="patch_199">
    <path d="M 260.000928 307.584 
L 260.760798 307.584 
L 260.760798 155.169292 
L 260.000928 155.169292 
z
" clip-path="url(#p3fad81a19e)" style="fill: #00ffff"/>
   </g>
   <g id="patch_200">
    <path d="M 260.950765 307.584 
L 261.710636 307.584 
L 261.710636 138.35521 
L 260.950765 138.35521 
z
" clip-path="url(#p3fad81a19e)" style="fill: #00ffff"/>
   </g>
   <g id="patch_201">
    <path d="M 261.900603 307.584 
L 262.660473 307.584 
L 262.660473 138.35521 
L 261.900603 138.35521 
z
" clip-path="url(#p3fad81a19e)" style="fill: #00ffff"/>
   </g>
   <g id="patch_202">
    <path d="M 262.850441 307.584 
L 263.610311 307.584 
L 263.610311 138.35521 
L 262.850441 138.35521 
z
" clip-path="url(#p3fad81a19e)" style="fill: #00ffff"/>
   </g>
   <g id="patch_203">
    <path d="M 263.800279 307.584 
L 264.560149 307.584 
L 264.560149 138.35521 
L 263.800279 138.35521 
z
" clip-path="url(#p3fad81a19e)" style="fill: #00ffff"/>
   </g>
   <g id="patch_204">
    <path d="M 264.750116 307.584 
L 265.509987 307.584 
L 265.509987 138.35521 
L 264.750116 138.35521 
z
" clip-path="url(#p3fad81a19e)" style="fill: #00ffff"/>
   </g>
   <g id="patch_205">
    <path d="M 265.699954 307.584 
L 266.459824 307.584 
L 266.459824 138.35521 
L 265.699954 138.35521 
z
" clip-path="url(#p3fad81a19e)" style="fill: #00ffff"/>
   </g>
   <g id="patch_206">
    <path d="M 266.649792 307.584 
L 267.409662 307.584 
L 267.409662 245.351137 
L 266.649792 245.351137 
z
" clip-path="url(#p3fad81a19e)" style="fill: #00ffff"/>
   </g>
   <g id="patch_207">
    <path d="M 267.59963 307.584 
L 268.3595 307.584 
L 268.3595 138.35521 
L 267.59963 138.35521 
z
" clip-path="url(#p3fad81a19e)" style="fill: #00ffff"/>
   </g>
   <g id="patch_208">
    <path d="M 268.549468 307.584 
L 269.309338 307.584 
L 269.309338 244.304767 
L 268.549468 244.304767 
z
" clip-path="url(#p3fad81a19e)" style="fill: #00ffff"/>
   </g>
   <g id="patch_209">
    <path d="M 269.499305 307.584 
L 270.259175 307.584 
L 270.259175 208.832253 
L 269.499305 208.832253 
z
" clip-path="url(#p3fad81a19e)" style="fill: #00ffff"/>
   </g>
   <g id="patch_210">
    <path d="M 270.449143 307.584 
L 271.209013 307.584 
L 271.209013 138.35521 
L 270.449143 138.35521 
z
" clip-path="url(#p3fad81a19e)" style="fill: #00ffff"/>
   </g>
   <g id="patch_211">
    <path d="M 271.398981 307.584 
L 272.158851 307.584 
L 272.158851 138.35521 
L 271.398981 138.35521 
z
" clip-path="url(#p3fad81a19e)" style="fill: #00ffff"/>
   </g>
   <g id="patch_212">
    <path d="M 272.348819 307.584 
L 273.108689 307.584 
L 273.108689 138.35521 
L 272.348819 138.35521 
z
" clip-path="url(#p3fad81a19e)" style="fill: #00ffff"/>
   </g>
   <g id="patch_213">
    <path d="M 273.298656 307.584 
L 274.058527 307.584 
L 274.058527 138.35521 
L 273.298656 138.35521 
z
" clip-path="url(#p3fad81a19e)" style="fill: #00ffff"/>
   </g>
   <g id="patch_214">
    <path d="M 274.248494 307.584 
L 275.008364 307.584 
L 275.008364 138.35521 
L 274.248494 138.35521 
z
" clip-path="url(#p3fad81a19e)" style="fill: #00ffff"/>
   </g>
   <g id="patch_215">
    <path d="M 275.198332 307.584 
L 275.958202 307.584 
L 275.958202 138.35521 
L 275.198332 138.35521 
z
" clip-path="url(#p3fad81a19e)" style="fill: #00ffff"/>
   </g>
   <g id="patch_216">
    <path d="M 276.14817 307.584 
L 276.90804 307.584 
L 276.90804 138.35521 
L 276.14817 138.35521 
z
" clip-path="url(#p3fad81a19e)" style="fill: #00ffff"/>
   </g>
   <g id="patch_217">
    <path d="M 277.098007 307.584 
L 277.857878 307.584 
L 277.857878 298.832038 
L 277.098007 298.832038 
z
" clip-path="url(#p3fad81a19e)" style="fill: #00ffff"/>
   </g>
   <g id="patch_218">
    <path d="M 278.047845 307.584 
L 278.807715 307.584 
L 278.807715 138.35521 
L 278.047845 138.35521 
z
" clip-path="url(#p3fad81a19e)" style="fill: #00ffff"/>
   </g>
   <g id="patch_219">
    <path d="M 278.997683 307.584 
L 279.757553 307.584 
L 279.757553 279.19243 
L 278.997683 279.19243 
z
" clip-path="url(#p3fad81a19e)" style="fill: #00ffff"/>
   </g>
   <g id="patch_220">
    <path d="M 279.947521 307.584 
L 280.707391 307.584 
L 280.707391 219.74389 
L 279.947521 219.74389 
z
" clip-path="url(#p3fad81a19e)" style="fill: #00ffff"/>
   </g>
   <g id="patch_221">
    <path d="M 280.897358 307.584 
L 281.657229 307.584 
L 281.657229 138.35521 
L 280.897358 138.35521 
z
" clip-path="url(#p3fad81a19e)" style="fill: #00ffff"/>
   </g>
   <g id="patch_222">
    <path d="M 281.847196 307.584 
L 282.607066 307.584 
L 282.607066 154.024387 
L 281.847196 154.024387 
z
" clip-path="url(#p3fad81a19e)" style="fill: #00ffff"/>
   </g>
   <g id="patch_223">
    <path d="M 282.797034 307.584 
L 283.556904 307.584 
L 283.556904 138.35521 
L 282.797034 138.35521 
z
" clip-path="url(#p3fad81a19e)" style="fill: #00ffff"/>
   </g>
   <g id="patch_224">
    <path d="M 283.746872 307.584 
L 284.506742 307.584 
L 284.506742 236.966382 
L 283.746872 236.966382 
z
" clip-path="url(#p3fad81a19e)" style="fill: #00ffff"/>
   </g>
   <g id="patch_225">
    <path d="M 284.696709 307.584 
L 285.45658 307.584 
L 285.45658 198.769947 
L 284.696709 198.769947 
z
" clip-path="url(#p3fad81a19e)" style="fill: #00ffff"/>
   </g>
   <g id="patch_226">
    <path d="M 285.646547 307.584 
L 286.406417 307.584 
L 286.406417 153.575561 
L 285.646547 153.575561 
z
" clip-path="url(#p3fad81a19e)" style="fill: #00ffff"/>
   </g>
   <g id="patch_227">
    <path d="M 286.596385 307.584 
L 287.356255 307.584 
L 287.356255 286.020639 
L 286.596385 286.020639 
z
" clip-path="url(#p3fad81a19e)" style="fill: #00ffff"/>
   </g>
   <g id="patch_228">
    <path d="M 287.546223 307.584 
L 288.306093 307.584 
L 288.306093 138.35521 
L 287.546223 138.35521 
z
" clip-path="url(#p3fad81a19e)" style="fill: #00ffff"/>
   </g>
   <g id="patch_229">
    <path d="M 288.49606 307.584 
L 289.255931 307.584 
L 289.255931 272.666884 
L 288.49606 272.666884 
z
" clip-path="url(#p3fad81a19e)" style="fill: #00ffff"/>
   </g>
   <g id="patch_230">
    <path d="M 289.445898 307.584 
L 290.205768 307.584 
L 290.205768 200.412904 
L 289.445898 200.412904 
z
" clip-path="url(#p3fad81a19e)" style="fill: #00ffff"/>
   </g>
   <g id="patch_231">
    <path d="M 290.395736 307.584 
L 291.155606 307.584 
L 291.155606 138.35521 
L 290.395736 138.35521 
z
" clip-path="url(#p3fad81a19e)" style="fill: #00ffff"/>
   </g>
   <g id="patch_232">
    <path d="M 291.345574 307.584 
L 292.105444 307.584 
L 292.105444 138.35521 
L 291.345574 138.35521 
z
" clip-path="url(#p3fad81a19e)" style="fill: #00ffff"/>
   </g>
   <g id="patch_233">
    <path d="M 292.295411 307.584 
L 293.055282 307.584 
L 293.055282 307.584 
L 292.295411 307.584 
z
" clip-path="url(#p3fad81a19e)" style="fill: #00ffff"/>
   </g>
   <g id="patch_234">
    <path d="M 293.245249 307.584 
L 294.005119 307.584 
L 294.005119 228.25763 
L 293.245249 228.25763 
z
" clip-path="url(#p3fad81a19e)" style="fill: #00ffff"/>
   </g>
   <g id="patch_235">
    <path d="M 294.195087 307.584 
L 294.954957 307.584 
L 294.954957 159.628974 
L 294.195087 159.628974 
z
" clip-path="url(#p3fad81a19e)" style="fill: #00ffff"/>
   </g>
   <g id="patch_236">
    <path d="M 295.144925 307.584 
L 295.904795 307.584 
L 295.904795 208.73183 
L 295.144925 208.73183 
z
" clip-path="url(#p3fad81a19e)" style="fill: #00ffff"/>
   </g>
   <g id="patch_237">
    <path d="M 296.094762 307.584 
L 296.854633 307.584 
L 296.854633 190.098175 
L 296.094762 190.098175 
z
" clip-path="url(#p3fad81a19e)" style="fill: #00ffff"/>
   </g>
   <g id="patch_238">
    <path d="M 297.0446 307.584 
L 297.80447 307.584 
L 297.80447 215.8744 
L 297.0446 215.8744 
z
" clip-path="url(#p3fad81a19e)" style="fill: #00ffff"/>
   </g>
   <g id="patch_239">
    <path d="M 297.994438 307.584 
L 298.754308 307.584 
L 298.754308 138.35521 
L 297.994438 138.35521 
z
" clip-path="url(#p3fad81a19e)" style="fill: #00ffff"/>
   </g>
   <g id="patch_240">
    <path d="M 298.944276 307.584 
L 299.704146 307.584 
L 299.704146 204.206613 
L 298.944276 204.206613 
z
" clip-path="url(#p3fad81a19e)" style="fill: #00ffff"/>
   </g>
   <g id="patch_241">
    <path d="M 299.894114 307.584 
L 300.653984 307.584 
L 300.653984 138.35521 
L 299.894114 138.35521 
z
" clip-path="url(#p3fad81a19e)" style="fill: #00ffff"/>
   </g>
   <g id="patch_242">
    <path d="M 300.843951 307.584 
L 301.603821 307.584 
L 301.603821 141.272409 
L 300.843951 141.272409 
z
" clip-path="url(#p3fad81a19e)" style="fill: #00ffff"/>
   </g>
   <g id="patch_243">
    <path d="M 301.793789 307.584 
L 302.553659 307.584 
L 302.553659 138.35521 
L 301.793789 138.35521 
z
" clip-path="url(#p3fad81a19e)" style="fill: #00ffff"/>
   </g>
   <g id="patch_244">
    <path d="M 302.743627 307.584 
L 303.503497 307.584 
L 303.503497 291.515734 
L 302.743627 291.515734 
z
" clip-path="url(#p3fad81a19e)" style="fill: #00ffff"/>
   </g>
   <g id="patch_245">
    <path d="M 303.693465 307.584 
L 304.453335 307.584 
L 304.453335 234.264084 
L 303.693465 234.264084 
z
" clip-path="url(#p3fad81a19e)" style="fill: #00ffff"/>
   </g>
   <g id="patch_246">
    <path d="M 304.643302 307.584 
L 305.403173 307.584 
L 305.403173 138.35521 
L 304.643302 138.35521 
z
" clip-path="url(#p3fad81a19e)" style="fill: #00ffff"/>
   </g>
   <g id="patch_247">
    <path d="M 305.59314 307.584 
L 306.35301 307.584 
L 306.35301 138.35521 
L 305.59314 138.35521 
z
" clip-path="url(#p3fad81a19e)" style="fill: #00ffff"/>
   </g>
   <g id="patch_248">
    <path d="M 306.542978 307.584 
L 307.302848 307.584 
L 307.302848 138.35521 
L 306.542978 138.35521 
z
" clip-path="url(#p3fad81a19e)" style="fill: #00ffff"/>
   </g>
   <g id="patch_249">
    <path d="M 307.492816 307.584 
L 308.252686 307.584 
L 308.252686 138.35521 
L 307.492816 138.35521 
z
" clip-path="url(#p3fad81a19e)" style="fill: #00ffff"/>
   </g>
   <g id="patch_250">
    <path d="M 308.442653 307.584 
L 309.202524 307.584 
L 309.202524 307.584 
L 308.442653 307.584 
z
" clip-path="url(#p3fad81a19e)" style="fill: #00ffff"/>
   </g>
   <g id="patch_251">
    <path d="M 309.392491 307.584 
L 310.152361 307.584 
L 310.152361 300.417486 
L 309.392491 300.417486 
z
" clip-path="url(#p3fad81a19e)" style="fill: #00ffff"/>
   </g>
   <g id="patch_252">
    <path d="M 310.342329 307.584 
L 311.102199 307.584 
L 311.102199 138.35521 
L 310.342329 138.35521 
z
" clip-path="url(#p3fad81a19e)" style="fill: #00ffff"/>
   </g>
   <g id="patch_253">
    <path d="M 311.292167 307.584 
L 312.052037 307.584 
L 312.052037 307.584 
L 311.292167 307.584 
z
" clip-path="url(#p3fad81a19e)" style="fill: #00ffff"/>
   </g>
   <g id="patch_254">
    <path d="M 312.242004 307.584 
L 313.001875 307.584 
L 313.001875 138.35521 
L 312.242004 138.35521 
z
" clip-path="url(#p3fad81a19e)" style="fill: #00ffff"/>
   </g>
   <g id="patch_255">
    <path d="M 313.191842 307.584 
L 313.951712 307.584 
L 313.951712 258.114154 
L 313.191842 258.114154 
z
" clip-path="url(#p3fad81a19e)" style="fill: #00ffff"/>
   </g>
   <g id="patch_256">
    <path d="M 314.14168 307.584 
L 314.90155 307.584 
L 314.90155 178.121559 
L 314.14168 178.121559 
z
" clip-path="url(#p3fad81a19e)" style="fill: #00ffff"/>
   </g>
   <g id="patch_257">
    <path d="M 315.091518 307.584 
L 315.851388 307.584 
L 315.851388 221.83942 
L 315.091518 221.83942 
z
" clip-path="url(#p3fad81a19e)" style="fill: #00ffff"/>
   </g>
   <g id="patch_258">
    <path d="M 316.041355 307.584 
L 316.801226 307.584 
L 316.801226 174.825579 
L 316.041355 174.825579 
z
" clip-path="url(#p3fad81a19e)" style="fill: #00ffff"/>
   </g>
   <g id="patch_259">
    <path d="M 316.991193 307.584 
L 317.751063 307.584 
L 317.751063 239.800356 
L 316.991193 239.800356 
z
" clip-path="url(#p3fad81a19e)" style="fill: #00ffff"/>
   </g>
   <g id="patch_260">
    <path d="M 317.941031 307.584 
L 318.700901 307.584 
L 318.700901 285.091269 
L 317.941031 285.091269 
z
" clip-path="url(#p3fad81a19e)" style="fill: #00ffff"/>
   </g>
   <g id="patch_261">
    <path d="M 318.890869 307.584 
L 319.650739 307.584 
L 319.650739 138.35521 
L 318.890869 138.35521 
z
" clip-path="url(#p3fad81a19e)" style="fill: #00ffff"/>
   </g>
   <g id="patch_262">
    <path d="M 319.840706 307.584 
L 320.600577 307.584 
L 320.600577 295.086124 
L 319.840706 295.086124 
z
" clip-path="url(#p3fad81a19e)" style="fill: #00ffff"/>
   </g>
   <g id="patch_263">
    <path d="M 320.790544 307.584 
L 321.550414 307.584 
L 321.550414 218.825851 
L 320.790544 218.825851 
z
" clip-path="url(#p3fad81a19e)" style="fill: #00ffff"/>
   </g>
   <g id="patch_264">
    <path d="M 321.740382 307.584 
L 322.500252 307.584 
L 322.500252 272.579483 
L 321.740382 272.579483 
z
" clip-path="url(#p3fad81a19e)" style="fill: #00ffff"/>
   </g>
   <g id="patch_265">
    <path d="M 322.69022 307.584 
L 323.45009 307.584 
L 323.45009 138.35521 
L 322.69022 138.35521 
z
" clip-path="url(#p3fad81a19e)" style="fill: #00ffff"/>
   </g>
   <g id="patch_266">
    <path d="M 323.640057 307.584 
L 324.399928 307.584 
L 324.399928 138.35521 
L 323.640057 138.35521 
z
" clip-path="url(#p3fad81a19e)" style="fill: #00ffff"/>
   </g>
   <g id="patch_267">
    <path d="M 324.589895 307.584 
L 325.349765 307.584 
L 325.349765 138.35521 
L 324.589895 138.35521 
z
" clip-path="url(#p3fad81a19e)" style="fill: #00ffff"/>
   </g>
   <g id="patch_268">
    <path d="M 325.539733 307.584 
L 326.299603 307.584 
L 326.299603 141.005191 
L 325.539733 141.005191 
z
" clip-path="url(#p3fad81a19e)" style="fill: #00ffff"/>
   </g>
   <g id="patch_269">
    <path d="M 326.489571 307.584 
L 327.249441 307.584 
L 327.249441 138.35521 
L 326.489571 138.35521 
z
" clip-path="url(#p3fad81a19e)" style="fill: #00ffff"/>
   </g>
   <g id="patch_270">
    <path d="M 327.439408 307.584 
L 328.199279 307.584 
L 328.199279 269.490233 
L 327.439408 269.490233 
z
" clip-path="url(#p3fad81a19e)" style="fill: #00ffff"/>
   </g>
   <g id="patch_271">
    <path d="M 328.389246 307.584 
L 329.149116 307.584 
L 329.149116 162.767996 
L 328.389246 162.767996 
z
" clip-path="url(#p3fad81a19e)" style="fill: #00ffff"/>
   </g>
   <g id="patch_272">
    <path d="M 329.339084 307.584 
L 330.098954 307.584 
L 330.098954 248.863455 
L 329.339084 248.863455 
z
" clip-path="url(#p3fad81a19e)" style="fill: #00ffff"/>
   </g>
   <g id="patch_273">
    <path d="M 330.288922 307.584 
L 331.048792 307.584 
L 331.048792 138.35521 
L 330.288922 138.35521 
z
" clip-path="url(#p3fad81a19e)" style="fill: #00ffff"/>
   </g>
   <g id="patch_274">
    <path d="M 331.23876 307.584 
L 331.99863 307.584 
L 331.99863 138.35521 
L 331.23876 138.35521 
z
" clip-path="url(#p3fad81a19e)" style="fill: #00ffff"/>
   </g>
   <g id="patch_275">
    <path d="M 332.188597 307.584 
L 332.948467 307.584 
L 332.948467 138.35521 
L 332.188597 138.35521 
z
" clip-path="url(#p3fad81a19e)" style="fill: #00ffff"/>
   </g>
   <g id="patch_276">
    <path d="M 333.138435 307.584 
L 333.898305 307.584 
L 333.898305 138.35521 
L 333.138435 138.35521 
z
" clip-path="url(#p3fad81a19e)" style="fill: #00ffff"/>
   </g>
   <g id="patch_277">
    <path d="M 334.088273 307.584 
L 334.848143 307.584 
L 334.848143 138.35521 
L 334.088273 138.35521 
z
" clip-path="url(#p3fad81a19e)" style="fill: #00ffff"/>
   </g>
   <g id="patch_278">
    <path d="M 335.038111 307.584 
L 335.797981 307.584 
L 335.797981 180.201379 
L 335.038111 180.201379 
z
" clip-path="url(#p3fad81a19e)" style="fill: #00ffff"/>
   </g>
   <g id="patch_279">
    <path d="M 335.987948 307.584 
L 336.747819 307.584 
L 336.747819 138.35521 
L 335.987948 138.35521 
z
" clip-path="url(#p3fad81a19e)" style="fill: #00ffff"/>
   </g>
   <g id="patch_280">
    <path d="M 336.937786 307.584 
L 337.697656 307.584 
L 337.697656 138.35521 
L 336.937786 138.35521 
z
" clip-path="url(#p3fad81a19e)" style="fill: #00ffff"/>
   </g>
   <g id="patch_281">
    <path d="M 337.887624 307.584 
L 338.647494 307.584 
L 338.647494 232.386995 
L 337.887624 232.386995 
z
" clip-path="url(#p3fad81a19e)" style="fill: #00ffff"/>
   </g>
   <g id="patch_282">
    <path d="M 338.837462 307.584 
L 339.597332 307.584 
L 339.597332 138.35521 
L 338.837462 138.35521 
z
" clip-path="url(#p3fad81a19e)" style="fill: #00ffff"/>
   </g>
   <g id="patch_283">
    <path d="M 339.787299 307.584 
L 340.54717 307.584 
L 340.54717 138.35521 
L 339.787299 138.35521 
z
" clip-path="url(#p3fad81a19e)" style="fill: #00ffff"/>
   </g>
   <g id="patch_284">
    <path d="M 340.737137 307.584 
L 341.497007 307.584 
L 341.497007 138.35521 
L 340.737137 138.35521 
z
" clip-path="url(#p3fad81a19e)" style="fill: #00ffff"/>
   </g>
   <g id="patch_285">
    <path d="M 341.686975 307.584 
L 342.446845 307.584 
L 342.446845 172.584791 
L 341.686975 172.584791 
z
" clip-path="url(#p3fad81a19e)" style="fill: #00ffff"/>
   </g>
   <g id="patch_286">
    <path d="M 342.636813 307.584 
L 343.396683 307.584 
L 343.396683 138.35521 
L 342.636813 138.35521 
z
" clip-path="url(#p3fad81a19e)" style="fill: #00ffff"/>
   </g>
   <g id="patch_287">
    <path d="M 343.58665 307.584 
L 344.346521 307.584 
L 344.346521 138.35521 
L 343.58665 138.35521 
z
" clip-path="url(#p3fad81a19e)" style="fill: #00ffff"/>
   </g>
   <g id="patch_288">
    <path d="M 344.536488 307.584 
L 345.296358 307.584 
L 345.296358 138.35521 
L 344.536488 138.35521 
z
" clip-path="url(#p3fad81a19e)" style="fill: #00ffff"/>
   </g>
   <g id="patch_289">
    <path d="M 345.486326 307.584 
L 346.246196 307.584 
L 346.246196 138.35521 
L 345.486326 138.35521 
z
" clip-path="url(#p3fad81a19e)" style="fill: #00ffff"/>
   </g>
   <g id="patch_290">
    <path d="M 346.436164 307.584 
L 347.196034 307.584 
L 347.196034 138.35521 
L 346.436164 138.35521 
z
" clip-path="url(#p3fad81a19e)" style="fill: #00ffff"/>
   </g>
   <g id="patch_291">
    <path d="M 347.386001 307.584 
L 348.145872 307.584 
L 348.145872 248.609594 
L 347.386001 248.609594 
z
" clip-path="url(#p3fad81a19e)" style="fill: #00ffff"/>
   </g>
   <g id="patch_292">
    <path d="M 348.335839 307.584 
L 349.095709 307.584 
L 349.095709 138.35521 
L 348.335839 138.35521 
z
" clip-path="url(#p3fad81a19e)" style="fill: #00ffff"/>
   </g>
   <g id="patch_293">
    <path d="M 349.285677 307.584 
L 350.045547 307.584 
L 350.045547 285.647016 
L 349.285677 285.647016 
z
" clip-path="url(#p3fad81a19e)" style="fill: #00ffff"/>
   </g>
   <g id="patch_294">
    <path d="M 350.235515 307.584 
L 350.995385 307.584 
L 350.995385 149.324118 
L 350.235515 149.324118 
z
" clip-path="url(#p3fad81a19e)" style="fill: #00ffff"/>
   </g>
   <g id="patch_295">
    <path d="M 351.185352 307.584 
L 351.945223 307.584 
L 351.945223 138.35521 
L 351.185352 138.35521 
z
" clip-path="url(#p3fad81a19e)" style="fill: #00ffff"/>
   </g>
   <g id="patch_296">
    <path d="M 352.13519 307.584 
L 352.89506 307.584 
L 352.89506 138.35521 
L 352.13519 138.35521 
z
" clip-path="url(#p3fad81a19e)" style="fill: #00ffff"/>
   </g>
   <g id="patch_297">
    <path d="M 353.085028 307.584 
L 353.844898 307.584 
L 353.844898 138.35521 
L 353.085028 138.35521 
z
" clip-path="url(#p3fad81a19e)" style="fill: #00ffff"/>
   </g>
   <g id="patch_298">
    <path d="M 354.034866 307.584 
L 354.794736 307.584 
L 354.794736 138.35521 
L 354.034866 138.35521 
z
" clip-path="url(#p3fad81a19e)" style="fill: #00ffff"/>
   </g>
   <g id="patch_299">
    <path d="M 354.984703 307.584 
L 355.744574 307.584 
L 355.744574 138.35521 
L 354.984703 138.35521 
z
" clip-path="url(#p3fad81a19e)" style="fill: #00ffff"/>
   </g>
   <g id="patch_300">
    <path d="M 355.934541 307.584 
L 356.694411 307.584 
L 356.694411 217.355392 
L 355.934541 217.355392 
z
" clip-path="url(#p3fad81a19e)" style="fill: #00ffff"/>
   </g>
   <g id="patch_301">
    <path d="M 356.884379 307.584 
L 357.644249 307.584 
L 357.644249 192.468486 
L 356.884379 192.468486 
z
" clip-path="url(#p3fad81a19e)" style="fill: #00ffff"/>
   </g>
   <g id="patch_302">
    <path d="M 357.834217 307.584 
L 358.594087 307.584 
L 358.594087 148.076227 
L 357.834217 148.076227 
z
" clip-path="url(#p3fad81a19e)" style="fill: #00ffff"/>
   </g>
   <g id="patch_303">
    <path d="M 358.784054 307.584 
L 359.543925 307.584 
L 359.543925 138.35521 
L 358.784054 138.35521 
z
" clip-path="url(#p3fad81a19e)" style="fill: #00ffff"/>
   </g>
   <g id="patch_304">
    <path d="M 359.733892 307.584 
L 360.493762 307.584 
L 360.493762 138.35521 
L 359.733892 138.35521 
z
" clip-path="url(#p3fad81a19e)" style="fill: #00ffff"/>
   </g>
   <g id="patch_305">
    <path d="M 360.68373 307.584 
L 361.4436 307.584 
L 361.4436 138.35521 
L 360.68373 138.35521 
z
" clip-path="url(#p3fad81a19e)" style="fill: #00ffff"/>
   </g>
   <g id="patch_306">
    <path d="M 361.633568 307.584 
L 362.393438 307.584 
L 362.393438 138.35521 
L 361.633568 138.35521 
z
" clip-path="url(#p3fad81a19e)" style="fill: #00ffff"/>
   </g>
   <g id="patch_307">
    <path d="M 362.583406 307.584 
L 363.343276 307.584 
L 363.343276 138.35521 
L 362.583406 138.35521 
z
" clip-path="url(#p3fad81a19e)" style="fill: #00ffff"/>
   </g>
   <g id="patch_308">
    <path d="M 363.533243 307.584 
L 364.293113 307.584 
L 364.293113 138.35521 
L 363.533243 138.35521 
z
" clip-path="url(#p3fad81a19e)" style="fill: #00ffff"/>
   </g>
   <g id="patch_309">
    <path d="M 364.483081 307.584 
L 365.242951 307.584 
L 365.242951 138.35521 
L 364.483081 138.35521 
z
" clip-path="url(#p3fad81a19e)" style="fill: #00ffff"/>
   </g>
   <g id="patch_310">
    <path d="M 365.432919 307.584 
L 366.192789 307.584 
L 366.192789 209.909474 
L 365.432919 209.909474 
z
" clip-path="url(#p3fad81a19e)" style="fill: #00ffff"/>
   </g>
   <g id="patch_311">
    <path d="M 366.382757 307.584 
L 367.142627 307.584 
L 367.142627 138.35521 
L 366.382757 138.35521 
z
" clip-path="url(#p3fad81a19e)" style="fill: #00ffff"/>
   </g>
   <g id="patch_312">
    <path d="M 367.332594 307.584 
L 368.092464 307.584 
L 368.092464 138.35521 
L 367.332594 138.35521 
z
" clip-path="url(#p3fad81a19e)" style="fill: #00ffff"/>
   </g>
   <g id="patch_313">
    <path d="M 368.282432 307.584 
L 369.042302 307.584 
L 369.042302 138.35521 
L 368.282432 138.35521 
z
" clip-path="url(#p3fad81a19e)" style="fill: #00ffff"/>
   </g>
   <g id="patch_314">
    <path d="M 369.23227 307.584 
L 369.99214 307.584 
L 369.99214 138.35521 
L 369.23227 138.35521 
z
" clip-path="url(#p3fad81a19e)" style="fill: #00ffff"/>
   </g>
   <g id="patch_315">
    <path d="M 370.182108 307.584 
L 370.941978 307.584 
L 370.941978 138.35521 
L 370.182108 138.35521 
z
" clip-path="url(#p3fad81a19e)" style="fill: #00ffff"/>
   </g>
   <g id="patch_316">
    <path d="M 371.131945 307.584 
L 371.891816 307.584 
L 371.891816 138.35521 
L 371.131945 138.35521 
z
" clip-path="url(#p3fad81a19e)" style="fill: #00ffff"/>
   </g>
   <g id="patch_317">
    <path d="M 372.081783 307.584 
L 372.841653 307.584 
L 372.841653 138.35521 
L 372.081783 138.35521 
z
" clip-path="url(#p3fad81a19e)" style="fill: #00ffff"/>
   </g>
   <g id="patch_318">
    <path d="M 373.031621 307.584 
L 373.791491 307.584 
L 373.791491 138.35521 
L 373.031621 138.35521 
z
" clip-path="url(#p3fad81a19e)" style="fill: #00ffff"/>
   </g>
   <g id="patch_319">
    <path d="M 373.981459 307.584 
L 374.741329 307.584 
L 374.741329 138.35521 
L 373.981459 138.35521 
z
" clip-path="url(#p3fad81a19e)" style="fill: #00ffff"/>
   </g>
   <g id="patch_320">
    <path d="M 374.931296 307.584 
L 375.691167 307.584 
L 375.691167 153.302946 
L 374.931296 153.302946 
z
" clip-path="url(#p3fad81a19e)" style="fill: #00ffff"/>
   </g>
   <g id="patch_321">
    <path d="M 375.881134 307.584 
L 376.641004 307.584 
L 376.641004 307.584 
L 375.881134 307.584 
z
" clip-path="url(#p3fad81a19e)" style="fill: #00ffff"/>
   </g>
   <g id="patch_322">
    <path d="M 376.830972 307.584 
L 377.590842 307.584 
L 377.590842 189.857783 
L 376.830972 189.857783 
z
" clip-path="url(#p3fad81a19e)" style="fill: #00ffff"/>
   </g>
   <g id="patch_323">
    <path d="M 377.78081 307.584 
L 378.54068 307.584 
L 378.54068 244.276877 
L 377.78081 244.276877 
z
" clip-path="url(#p3fad81a19e)" style="fill: #00ffff"/>
   </g>
   <g id="patch_324">
    <path d="M 378.730647 307.584 
L 379.490518 307.584 
L 379.490518 138.35521 
L 378.730647 138.35521 
z
" clip-path="url(#p3fad81a19e)" style="fill: #00ffff"/>
   </g>
   <g id="patch_325">
    <path d="M 379.680485 307.584 
L 380.440355 307.584 
L 380.440355 138.35521 
L 379.680485 138.35521 
z
" clip-path="url(#p3fad81a19e)" style="fill: #00ffff"/>
   </g>
   <g id="patch_326">
    <path d="M 380.630323 307.584 
L 381.390193 307.584 
L 381.390193 138.35521 
L 380.630323 138.35521 
z
" clip-path="url(#p3fad81a19e)" style="fill: #00ffff"/>
   </g>
   <g id="patch_327">
    <path d="M 381.580161 307.584 
L 382.340031 307.584 
L 382.340031 138.35521 
L 381.580161 138.35521 
z
" clip-path="url(#p3fad81a19e)" style="fill: #00ffff"/>
   </g>
   <g id="patch_328">
    <path d="M 382.529998 307.584 
L 383.289869 307.584 
L 383.289869 186.716112 
L 382.529998 186.716112 
z
" clip-path="url(#p3fad81a19e)" style="fill: #00ffff"/>
   </g>
   <g id="patch_329">
    <path d="M 383.479836 307.584 
L 384.239706 307.584 
L 384.239706 138.35521 
L 383.479836 138.35521 
z
" clip-path="url(#p3fad81a19e)" style="fill: #00ffff"/>
   </g>
   <g id="patch_330">
    <path d="M 384.429674 307.584 
L 385.189544 307.584 
L 385.189544 138.35521 
L 384.429674 138.35521 
z
" clip-path="url(#p3fad81a19e)" style="fill: #00ffff"/>
   </g>
   <g id="patch_331">
    <path d="M 385.379512 307.584 
L 386.139382 307.584 
L 386.139382 138.35521 
L 385.379512 138.35521 
z
" clip-path="url(#p3fad81a19e)" style="fill: #00ffff"/>
   </g>
   <g id="patch_332">
    <path d="M 386.329349 307.584 
L 387.08922 307.584 
L 387.08922 138.35521 
L 386.329349 138.35521 
z
" clip-path="url(#p3fad81a19e)" style="fill: #00ffff"/>
   </g>
   <g id="patch_333">
    <path d="M 387.279187 307.584 
L 388.039057 307.584 
L 388.039057 138.35521 
L 387.279187 138.35521 
z
" clip-path="url(#p3fad81a19e)" style="fill: #00ffff"/>
   </g>
   <g id="patch_334">
    <path d="M 388.229025 307.584 
L 388.988895 307.584 
L 388.988895 138.35521 
L 388.229025 138.35521 
z
" clip-path="url(#p3fad81a19e)" style="fill: #00ffff"/>
   </g>
   <g id="patch_335">
    <path d="M 389.178863 307.584 
L 389.938733 307.584 
L 389.938733 138.35521 
L 389.178863 138.35521 
z
" clip-path="url(#p3fad81a19e)" style="fill: #00ffff"/>
   </g>
   <g id="patch_336">
    <path d="M 390.1287 307.584 
L 390.888571 307.584 
L 390.888571 138.35521 
L 390.1287 138.35521 
z
" clip-path="url(#p3fad81a19e)" style="fill: #00ffff"/>
   </g>
   <g id="patch_337">
    <path d="M 391.078538 307.584 
L 391.838408 307.584 
L 391.838408 138.35521 
L 391.078538 138.35521 
z
" clip-path="url(#p3fad81a19e)" style="fill: #00ffff"/>
   </g>
   <g id="patch_338">
    <path d="M 392.028376 307.584 
L 392.788246 307.584 
L 392.788246 138.35521 
L 392.028376 138.35521 
z
" clip-path="url(#p3fad81a19e)" style="fill: #00ffff"/>
   </g>
   <g id="patch_339">
    <path d="M 392.978214 307.584 
L 393.738084 307.584 
L 393.738084 138.35521 
L 392.978214 138.35521 
z
" clip-path="url(#p3fad81a19e)" style="fill: #00ffff"/>
   </g>
   <g id="patch_340">
    <path d="M 393.928051 307.584 
L 394.687922 307.584 
L 394.687922 138.35521 
L 393.928051 138.35521 
z
" clip-path="url(#p3fad81a19e)" style="fill: #00ffff"/>
   </g>
   <g id="patch_341">
    <path d="M 394.877889 307.584 
L 395.637759 307.584 
L 395.637759 138.35521 
L 394.877889 138.35521 
z
" clip-path="url(#p3fad81a19e)" style="fill: #00ffff"/>
   </g>
   <g id="patch_342">
    <path d="M 395.827727 307.584 
L 396.587597 307.584 
L 396.587597 138.35521 
L 395.827727 138.35521 
z
" clip-path="url(#p3fad81a19e)" style="fill: #00ffff"/>
   </g>
   <g id="patch_343">
    <path d="M 396.777565 307.584 
L 397.537435 307.584 
L 397.537435 138.35521 
L 396.777565 138.35521 
z
" clip-path="url(#p3fad81a19e)" style="fill: #00ffff"/>
   </g>
   <g id="patch_344">
    <path d="M 397.727403 307.584 
L 398.487273 307.584 
L 398.487273 138.35521 
L 397.727403 138.35521 
z
" clip-path="url(#p3fad81a19e)" style="fill: #00ffff"/>
   </g>
   <g id="matplotlib.axis_1"/>
   <g id="matplotlib.axis_2"/>
   <g id="patch_345">
    <path d="M 57.6 307.584 
L 57.6 41.472 
" style="fill: none; stroke: #000000; stroke-width: 0.8; stroke-linejoin: miter; stroke-linecap: square"/>
   </g>
   <g id="patch_346">
    <path d="M 414.72 307.584 
L 414.72 41.472 
" style="fill: none; stroke: #000000; stroke-width: 0.8; stroke-linejoin: miter; stroke-linecap: square"/>
   </g>
   <g id="patch_347">
    <path d="M 57.6 307.584 
L 414.72 307.584 
" style="fill: none; stroke: #000000; stroke-width: 0.8; stroke-linejoin: miter; stroke-linecap: square"/>
   </g>
   <g id="patch_348">
    <path d="M 57.6 41.472 
L 414.72 41.472 
" style="fill: none; stroke: #000000; stroke-width: 0.8; stroke-linejoin: miter; stroke-linecap: square"/>
   </g>
  </g>
 </g>
 <defs>
  <clipPath id="p3fad81a19e">
   <rect x="57.6" y="41.472" width="357.12" height="266.112"/>
  </clipPath>
 </defs>
</svg>
