<?xml version="1.0" encoding="utf-8" standalone="no"?>
<!DOCTYPE svg PUBLIC "-//W3C//DTD SVG 1.1//EN"
  "http://www.w3.org/Graphics/SVG/1.1/DTD/svg11.dtd">
<svg xmlns:xlink="http://www.w3.org/1999/xlink" width="460.8pt" height="345.6pt" viewBox="0 0 460.8 345.6" xmlns="http://www.w3.org/2000/svg" version="1.1">
 <metadata>
  <rdf:RDF xmlns:dc="http://purl.org/dc/elements/1.1/" xmlns:cc="http://creativecommons.org/ns#" xmlns:rdf="http://www.w3.org/1999/02/22-rdf-syntax-ns#">
   <cc:Work>
    <dc:type rdf:resource="http://purl.org/dc/dcmitype/StillImage"/>
    <dc:date>2023-08-15T12:19:31.595922</dc:date>
    <dc:format>image/svg+xml</dc:format>
    <dc:creator>
     <cc:Agent>
      <dc:title>Matplotlib v3.5.2, https://matplotlib.org/</dc:title>
     </cc:Agent>
    </dc:creator>
   </cc:Work>
  </rdf:RDF>
 </metadata>
 <defs>
  <style type="text/css">*{stroke-linejoin: round; stroke-linecap: butt}</style>
 </defs>
 <g id="figure_1">
  <g id="patch_1">
   <path d="M 0 345.6 
L 460.8 345.6 
L 460.8 0 
L 0 0 
z
" style="fill: #ffffff"/>
  </g>
  <g id="axes_1">
   <g id="patch_2">
    <path d="M 57.6 307.584 
L 414.72 307.584 
L 414.72 41.472 
L 57.6 41.472 
z
" style="fill: #ffffff"/>
   </g>
   <g id="patch_3">
    <path d="M 73.832727 307.584 
L 74.592597 307.584 
L 74.592597 286.952006 
L 73.832727 286.952006 
z
" clip-path="url(#p3857eec763)" style="fill: #696969"/>
   </g>
   <g id="patch_4">
    <path d="M 74.782565 307.584 
L 75.542435 307.584 
L 75.542435 230.617687 
L 74.782565 230.617687 
z
" clip-path="url(#p3857eec763)" style="fill: #696969"/>
   </g>
   <g id="patch_5">
    <path d="M 75.732403 307.584 
L 76.492273 307.584 
L 76.492273 306.959234 
L 75.732403 306.959234 
z
" clip-path="url(#p3857eec763)" style="fill: #696969"/>
   </g>
   <g id="patch_6">
    <path d="M 76.682241 307.584 
L 77.442111 307.584 
L 77.442111 296.757231 
L 76.682241 296.757231 
z
" clip-path="url(#p3857eec763)" style="fill: #696969"/>
   </g>
   <g id="patch_7">
    <path d="M 77.632078 307.584 
L 78.391949 307.584 
L 78.391949 306.010054 
L 77.632078 306.010054 
z
" clip-path="url(#p3857eec763)" style="fill: #696969"/>
   </g>
   <g id="patch_8">
    <path d="M 78.581916 307.584 
L 79.341786 307.584 
L 79.341786 303.94869 
L 78.581916 303.94869 
z
" clip-path="url(#p3857eec763)" style="fill: #696969"/>
   </g>
   <g id="patch_9">
    <path d="M 79.531754 307.584 
L 80.291624 307.584 
L 80.291624 303.517468 
L 79.531754 303.517468 
z
" clip-path="url(#p3857eec763)" style="fill: #696969"/>
   </g>
   <g id="patch_10">
    <path d="M 80.481592 307.584 
L 81.241462 307.584 
L 81.241462 301.264552 
L 80.481592 301.264552 
z
" clip-path="url(#p3857eec763)" style="fill: #696969"/>
   </g>
   <g id="patch_11">
    <path d="M 81.431429 307.584 
L 82.1913 307.584 
L 82.1913 307.584 
L 81.431429 307.584 
z
" clip-path="url(#p3857eec763)" style="fill: #696969"/>
   </g>
   <g id="patch_12">
    <path d="M 82.381267 307.584 
L 83.141137 307.584 
L 83.141137 301.114567 
L 82.381267 301.114567 
z
" clip-path="url(#p3857eec763)" style="fill: #696969"/>
   </g>
   <g id="patch_13">
    <path d="M 83.331105 307.584 
L 84.090975 307.584 
L 84.090975 307.341641 
L 83.331105 307.341641 
z
" clip-path="url(#p3857eec763)" style="fill: #696969"/>
   </g>
   <g id="patch_14">
    <path d="M 84.280943 307.584 
L 85.040813 307.584 
L 85.040813 307.575946 
L 84.280943 307.575946 
z
" clip-path="url(#p3857eec763)" style="fill: #696969"/>
   </g>
   <g id="patch_15">
    <path d="M 85.23078 307.584 
L 85.990651 307.584 
L 85.990651 305.252305 
L 85.23078 305.252305 
z
" clip-path="url(#p3857eec763)" style="fill: #696969"/>
   </g>
   <g id="patch_16">
    <path d="M 86.180618 307.584 
L 86.940488 307.584 
L 86.940488 302.866639 
L 86.180618 302.866639 
z
" clip-path="url(#p3857eec763)" style="fill: #696969"/>
   </g>
   <g id="patch_17">
    <path d="M 87.130456 307.584 
L 87.890326 307.584 
L 87.890326 307.332272 
L 87.130456 307.332272 
z
" clip-path="url(#p3857eec763)" style="fill: #696969"/>
   </g>
   <g id="patch_18">
    <path d="M 88.080294 307.584 
L 88.840164 307.584 
L 88.840164 300.77754 
L 88.080294 300.77754 
z
" clip-path="url(#p3857eec763)" style="fill: #696969"/>
   </g>
   <g id="patch_19">
    <path d="M 89.030131 307.584 
L 89.790002 307.584 
L 89.790002 307.400248 
L 89.030131 307.400248 
z
" clip-path="url(#p3857eec763)" style="fill: #696969"/>
   </g>
   <g id="patch_20">
    <path d="M 89.979969 307.584 
L 90.739839 307.584 
L 90.739839 307.553763 
L 89.979969 307.553763 
z
" clip-path="url(#p3857eec763)" style="fill: #696969"/>
   </g>
   <g id="patch_21">
    <path d="M 90.929807 307.584 
L 91.689677 307.584 
L 91.689677 307.464323 
L 90.929807 307.464323 
z
" clip-path="url(#p3857eec763)" style="fill: #696969"/>
   </g>
   <g id="patch_22">
    <path d="M 91.879645 307.584 
L 92.639515 307.584 
L 92.639515 264.223399 
L 91.879645 264.223399 
z
" clip-path="url(#p3857eec763)" style="fill: #696969"/>
   </g>
   <g id="patch_23">
    <path d="M 92.829482 307.584 
L 93.589353 307.584 
L 93.589353 306.540428 
L 92.829482 306.540428 
z
" clip-path="url(#p3857eec763)" style="fill: #696969"/>
   </g>
   <g id="patch_24">
    <path d="M 93.77932 307.584 
L 94.53919 307.584 
L 94.53919 292.326922 
L 93.77932 292.326922 
z
" clip-path="url(#p3857eec763)" style="fill: #696969"/>
   </g>
   <g id="patch_25">
    <path d="M 94.729158 307.584 
L 95.489028 307.584 
L 95.489028 303.563029 
L 94.729158 303.563029 
z
" clip-path="url(#p3857eec763)" style="fill: #696969"/>
   </g>
   <g id="patch_26">
    <path d="M 95.678996 307.584 
L 96.438866 307.584 
L 96.438866 305.341567 
L 95.678996 305.341567 
z
" clip-path="url(#p3857eec763)" style="fill: #696969"/>
   </g>
   <g id="patch_27">
    <path d="M 96.628833 307.584 
L 97.388704 307.584 
L 97.388704 304.825173 
L 96.628833 304.825173 
z
" clip-path="url(#p3857eec763)" style="fill: #696969"/>
   </g>
   <g id="patch_28">
    <path d="M 97.578671 307.584 
L 98.338541 307.584 
L 98.338541 301.99193 
L 97.578671 301.99193 
z
" clip-path="url(#p3857eec763)" style="fill: #696969"/>
   </g>
   <g id="patch_29">
    <path d="M 98.528509 307.584 
L 99.288379 307.584 
L 99.288379 304.965418 
L 98.528509 304.965418 
z
" clip-path="url(#p3857eec763)" style="fill: #696969"/>
   </g>
   <g id="patch_30">
    <path d="M 99.478347 307.584 
L 100.238217 307.584 
L 100.238217 305.076166 
L 99.478347 305.076166 
z
" clip-path="url(#p3857eec763)" style="fill: #696969"/>
   </g>
   <g id="patch_31">
    <path d="M 100.428184 307.584 
L 101.188055 307.584 
L 101.188055 275.592146 
L 100.428184 275.592146 
z
" clip-path="url(#p3857eec763)" style="fill: #696969"/>
   </g>
   <g id="patch_32">
    <path d="M 101.378022 307.584 
L 102.137892 307.584 
L 102.137892 303.343254 
L 101.378022 303.343254 
z
" clip-path="url(#p3857eec763)" style="fill: #696969"/>
   </g>
   <g id="patch_33">
    <path d="M 102.32786 307.584 
L 103.08773 307.584 
L 103.08773 300.386615 
L 102.32786 300.386615 
z
" clip-path="url(#p3857eec763)" style="fill: #696969"/>
   </g>
   <g id="patch_34">
    <path d="M 103.277698 307.584 
L 104.037568 307.584 
L 104.037568 307.584 
L 103.277698 307.584 
z
" clip-path="url(#p3857eec763)" style="fill: #696969"/>
   </g>
   <g id="patch_35">
    <path d="M 104.227536 307.584 
L 104.987406 307.584 
L 104.987406 262.020798 
L 104.227536 262.020798 
z
" clip-path="url(#p3857eec763)" style="fill: #696969"/>
   </g>
   <g id="patch_36">
    <path d="M 105.177373 307.584 
L 105.937243 307.584 
L 105.937243 303.274234 
L 105.177373 303.274234 
z
" clip-path="url(#p3857eec763)" style="fill: #696969"/>
   </g>
   <g id="patch_37">
    <path d="M 106.127211 307.584 
L 106.887081 307.584 
L 106.887081 305.344489 
L 106.127211 305.344489 
z
" clip-path="url(#p3857eec763)" style="fill: #696969"/>
   </g>
   <g id="patch_38">
    <path d="M 107.077049 307.584 
L 107.836919 307.584 
L 107.836919 281.023026 
L 107.077049 281.023026 
z
" clip-path="url(#p3857eec763)" style="fill: #696969"/>
   </g>
   <g id="patch_39">
    <path d="M 108.026887 307.584 
L 108.786757 307.584 
L 108.786757 295.623091 
L 108.026887 295.623091 
z
" clip-path="url(#p3857eec763)" style="fill: #696969"/>
   </g>
   <g id="patch_40">
    <path d="M 108.976724 307.584 
L 109.736594 307.584 
L 109.736594 304.562696 
L 108.976724 304.562696 
z
" clip-path="url(#p3857eec763)" style="fill: #696969"/>
   </g>
   <g id="patch_41">
    <path d="M 109.926562 307.584 
L 110.686432 307.584 
L 110.686432 303.784417 
L 109.926562 303.784417 
z
" clip-path="url(#p3857eec763)" style="fill: #696969"/>
   </g>
   <g id="patch_42">
    <path d="M 110.8764 307.584 
L 111.63627 307.584 
L 111.63627 299.275068 
L 110.8764 299.275068 
z
" clip-path="url(#p3857eec763)" style="fill: #696969"/>
   </g>
   <g id="patch_43">
    <path d="M 111.826238 307.584 
L 112.586108 307.584 
L 112.586108 290.610125 
L 111.826238 290.610125 
z
" clip-path="url(#p3857eec763)" style="fill: #696969"/>
   </g>
   <g id="patch_44">
    <path d="M 112.776075 307.584 
L 113.535946 307.584 
L 113.535946 307.147371 
L 112.776075 307.147371 
z
" clip-path="url(#p3857eec763)" style="fill: #696969"/>
   </g>
   <g id="patch_45">
    <path d="M 113.725913 307.584 
L 114.485783 307.584 
L 114.485783 298.128671 
L 113.725913 298.128671 
z
" clip-path="url(#p3857eec763)" style="fill: #696969"/>
   </g>
   <g id="patch_46">
    <path d="M 114.675751 307.584 
L 115.435621 307.584 
L 115.435621 307.341044 
L 114.675751 307.341044 
z
" clip-path="url(#p3857eec763)" style="fill: #696969"/>
   </g>
   <g id="patch_47">
    <path d="M 115.625589 307.584 
L 116.385459 307.584 
L 116.385459 306.323955 
L 115.625589 306.323955 
z
" clip-path="url(#p3857eec763)" style="fill: #696969"/>
   </g>
   <g id="patch_48">
    <path d="M 116.575426 307.584 
L 117.335297 307.584 
L 117.335297 275.595521 
L 116.575426 275.595521 
z
" clip-path="url(#p3857eec763)" style="fill: #696969"/>
   </g>
   <g id="patch_49">
    <path d="M 117.525264 307.584 
L 118.285134 307.584 
L 118.285134 304.100107 
L 117.525264 304.100107 
z
" clip-path="url(#p3857eec763)" style="fill: #696969"/>
   </g>
   <g id="patch_50">
    <path d="M 118.475102 307.584 
L 119.234972 307.584 
L 119.234972 296.262355 
L 118.475102 296.262355 
z
" clip-path="url(#p3857eec763)" style="fill: #696969"/>
   </g>
   <g id="patch_51">
    <path d="M 119.42494 307.584 
L 120.18481 307.584 
L 120.18481 307.584 
L 119.42494 307.584 
z
" clip-path="url(#p3857eec763)" style="fill: #696969"/>
   </g>
   <g id="patch_52">
    <path d="M 120.374777 307.584 
L 121.134648 307.584 
L 121.134648 303.586722 
L 120.374777 303.586722 
z
" clip-path="url(#p3857eec763)" style="fill: #696969"/>
   </g>
   <g id="patch_53">
    <path d="M 121.324615 307.584 
L 122.084485 307.584 
L 122.084485 302.447784 
L 121.324615 302.447784 
z
" clip-path="url(#p3857eec763)" style="fill: #696969"/>
   </g>
   <g id="patch_54">
    <path d="M 122.274453 307.584 
L 123.034323 307.584 
L 123.034323 300.293315 
L 122.274453 300.293315 
z
" clip-path="url(#p3857eec763)" style="fill: #696969"/>
   </g>
   <g id="patch_55">
    <path d="M 123.224291 307.584 
L 123.984161 307.584 
L 123.984161 306.50034 
L 123.224291 306.50034 
z
" clip-path="url(#p3857eec763)" style="fill: #696969"/>
   </g>
   <g id="patch_56">
    <path d="M 124.174128 307.584 
L 124.933999 307.584 
L 124.933999 306.015354 
L 124.174128 306.015354 
z
" clip-path="url(#p3857eec763)" style="fill: #696969"/>
   </g>
   <g id="patch_57">
    <path d="M 125.123966 307.584 
L 125.883836 307.584 
L 125.883836 277.862637 
L 125.123966 277.862637 
z
" clip-path="url(#p3857eec763)" style="fill: #696969"/>
   </g>
   <g id="patch_58">
    <path d="M 126.073804 307.584 
L 126.833674 307.584 
L 126.833674 299.181466 
L 126.073804 299.181466 
z
" clip-path="url(#p3857eec763)" style="fill: #696969"/>
   </g>
   <g id="patch_59">
    <path d="M 127.023642 307.584 
L 127.783512 307.584 
L 127.783512 305.6015 
L 127.023642 305.6015 
z
" clip-path="url(#p3857eec763)" style="fill: #696969"/>
   </g>
   <g id="patch_60">
    <path d="M 127.973479 307.584 
L 128.73335 307.584 
L 128.73335 288.819625 
L 127.973479 288.819625 
z
" clip-path="url(#p3857eec763)" style="fill: #696969"/>
   </g>
   <g id="patch_61">
    <path d="M 128.923317 307.584 
L 129.683187 307.584 
L 129.683187 306.110627 
L 128.923317 306.110627 
z
" clip-path="url(#p3857eec763)" style="fill: #696969"/>
   </g>
   <g id="patch_62">
    <path d="M 129.873155 307.584 
L 130.633025 307.584 
L 130.633025 306.963343 
L 129.873155 306.963343 
z
" clip-path="url(#p3857eec763)" style="fill: #696969"/>
   </g>
   <g id="patch_63">
    <path d="M 130.822993 307.584 
L 131.582863 307.584 
L 131.582863 301.295131 
L 130.822993 301.295131 
z
" clip-path="url(#p3857eec763)" style="fill: #696969"/>
   </g>
   <g id="patch_64">
    <path d="M 131.77283 307.584 
L 132.532701 307.584 
L 132.532701 287.969987 
L 131.77283 287.969987 
z
" clip-path="url(#p3857eec763)" style="fill: #696969"/>
   </g>
   <g id="patch_65">
    <path d="M 132.722668 307.584 
L 133.482538 307.584 
L 133.482538 306.406316 
L 132.722668 306.406316 
z
" clip-path="url(#p3857eec763)" style="fill: #696969"/>
   </g>
   <g id="patch_66">
    <path d="M 133.672506 307.584 
L 134.432376 307.584 
L 134.432376 304.61822 
L 133.672506 304.61822 
z
" clip-path="url(#p3857eec763)" style="fill: #696969"/>
   </g>
   <g id="patch_67">
    <path d="M 134.622344 307.584 
L 135.382214 307.584 
L 135.382214 256.467095 
L 134.622344 256.467095 
z
" clip-path="url(#p3857eec763)" style="fill: #696969"/>
   </g>
   <g id="patch_68">
    <path d="M 135.572181 307.584 
L 136.332052 307.584 
L 136.332052 306.958637 
L 135.572181 306.958637 
z
" clip-path="url(#p3857eec763)" style="fill: #696969"/>
   </g>
   <g id="patch_69">
    <path d="M 136.522019 307.584 
L 137.281889 307.584 
L 137.281889 299.941609 
L 136.522019 299.941609 
z
" clip-path="url(#p3857eec763)" style="fill: #696969"/>
   </g>
   <g id="patch_70">
    <path d="M 137.471857 307.584 
L 138.231727 307.584 
L 138.231727 302.845363 
L 137.471857 302.845363 
z
" clip-path="url(#p3857eec763)" style="fill: #696969"/>
   </g>
   <g id="patch_71">
    <path d="M 138.421695 307.584 
L 139.181565 307.584 
L 139.181565 307.584 
L 138.421695 307.584 
z
" clip-path="url(#p3857eec763)" style="fill: #696969"/>
   </g>
   <g id="patch_72">
    <path d="M 139.371533 307.584 
L 140.131403 307.584 
L 140.131403 292.598425 
L 139.371533 292.598425 
z
" clip-path="url(#p3857eec763)" style="fill: #696969"/>
   </g>
   <g id="patch_73">
    <path d="M 140.32137 307.584 
L 141.08124 307.584 
L 141.08124 307.03726 
L 140.32137 307.03726 
z
" clip-path="url(#p3857eec763)" style="fill: #696969"/>
   </g>
   <g id="patch_74">
    <path d="M 141.271208 307.584 
L 142.031078 307.584 
L 142.031078 305.237693 
L 141.271208 305.237693 
z
" clip-path="url(#p3857eec763)" style="fill: #696969"/>
   </g>
   <g id="patch_75">
    <path d="M 142.221046 307.584 
L 142.980916 307.584 
L 142.980916 295.976052 
L 142.221046 295.976052 
z
" clip-path="url(#p3857eec763)" style="fill: #696969"/>
   </g>
   <g id="patch_76">
    <path d="M 143.170884 307.584 
L 143.930754 307.584 
L 143.930754 243.447404 
L 143.170884 243.447404 
z
" clip-path="url(#p3857eec763)" style="fill: #696969"/>
   </g>
   <g id="patch_77">
    <path d="M 144.120721 307.584 
L 144.880592 307.584 
L 144.880592 274.748286 
L 144.120721 274.748286 
z
" clip-path="url(#p3857eec763)" style="fill: #696969"/>
   </g>
   <g id="patch_78">
    <path d="M 145.070559 307.584 
L 145.830429 307.584 
L 145.830429 302.214033 
L 145.070559 302.214033 
z
" clip-path="url(#p3857eec763)" style="fill: #696969"/>
   </g>
   <g id="patch_79">
    <path d="M 146.020397 307.584 
L 146.780267 307.584 
L 146.780267 302.082257 
L 146.020397 302.082257 
z
" clip-path="url(#p3857eec763)" style="fill: #696969"/>
   </g>
   <g id="patch_80">
    <path d="M 146.970235 307.584 
L 147.730105 307.584 
L 147.730105 293.615987 
L 146.970235 293.615987 
z
" clip-path="url(#p3857eec763)" style="fill: #696969"/>
   </g>
   <g id="patch_81">
    <path d="M 147.920072 307.584 
L 148.679943 307.584 
L 148.679943 293.224145 
L 147.920072 293.224145 
z
" clip-path="url(#p3857eec763)" style="fill: #696969"/>
   </g>
   <g id="patch_82">
    <path d="M 148.86991 307.584 
L 149.62978 307.584 
L 149.62978 306.82392 
L 148.86991 306.82392 
z
" clip-path="url(#p3857eec763)" style="fill: #696969"/>
   </g>
   <g id="patch_83">
    <path d="M 149.819748 307.584 
L 150.579618 307.584 
L 150.579618 306.030534 
L 149.819748 306.030534 
z
" clip-path="url(#p3857eec763)" style="fill: #696969"/>
   </g>
   <g id="patch_84">
    <path d="M 150.769586 307.584 
L 151.529456 307.584 
L 151.529456 301.715442 
L 150.769586 301.715442 
z
" clip-path="url(#p3857eec763)" style="fill: #696969"/>
   </g>
   <g id="patch_85">
    <path d="M 151.719423 307.584 
L 152.479294 307.584 
L 152.479294 303.957242 
L 151.719423 303.957242 
z
" clip-path="url(#p3857eec763)" style="fill: #696969"/>
   </g>
   <g id="patch_86">
    <path d="M 152.669261 307.584 
L 153.429131 307.584 
L 153.429131 306.06361 
L 152.669261 306.06361 
z
" clip-path="url(#p3857eec763)" style="fill: #696969"/>
   </g>
   <g id="patch_87">
    <path d="M 153.619099 307.584 
L 154.378969 307.584 
L 154.378969 299.208035 
L 153.619099 299.208035 
z
" clip-path="url(#p3857eec763)" style="fill: #696969"/>
   </g>
   <g id="patch_88">
    <path d="M 154.568937 307.584 
L 155.328807 307.584 
L 155.328807 295.121356 
L 154.568937 295.121356 
z
" clip-path="url(#p3857eec763)" style="fill: #696969"/>
   </g>
   <g id="patch_89">
    <path d="M 155.518774 307.584 
L 156.278645 307.584 
L 156.278645 307.486255 
L 155.518774 307.486255 
z
" clip-path="url(#p3857eec763)" style="fill: #696969"/>
   </g>
   <g id="patch_90">
    <path d="M 156.468612 307.584 
L 157.228482 307.584 
L 157.228482 306.253284 
L 156.468612 306.253284 
z
" clip-path="url(#p3857eec763)" style="fill: #696969"/>
   </g>
   <g id="patch_91">
    <path d="M 157.41845 307.584 
L 158.17832 307.584 
L 158.17832 300.63668 
L 157.41845 300.63668 
z
" clip-path="url(#p3857eec763)" style="fill: #696969"/>
   </g>
   <g id="patch_92">
    <path d="M 158.368288 307.584 
L 159.128158 307.584 
L 159.128158 306.064235 
L 158.368288 306.064235 
z
" clip-path="url(#p3857eec763)" style="fill: #696969"/>
   </g>
   <g id="patch_93">
    <path d="M 159.318125 307.584 
L 160.077996 307.584 
L 160.077996 294.582433 
L 159.318125 294.582433 
z
" clip-path="url(#p3857eec763)" style="fill: #696969"/>
   </g>
   <g id="patch_94">
    <path d="M 160.267963 307.584 
L 161.027833 307.584 
L 161.027833 307.034869 
L 160.267963 307.034869 
z
" clip-path="url(#p3857eec763)" style="fill: #696969"/>
   </g>
   <g id="patch_95">
    <path d="M 161.217801 307.584 
L 161.977671 307.584 
L 161.977671 307.030634 
L 161.217801 307.030634 
z
" clip-path="url(#p3857eec763)" style="fill: #696969"/>
   </g>
   <g id="patch_96">
    <path d="M 162.167639 307.584 
L 162.927509 307.584 
L 162.927509 302.824572 
L 162.167639 302.824572 
z
" clip-path="url(#p3857eec763)" style="fill: #696969"/>
   </g>
   <g id="patch_97">
    <path d="M 163.117476 307.584 
L 163.877347 307.584 
L 163.877347 304.634322 
L 163.117476 304.634322 
z
" clip-path="url(#p3857eec763)" style="fill: #696969"/>
   </g>
   <g id="patch_98">
    <path d="M 164.067314 307.584 
L 164.827184 307.584 
L 164.827184 295.900083 
L 164.067314 295.900083 
z
" clip-path="url(#p3857eec763)" style="fill: #696969"/>
   </g>
   <g id="patch_99">
    <path d="M 165.017152 307.584 
L 165.777022 307.584 
L 165.777022 304.627779 
L 165.017152 304.627779 
z
" clip-path="url(#p3857eec763)" style="fill: #696969"/>
   </g>
   <g id="patch_100">
    <path d="M 165.96699 307.584 
L 166.72686 307.584 
L 166.72686 169.424502 
L 165.96699 169.424502 
z
" clip-path="url(#p3857eec763)" style="fill: #696969"/>
   </g>
   <g id="patch_101">
    <path d="M 166.916827 307.584 
L 167.676698 307.584 
L 167.676698 306.743399 
L 166.916827 306.743399 
z
" clip-path="url(#p3857eec763)" style="fill: #696969"/>
   </g>
   <g id="patch_102">
    <path d="M 167.866665 307.584 
L 168.626535 307.584 
L 168.626535 261.425683 
L 167.866665 261.425683 
z
" clip-path="url(#p3857eec763)" style="fill: #696969"/>
   </g>
   <g id="patch_103">
    <path d="M 168.816503 307.584 
L 169.576373 307.584 
L 169.576373 307.052139 
L 168.816503 307.052139 
z
" clip-path="url(#p3857eec763)" style="fill: #696969"/>
   </g>
   <g id="patch_104">
    <path d="M 169.766341 307.584 
L 170.526211 307.584 
L 170.526211 258.548468 
L 169.766341 258.548468 
z
" clip-path="url(#p3857eec763)" style="fill: #696969"/>
   </g>
   <g id="patch_105">
    <path d="M 170.716179 307.584 
L 171.476049 307.584 
L 171.476049 300.404271 
L 170.716179 300.404271 
z
" clip-path="url(#p3857eec763)" style="fill: #696969"/>
   </g>
   <g id="patch_106">
    <path d="M 171.666016 307.584 
L 172.425886 307.584 
L 172.425886 306.377031 
L 171.666016 306.377031 
z
" clip-path="url(#p3857eec763)" style="fill: #696969"/>
   </g>
   <g id="patch_107">
    <path d="M 172.615854 307.584 
L 173.375724 307.584 
L 173.375724 300.421787 
L 172.615854 300.421787 
z
" clip-path="url(#p3857eec763)" style="fill: #696969"/>
   </g>
   <g id="patch_108">
    <path d="M 173.565692 307.584 
L 174.325562 307.584 
L 174.325562 301.558856 
L 173.565692 301.558856 
z
" clip-path="url(#p3857eec763)" style="fill: #696969"/>
   </g>
   <g id="patch_109">
    <path d="M 174.51553 307.584 
L 175.2754 307.584 
L 175.2754 304.858953 
L 174.51553 304.858953 
z
" clip-path="url(#p3857eec763)" style="fill: #696969"/>
   </g>
   <g id="patch_110">
    <path d="M 175.465367 307.584 
L 176.225238 307.584 
L 176.225238 306.561058 
L 175.465367 306.561058 
z
" clip-path="url(#p3857eec763)" style="fill: #696969"/>
   </g>
   <g id="patch_111">
    <path d="M 176.415205 307.584 
L 177.175075 307.584 
L 177.175075 307.008165 
L 176.415205 307.008165 
z
" clip-path="url(#p3857eec763)" style="fill: #696969"/>
   </g>
   <g id="patch_112">
    <path d="M 177.365043 307.584 
L 178.124913 307.584 
L 178.124913 306.453874 
L 177.365043 306.453874 
z
" clip-path="url(#p3857eec763)" style="fill: #696969"/>
   </g>
   <g id="patch_113">
    <path d="M 178.314881 307.584 
L 179.074751 307.584 
L 179.074751 302.990237 
L 178.314881 302.990237 
z
" clip-path="url(#p3857eec763)" style="fill: #696969"/>
   </g>
   <g id="patch_114">
    <path d="M 179.264718 307.584 
L 180.024589 307.584 
L 180.024589 307.584 
L 179.264718 307.584 
z
" clip-path="url(#p3857eec763)" style="fill: #696969"/>
   </g>
   <g id="patch_115">
    <path d="M 180.214556 307.584 
L 180.974426 307.584 
L 180.974426 303.584476 
L 180.214556 303.584476 
z
" clip-path="url(#p3857eec763)" style="fill: #696969"/>
   </g>
   <g id="patch_116">
    <path d="M 181.164394 307.584 
L 181.924264 307.584 
L 181.924264 266.966468 
L 181.164394 266.966468 
z
" clip-path="url(#p3857eec763)" style="fill: #696969"/>
   </g>
   <g id="patch_117">
    <path d="M 182.114232 307.584 
L 182.874102 307.584 
L 182.874102 290.999544 
L 182.114232 290.999544 
z
" clip-path="url(#p3857eec763)" style="fill: #696969"/>
   </g>
   <g id="patch_118">
    <path d="M 183.064069 307.584 
L 183.82394 307.584 
L 183.82394 307.186597 
L 183.064069 307.186597 
z
" clip-path="url(#p3857eec763)" style="fill: #696969"/>
   </g>
   <g id="patch_119">
    <path d="M 184.013907 307.584 
L 184.773777 307.584 
L 184.773777 302.731359 
L 184.013907 302.731359 
z
" clip-path="url(#p3857eec763)" style="fill: #696969"/>
   </g>
   <g id="patch_120">
    <path d="M 184.963745 307.584 
L 185.723615 307.584 
L 185.723615 291.55548 
L 184.963745 291.55548 
z
" clip-path="url(#p3857eec763)" style="fill: #696969"/>
   </g>
   <g id="patch_121">
    <path d="M 185.913583 307.584 
L 186.673453 307.584 
L 186.673453 294.459423 
L 185.913583 294.459423 
z
" clip-path="url(#p3857eec763)" style="fill: #696969"/>
   </g>
   <g id="patch_122">
    <path d="M 186.86342 307.584 
L 187.623291 307.584 
L 187.623291 279.396997 
L 186.86342 279.396997 
z
" clip-path="url(#p3857eec763)" style="fill: #696969"/>
   </g>
   <g id="patch_123">
    <path d="M 187.813258 307.584 
L 188.573128 307.584 
L 188.573128 285.694173 
L 187.813258 285.694173 
z
" clip-path="url(#p3857eec763)" style="fill: #696969"/>
   </g>
   <g id="patch_124">
    <path d="M 188.763096 307.584 
L 189.522966 307.584 
L 189.522966 297.542513 
L 188.763096 297.542513 
z
" clip-path="url(#p3857eec763)" style="fill: #696969"/>
   </g>
   <g id="patch_125">
    <path d="M 189.712934 307.584 
L 190.472804 307.584 
L 190.472804 298.274471 
L 189.712934 298.274471 
z
" clip-path="url(#p3857eec763)" style="fill: #696969"/>
   </g>
   <g id="patch_126">
    <path d="M 190.662771 307.584 
L 191.422642 307.584 
L 191.422642 285.537354 
L 190.662771 285.537354 
z
" clip-path="url(#p3857eec763)" style="fill: #696969"/>
   </g>
   <g id="patch_127">
    <path d="M 191.612609 307.584 
L 192.372479 307.584 
L 192.372479 306.564997 
L 191.612609 306.564997 
z
" clip-path="url(#p3857eec763)" style="fill: #696969"/>
   </g>
   <g id="patch_128">
    <path d="M 192.562447 307.584 
L 193.322317 307.584 
L 193.322317 304.247275 
L 192.562447 304.247275 
z
" clip-path="url(#p3857eec763)" style="fill: #696969"/>
   </g>
   <g id="patch_129">
    <path d="M 193.512285 307.584 
L 194.272155 307.584 
L 194.272155 307.584 
L 193.512285 307.584 
z
" clip-path="url(#p3857eec763)" style="fill: #696969"/>
   </g>
   <g id="patch_130">
    <path d="M 194.462122 307.584 
L 195.221993 307.584 
L 195.221993 307.584 
L 194.462122 307.584 
z
" clip-path="url(#p3857eec763)" style="fill: #696969"/>
   </g>
   <g id="patch_131">
    <path d="M 195.41196 307.584 
L 196.17183 307.584 
L 196.17183 299.058437 
L 195.41196 299.058437 
z
" clip-path="url(#p3857eec763)" style="fill: #696969"/>
   </g>
   <g id="patch_132">
    <path d="M 196.361798 307.584 
L 197.121668 307.584 
L 197.121668 123.361793 
L 196.361798 123.361793 
z
" clip-path="url(#p3857eec763)" style="fill: #696969"/>
   </g>
   <g id="patch_133">
    <path d="M 197.311636 307.584 
L 198.071506 307.584 
L 198.071506 261.191343 
L 197.311636 261.191343 
z
" clip-path="url(#p3857eec763)" style="fill: #696969"/>
   </g>
   <g id="patch_134">
    <path d="M 198.261473 307.584 
L 199.021344 307.584 
L 199.021344 305.535549 
L 198.261473 305.535549 
z
" clip-path="url(#p3857eec763)" style="fill: #696969"/>
   </g>
   <g id="patch_135">
    <path d="M 199.211311 307.584 
L 199.971181 307.584 
L 199.971181 279.658741 
L 199.211311 279.658741 
z
" clip-path="url(#p3857eec763)" style="fill: #696969"/>
   </g>
   <g id="patch_136">
    <path d="M 200.161149 307.584 
L 200.921019 307.584 
L 200.921019 300.738902 
L 200.161149 300.738902 
z
" clip-path="url(#p3857eec763)" style="fill: #696969"/>
   </g>
   <g id="patch_137">
    <path d="M 201.110987 307.584 
L 201.870857 307.584 
L 201.870857 306.531174 
L 201.110987 306.531174 
z
" clip-path="url(#p3857eec763)" style="fill: #696969"/>
   </g>
   <g id="patch_138">
    <path d="M 202.060825 307.584 
L 202.820695 307.584 
L 202.820695 307.584 
L 202.060825 307.584 
z
" clip-path="url(#p3857eec763)" style="fill: #696969"/>
   </g>
   <g id="patch_139">
    <path d="M 203.010662 307.584 
L 203.770532 307.584 
L 203.770532 307.551615 
L 203.010662 307.551615 
z
" clip-path="url(#p3857eec763)" style="fill: #696969"/>
   </g>
   <g id="patch_140">
    <path d="M 203.9605 307.584 
L 204.72037 307.584 
L 204.72037 306.180074 
L 203.9605 306.180074 
z
" clip-path="url(#p3857eec763)" style="fill: #696969"/>
   </g>
   <g id="patch_141">
    <path d="M 204.910338 307.584 
L 205.670208 307.584 
L 205.670208 267.81332 
L 204.910338 267.81332 
z
" clip-path="url(#p3857eec763)" style="fill: #696969"/>
   </g>
   <g id="patch_142">
    <path d="M 205.860176 307.584 
L 206.620046 307.584 
L 206.620046 304.556342 
L 205.860176 304.556342 
z
" clip-path="url(#p3857eec763)" style="fill: #696969"/>
   </g>
   <g id="patch_143">
    <path d="M 206.810013 307.584 
L 207.569884 307.584 
L 207.569884 307.200618 
L 206.810013 307.200618 
z
" clip-path="url(#p3857eec763)" style="fill: #696969"/>
   </g>
   <g id="patch_144">
    <path d="M 207.759851 307.584 
L 208.519721 307.584 
L 208.519721 266.11605 
L 207.759851 266.11605 
z
" clip-path="url(#p3857eec763)" style="fill: #696969"/>
   </g>
   <g id="patch_145">
    <path d="M 208.709689 307.584 
L 209.469559 307.584 
L 209.469559 296.487587 
L 208.709689 296.487587 
z
" clip-path="url(#p3857eec763)" style="fill: #696969"/>
   </g>
   <g id="patch_146">
    <path d="M 209.659527 307.584 
L 210.419397 307.584 
L 210.419397 300.361217 
L 209.659527 300.361217 
z
" clip-path="url(#p3857eec763)" style="fill: #696969"/>
   </g>
   <g id="patch_147">
    <path d="M 210.609364 307.584 
L 211.369235 307.584 
L 211.369235 303.89432 
L 210.609364 303.89432 
z
" clip-path="url(#p3857eec763)" style="fill: #696969"/>
   </g>
   <g id="patch_148">
    <path d="M 211.559202 307.584 
L 212.319072 307.584 
L 212.319072 307.505261 
L 211.559202 307.505261 
z
" clip-path="url(#p3857eec763)" style="fill: #696969"/>
   </g>
   <g id="patch_149">
    <path d="M 212.50904 307.584 
L 213.26891 307.584 
L 213.26891 293.562178 
L 212.50904 293.562178 
z
" clip-path="url(#p3857eec763)" style="fill: #696969"/>
   </g>
   <g id="patch_150">
    <path d="M 213.458878 307.584 
L 214.218748 307.584 
L 214.218748 294.126948 
L 213.458878 294.126948 
z
" clip-path="url(#p3857eec763)" style="fill: #696969"/>
   </g>
   <g id="patch_151">
    <path d="M 214.408715 307.584 
L 215.168586 307.584 
L 215.168586 306.522071 
L 214.408715 306.522071 
z
" clip-path="url(#p3857eec763)" style="fill: #696969"/>
   </g>
   <g id="patch_152">
    <path d="M 215.358553 307.584 
L 216.118423 307.584 
L 216.118423 283.896707 
L 215.358553 283.896707 
z
" clip-path="url(#p3857eec763)" style="fill: #696969"/>
   </g>
   <g id="patch_153">
    <path d="M 216.308391 307.584 
L 217.068261 307.584 
L 217.068261 304.963268 
L 216.308391 304.963268 
z
" clip-path="url(#p3857eec763)" style="fill: #696969"/>
   </g>
   <g id="patch_154">
    <path d="M 217.258229 307.584 
L 218.018099 307.584 
L 218.018099 307.582368 
L 217.258229 307.582368 
z
" clip-path="url(#p3857eec763)" style="fill: #696969"/>
   </g>
   <g id="patch_155">
    <path d="M 218.208066 307.584 
L 218.967937 307.584 
L 218.967937 300.019037 
L 218.208066 300.019037 
z
" clip-path="url(#p3857eec763)" style="fill: #696969"/>
   </g>
   <g id="patch_156">
    <path d="M 219.157904 307.584 
L 219.917774 307.584 
L 219.917774 307.48615 
L 219.157904 307.48615 
z
" clip-path="url(#p3857eec763)" style="fill: #696969"/>
   </g>
   <g id="patch_157">
    <path d="M 220.107742 307.584 
L 220.867612 307.584 
L 220.867612 114.90117 
L 220.107742 114.90117 
z
" clip-path="url(#p3857eec763)" style="fill: #696969"/>
   </g>
   <g id="patch_158">
    <path d="M 221.05758 307.584 
L 221.81745 307.584 
L 221.81745 123.115335 
L 221.05758 123.115335 
z
" clip-path="url(#p3857eec763)" style="fill: #696969"/>
   </g>
   <g id="patch_159">
    <path d="M 222.007417 307.584 
L 222.767288 307.584 
L 222.767288 307.472747 
L 222.007417 307.472747 
z
" clip-path="url(#p3857eec763)" style="fill: #696969"/>
   </g>
   <g id="patch_160">
    <path d="M 222.957255 307.584 
L 223.717125 307.584 
L 223.717125 307.265017 
L 222.957255 307.265017 
z
" clip-path="url(#p3857eec763)" style="fill: #696969"/>
   </g>
   <g id="patch_161">
    <path d="M 223.907093 307.584 
L 224.666963 307.584 
L 224.666963 277.112432 
L 223.907093 277.112432 
z
" clip-path="url(#p3857eec763)" style="fill: #696969"/>
   </g>
   <g id="patch_162">
    <path d="M 224.856931 307.584 
L 225.616801 307.584 
L 225.616801 305.013867 
L 224.856931 305.013867 
z
" clip-path="url(#p3857eec763)" style="fill: #696969"/>
   </g>
   <g id="patch_163">
    <path d="M 225.806768 307.584 
L 226.566639 307.584 
L 226.566639 307.223129 
L 225.806768 307.223129 
z
" clip-path="url(#p3857eec763)" style="fill: #696969"/>
   </g>
   <g id="patch_164">
    <path d="M 226.756606 307.584 
L 227.516476 307.584 
L 227.516476 271.192956 
L 226.756606 271.192956 
z
" clip-path="url(#p3857eec763)" style="fill: #696969"/>
   </g>
   <g id="patch_165">
    <path d="M 227.706444 307.584 
L 228.466314 307.584 
L 228.466314 306.517216 
L 227.706444 306.517216 
z
" clip-path="url(#p3857eec763)" style="fill: #696969"/>
   </g>
   <g id="patch_166">
    <path d="M 228.656282 307.584 
L 229.416152 307.584 
L 229.416152 298.461918 
L 228.656282 298.461918 
z
" clip-path="url(#p3857eec763)" style="fill: #696969"/>
   </g>
   <g id="patch_167">
    <path d="M 229.606119 307.584 
L 230.36599 307.584 
L 230.36599 307.571688 
L 229.606119 307.571688 
z
" clip-path="url(#p3857eec763)" style="fill: #696969"/>
   </g>
   <g id="patch_168">
    <path d="M 230.555957 307.584 
L 231.315827 307.584 
L 231.315827 306.644516 
L 230.555957 306.644516 
z
" clip-path="url(#p3857eec763)" style="fill: #696969"/>
   </g>
   <g id="patch_169">
    <path d="M 231.505795 307.584 
L 232.265665 307.584 
L 232.265665 305.8053 
L 231.505795 305.8053 
z
" clip-path="url(#p3857eec763)" style="fill: #696969"/>
   </g>
   <g id="patch_170">
    <path d="M 232.455633 307.584 
L 233.215503 307.584 
L 233.215503 281.76647 
L 232.455633 281.76647 
z
" clip-path="url(#p3857eec763)" style="fill: #696969"/>
   </g>
   <g id="patch_171">
    <path d="M 233.405471 307.584 
L 234.165341 307.584 
L 234.165341 307.305868 
L 233.405471 307.305868 
z
" clip-path="url(#p3857eec763)" style="fill: #696969"/>
   </g>
   <g id="patch_172">
    <path d="M 234.355308 307.584 
L 235.115178 307.584 
L 235.115178 307.498366 
L 234.355308 307.498366 
z
" clip-path="url(#p3857eec763)" style="fill: #696969"/>
   </g>
   <g id="patch_173">
    <path d="M 235.305146 307.584 
L 236.065016 307.584 
L 236.065016 307.48225 
L 235.305146 307.48225 
z
" clip-path="url(#p3857eec763)" style="fill: #696969"/>
   </g>
   <g id="patch_174">
    <path d="M 236.254984 307.584 
L 237.014854 307.584 
L 237.014854 307.077004 
L 236.254984 307.077004 
z
" clip-path="url(#p3857eec763)" style="fill: #696969"/>
   </g>
   <g id="patch_175">
    <path d="M 237.204822 307.584 
L 237.964692 307.584 
L 237.964692 307.291398 
L 237.204822 307.291398 
z
" clip-path="url(#p3857eec763)" style="fill: #696969"/>
   </g>
   <g id="patch_176">
    <path d="M 238.154659 307.584 
L 238.914529 307.584 
L 238.914529 297.542975 
L 238.154659 297.542975 
z
" clip-path="url(#p3857eec763)" style="fill: #696969"/>
   </g>
   <g id="patch_177">
    <path d="M 239.104497 307.584 
L 239.864367 307.584 
L 239.864367 292.50706 
L 239.104497 292.50706 
z
" clip-path="url(#p3857eec763)" style="fill: #696969"/>
   </g>
   <g id="patch_178">
    <path d="M 240.054335 307.584 
L 240.814205 307.584 
L 240.814205 306.132131 
L 240.054335 306.132131 
z
" clip-path="url(#p3857eec763)" style="fill: #696969"/>
   </g>
   <g id="patch_179">
    <path d="M 241.004173 307.584 
L 241.764043 307.584 
L 241.764043 307.19586 
L 241.004173 307.19586 
z
" clip-path="url(#p3857eec763)" style="fill: #696969"/>
   </g>
   <g id="patch_180">
    <path d="M 241.95401 307.584 
L 242.713881 307.584 
L 242.713881 307.360847 
L 241.95401 307.360847 
z
" clip-path="url(#p3857eec763)" style="fill: #696969"/>
   </g>
   <g id="patch_181">
    <path d="M 242.903848 307.584 
L 243.663718 307.584 
L 243.663718 229.933578 
L 242.903848 229.933578 
z
" clip-path="url(#p3857eec763)" style="fill: #696969"/>
   </g>
   <g id="patch_182">
    <path d="M 243.853686 307.584 
L 244.613556 307.584 
L 244.613556 304.441909 
L 243.853686 304.441909 
z
" clip-path="url(#p3857eec763)" style="fill: #696969"/>
   </g>
   <g id="patch_183">
    <path d="M 244.803524 307.584 
L 245.563394 307.584 
L 245.563394 304.453707 
L 244.803524 304.453707 
z
" clip-path="url(#p3857eec763)" style="fill: #696969"/>
   </g>
   <g id="patch_184">
    <path d="M 245.753361 307.584 
L 246.513232 307.584 
L 246.513232 304.731029 
L 245.753361 304.731029 
z
" clip-path="url(#p3857eec763)" style="fill: #696969"/>
   </g>
   <g id="patch_185">
    <path d="M 246.703199 307.584 
L 247.463069 307.584 
L 247.463069 304.798539 
L 246.703199 304.798539 
z
" clip-path="url(#p3857eec763)" style="fill: #696969"/>
   </g>
   <g id="patch_186">
    <path d="M 247.653037 307.584 
L 248.412907 307.584 
L 248.412907 305.674972 
L 247.653037 305.674972 
z
" clip-path="url(#p3857eec763)" style="fill: #696969"/>
   </g>
   <g id="patch_187">
    <path d="M 248.602875 307.584 
L 249.362745 307.584 
L 249.362745 307.584 
L 248.602875 307.584 
z
" clip-path="url(#p3857eec763)" style="fill: #696969"/>
   </g>
   <g id="patch_188">
    <path d="M 249.552712 307.584 
L 250.312583 307.584 
L 250.312583 293.997195 
L 249.552712 293.997195 
z
" clip-path="url(#p3857eec763)" style="fill: #696969"/>
   </g>
   <g id="patch_189">
    <path d="M 250.50255 307.584 
L 251.26242 307.584 
L 251.26242 306.717043 
L 250.50255 306.717043 
z
" clip-path="url(#p3857eec763)" style="fill: #696969"/>
   </g>
   <g id="patch_190">
    <path d="M 251.452388 307.584 
L 252.212258 307.584 
L 252.212258 306.422529 
L 251.452388 306.422529 
z
" clip-path="url(#p3857eec763)" style="fill: #696969"/>
   </g>
   <g id="patch_191">
    <path d="M 252.402226 307.584 
L 253.162096 307.584 
L 253.162096 303.852305 
L 252.402226 303.852305 
z
" clip-path="url(#p3857eec763)" style="fill: #696969"/>
   </g>
   <g id="patch_192">
    <path d="M 253.352063 307.584 
L 254.111934 307.584 
L 254.111934 307.022719 
L 253.352063 307.022719 
z
" clip-path="url(#p3857eec763)" style="fill: #696969"/>
   </g>
   <g id="patch_193">
    <path d="M 254.301901 307.584 
L 255.061771 307.584 
L 255.061771 307.574471 
L 254.301901 307.574471 
z
" clip-path="url(#p3857eec763)" style="fill: #696969"/>
   </g>
   <g id="patch_194">
    <path d="M 255.251739 307.584 
L 256.011609 307.584 
L 256.011609 256.574543 
L 255.251739 256.574543 
z
" clip-path="url(#p3857eec763)" style="fill: #696969"/>
   </g>
   <g id="patch_195">
    <path d="M 256.201577 307.584 
L 256.961447 307.584 
L 256.961447 297.594737 
L 256.201577 297.594737 
z
" clip-path="url(#p3857eec763)" style="fill: #696969"/>
   </g>
   <g id="patch_196">
    <path d="M 257.151414 307.584 
L 257.911285 307.584 
L 257.911285 303.045805 
L 257.151414 303.045805 
z
" clip-path="url(#p3857eec763)" style="fill: #696969"/>
   </g>
   <g id="patch_197">
    <path d="M 258.101252 307.584 
L 258.861122 307.584 
L 258.861122 278.004075 
L 258.101252 278.004075 
z
" clip-path="url(#p3857eec763)" style="fill: #696969"/>
   </g>
   <g id="patch_198">
    <path d="M 259.05109 307.584 
L 259.81096 307.584 
L 259.81096 304.677372 
L 259.05109 304.677372 
z
" clip-path="url(#p3857eec763)" style="fill: #696969"/>
   </g>
   <g id="patch_199">
    <path d="M 260.000928 307.584 
L 260.760798 307.584 
L 260.760798 304.461646 
L 260.000928 304.461646 
z
" clip-path="url(#p3857eec763)" style="fill: #696969"/>
   </g>
   <g id="patch_200">
    <path d="M 260.950765 307.584 
L 261.710636 307.584 
L 261.710636 306.303484 
L 260.950765 306.303484 
z
" clip-path="url(#p3857eec763)" style="fill: #696969"/>
   </g>
   <g id="patch_201">
    <path d="M 261.900603 307.584 
L 262.660473 307.584 
L 262.660473 263.634637 
L 261.900603 263.634637 
z
" clip-path="url(#p3857eec763)" style="fill: #696969"/>
   </g>
   <g id="patch_202">
    <path d="M 262.850441 307.584 
L 263.610311 307.584 
L 263.610311 267.795306 
L 262.850441 267.795306 
z
" clip-path="url(#p3857eec763)" style="fill: #696969"/>
   </g>
   <g id="patch_203">
    <path d="M 263.800279 307.584 
L 264.560149 307.584 
L 264.560149 221.790981 
L 263.800279 221.790981 
z
" clip-path="url(#p3857eec763)" style="fill: #696969"/>
   </g>
   <g id="patch_204">
    <path d="M 264.750116 307.584 
L 265.509987 307.584 
L 265.509987 304.216372 
L 264.750116 304.216372 
z
" clip-path="url(#p3857eec763)" style="fill: #696969"/>
   </g>
   <g id="patch_205">
    <path d="M 265.699954 307.584 
L 266.459824 307.584 
L 266.459824 304.309906 
L 265.699954 304.309906 
z
" clip-path="url(#p3857eec763)" style="fill: #696969"/>
   </g>
   <g id="patch_206">
    <path d="M 266.649792 307.584 
L 267.409662 307.584 
L 267.409662 298.323955 
L 266.649792 298.323955 
z
" clip-path="url(#p3857eec763)" style="fill: #696969"/>
   </g>
   <g id="patch_207">
    <path d="M 267.59963 307.584 
L 268.3595 307.584 
L 268.3595 307.584 
L 267.59963 307.584 
z
" clip-path="url(#p3857eec763)" style="fill: #696969"/>
   </g>
   <g id="patch_208">
    <path d="M 268.549468 307.584 
L 269.309338 307.584 
L 269.309338 299.591408 
L 268.549468 299.591408 
z
" clip-path="url(#p3857eec763)" style="fill: #696969"/>
   </g>
   <g id="patch_209">
    <path d="M 269.499305 307.584 
L 270.259175 307.584 
L 270.259175 307.457875 
L 269.499305 307.457875 
z
" clip-path="url(#p3857eec763)" style="fill: #696969"/>
   </g>
   <g id="patch_210">
    <path d="M 270.449143 307.584 
L 271.209013 307.584 
L 271.209013 283.264877 
L 270.449143 283.264877 
z
" clip-path="url(#p3857eec763)" style="fill: #696969"/>
   </g>
   <g id="patch_211">
    <path d="M 271.398981 307.584 
L 272.158851 307.584 
L 272.158851 274.364493 
L 271.398981 274.364493 
z
" clip-path="url(#p3857eec763)" style="fill: #696969"/>
   </g>
   <g id="patch_212">
    <path d="M 272.348819 307.584 
L 273.108689 307.584 
L 273.108689 307.584 
L 272.348819 307.584 
z
" clip-path="url(#p3857eec763)" style="fill: #696969"/>
   </g>
   <g id="patch_213">
    <path d="M 273.298656 307.584 
L 274.058527 307.584 
L 274.058527 187.596786 
L 273.298656 187.596786 
z
" clip-path="url(#p3857eec763)" style="fill: #696969"/>
   </g>
   <g id="patch_214">
    <path d="M 274.248494 307.584 
L 275.008364 307.584 
L 275.008364 287.486097 
L 274.248494 287.486097 
z
" clip-path="url(#p3857eec763)" style="fill: #696969"/>
   </g>
   <g id="patch_215">
    <path d="M 275.198332 307.584 
L 275.958202 307.584 
L 275.958202 305.571143 
L 275.198332 305.571143 
z
" clip-path="url(#p3857eec763)" style="fill: #696969"/>
   </g>
   <g id="patch_216">
    <path d="M 276.14817 307.584 
L 276.90804 307.584 
L 276.90804 307.584 
L 276.14817 307.584 
z
" clip-path="url(#p3857eec763)" style="fill: #696969"/>
   </g>
   <g id="patch_217">
    <path d="M 277.098007 307.584 
L 277.857878 307.584 
L 277.857878 307.569778 
L 277.098007 307.569778 
z
" clip-path="url(#p3857eec763)" style="fill: #696969"/>
   </g>
   <g id="patch_218">
    <path d="M 278.047845 307.584 
L 278.807715 307.584 
L 278.807715 239.448404 
L 278.047845 239.448404 
z
" clip-path="url(#p3857eec763)" style="fill: #696969"/>
   </g>
   <g id="patch_219">
    <path d="M 278.997683 307.584 
L 279.757553 307.584 
L 279.757553 304.925491 
L 278.997683 304.925491 
z
" clip-path="url(#p3857eec763)" style="fill: #696969"/>
   </g>
   <g id="patch_220">
    <path d="M 279.947521 307.584 
L 280.707391 307.584 
L 280.707391 307.584 
L 279.947521 307.584 
z
" clip-path="url(#p3857eec763)" style="fill: #696969"/>
   </g>
   <g id="patch_221">
    <path d="M 280.897358 307.584 
L 281.657229 307.584 
L 281.657229 300.663996 
L 280.897358 300.663996 
z
" clip-path="url(#p3857eec763)" style="fill: #696969"/>
   </g>
   <g id="patch_222">
    <path d="M 281.847196 307.584 
L 282.607066 307.584 
L 282.607066 306.922552 
L 281.847196 306.922552 
z
" clip-path="url(#p3857eec763)" style="fill: #696969"/>
   </g>
   <g id="patch_223">
    <path d="M 282.797034 307.584 
L 283.556904 307.584 
L 283.556904 307.584 
L 282.797034 307.584 
z
" clip-path="url(#p3857eec763)" style="fill: #696969"/>
   </g>
   <g id="patch_224">
    <path d="M 283.746872 307.584 
L 284.506742 307.584 
L 284.506742 281.947902 
L 283.746872 281.947902 
z
" clip-path="url(#p3857eec763)" style="fill: #696969"/>
   </g>
   <g id="patch_225">
    <path d="M 284.696709 307.584 
L 285.45658 307.584 
L 285.45658 307.338823 
L 284.696709 307.338823 
z
" clip-path="url(#p3857eec763)" style="fill: #696969"/>
   </g>
   <g id="patch_226">
    <path d="M 285.646547 307.584 
L 286.406417 307.584 
L 286.406417 304.408466 
L 285.646547 304.408466 
z
" clip-path="url(#p3857eec763)" style="fill: #696969"/>
   </g>
   <g id="patch_227">
    <path d="M 286.596385 307.584 
L 287.356255 307.584 
L 287.356255 303.455185 
L 286.596385 303.455185 
z
" clip-path="url(#p3857eec763)" style="fill: #696969"/>
   </g>
   <g id="patch_228">
    <path d="M 287.546223 307.584 
L 288.306093 307.584 
L 288.306093 290.769612 
L 287.546223 290.769612 
z
" clip-path="url(#p3857eec763)" style="fill: #696969"/>
   </g>
   <g id="patch_229">
    <path d="M 288.49606 307.584 
L 289.255931 307.584 
L 289.255931 300.918059 
L 288.49606 300.918059 
z
" clip-path="url(#p3857eec763)" style="fill: #696969"/>
   </g>
   <g id="patch_230">
    <path d="M 289.445898 307.584 
L 290.205768 307.584 
L 290.205768 303.036599 
L 289.445898 303.036599 
z
" clip-path="url(#p3857eec763)" style="fill: #696969"/>
   </g>
   <g id="patch_231">
    <path d="M 290.395736 307.584 
L 291.155606 307.584 
L 291.155606 283.393846 
L 290.395736 283.393846 
z
" clip-path="url(#p3857eec763)" style="fill: #696969"/>
   </g>
   <g id="patch_232">
    <path d="M 291.345574 307.584 
L 292.105444 307.584 
L 292.105444 307.584 
L 291.345574 307.584 
z
" clip-path="url(#p3857eec763)" style="fill: #696969"/>
   </g>
   <g id="patch_233">
    <path d="M 292.295411 307.584 
L 293.055282 307.584 
L 293.055282 307.584 
L 292.295411 307.584 
z
" clip-path="url(#p3857eec763)" style="fill: #696969"/>
   </g>
   <g id="patch_234">
    <path d="M 293.245249 307.584 
L 294.005119 307.584 
L 294.005119 295.601773 
L 293.245249 295.601773 
z
" clip-path="url(#p3857eec763)" style="fill: #696969"/>
   </g>
   <g id="patch_235">
    <path d="M 294.195087 307.584 
L 294.954957 307.584 
L 294.954957 307.584 
L 294.195087 307.584 
z
" clip-path="url(#p3857eec763)" style="fill: #696969"/>
   </g>
   <g id="patch_236">
    <path d="M 295.144925 307.584 
L 295.904795 307.584 
L 295.904795 244.320083 
L 295.144925 244.320083 
z
" clip-path="url(#p3857eec763)" style="fill: #696969"/>
   </g>
   <g id="patch_237">
    <path d="M 296.094762 307.584 
L 296.854633 307.584 
L 296.854633 288.119781 
L 296.094762 288.119781 
z
" clip-path="url(#p3857eec763)" style="fill: #696969"/>
   </g>
   <g id="patch_238">
    <path d="M 297.0446 307.584 
L 297.80447 307.584 
L 297.80447 292.446538 
L 297.0446 292.446538 
z
" clip-path="url(#p3857eec763)" style="fill: #696969"/>
   </g>
   <g id="patch_239">
    <path d="M 297.994438 307.584 
L 298.754308 307.584 
L 298.754308 242.225196 
L 297.994438 242.225196 
z
" clip-path="url(#p3857eec763)" style="fill: #696969"/>
   </g>
   <g id="patch_240">
    <path d="M 298.944276 307.584 
L 299.704146 307.584 
L 299.704146 290.013168 
L 298.944276 290.013168 
z
" clip-path="url(#p3857eec763)" style="fill: #696969"/>
   </g>
   <g id="patch_241">
    <path d="M 299.894114 307.584 
L 300.653984 307.584 
L 300.653984 275.036773 
L 299.894114 275.036773 
z
" clip-path="url(#p3857eec763)" style="fill: #696969"/>
   </g>
   <g id="patch_242">
    <path d="M 300.843951 307.584 
L 301.603821 307.584 
L 301.603821 292.173162 
L 300.843951 292.173162 
z
" clip-path="url(#p3857eec763)" style="fill: #696969"/>
   </g>
   <g id="patch_243">
    <path d="M 301.793789 307.584 
L 302.553659 307.584 
L 302.553659 251.082429 
L 301.793789 251.082429 
z
" clip-path="url(#p3857eec763)" style="fill: #696969"/>
   </g>
   <g id="patch_244">
    <path d="M 302.743627 307.584 
L 303.503497 307.584 
L 303.503497 306.820936 
L 302.743627 306.820936 
z
" clip-path="url(#p3857eec763)" style="fill: #696969"/>
   </g>
   <g id="patch_245">
    <path d="M 303.693465 307.584 
L 304.453335 307.584 
L 304.453335 286.531868 
L 303.693465 286.531868 
z
" clip-path="url(#p3857eec763)" style="fill: #696969"/>
   </g>
   <g id="patch_246">
    <path d="M 304.643302 307.584 
L 305.403173 307.584 
L 305.403173 307.584 
L 304.643302 307.584 
z
" clip-path="url(#p3857eec763)" style="fill: #696969"/>
   </g>
   <g id="patch_247">
    <path d="M 305.59314 307.584 
L 306.35301 307.584 
L 306.35301 291.2094 
L 305.59314 291.2094 
z
" clip-path="url(#p3857eec763)" style="fill: #696969"/>
   </g>
   <g id="patch_248">
    <path d="M 306.542978 307.584 
L 307.302848 307.584 
L 307.302848 293.906596 
L 306.542978 293.906596 
z
" clip-path="url(#p3857eec763)" style="fill: #696969"/>
   </g>
   <g id="patch_249">
    <path d="M 307.492816 307.584 
L 308.252686 307.584 
L 308.252686 113.116272 
L 307.492816 113.116272 
z
" clip-path="url(#p3857eec763)" style="fill: #696969"/>
   </g>
   <g id="patch_250">
    <path d="M 308.442653 307.584 
L 309.202524 307.584 
L 309.202524 301.19963 
L 308.442653 301.19963 
z
" clip-path="url(#p3857eec763)" style="fill: #696969"/>
   </g>
   <g id="patch_251">
    <path d="M 309.392491 307.584 
L 310.152361 307.584 
L 310.152361 307.215907 
L 309.392491 307.215907 
z
" clip-path="url(#p3857eec763)" style="fill: #696969"/>
   </g>
   <g id="patch_252">
    <path d="M 310.342329 307.584 
L 311.102199 307.584 
L 311.102199 295.37 
L 310.342329 295.37 
z
" clip-path="url(#p3857eec763)" style="fill: #696969"/>
   </g>
   <g id="patch_253">
    <path d="M 311.292167 307.584 
L 312.052037 307.584 
L 312.052037 305.333659 
L 311.292167 305.333659 
z
" clip-path="url(#p3857eec763)" style="fill: #696969"/>
   </g>
   <g id="patch_254">
    <path d="M 312.242004 307.584 
L 313.001875 307.584 
L 313.001875 307.584 
L 312.242004 307.584 
z
" clip-path="url(#p3857eec763)" style="fill: #696969"/>
   </g>
   <g id="patch_255">
    <path d="M 313.191842 307.584 
L 313.951712 307.584 
L 313.951712 304.979427 
L 313.191842 304.979427 
z
" clip-path="url(#p3857eec763)" style="fill: #696969"/>
   </g>
   <g id="patch_256">
    <path d="M 314.14168 307.584 
L 314.90155 307.584 
L 314.90155 306.05881 
L 314.14168 306.05881 
z
" clip-path="url(#p3857eec763)" style="fill: #696969"/>
   </g>
   <g id="patch_257">
    <path d="M 315.091518 307.584 
L 315.851388 307.584 
L 315.851388 282.972393 
L 315.091518 282.972393 
z
" clip-path="url(#p3857eec763)" style="fill: #696969"/>
   </g>
   <g id="patch_258">
    <path d="M 316.041355 307.584 
L 316.801226 307.584 
L 316.801226 138.398269 
L 316.041355 138.398269 
z
" clip-path="url(#p3857eec763)" style="fill: #696969"/>
   </g>
   <g id="patch_259">
    <path d="M 316.991193 307.584 
L 317.751063 307.584 
L 317.751063 299.129654 
L 316.991193 299.129654 
z
" clip-path="url(#p3857eec763)" style="fill: #696969"/>
   </g>
   <g id="patch_260">
    <path d="M 317.941031 307.584 
L 318.700901 307.584 
L 318.700901 274.103592 
L 317.941031 274.103592 
z
" clip-path="url(#p3857eec763)" style="fill: #696969"/>
   </g>
   <g id="patch_261">
    <path d="M 318.890869 307.584 
L 319.650739 307.584 
L 319.650739 295.045635 
L 318.890869 295.045635 
z
" clip-path="url(#p3857eec763)" style="fill: #696969"/>
   </g>
   <g id="patch_262">
    <path d="M 319.840706 307.584 
L 320.600577 307.584 
L 320.600577 307.124711 
L 319.840706 307.124711 
z
" clip-path="url(#p3857eec763)" style="fill: #696969"/>
   </g>
   <g id="patch_263">
    <path d="M 320.790544 307.584 
L 321.550414 307.584 
L 321.550414 306.767557 
L 320.790544 306.767557 
z
" clip-path="url(#p3857eec763)" style="fill: #696969"/>
   </g>
   <g id="patch_264">
    <path d="M 321.740382 307.584 
L 322.500252 307.584 
L 322.500252 293.331395 
L 321.740382 293.331395 
z
" clip-path="url(#p3857eec763)" style="fill: #696969"/>
   </g>
   <g id="patch_265">
    <path d="M 322.69022 307.584 
L 323.45009 307.584 
L 323.45009 300.927697 
L 322.69022 300.927697 
z
" clip-path="url(#p3857eec763)" style="fill: #696969"/>
   </g>
   <g id="patch_266">
    <path d="M 323.640057 307.584 
L 324.399928 307.584 
L 324.399928 296.76927 
L 323.640057 296.76927 
z
" clip-path="url(#p3857eec763)" style="fill: #696969"/>
   </g>
   <g id="patch_267">
    <path d="M 324.589895 307.584 
L 325.349765 307.584 
L 325.349765 307.096245 
L 324.589895 307.096245 
z
" clip-path="url(#p3857eec763)" style="fill: #696969"/>
   </g>
   <g id="patch_268">
    <path d="M 325.539733 307.584 
L 326.299603 307.584 
L 326.299603 242.117182 
L 325.539733 242.117182 
z
" clip-path="url(#p3857eec763)" style="fill: #696969"/>
   </g>
   <g id="patch_269">
    <path d="M 326.489571 307.584 
L 327.249441 307.584 
L 327.249441 307.496725 
L 326.489571 307.496725 
z
" clip-path="url(#p3857eec763)" style="fill: #696969"/>
   </g>
   <g id="patch_270">
    <path d="M 327.439408 307.584 
L 328.199279 307.584 
L 328.199279 303.567192 
L 327.439408 303.567192 
z
" clip-path="url(#p3857eec763)" style="fill: #696969"/>
   </g>
   <g id="patch_271">
    <path d="M 328.389246 307.584 
L 329.149116 307.584 
L 329.149116 303.37389 
L 328.389246 303.37389 
z
" clip-path="url(#p3857eec763)" style="fill: #696969"/>
   </g>
   <g id="patch_272">
    <path d="M 329.339084 307.584 
L 330.098954 307.584 
L 330.098954 300.911337 
L 329.339084 300.911337 
z
" clip-path="url(#p3857eec763)" style="fill: #696969"/>
   </g>
   <g id="patch_273">
    <path d="M 330.288922 307.584 
L 331.048792 307.584 
L 331.048792 304.945309 
L 330.288922 304.945309 
z
" clip-path="url(#p3857eec763)" style="fill: #696969"/>
   </g>
   <g id="patch_274">
    <path d="M 331.23876 307.584 
L 331.99863 307.584 
L 331.99863 303.887177 
L 331.23876 303.887177 
z
" clip-path="url(#p3857eec763)" style="fill: #696969"/>
   </g>
   <g id="patch_275">
    <path d="M 332.188597 307.584 
L 332.948467 307.584 
L 332.948467 296.540116 
L 332.188597 296.540116 
z
" clip-path="url(#p3857eec763)" style="fill: #696969"/>
   </g>
   <g id="patch_276">
    <path d="M 333.138435 307.584 
L 333.898305 307.584 
L 333.898305 156.860154 
L 333.138435 156.860154 
z
" clip-path="url(#p3857eec763)" style="fill: #696969"/>
   </g>
   <g id="patch_277">
    <path d="M 334.088273 307.584 
L 334.848143 307.584 
L 334.848143 307.584 
L 334.088273 307.584 
z
" clip-path="url(#p3857eec763)" style="fill: #696969"/>
   </g>
   <g id="patch_278">
    <path d="M 335.038111 307.584 
L 335.797981 307.584 
L 335.797981 306.288527 
L 335.038111 306.288527 
z
" clip-path="url(#p3857eec763)" style="fill: #696969"/>
   </g>
   <g id="patch_279">
    <path d="M 335.987948 307.584 
L 336.747819 307.584 
L 336.747819 210.455203 
L 335.987948 210.455203 
z
" clip-path="url(#p3857eec763)" style="fill: #696969"/>
   </g>
   <g id="patch_280">
    <path d="M 336.937786 307.584 
L 337.697656 307.584 
L 337.697656 296.371362 
L 336.937786 296.371362 
z
" clip-path="url(#p3857eec763)" style="fill: #696969"/>
   </g>
   <g id="patch_281">
    <path d="M 337.887624 307.584 
L 338.647494 307.584 
L 338.647494 307.584 
L 337.887624 307.584 
z
" clip-path="url(#p3857eec763)" style="fill: #696969"/>
   </g>
   <g id="patch_282">
    <path d="M 338.837462 307.584 
L 339.597332 307.584 
L 339.597332 220.773687 
L 338.837462 220.773687 
z
" clip-path="url(#p3857eec763)" style="fill: #696969"/>
   </g>
   <g id="patch_283">
    <path d="M 339.787299 307.584 
L 340.54717 307.584 
L 340.54717 301.912716 
L 339.787299 301.912716 
z
" clip-path="url(#p3857eec763)" style="fill: #696969"/>
   </g>
   <g id="patch_284">
    <path d="M 340.737137 307.584 
L 341.497007 307.584 
L 341.497007 294.040371 
L 340.737137 294.040371 
z
" clip-path="url(#p3857eec763)" style="fill: #696969"/>
   </g>
   <g id="patch_285">
    <path d="M 341.686975 307.584 
L 342.446845 307.584 
L 342.446845 285.666737 
L 341.686975 285.666737 
z
" clip-path="url(#p3857eec763)" style="fill: #696969"/>
   </g>
   <g id="patch_286">
    <path d="M 342.636813 307.584 
L 343.396683 307.584 
L 343.396683 63.185791 
L 342.636813 63.185791 
z
" clip-path="url(#p3857eec763)" style="fill: #696969"/>
   </g>
   <g id="patch_287">
    <path d="M 343.58665 307.584 
L 344.346521 307.584 
L 344.346521 307.584 
L 343.58665 307.584 
z
" clip-path="url(#p3857eec763)" style="fill: #696969"/>
   </g>
   <g id="patch_288">
    <path d="M 344.536488 307.584 
L 345.296358 307.584 
L 345.296358 294.062718 
L 344.536488 294.062718 
z
" clip-path="url(#p3857eec763)" style="fill: #696969"/>
   </g>
   <g id="patch_289">
    <path d="M 345.486326 307.584 
L 346.246196 307.584 
L 346.246196 307.584 
L 345.486326 307.584 
z
" clip-path="url(#p3857eec763)" style="fill: #696969"/>
   </g>
   <g id="patch_290">
    <path d="M 346.436164 307.584 
L 347.196034 307.584 
L 347.196034 276.110843 
L 346.436164 276.110843 
z
" clip-path="url(#p3857eec763)" style="fill: #696969"/>
   </g>
   <g id="patch_291">
    <path d="M 347.386001 307.584 
L 348.145872 307.584 
L 348.145872 299.325492 
L 347.386001 299.325492 
z
" clip-path="url(#p3857eec763)" style="fill: #696969"/>
   </g>
   <g id="patch_292">
    <path d="M 348.335839 307.584 
L 349.095709 307.584 
L 349.095709 207.23903 
L 348.335839 207.23903 
z
" clip-path="url(#p3857eec763)" style="fill: #696969"/>
   </g>
   <g id="patch_293">
    <path d="M 349.285677 307.584 
L 350.045547 307.584 
L 350.045547 307.409843 
L 349.285677 307.409843 
z
" clip-path="url(#p3857eec763)" style="fill: #696969"/>
   </g>
   <g id="patch_294">
    <path d="M 350.235515 307.584 
L 350.995385 307.584 
L 350.995385 246.262201 
L 350.235515 246.262201 
z
" clip-path="url(#p3857eec763)" style="fill: #696969"/>
   </g>
   <g id="patch_295">
    <path d="M 351.185352 307.584 
L 351.945223 307.584 
L 351.945223 288.949907 
L 351.185352 288.949907 
z
" clip-path="url(#p3857eec763)" style="fill: #696969"/>
   </g>
   <g id="patch_296">
    <path d="M 352.13519 307.584 
L 352.89506 307.584 
L 352.89506 307.584 
L 352.13519 307.584 
z
" clip-path="url(#p3857eec763)" style="fill: #696969"/>
   </g>
   <g id="patch_297">
    <path d="M 353.085028 307.584 
L 353.844898 307.584 
L 353.844898 148.020852 
L 353.085028 148.020852 
z
" clip-path="url(#p3857eec763)" style="fill: #696969"/>
   </g>
   <g id="patch_298">
    <path d="M 354.034866 307.584 
L 354.794736 307.584 
L 354.794736 295.235297 
L 354.034866 295.235297 
z
" clip-path="url(#p3857eec763)" style="fill: #696969"/>
   </g>
   <g id="patch_299">
    <path d="M 354.984703 307.584 
L 355.744574 307.584 
L 355.744574 294.841872 
L 354.984703 294.841872 
z
" clip-path="url(#p3857eec763)" style="fill: #696969"/>
   </g>
   <g id="patch_300">
    <path d="M 355.934541 307.584 
L 356.694411 307.584 
L 356.694411 258.259243 
L 355.934541 258.259243 
z
" clip-path="url(#p3857eec763)" style="fill: #696969"/>
   </g>
   <g id="patch_301">
    <path d="M 356.884379 307.584 
L 357.644249 307.584 
L 357.644249 298.349884 
L 356.884379 298.349884 
z
" clip-path="url(#p3857eec763)" style="fill: #696969"/>
   </g>
   <g id="patch_302">
    <path d="M 357.834217 307.584 
L 358.594087 307.584 
L 358.594087 307.524495 
L 357.834217 307.524495 
z
" clip-path="url(#p3857eec763)" style="fill: #696969"/>
   </g>
   <g id="patch_303">
    <path d="M 358.784054 307.584 
L 359.543925 307.584 
L 359.543925 302.878894 
L 358.784054 302.878894 
z
" clip-path="url(#p3857eec763)" style="fill: #696969"/>
   </g>
   <g id="patch_304">
    <path d="M 359.733892 307.584 
L 360.493762 307.584 
L 360.493762 295.813627 
L 359.733892 295.813627 
z
" clip-path="url(#p3857eec763)" style="fill: #696969"/>
   </g>
   <g id="patch_305">
    <path d="M 360.68373 307.584 
L 361.4436 307.584 
L 361.4436 259.627905 
L 360.68373 259.627905 
z
" clip-path="url(#p3857eec763)" style="fill: #696969"/>
   </g>
   <g id="patch_306">
    <path d="M 361.633568 307.584 
L 362.393438 307.584 
L 362.393438 253.473135 
L 361.633568 253.473135 
z
" clip-path="url(#p3857eec763)" style="fill: #696969"/>
   </g>
   <g id="patch_307">
    <path d="M 362.583406 307.584 
L 363.343276 307.584 
L 363.343276 267.895331 
L 362.583406 267.895331 
z
" clip-path="url(#p3857eec763)" style="fill: #696969"/>
   </g>
   <g id="patch_308">
    <path d="M 363.533243 307.584 
L 364.293113 307.584 
L 364.293113 180.207732 
L 363.533243 180.207732 
z
" clip-path="url(#p3857eec763)" style="fill: #696969"/>
   </g>
   <g id="patch_309">
    <path d="M 364.483081 307.584 
L 365.242951 307.584 
L 365.242951 287.130366 
L 364.483081 287.130366 
z
" clip-path="url(#p3857eec763)" style="fill: #696969"/>
   </g>
   <g id="patch_310">
    <path d="M 365.432919 307.584 
L 366.192789 307.584 
L 366.192789 307.584 
L 365.432919 307.584 
z
" clip-path="url(#p3857eec763)" style="fill: #696969"/>
   </g>
   <g id="patch_311">
    <path d="M 366.382757 307.584 
L 367.142627 307.584 
L 367.142627 302.603571 
L 366.382757 302.603571 
z
" clip-path="url(#p3857eec763)" style="fill: #696969"/>
   </g>
   <g id="patch_312">
    <path d="M 367.332594 307.584 
L 368.092464 307.584 
L 368.092464 307.584 
L 367.332594 307.584 
z
" clip-path="url(#p3857eec763)" style="fill: #696969"/>
   </g>
   <g id="patch_313">
    <path d="M 368.282432 307.584 
L 369.042302 307.584 
L 369.042302 307.584 
L 368.282432 307.584 
z
" clip-path="url(#p3857eec763)" style="fill: #696969"/>
   </g>
   <g id="patch_314">
    <path d="M 369.23227 307.584 
L 369.99214 307.584 
L 369.99214 307.584 
L 369.23227 307.584 
z
" clip-path="url(#p3857eec763)" style="fill: #696969"/>
   </g>
   <g id="patch_315">
    <path d="M 370.182108 307.584 
L 370.941978 307.584 
L 370.941978 278.519506 
L 370.182108 278.519506 
z
" clip-path="url(#p3857eec763)" style="fill: #696969"/>
   </g>
   <g id="patch_316">
    <path d="M 371.131945 307.584 
L 371.891816 307.584 
L 371.891816 254.113399 
L 371.131945 254.113399 
z
" clip-path="url(#p3857eec763)" style="fill: #696969"/>
   </g>
   <g id="patch_317">
    <path d="M 372.081783 307.584 
L 372.841653 307.584 
L 372.841653 307.584 
L 372.081783 307.584 
z
" clip-path="url(#p3857eec763)" style="fill: #696969"/>
   </g>
   <g id="patch_318">
    <path d="M 373.031621 307.584 
L 373.791491 307.584 
L 373.791491 305.720397 
L 373.031621 305.720397 
z
" clip-path="url(#p3857eec763)" style="fill: #696969"/>
   </g>
   <g id="patch_319">
    <path d="M 373.981459 307.584 
L 374.741329 307.584 
L 374.741329 264.165647 
L 373.981459 264.165647 
z
" clip-path="url(#p3857eec763)" style="fill: #696969"/>
   </g>
   <g id="patch_320">
    <path d="M 374.931296 307.584 
L 375.691167 307.584 
L 375.691167 295.396641 
L 374.931296 295.396641 
z
" clip-path="url(#p3857eec763)" style="fill: #696969"/>
   </g>
   <g id="patch_321">
    <path d="M 375.881134 307.584 
L 376.641004 307.584 
L 376.641004 307.584 
L 375.881134 307.584 
z
" clip-path="url(#p3857eec763)" style="fill: #696969"/>
   </g>
   <g id="patch_322">
    <path d="M 376.830972 307.584 
L 377.590842 307.584 
L 377.590842 305.051109 
L 376.830972 305.051109 
z
" clip-path="url(#p3857eec763)" style="fill: #696969"/>
   </g>
   <g id="patch_323">
    <path d="M 377.78081 307.584 
L 378.54068 307.584 
L 378.54068 307.128862 
L 377.78081 307.128862 
z
" clip-path="url(#p3857eec763)" style="fill: #696969"/>
   </g>
   <g id="patch_324">
    <path d="M 378.730647 307.584 
L 379.490518 307.584 
L 379.490518 307.316349 
L 378.730647 307.316349 
z
" clip-path="url(#p3857eec763)" style="fill: #696969"/>
   </g>
   <g id="patch_325">
    <path d="M 379.680485 307.584 
L 380.440355 307.584 
L 380.440355 303.113474 
L 379.680485 303.113474 
z
" clip-path="url(#p3857eec763)" style="fill: #696969"/>
   </g>
   <g id="patch_326">
    <path d="M 380.630323 307.584 
L 381.390193 307.584 
L 381.390193 302.433148 
L 380.630323 302.433148 
z
" clip-path="url(#p3857eec763)" style="fill: #696969"/>
   </g>
   <g id="patch_327">
    <path d="M 381.580161 307.584 
L 382.340031 307.584 
L 382.340031 200.825074 
L 381.580161 200.825074 
z
" clip-path="url(#p3857eec763)" style="fill: #696969"/>
   </g>
   <g id="patch_328">
    <path d="M 382.529998 307.584 
L 383.289869 307.584 
L 383.289869 307.584 
L 382.529998 307.584 
z
" clip-path="url(#p3857eec763)" style="fill: #696969"/>
   </g>
   <g id="patch_329">
    <path d="M 383.479836 307.584 
L 384.239706 307.584 
L 384.239706 307.584 
L 383.479836 307.584 
z
" clip-path="url(#p3857eec763)" style="fill: #696969"/>
   </g>
   <g id="patch_330">
    <path d="M 384.429674 307.584 
L 385.189544 307.584 
L 385.189544 304.114536 
L 384.429674 304.114536 
z
" clip-path="url(#p3857eec763)" style="fill: #696969"/>
   </g>
   <g id="patch_331">
    <path d="M 385.379512 307.584 
L 386.139382 307.584 
L 386.139382 244.143868 
L 385.379512 244.143868 
z
" clip-path="url(#p3857eec763)" style="fill: #696969"/>
   </g>
   <g id="patch_332">
    <path d="M 386.329349 307.584 
L 387.08922 307.584 
L 387.08922 302.332462 
L 386.329349 302.332462 
z
" clip-path="url(#p3857eec763)" style="fill: #696969"/>
   </g>
   <g id="patch_333">
    <path d="M 387.279187 307.584 
L 388.039057 307.584 
L 388.039057 306.125448 
L 387.279187 306.125448 
z
" clip-path="url(#p3857eec763)" style="fill: #696969"/>
   </g>
   <g id="patch_334">
    <path d="M 388.229025 307.584 
L 388.988895 307.584 
L 388.988895 307.584 
L 388.229025 307.584 
z
" clip-path="url(#p3857eec763)" style="fill: #696969"/>
   </g>
   <g id="patch_335">
    <path d="M 389.178863 307.584 
L 389.938733 307.584 
L 389.938733 294.44714 
L 389.178863 294.44714 
z
" clip-path="url(#p3857eec763)" style="fill: #696969"/>
   </g>
   <g id="patch_336">
    <path d="M 390.1287 307.584 
L 390.888571 307.584 
L 390.888571 304.624959 
L 390.1287 304.624959 
z
" clip-path="url(#p3857eec763)" style="fill: #696969"/>
   </g>
   <g id="patch_337">
    <path d="M 391.078538 307.584 
L 391.838408 307.584 
L 391.838408 307.584 
L 391.078538 307.584 
z
" clip-path="url(#p3857eec763)" style="fill: #696969"/>
   </g>
   <g id="patch_338">
    <path d="M 392.028376 307.584 
L 392.788246 307.584 
L 392.788246 307.584 
L 392.028376 307.584 
z
" clip-path="url(#p3857eec763)" style="fill: #696969"/>
   </g>
   <g id="patch_339">
    <path d="M 392.978214 307.584 
L 393.738084 307.584 
L 393.738084 301.732777 
L 392.978214 301.732777 
z
" clip-path="url(#p3857eec763)" style="fill: #696969"/>
   </g>
   <g id="patch_340">
    <path d="M 393.928051 307.584 
L 394.687922 307.584 
L 394.687922 302.297713 
L 393.928051 302.297713 
z
" clip-path="url(#p3857eec763)" style="fill: #696969"/>
   </g>
   <g id="patch_341">
    <path d="M 394.877889 307.584 
L 395.637759 307.584 
L 395.637759 300.262682 
L 394.877889 300.262682 
z
" clip-path="url(#p3857eec763)" style="fill: #696969"/>
   </g>
   <g id="patch_342">
    <path d="M 395.827727 307.584 
L 396.587597 307.584 
L 396.587597 273.493433 
L 395.827727 273.493433 
z
" clip-path="url(#p3857eec763)" style="fill: #696969"/>
   </g>
   <g id="patch_343">
    <path d="M 396.777565 307.584 
L 397.537435 307.584 
L 397.537435 288.530087 
L 396.777565 288.530087 
z
" clip-path="url(#p3857eec763)" style="fill: #696969"/>
   </g>
   <g id="patch_344">
    <path d="M 397.727403 307.584 
L 398.487273 307.584 
L 398.487273 299.9392 
L 397.727403 299.9392 
z
" clip-path="url(#p3857eec763)" style="fill: #696969"/>
   </g>
   <g id="matplotlib.axis_1"/>
   <g id="matplotlib.axis_2"/>
   <g id="patch_345">
    <path d="M 57.6 307.584 
L 57.6 41.472 
" style="fill: none; stroke: #000000; stroke-width: 0.8; stroke-linejoin: miter; stroke-linecap: square"/>
   </g>
   <g id="patch_346">
    <path d="M 414.72 307.584 
L 414.72 41.472 
" style="fill: none; stroke: #000000; stroke-width: 0.8; stroke-linejoin: miter; stroke-linecap: square"/>
   </g>
   <g id="patch_347">
    <path d="M 57.6 307.584 
L 414.72 307.584 
" style="fill: none; stroke: #000000; stroke-width: 0.8; stroke-linejoin: miter; stroke-linecap: square"/>
   </g>
   <g id="patch_348">
    <path d="M 57.6 41.472 
L 414.72 41.472 
" style="fill: none; stroke: #000000; stroke-width: 0.8; stroke-linejoin: miter; stroke-linecap: square"/>
   </g>
  </g>
 </g>
 <defs>
  <clipPath id="p3857eec763">
   <rect x="57.6" y="41.472" width="357.12" height="266.112"/>
  </clipPath>
 </defs>
</svg>
